<?xml version="1.0" encoding="utf-8"?>
<!-- Generator: Adobe Illustrator 15.0.0, SVG Export Plug-In . SVG Version: 6.00 Build 0)  -->
<!DOCTYPE svg PUBLIC "-//W3C//DTD SVG 1.1//EN" "http://www.w3.org/Graphics/SVG/1.1/DTD/svg11.dtd">
<svg version="1.1"
	 id="svg7226" xmlns:svg="http://www.w3.org/2000/svg" xmlns:rdf="http://www.w3.org/1999/02/22-rdf-syntax-ns#" xmlns:cc="http://creativecommons.org/ns#" xmlns:dc="http://purl.org/dc/elements/1.1/"
	 xmlns="http://www.w3.org/2000/svg" xmlns:xlink="http://www.w3.org/1999/xlink" x="0px" y="0px" width="100px" height="100px"
	 viewBox="0 0 100 100" enable-background="new 0 0 100 100" xml:space="preserve">
<path id="path3" fill="none" stroke="#FFFFFF" stroke-miterlimit="10" d="M41.172,51.776c-4.441,3.147,3.996,7.208,6.284-0.104
	c-2.953-0.971-7.4-0.229-6.48,3.268c4.712,1.721,9.562-5.528,5.803-8.63c-4.187-3.445-8.871,4.716-7.246,7.862
	c5.478,0.271,18.593-8.695,11.882-14.205c-7.934-6.523-22.287,14.824-16.871,20.865c6.49,7.238,28.789-6.211,24.73-14.503
	c-2.848-5.828-10.814-1.869-9.435,3.588c9.23,3.703,23.688-8.569,13.429-15.214c-6.344-4.104-18.349,2.152-22.54,6.268
	c-3.592,3.538-8.656,10.791-0.032,10.432c5.211-0.222,17.4-7.846,16.544-13.695c-1.023-6.996-10.775-6.229-16.607-3.869
	c-5.407,2.194-19.329,13.228-16.679,20.277c2.621,6.965,15.748,6.27,21.652,4.67c5.563-1.494,15.198-6.492,15.202-13.041
	c0.009-8.643-13.163-10.829-19.909-7.944c-7.161,3.063-20.095,18.754-15.987,26.926c4.585,9.102,22.045,6.08,29.854,3.229
	c7.958-2.899,26.707-13.603,22.821-24.257c-4.002-10.989-18.35-8.417-23.457-0.665c-4.338,6.589-8.396,19.766-1.756,26.403
	c7.105,7.104,21.052,4.025,27.977-1.369c7.602-5.923,12.178-14.656,7.686-23.367c-4.338-8.426-12.977-20.133-22.315-24.179
	c-9.821-4.257-26.409-3.771-36.434-0.31c-14.826,5.126-10.303,28.435-7.367,39.355c4.431,16.468,30.75,31.235,48.66,25.647
	c29.375-9.172,17.558-46.792-5.488-56.014c-9.088-3.636-22.507-4.066-27.363,5.72c-5.216,10.522-2.655,31.188,4.29,40.558
	c11.16,15.059,23.616,12.43,33.333-2.475c7.822-11.992,14.176-25.229,0.184-34.957c-11.369-7.892-31.703-14.994-43.054-3.317
	c-5.646,5.805-9.924,19.387-0.987,24.503c4.889,2.804,20.005,1.088,24.294-2.261c-10.496-3.504-33.013,14.224-35.729,23.121
	c-1.453,4.742,0.333,16.334,5.814,18.236c11.988,4.152,31.352-17.895,38.126-23.871c7.07-6.244,14.312-11.888,12.367-21.793
	c-1.67-8.496-9.51-22.193-17.736-26.776c-8.423-4.697-33.761-3.681-38.051,5.216c-6.529,13.545,0.53,39.732,19.053,38.829
	c4.13-0.194,11.702-0.786,15.065-3.388c8.623-6.672,5.057-23.625,0.198-31.154c-5.164-8-16.481-15.38-26.776-11.453
	c-9.208,3.51-23.759,18.096-26.409,26.995C-2.688,65.729,14.244,75.358,26.56,66.355c7.445-5.443,25.244-29.494,6.334-32.877
	c-7.985-1.431-12.013,4.97-15.612,10.467C8.909,56.736,5.583,71.572,16.025,84.369c18.853,23.107,43.256,4.439,51.829-15.928
	c7.056-16.75,12.767-53.146-8.992-64.174c-6.233-3.16-16.157-3.838-22.991-2.375c-8.823,1.893-13.524,10.063-18.873,16.166
	C11.812,23.98,2.713,32.032,1.39,40.226C0,48.847,9.337,56.291,16.652,59.838c8.973,4.343,20.458,5.018,30.009,2.086
	c3.575-1.102,13.323-4.057,14.565-7.981c-14.925-8.114-35.487,0.183-37.293,16.593c-2.595,23.59,24.755,26.592,43.822,22.209
	c15.793-3.621,28.387-16.726,30.312-31.867c0.889-7.01,2.102-17.067-1.535-23.31c-4.604-7.901-15.504-12.603-24.685-12.986
	c-13.423-0.561-17.983,11.779-8.535,20.142c10.188,9.024,36.979,6.573,32.753-10.876C92.742,20.088,73.16,21.393,61.883,22.973
	c4.406,1.281,18.957-1.466,17.934-7.917c-1.585-9.937-48.595,5.203-52.787,12.743c5.24,0.596,14.744-0.452,16.132-6.419
	c-9.506-6.5-17.445,22.142-15.753,28.548c1.993,0.089,4.012-0.008,6.026,0.04"/>
</svg>
