<?xml version="1.0" encoding="utf-8"?>
<!-- Generator: Adobe Illustrator 15.0.0, SVG Export Plug-In . SVG Version: 6.00 Build 0)  -->
<!DOCTYPE svg PUBLIC "-//W3C//DTD SVG 1.1//EN" "http://www.w3.org/Graphics/SVG/1.1/DTD/svg11.dtd">
<svg version="1.1"
	 id="svg7226" xmlns:svg="http://www.w3.org/2000/svg" xmlns:rdf="http://www.w3.org/1999/02/22-rdf-syntax-ns#" xmlns:cc="http://creativecommons.org/ns#" xmlns:dc="http://purl.org/dc/elements/1.1/"
	 xmlns="http://www.w3.org/2000/svg" xmlns:xlink="http://www.w3.org/1999/xlink" x="0px" y="0px" width="100px" height="100px"
	 viewBox="-40 -36.665 100 100" enable-background="new -40 -36.665 100 100" xml:space="preserve">
<g id="g3" transform="matrix(0.23303505,0,0,0.23303505,-1.6058446,1.7771607)">
	<path id="path5" fill="#FFFFFF" d="M112.679,150.44c17.697-13.93,54.126-51.268,66.773-93.744
		C150.629,21.243,29.363-130.026,1.364-164.963C-1.501-131.807-30.632-62.029-81.175-38.714
		c-23.231,11.333-46.38,18.399-55.18,20.903L36.596,191.634C56.147,185.327,94.743,164.516,112.679,150.44L112.679,150.44z"/>
	<g id="g7">
		<g id="g9">
			<path id="path11" fill="#FFFFFF" d="M229.514,163.59c-28.764,16.729-59.222,32.234-91.494,43.939
				c-38.21,13.875-84.333,29.586-99.096,33.927v22.7l190.535-68.517L229.514,163.59z"/>
			<polygon id="polygon13" fill="#FFFFFF" points="-140.129,-11.188 -140.129,51.763 31.653,263.583 31.802,197.015 			"/>
		</g>
		<path id="path15" fill="#FFFFFF" d="M222.042,141.757c-22.223,17.42-50.396,35.059-80.909,50.287
			c-28.861,14.466-92.405,33.94-102.209,36.911v5.079c16.322-4.823,57.692-17.265,94.012-31.048
			c40.285-15.304,97.897-51.469,97.897-51.469L222.042,141.757z"/>
	</g>
	<path id="path17" fill="#FFFFFF" d="M187.339,55.074l-0.503,1.781c-12.614,44.894-49.785,83.477-69.778,99.188
		c-18.695,14.688-57.575,35.645-78.134,42.304v9.609c28.907-9.014,69.304-28.157,91.711-43.922
		c38.508-27.118,76.123-64.75,99.234-99.159l0.222,0.151C204.031,35.627,59.253-130.091,49.868-141.999
		c-3.181,5.999-6.056,10.024-10.722,12.769C87.083-69.44,165.729,28.549,186.17,53.636L187.339,55.074z"/>
	<path id="path19" fill="#FFFFFF" d="M215.865,95.296c0,0-51.285,53.569-81.13,74.564c-25.207,17.751-64.175,35.168-95.81,45.016
		v6.621c3.069-0.926,8.142-2.502,14.466-4.526c23.308-7.417,63.781-20.886,84.571-31.292c41.177-20.568,77.996-45.46,101.069-68.089
		c0.222-0.239,0.465-0.482,0.704-0.704L215.865,95.296z"/>
</g>
</svg>
