<?xml version="1.0" encoding="utf-8"?>
<!-- Generator: Adobe Illustrator 15.0.0, SVG Export Plug-In . SVG Version: 6.00 Build 0)  -->
<!DOCTYPE svg PUBLIC "-//W3C//DTD SVG 1.1//EN" "http://www.w3.org/Graphics/SVG/1.1/DTD/svg11.dtd">
<svg version="1.1"
	 id="svg7226" xmlns:dc="http://purl.org/dc/elements/1.1/" xmlns:rdf="http://www.w3.org/1999/02/22-rdf-syntax-ns#" xmlns:cc="http://creativecommons.org/ns#" xmlns:svg="http://www.w3.org/2000/svg"
	 xmlns="http://www.w3.org/2000/svg" xmlns:xlink="http://www.w3.org/1999/xlink" x="0px" y="0px" width="100px" height="100px"
	 viewBox="0 0 100 100" enable-background="new 0 0 100 100" xml:space="preserve">
<g>
	<path fill="#FFFFFF" d="M0.091,7.295C0.065,7.334,0.013,7.334,0,7.334C0.013,7.334,0.079,7.334,0.091,7.295z"/>
</g>
<circle fill="#FFFFFF" cx="74.677" cy="14.891" r="7.086"/>
<path fill="#FFFFFF" d="M96.745,45.365c-1.976-0.34-9.845-1.699-10.289-1.856c-0.511-0.17,0,0-0.17-0.248
	c-0.17-0.249-7.047-14.747-7.714-15.506c-0.667-0.758-2.51-2.68-5.111-3.517c-2.602-0.837-5.204,0.497-5.204,0.497
	s-12.903,7.373-13.739,7.792c-0.836,0.418-1.596,1.922-1.596,1.922l-6.027,11.335c-0.497,0.627-0.784,1.411-0.784,2.262
	c0,2.013,1.634,3.647,3.647,3.647c1.725,0,3.164-1.19,3.542-2.798l5.622-10.629l3.518-1.975c-0.248,0.759-3.479,16.473-3.479,16.473
	l-3.27,18.604l-11.45,13.806c-0.824,0.771-1.347,1.856-1.347,3.073c0,2.326,1.883,4.209,4.209,4.209
	c1.412,0,2.667-0.706,3.424-1.776c2.105-2.473,12.656-14.879,13.676-16.082c1.138-1.347,1.426-2.014,1.596-2.89
	s2.053-12.235,2.053-12.235l10.812,10.812v19.073h0.026c0.222,2.133,2.025,3.806,4.209,3.806c2.195,0,3.986-1.66,4.209-3.806h0.026
	c0,0,0-0.129,0-0.364c0-0.026,0-0.04,0-0.065s0-0.053,0-0.078c-0.026-2.902-0.104-17.375,0-20.644
	c0.132-3.647-1.177-4.445-1.465-4.772c-0.287-0.34-10.394-11.06-10.394-11.06L77.5,41.601c0,0,2.891,5.66,3.189,6.288
	c0.287,0.628,1.217,1.765,2.185,1.974c0.967,0.21,12.995,2.642,12.995,2.642v-0.026c0.17,0.026,0.354,0.053,0.535,0.053
	c1.986,0,3.596-1.607,3.596-3.595C99.975,47.052,98.562,45.535,96.745,45.365z"/>
<g>
	<path fill="#1D1D1B" d="M43.417,6.838c-3.909,0-7.086,3.177-7.086,7.086c0,3.908,3.177,7.086,7.086,7.086s7.085-3.178,7.085-7.086
		C50.503,10.001,47.327,6.838,43.417,6.838"/>
	<path fill="#1D1D1B" d="M40.384,22.983c-1.87,0-3.373,0.784-3.373,0.784s-12.903,7.374-13.74,7.792
		c-0.836,0.419-1.595,1.922-1.595,1.922l-6.027,11.335c-0.497,0.628-0.784,1.412-0.784,2.262c0,2.014,1.634,3.646,3.647,3.646
		c1.726,0,3.164-1.188,3.543-2.798l5.622-10.629l3.517-1.974c-0.249,0.758-3.478,16.473-3.478,16.473L24.448,70.4L12.982,84.207
		c-0.823,0.771-1.346,1.855-1.346,3.072c0,2.326,1.882,4.21,4.209,4.21c1.412,0,2.667-0.706,3.425-1.778
		c2.105-2.471,12.655-14.878,13.675-16.081c1.138-1.346,1.425-2.013,1.595-2.889s2.053-12.236,2.053-12.236l10.812,10.812v6.824
		l4.89-5.896l1.49-8.472c-1.086-1.15-3.387-3.608-5.491-5.844c-3.334-0.785-5.818-3.766-5.818-7.322c0-1.556,0.484-3.072,1.386-4.34
		l5.87-11.034c0.131-0.249,0.288-0.55,0.484-0.863c-1.399-2.85-2.628-5.295-2.889-5.582c-0.667-0.759-2.51-2.681-5.112-3.517
		C41.587,23.062,40.973,22.983,40.384,22.983"/>
</g>
</svg>
