<?xml version="1.0" encoding="utf-8"?>
<!-- Generator: Adobe Illustrator 15.0.0, SVG Export Plug-In . SVG Version: 6.00 Build 0)  -->
<!DOCTYPE svg PUBLIC "-//W3C//DTD SVG 1.1//EN" "http://www.w3.org/Graphics/SVG/1.1/DTD/svg11.dtd">
<svg version="1.1" id="Layer_1" xmlns="http://www.w3.org/2000/svg" xmlns:xlink="http://www.w3.org/1999/xlink" x="0px" y="0px"
	 width="30px" height="30px" viewBox="0 0 30 30" enable-background="new 0 0 30 30" xml:space="preserve">
<g>
	<path fill="#FFFFFF" d="M23.951,23.783h3.067v-1.326L30,25.441l-2.981,2.982V27.1h-7.248
		C21.375,26.277,22.793,25.146,23.951,23.783z"/>
	<path fill="#FFFFFF" d="M12.355,6.304C8.093,6.909,4.808,10.577,4.808,15c0,3.035,1.547,5.714,3.891,7.292H3.946
		C2.409,20.264,1.492,17.736,1.492,15c0-6.194,4.682-11.313,10.689-12.014l-1.574,1.572L12.355,6.304z"/>
	<path fill="#FFFFFF" d="M1.659,25.441l-1.656-1.658h13.589c4.842,0,8.785-3.939,8.785-8.783c0-4.335-3.158-7.944-7.292-8.655v1.197
		L12.1,4.559l2.985-2.983v1.421C21.055,3.734,25.692,8.833,25.692,15c0,6.671-5.429,12.099-12.1,12.099H0L1.659,25.441z"/>
</g>
<g>
	<path fill="#FFFFFF" d="M16.838,12.896h-6.749l-0.486-0.972c-0.055-0.11-0.168-0.18-0.291-0.18h-1.44
		c-0.18,0-0.325,0.145-0.325,0.324s0.146,0.326,0.325,0.326h1.239l0.483,0.965c0.002,0.004,0.004,0.009,0.006,0.013l1.651,3.301
		c0.055,0.111,0.167,0.18,0.291,0.18h5.296c0.179,0,0.325-0.145,0.325-0.324v-3.308C17.163,13.041,17.017,12.896,16.838,12.896z
		 M12.889,15.25v-0.742h1.719v0.742H12.889z M14.608,15.576v0.627h-1.719v-0.627H14.608z M10.895,14.508h1.669v0.742h-1.297
		L10.895,14.508z M12.889,14.183v-0.637h1.719v0.637H12.889z M14.933,14.508h1.58v0.742h-1.58V14.508z M16.513,14.183h-1.58v-0.637
		h1.58V14.183z M12.564,13.547v0.636h-1.832l-0.318-0.636H12.564L12.564,13.547z M11.43,15.576h1.135v0.627h-0.821L11.43,15.576z
		 M14.933,16.203v-0.627h1.58v0.627H14.933L14.933,16.203z"/>
	<circle fill="#FFFFFF" cx="12.146" cy="19.082" r="0.558"/>
	<circle fill="#FFFFFF" cx="15.886" cy="19.082" r="0.558"/>
	<path fill="#FFFFFF" d="M16.217,17.417h-4.448c-0.125,0-0.227,0.102-0.227,0.227s0.102,0.227,0.227,0.227h4.448
		c0.125,0,0.226-0.102,0.226-0.227S16.342,17.417,16.217,17.417z"/>
</g>
</svg>
