<?xml version="1.0" encoding="utf-8"?>
<!-- Generator: Adobe Illustrator 15.0.0, SVG Export Plug-In . SVG Version: 6.00 Build 0)  -->
<!DOCTYPE svg PUBLIC "-//W3C//DTD SVG 1.1//EN" "http://www.w3.org/Graphics/SVG/1.1/DTD/svg11.dtd">
<svg version="1.1"
	 id="svg7226" xmlns:rdf="http://www.w3.org/1999/02/22-rdf-syntax-ns#" xmlns:svg="http://www.w3.org/2000/svg" xmlns:cc="http://creativecommons.org/ns#" xmlns:dc="http://purl.org/dc/elements/1.1/"
	 xmlns="http://www.w3.org/2000/svg" xmlns:xlink="http://www.w3.org/1999/xlink" x="0px" y="0px" width="100px" height="100px"
	 viewBox="-40 -36.665 100 100" enable-background="new -40 -36.665 100 100" xml:space="preserve">
<g id="g3049" transform="matrix(0.09559336,0,0,0.09559336,128.59748,-13.762703)">
</g>
<g id="g3064" transform="matrix(0.30203369,0,0,0.30203369,2.5117153,22.268825)">
	<rect id="rect2996-0" x="-37.881" y="-137.978" fill="#FFFFFF" width="11.034" height="11.043"/>
	<rect id="rect2998" x="76.425" y="-137.978" fill="#FFFFFF" width="11.026" height="11.043"/>
	<rect id="rect3000" x="-26.451" y="-149.408" fill="#FFFFFF" width="11.034" height="11.042"/>
	<rect id="rect3002" x="64.979" y="-149.408" fill="#FFFFFF" width="11.042" height="11.042"/>
	<rect id="rect3004" x="87.839" y="-126.539" fill="#FFFFFF" width="11.061" height="11.034"/>
	<rect id="rect3006" x="-49.319" y="-126.539" fill="#FFFFFF" width="11.042" height="11.034"/>
	<polygon id="polygon3008-3" fill="#FFFFFF" points="2.674,10.611 -3.59,10.611 -3.59,33.098 2.674,33.098 7.443,33.098 
		7.839,33.098 7.839,44.531 41.732,44.531 41.732,33.082 42.12,33.082 42.12,33.098 53.178,33.098 53.178,10.611 43.219,10.611 
		42.12,10.611 41.732,10.611 41.732,-0.803 7.839,-0.803 7.839,10.611 7.443,10.611 	"/>
	<path id="path3010" fill="#FFFFFF" d="M179.296-80.82h-0.388v-22.859h-11.43v-22.859h-11.43v-11.439h-11.43v-11.43h-11.446v-11.43
		h-11.414v-11.422h-11.446v-11.43H76.037v-11.438H-26.451v11.438h-34.297v11.43h-11.43v11.43h-11.431v11.43h-11.43v11.43h-11.43
		v11.431h-11.43v22.859h-11.422v22.859h-11.431V33.098h11.431v22.863h11.43v11.43h11.43V90.25h11.43v11.446h11.034h0.388h11.043
		h0.388l0,0v11.414h11.43v11.43h34.289v11.43H76.021v-11.446h34.292v-11.413h11.446v-11.43h22.859V90.25h11.414V67.391h11.446
		V55.945h11.414V33.098h11.446V-80.82H179.296L179.296-80.82z M179.296-42.868v17.275v47.649h-11.43v22.863h-11.43v11.026v0.404
		h-0.388h-9.603h-1.439v4.624v6.418v0.388v11.026v0.388h-0.388h-7.323h-3.718v2.037v9.409h-22.859v11.413h-11.43v11.446H64.979
		v11.43h-80.397v-0.404v-4.349v-6.677h-34.289v-0.388v-3.621v-7.42h-5.036h-6.006h-0.388v-0.388v-5.513v-5.529h-5.513h-5.521h-0.388
		h-11.043h-0.388V90.25v-4.753v-6.273h-11.43V56.349h-11.43v-11.43h-11.438V22.057h-11.438v-91.843l0,0h11.43v-22.859l0,0h0.396
		h11.034v-22.859l0,0h11.43v-11.43l0,0h11.438v-11.043v-0.388l0,0h0.388l0,0h11.035V-149.4v-0.396h11.43v-11.43l0,0h11.43v-11.43
		h34.289v-11.43l0,0h80.405v11.43h34.276l0.032,11.43h11.414v11.43h11.446v11.43h11.414v11.431h11.446v11.43h11.414v22.859h11.446
		v22.867h11.414v26.911H179.296z"/>
	<path id="path3012" fill="#FFFFFF" d="M110.313-92.266v-11.43H87.855v11.43h-0.404H76.425h-0.194v-11.446H53.566v11.446H42.12
		v11.438v11.034v0.388v11.035v0.016h11.446v0.388v10.638v0.388h0.032v0.008h11.381v0.388V-35.9v0.388h0.032v0.016h11.414v11.423
		v0.006h11.026v-0.006v-11.423H98.9v-0.016v-0.784v-10.25v-0.388h11.414v-0.008v-0.388v-10.646v-0.388h11.446v-0.008v-11.035v-0.396
		v-11.034v-11.43H110.313L110.313-92.266z M64.963-76.253v6.458v11.431H53.598v-11.431v-6.458v-4.979h11.365V-76.253z
		 M76.425-46.926H65.012v-11.43h11.414V-46.926z"/>
	<path id="path3014" fill="#FFFFFF" d="M-4.253-92.266v-11.43v-0.016h-22.465v0.016v11.43h-0.388H-38.14h-0.202v-11.446h-22.665
		v11.446h-11.43v11.438v11.034v0.388v11.035v0.016h11.43v0.388v10.638v0.388h0.032v0.008h11.405v0.388V-35.9v0.388h0.024v0.016
		h11.405v11.423v0.006h11.034v-0.006v-11.423h11.43v-0.016v-0.784v-10.25v-0.388h11.431v-0.008v-0.388v-10.646v-0.388h11.43v-0.008
		v-11.035v-0.396v-11.034v-11.43H-4.253L-4.253-92.266z M-49.602-76.253v6.458v11.431h-11.381v-11.431v-6.458v-4.979h11.381V-76.253
		z M-38.148-46.926h-11.405v-11.43h11.405V-46.926z"/>
</g>
</svg>
