<?xml version="1.0" encoding="utf-8"?>
<!-- Generator: Adobe Illustrator 15.0.0, SVG Export Plug-In . SVG Version: 6.00 Build 0)  -->
<!DOCTYPE svg PUBLIC "-//W3C//DTD SVG 1.1//EN" "http://www.w3.org/Graphics/SVG/1.1/DTD/svg11.dtd">
<svg version="1.1"
	 id="svg7226" xmlns:rdf="http://www.w3.org/1999/02/22-rdf-syntax-ns#" xmlns:svg="http://www.w3.org/2000/svg" xmlns:cc="http://creativecommons.org/ns#" xmlns:dc="http://purl.org/dc/elements/1.1/"
	 xmlns="http://www.w3.org/2000/svg" xmlns:xlink="http://www.w3.org/1999/xlink" x="0px" y="0px" width="100px" height="100px"
	 viewBox="-40 -36.665 100 100" enable-background="new -40 -36.665 100 100" xml:space="preserve">
<g id="g3043">
	<path id="path3045" fill="#FFFFFF" d="M58.73,26.699v-2.222H60V13.335V2.195h-1.27v-2.224H60v-1.875H-40v1.875h1.27v2.224H-40
		v11.14v11.143h1.27v2.222H-40v1.875H60v-1.875H58.73z M-34.922,26.699h-1.587v-2.222h1.587V26.699z M-34.922,2.195h-1.587v-2.222
		h1.587V2.195z M-31.111,26.699h-1.587v-2.222h1.587V26.699z M-31.111,2.195h-1.587v-2.222h1.587V2.195z M-27.302,26.699h-1.587
		v-2.222h1.587V26.699z M-27.302,2.195h-1.587v-2.222h1.587V2.195z M-23.494,26.699h-1.587v-2.222h1.587V26.699z M-23.494,2.195
		h-1.587v-2.222h1.587V2.195z M-19.683,26.699h-1.587v-2.222h1.587V26.699z M-19.683,2.195h-1.587v-2.222h1.587V2.195z
		 M-15.874,26.699h-1.587v-2.222h1.587V26.699z M-15.874,2.195h-1.587v-2.222h1.587V2.195z M-12.063,26.699h-1.587v-2.222h1.587
		V26.699z M-12.063,2.195h-1.587v-2.222h1.587V2.195z M-8.254,26.699h-1.587v-2.222h1.587V26.699z M-8.254,2.195h-1.587v-2.222
		h1.587V2.195z M-4.446,26.699h-1.587v-2.222h1.587V26.699z M-4.446,2.195h-1.587v-2.222h1.587V2.195z M-0.637,26.699h-1.587v-2.222
		h1.587V26.699z M-0.637,2.195h-1.587v-2.222h1.587V2.195z M3.174,26.699H1.587v-2.222h1.587V26.699z M3.174,2.195H1.587v-2.222
		h1.587V2.195z M6.982,26.699H5.396v-2.222h1.587V26.699z M6.982,2.195H5.396v-2.222h1.587V2.195z M10.791,26.699H9.207v-2.222
		h1.584V26.699z M10.791,2.195H9.207v-2.222h1.584V2.195z M14.6,26.699h-1.582v-2.222H14.6V26.699z M14.6,2.195h-1.582v-2.222H14.6
		V2.195z M18.408,26.699h-1.582v-2.222h1.587v2.222H18.408z M18.408,2.195h-1.582v-2.222h1.587v2.222H18.408z M22.222,26.699h-1.587
		v-2.222h1.587V26.699L22.222,26.699z M22.222,2.195h-1.587v-2.222h1.587V2.195L22.222,2.195z M26.03,26.699h-1.587v-2.222h1.587
		V26.699z M26.03,2.195h-1.587v-2.222h1.587V2.195z M29.839,26.699h-1.587v-2.222h1.587V26.699z M29.839,2.195h-1.587v-2.222h1.587
		V2.195z M33.652,26.699h-1.592v-2.222h1.592V26.699z M33.652,2.195h-1.592v-2.222h1.592V2.195z M37.461,26.699h-1.592v-2.222h1.592
		V26.699z M37.461,2.195h-1.592v-2.222h1.592V2.195z M41.27,26.699h-1.587v-2.222h1.587V26.699z M41.27,2.195h-1.587v-2.222h1.587
		V2.195z M45.078,26.699h-1.587v-2.222h1.587V26.699z M45.078,2.195h-1.587v-2.222h1.587V2.195z M48.887,26.699H47.3v-2.222h1.587
		V26.699z M48.887,2.195H47.3v-2.222h1.587V2.195z M52.695,26.699h-1.582v-2.222h1.582V26.699z M52.695,2.195h-1.582v-2.222h1.582
		V2.195z M56.504,26.699h-1.582v-2.222h1.582V26.699z M56.504,2.195h-1.582v-2.222h1.582V2.195z"/>
</g>
</svg>
