<?xml version="1.0" encoding="utf-8"?>
<!-- Generator: Adobe Illustrator 15.0.0, SVG Export Plug-In . SVG Version: 6.00 Build 0)  -->
<!DOCTYPE svg PUBLIC "-//W3C//DTD SVG 1.1//EN" "http://www.w3.org/Graphics/SVG/1.1/DTD/svg11.dtd">
<svg version="1.1"
	 id="svg7226" xmlns:svg="http://www.w3.org/2000/svg" xmlns:rdf="http://www.w3.org/1999/02/22-rdf-syntax-ns#" xmlns:cc="http://creativecommons.org/ns#" xmlns:dc="http://purl.org/dc/elements/1.1/"
	 xmlns="http://www.w3.org/2000/svg" xmlns:xlink="http://www.w3.org/1999/xlink" x="0px" y="0px" width="100px" height="100px"
	 viewBox="-40 -36.665 100 100" enable-background="new -40 -36.665 100 100" xml:space="preserve">
<path id="path3017" fill="#FFFFFF" d="M8.638,62.983c-0.115-0.215-0.21-0.595-0.212-0.849c-0.005-0.683-0.222-0.901-0.963-0.975
	c-0.646-0.068-0.683-0.034-1.007,0.916l-0.339,0.985l-1.231-0.034c-0.678-0.02-1.288-0.093-1.356-0.161
	c-0.068-0.068-0.17-0.585-0.227-1.15c-0.103-1.005-0.115-1.024-0.8-1.083c-0.651-0.048-0.724,0-1.131,0.839
	c-0.48,0.99-0.664,1.049-2.131,0.678l-0.875-0.219v-1.068c0-0.961-0.051-1.087-0.507-1.258c-0.814-0.308-0.956-0.239-1.472,0.707
	c-0.456,0.839-0.529,0.893-1.124,0.78c-0.351-0.063-0.936-0.244-1.299-0.396c-0.659-0.272-0.664-0.287-0.573-1.37
	c0.085-1.033,0.063-1.102-0.441-1.292c-0.763-0.287-0.79-0.277-1.392,0.59c-0.3,0.43-0.644,0.79-0.763,0.79
	c-0.117,0-0.69-0.2-1.271-0.438c-1.144-0.479-1.134-0.439-0.697-2.263c0.081-0.337-0.042-0.502-0.543-0.766l-0.648-0.336
	l-0.719,0.848l-0.719,0.839l-1.041-0.565c-0.573-0.312-1.085-0.678-1.139-0.814s0.044-0.668,0.219-1.175
	c0.173-0.508,0.292-0.937,0.266-0.951c-0.024-0.015-0.302-0.186-0.612-0.375l-0.565-0.356l-0.763,0.746
	c-0.851,0.829-0.982,0.814-2.326-0.292l-0.666-0.547l0.424-0.955l0.422-0.956l-0.432-0.458c-0.556-0.59-0.648-0.586-1.562,0.141
	c-0.868,0.688-1.056,0.649-2.133-0.473l-0.666-0.692l0.521-0.937l0.524-0.936l-0.434-0.459c-0.546-0.58-0.695-0.575-1.622,0.054
	l-0.755,0.513l-0.768-0.751c-1.065-1.039-1.112-1.321-0.366-2.263l0.631-0.795l-0.466-0.492c-0.482-0.518-0.604-0.518-1.785-0.01
	l-0.722,0.312l-0.799-1.062l-0.802-1.063l0.751-0.843c0.734-0.824,0.744-0.858,0.437-1.399c-0.363-0.635-0.471-0.654-1.592-0.259
	c-0.461,0.161-0.909,0.249-0.997,0.2c-0.214-0.137-1.178-1.873-1.178-2.126c0-0.112,0.356-0.508,0.79-0.878l0.79-0.683l-0.346-0.585
	c-0.366-0.624-0.312-0.614-2.319-0.298c-0.109,0.015-0.453-0.492-0.765-1.136l-0.566-1.171l0.502-0.365
	c1.333-0.971,1.348-1,1.087-1.683c-0.242-0.634-0.244-0.634-1.358-0.517l-1.117,0.117l-0.422-1.248
	c-0.461-1.365-0.495-1.278,0.8-1.966c0.69-0.365,0.717-0.414,0.541-1.028c-0.1-0.352-0.183-0.658-0.183-0.683
	c0-0.02-0.51-0.068-1.134-0.098l-1.136-0.059l-0.227-0.985c-0.349-1.511-0.336-1.545,0.724-2.009
	c0.772-0.341,0.982-0.531,0.98-0.892c-0.005-0.727-0.236-0.912-1.312-1.059c-0.927-0.122-1.024-0.186-1.131-0.727
	c-0.066-0.326-0.12-0.937-0.12-1.351c0-0.707,0.049-0.771,0.739-0.966c1.114-0.307,1.27-0.463,1.2-1.209
	c-0.061-0.644-0.107-0.678-1.107-0.849l-1.046-0.175l0.059-1.402l0.056-1.402l1.036-0.175l1.037-0.176v-0.746
	c0-0.719-0.034-0.758-0.985-1.073c-0.985-0.327-0.987-0.332-0.987-1.187c0-0.473,0.085-1.087,0.193-1.366
	c0.161-0.426,0.317-0.507,0.973-0.507c0.89,0,1.399-0.397,1.399-1.095c0-0.38-0.195-0.556-0.987-0.897
	c-1.073-0.461-1.083-0.49-0.719-2.053l0.227-0.987l1.119-0.059c1.056-0.056,1.129-0.092,1.333-0.678
	c0.239-0.685,0.244-0.678-1.039-1.355c-0.417-0.219-0.717-0.504-0.67-0.634c0.051-0.129,0.241-0.702,0.429-1.277l0.344-1.043
	L-36-3.226l1.116,0.125l0.249-0.661c0.229-0.612,0.214-0.685-0.232-1.012c-0.266-0.193-0.67-0.502-0.902-0.69l-0.419-0.342
	l0.527-1.153l0.526-1.153l0.89,0.134c0.49,0.073,0.995,0.173,1.124,0.222c0.127,0.051,0.373-0.202,0.546-0.558l0.314-0.646
	l-0.819-0.724l-0.819-0.724l0.568-1.102c0.619-1.205,0.783-1.268,2.06-0.817l0.805,0.283l0.397-0.629l0.397-0.629l-0.78-0.797
	l-0.783-0.797l0.739-1.021c0.41-0.563,0.856-1.026,0.997-1.029c0.139-0.002,0.602,0.173,1.026,0.39
	c0.427,0.217,0.805,0.395,0.844,0.395s0.258-0.258,0.492-0.571l0.419-0.57l-0.575-0.763c-0.317-0.419-0.578-0.841-0.58-0.938
	c-0.012-0.317,1.395-1.895,1.687-1.895c0.158,0,0.653,0.232,1.097,0.512l0.812,0.512l0.495-0.492l0.495-0.495l-0.52-0.931
	c-0.288-0.512-0.522-1-0.522-1.085s0.432-0.515,0.958-0.956l0.958-0.802l0.768,0.58c0.907,0.685,1.012,0.7,1.65,0.21l0.485-0.373
	l-0.471-1.002c-0.258-0.554-0.422-1.051-0.366-1.107c0.056-0.059,0.534-0.41,1.058-0.783l0.956-0.678l0.834,0.683
	c0.956,0.785,1.004,0.795,1.611,0.327c0.437-0.336,0.441-0.371,0.149-1.205c-0.166-0.47-0.302-0.958-0.302-1.082
	c0-0.125,0.492-0.52,1.092-0.88l1.095-0.653l0.749,0.843c0.733,0.829,0.758,0.839,1.387,0.578c0.678-0.283,0.695-0.4,0.278-2.131
	c-0.093-0.385,0.042-0.51,1.007-0.937c0.612-0.271,1.18-0.492,1.265-0.492c0.085,0,0.432,0.395,0.771,0.875
	c0.602,0.854,0.634,0.871,1.239,0.642c0.609-0.229,0.619-0.251,0.556-1.404l-0.066-1.173l1.185-0.356
	c0.651-0.195,1.229-0.356,1.282-0.356c0.054-0.002,0.31,0.397,0.571,0.885c0.468,0.883,0.692,0.993,1.55,0.763
	c0.395-0.104,0.444-0.244,0.444-1.253v-1.134l1.166-0.249c0.641-0.134,1.255-0.19,1.365-0.122s0.356,0.529,0.543,1.024
	c0.288,0.753,0.412,0.883,0.756,0.79c0.227-0.061,0.568-0.112,0.758-0.112c0.28-0.002,0.344-0.183,0.344-0.965
	c0-0.531,0.112-1.053,0.246-1.166c0.137-0.112,0.771-0.234,1.412-0.271l1.163-0.068l0.332,0.985c0.31,0.919,0.383,0.993,1.046,1.049
	c0.688,0.058,0.717,0.034,0.836-0.69c0.258-1.582,0.354-1.672,1.726-1.604l1.231,0.063l0.272,1.144l0.271,1.146l0.702-0.061
	c0.644-0.053,0.722-0.131,1.029-1.046l0.331-0.985l1.166,0.063c1.375,0.076,1.657,0.339,1.657,1.553
	c0,0.675,0.068,0.851,0.342,0.853c0.19,0,0.526,0.049,0.746,0.11c0.316,0.085,0.453-0.029,0.639-0.556
	c0.487-1.351,0.634-1.431,1.989-1.144l1.214,0.258v1.124c0,1.109,0.01,1.126,0.688,1.333c0.673,0.207,0.683,0.202,1.209-0.707
	c0.292-0.505,0.551-0.943,0.575-0.975s0.59,0.1,1.253,0.295l1.209,0.356v1.217c0,1.209,0.005,1.219,0.63,1.355
	c0.517,0.114,0.683,0.059,0.97-0.329c1.015-1.37,0.78-1.29,2.072-0.727c1.248,0.541,1.248,0.553,0.985,2.055
	c-0.137,0.778-0.117,0.819,0.492,1.073c0.629,0.261,0.648,0.251,1.36-0.573l0.722-0.836l1.122,0.644
	c0.614,0.354,1.121,0.746,1.121,0.873c0,0.126-0.137,0.617-0.308,1.087c-0.292,0.834-0.287,0.868,0.151,1.205
	c0.604,0.468,0.663,0.456,1.58-0.329c0.448-0.383,0.897-0.622,1.024-0.542c1.121,0.717,1.892,1.31,1.892,1.458
	c0,0.098-0.186,0.539-0.41,0.98c-0.468,0.912-0.399,1.263,0.293,1.577c0.419,0.193,0.595,0.142,1.312-0.385l0.829-0.609l0.961,0.812
	c0.526,0.446,0.96,0.887,0.96,0.98c0,0.095-0.219,0.521-0.492,0.953c-0.604,0.958-0.604,1.007-0.02,1.556l0.468,0.443l0.961-0.604
	l0.961-0.607l0.833,0.936c0.459,0.517,0.834,1.026,0.834,1.136s-0.263,0.543-0.585,0.965l-0.575,0.766l0.399,0.565
	c0.22,0.31,0.444,0.566,0.498,0.566c0.049,0,0.438-0.178,0.862-0.395c0.425-0.217,0.893-0.393,1.029-0.388
	c0.292,0.01,1.536,1.628,1.536,1.999c0,0.134-0.308,0.561-0.683,0.946l-0.683,0.697l0.399,0.629l0.396,0.629l0.804-0.283
	c1.254-0.441,1.409-0.38,2.044,0.817l0.585,1.102l-0.829,0.69l-0.829,0.692l0.327,0.68c0.18,0.373,0.429,0.639,0.556,0.59
	s0.629-0.149,1.121-0.222l0.893-0.134l0.526,1.153l0.526,1.153l-0.419,0.342c-0.234,0.188-0.644,0.5-0.907,0.692
	c-0.443,0.324-0.468,0.407-0.253,1.014l0.233,0.663l1.146-0.132l1.146-0.129l0.332,1.144c0.18,0.629,0.36,1.205,0.404,1.278
	c0.044,0.073-0.365,0.375-0.907,0.67c-0.882,0.478-0.975,0.592-0.867,1.051c0.17,0.736,0.248,0.78,1.448,0.846l1.072,0.061
	l0.244,1.185c0.136,0.651,0.253,1.238,0.253,1.307c0.01,0.068-0.429,0.314-0.975,0.549c-0.79,0.341-0.985,0.517-0.985,0.897
	c0,0.722,0.507,1.095,1.482,1.095h0.858l0.127,0.851c0.243,1.617,0.106,1.938-0.937,2.243c-0.917,0.266-0.941,0.292-0.941,1.056
	c0,0.614,0.073,0.785,0.347,0.785c0.189,0,0.678,0.093,1.082,0.207l0.741,0.205v1.343v1.346l-1.033,0.176l-1.034,0.176v0.768
	c0,0.751,0.02,0.775,0.937,1.043l0.936,0.273v0.932c-0.01,1.604-0.106,1.755-1.248,1.906c-1.072,0.142-1.307,0.332-1.316,1.044
	c0,0.331,0.244,0.565,0.995,0.945c0.984,0.498,0.994,0.512,0.857,1.233c-0.331,1.751-0.297,1.717-1.501,1.78
	c-1.044,0.054-1.122,0.098-1.322,0.673c-0.116,0.332-0.214,0.624-0.214,0.648s0.443,0.317,0.979,0.648l0.976,0.604l-0.409,1.229
	l-0.415,1.219l-1.136-0.117l-1.142-0.117l-0.224,0.634c-0.239,0.678-0.078,0.917,1.15,1.727l0.458,0.302l-0.565,1.176
	c-0.312,0.648-0.653,1.165-0.761,1.15c-2.077-0.336-2.019-0.341-2.345,0.288c-0.308,0.585-0.298,0.6,0.502,1.321l0.805,0.727
	l-0.327,0.722c-0.181,0.399-0.478,0.926-0.673,1.17c-0.331,0.438-0.36,0.443-1.199,0.151c-1.15-0.405-1.248-0.391-1.624,0.272
	c-0.316,0.552-0.307,0.591,0.117,0.99c0.244,0.234,0.561,0.634,0.697,0.893c0.234,0.434,0.186,0.57-0.478,1.473l-0.731,0.994
	l-0.722-0.316c-1.2-0.521-1.482-0.518-1.873,0.029c-0.36,0.497-0.355,0.507,0.259,1.282c0.731,0.927,0.683,1.214-0.375,2.248
	l-0.766,0.746l-0.805-0.513c-0.995-0.624-1.034-0.624-1.59-0.034l-0.448,0.479l0.536,0.911l0.536,0.917l-0.468,0.502
	c-0.264,0.278-0.712,0.678-1.015,0.893l-0.541,0.391L41.5,50.72c-0.867-0.624-0.872-0.624-1.375-0.258
	c-0.614,0.448-0.609,0.409-0.107,1.58l0.405,0.945l-0.653,0.537c-1.331,1.097-1.463,1.111-2.316,0.277l-0.766-0.746l-0.609,0.361
	c-0.702,0.409-0.712,0.438-0.317,1.385c0.161,0.39,0.298,0.829,0.298,0.97c0,0.142-0.507,0.542-1.121,0.897l-1.122,0.639
	l-0.727-0.839l-0.727-0.848l-0.644,0.331c-0.673,0.352-0.678,0.4-0.292,1.94c0.116,0.454,0.029,0.557-0.868,1.015
	c-0.551,0.277-1.132,0.507-1.297,0.507c-0.166,0-0.537-0.36-0.824-0.79c-0.57-0.867-0.604-0.877-1.36-0.595
	c-0.498,0.19-0.526,0.264-0.459,1.316l0.068,1.117l-0.989,0.346c-1.438,0.507-1.57,0.478-2.092-0.507
	c-0.498-0.937-0.634-1.005-1.443-0.697c-0.459,0.171-0.508,0.297-0.508,1.258v1.068l-0.877,0.219
	c-1.57,0.396-1.795,0.327-2.175-0.678c-0.332-0.858-0.376-0.896-1.063-0.839c-0.712,0.059-0.722,0.073-0.848,1.112
	c-0.068,0.575-0.176,1.092-0.229,1.146s-0.653,0.117-1.331,0.137l-1.229,0.034l-0.336-0.985c-0.181-0.546-0.434-0.979-0.561-0.965
	c-0.127,0.01-0.439,0.029-0.697,0.049c-0.386,0.02-0.51,0.204-0.741,1.062l-0.275,1.034l-1.219,0.059
	c-1.051,0.054-1.251,0.01-1.431-0.332H8.638z M15.53,58.117c14.906-1.736,28.301-11.264,34.933-24.849
	c3.169-6.48,4.603-12.702,4.607-19.933c0.005-7.263-1.487-13.602-4.725-20.097C43.753-19.982,31.368-28.964,16.521-31.28
	c-3.146-0.49-9.869-0.495-12.998-0.01c-18.648,2.896-33.289,16.388-37.506,34.564c-1.451,6.244-1.448,14.031,0.005,20.223
	c4.335,18.471,19.533,32.211,38.311,34.625C7.178,58.487,12.361,58.487,15.53,58.117L15.53,58.117z M12.283,57.19
	c-0.107-0.321-0.902-6.719-0.842-6.777c0.024-0.02,0.312-0.068,0.64-0.107l0.592-0.068l0.181,1.429
	c0.205,1.614,0.063,1.536,2.277,1.302l1.229-0.127l-0.137-1.55l-0.137-1.551h0.605c0.721,0,0.683-0.117,1.102,3.496
	c0.424,3.638,0.429,3.613-0.278,3.613c-0.512,0-0.595-0.088-0.688-0.692c-0.059-0.381-0.16-1.015-0.224-1.404l-0.107-0.712
	l-1.122,0.127c-1.94,0.224-2.232,0.312-2.136,0.673c0.293,1.067,0.337,2.271,0.088,2.428c-0.39,0.244-0.95,0.205-1.046-0.078H12.283
	z M-0.809,56.152c-0.581-0.142-1.102-0.308-1.163-0.366c-0.129-0.131,1.112-6.29,1.338-6.66c0.193-0.308,2.789,0.233,3.94,0.819
	c2.294,1.17,2.299,4.515,0.01,6.056C2.543,56.527,0.954,56.581-0.809,56.152L-0.809,56.152z M3.038,54.597
	c0.809-0.941,0.841-2.496,0.066-3.271c-0.358-0.361-2.504-1.117-2.675-0.946c-0.046,0.044-0.295,1.072-0.558,2.287l-0.478,2.209
	l0.522,0.116c0.288,0.063,0.612,0.151,0.719,0.19c0.109,0.039,0.595,0.039,1.08,0C2.363,55.128,2.714,54.972,3.038,54.597
	L3.038,54.597z M19.89,55.718c0-0.409,0.161-2.121,0.346-3.803c0.322-2.896,0.366-3.067,0.824-3.301
	c0.273-0.132,0.58-0.239,0.692-0.239c0.107,0.01,1.015,0.965,2.019,2.121c1.01,1.16,2.141,2.433,2.517,2.833
	c0.38,0.399,0.692,0.771,0.692,0.819c0,0.054-0.273,0.189-0.609,0.307c-0.556,0.19-0.658,0.156-1.233-0.448l-0.625-0.658
	l-1.604,0.487l-1.604,0.487l-0.098,0.878c-0.117,1.01-0.078,0.956-0.79,1.132C19.899,56.454,19.875,56.43,19.89,55.718L19.89,55.718
	z M23.459,52.334c0.068-0.068-0.303-0.614-0.839-1.209l-0.966-1.088v0.615c-0.005,0.336-0.058,1.023-0.126,1.525l-0.127,0.917
	l0.965-0.321C22.894,52.598,23.386,52.397,23.459,52.334z M-6.448,54.183c-1.185-0.483-2.187-0.917-2.226-0.956
	c-0.156-0.156,2.577-6.441,2.799-6.441c0.397,0,4.313,1.697,4.381,1.896c0.034,0.103-0.063,0.361-0.217,0.571
	c-0.275,0.38-0.317,0.37-1.892-0.273c-0.885-0.361-1.636-0.624-1.67-0.585c-0.1,0.112-0.702,1.326-0.702,1.414
	c0,0.044,0.666,0.336,1.478,0.648c1.473,0.565,1.694,0.814,1.292,1.448c-0.156,0.253-0.404,0.205-1.689-0.327l-1.506-0.619
	l-0.281,0.668c-0.153,0.366-0.28,0.746-0.28,0.834c0,0.098,0.734,0.468,1.629,0.829c0.895,0.365,1.655,0.683,1.687,0.707
	c0.156,0.107-0.229,1.072-0.427,1.067C-4.196,55.064-5.266,54.665-6.448,54.183z M28.345,52.314c-1.507-0.453-2.594-1.95-2.584-3.55
	c0.015-1.165,0.365-1.911,1.302-2.73c0.814-0.712,1.896-1.087,2.877-0.994c0.619,0.058,0.688,0.126,0.688,0.658
	c0,0.57-0.034,0.59-0.937,0.619c-0.517,0.02-1.16,0.176-1.429,0.351c-2.194,1.434-0.961,4.808,1.609,4.389
	c0.775-0.127,1.585-0.761,1.857-1.453c0.146-0.39,0.234-0.414,0.756-0.234c0.521,0.186,0.57,0.264,0.404,0.683
	c-0.36,0.951-0.833,1.458-1.823,1.951C30.047,52.51,29.276,52.598,28.345,52.314z M-11.846,51.524
	c-2.189-0.517-3.491-2.828-2.726-4.827c0.368-0.965,1.597-2.204,2.387-2.398c1.653-0.415,3.708,0.468,4.444,1.911
	c0.48,0.946,0.393,1.365-0.29,1.365c-0.361,0-0.573-0.176-0.8-0.653c-0.39-0.819-1.319-1.375-2.296-1.375
	c-0.973,0-1.711,0.487-2.087,1.39c-0.675,1.619,0.297,3.179,2.089,3.35c0.953,0.093,1.004,0.127,1.004,0.663
	c0,0.361-0.103,0.57-0.278,0.57c-0.154,0-0.397,0.034-0.544,0.078C-11.085,51.642-11.493,51.603-11.846,51.524z M33.03,46.668
	c-2.058-2.584-2.121-2.696-1.794-3.062c0.19-0.205,0.438-0.371,0.561-0.366c0.117,0.005,0.629,0.541,1.141,1.194l0.927,1.19
	l0.098-0.653c0.059-0.361,0.161-1.355,0.229-2.209c0.111-1.351,0.194-1.614,0.648-2.019c0.731-0.639,0.829-0.591,0.722,0.365
	c-0.049,0.458-0.127,1.385-0.186,2.048l-0.098,1.215l2.194,0.609c1.209,0.336,2.238,0.658,2.292,0.712
	c0.194,0.194-0.614,0.892-1.024,0.887c-0.229,0-1.082-0.175-1.896-0.39S35.298,45.8,35.22,45.8c-0.088,0-0.151,0.317-0.151,0.712
	c0,0.513,0.171,0.907,0.605,1.399c0.575,0.659,0.59,0.707,0.263,1.063c-0.186,0.205-0.434,0.375-0.551,0.375
	C35.264,49.35,34.206,48.141,33.03,46.668L33.03,46.668z M5.91,48.541c-5.554-0.649-11.54-2.955-16.228-6.252
	c-2.387-1.677-6.595-5.88-8.338-8.333c-1.555-2.189-3.818-6.636-4.664-9.172c-0.327-0.979-0.836-2.936-1.136-4.345
	C-24.953,18.095-25,17.51-25,13.633c0-3.876,0.044-4.464,0.544-6.807c0.744-3.513,1.485-5.637,3.101-8.879
	c1.648-3.311,3.386-5.8,5.888-8.428c7.843-8.253,18.797-12.151,30.041-10.693c5.656,0.731,11.337,3.004,16.141,6.449
	c2.067,1.48,5.646,5.013,7.255,7.15c4.442,5.908,6.788,12.52,7.09,20.024c0.312,7.577-1.979,15.218-6.476,21.615
	c-1.628,2.316-5.885,6.559-8.201,8.188C23.239,47.243,14.38,49.525,5.91,48.541z M16.223,47.176
	c3.146-0.615,6.163-1.629,8.981-3.023c3.916-1.931,5.354-3.672,5.481-6.642c0.059-1.307,0.005-1.608-0.488-2.564
	c-0.404-0.79-0.658-1.078-0.936-1.054c-0.21,0.02-0.961-0.38-1.668-0.882c-0.702-0.503-1.424-0.917-1.609-0.922
	c-0.175,0-3.203-2.716-6.719-6.027c-7.127-6.704-9.14-8.601-11.044-10.405l-1.302-1.233l-0.463,0.492
	c-0.253,0.271-0.563,0.493-0.683,0.493c-0.122,0-0.607-0.393-1.08-0.873L3.835,13.66l0.598-0.753
	c0.329-0.414,0.79-0.926,1.024-1.138l0.427-0.383l-8.277-8.299c-7.997-8.021-8.309-8.36-9.284-10.152
	c-0.556-1.021-0.971-1.897-0.922-1.948c0.051-0.049,0.873,0.332,1.829,0.846c1.653,0.888,2.146,1.341,10.13,9.299L7.75,9.493
	l0.873-0.89c0.483-0.49,0.973-0.89,1.09-0.89c0.241,0,1.873,1.65,1.873,1.892c0,0.085-0.19,0.358-0.425,0.604l-0.424,0.454
	l0.858,0.941c0.97,1.07,8.543,9.147,10.956,11.692c4.33,4.56,5.969,6.393,5.891,6.593c-0.049,0.122,0.351,0.766,0.888,1.429
	c0.683,0.839,0.916,1.268,0.77,1.414c-0.146,0.142-0.058,0.399,0.293,0.863c1.282,1.691,1.609,4.276,0.771,6.139l-0.419,0.946
	l0.556-0.4c0.312-0.214,1.238-1.028,2.067-1.799c5.227-4.881,8.928-11.727,10.22-18.914c0.322-1.775,0.41-3.097,0.41-5.935
	c0-4.332-0.391-6.904-1.609-10.632C36.985-13.446,20.114-23.232,3.102-19.792c-2.219,0.451-5.966,1.75-8.194,2.843
	c-5.242,2.572-9.862,6.622-13.168,11.542c-2.596,3.867-4.21,7.731-5.22,12.517c-0.468,2.213-0.524,2.911-0.529,6.524
	c-0.002,3.643,0.051,4.291,0.521,6.51c0.29,1.355,0.746,3.14,1.014,3.969c4.176,12.771,15.15,21.757,28.664,23.464
	C8.494,47.868,13.785,47.653,16.223,47.176L16.223,47.176z M-4.593,42.895c-0.753-0.283-1.38-0.927-1.685-1.727L-6.609,40.3
	l5.479-9.635c3.016-5.296,5.91-10.386,6.436-11.303c0.814-1.424,0.954-1.823,0.954-2.726c0-0.963,0.285-1.624,0.697-1.624
	c0.073,0,0.095,0.734,0.051,1.629l-0.08,1.629L2.185,26.56c-8.677,15.169-8.011,13.872-7.562,14.706
	c0.531,0.995,0.288,0.98,16.076,0.98c15.789,0,15.55,0.015,16.076-0.98c0.249-0.463,0.264-1.243,0.029-1.497
	c-0.321-0.346-7.168-12.546-7.08-12.629c0.039-0.044,0.444,0.298,0.897,0.756c0.497,0.507,2.077,3.048,4.086,6.554
	c2.594,4.544,3.243,5.826,3.15,6.217c-0.205,0.863-0.761,1.623-1.468,1.999c-0.653,0.351-1.414,0.365-15.687,0.355
	C2.453,43.011-4.43,42.953-4.593,42.895L-4.593,42.895z M-4.481,41.148c-0.17-0.176-0.31-0.487-0.31-0.692
	c0-0.419,7.529-13.862,8.106-14.472c0.297-0.317,0.407-0.342,0.663-0.127c0.168,0.142,0.307,0.37,0.307,0.517
	c0,0.376,0.792,0.873,1.39,0.873c0.52,0,1.373-0.712,1.373-1.146c0-0.175,1.305-0.238,5.081-0.248c2.797-0.01,5.226-0.044,5.4-0.078
	c0.176-0.034,0.41-0.005,0.518,0.063c0.106,0.068,1.638,2.701,3.403,5.851c1.76,3.146,3.599,6.397,4.076,7.227
	c0.927,1.609,0.956,2.048,0.127,2.36c-0.273,0.103-6.661,0.181-15.15,0.181C-2.574,41.456-4.206,41.422-4.481,41.148L-4.481,41.148z
	 M7.349,40.583c2.179-1.429,1.229-4.847-1.346-4.847c-1.538-0.005-2.701,1.141-2.701,2.662C3.301,40.476,5.612,41.719,7.349,40.583z
	 M4.667,39.695c-1.204-1.204-0.429-3.174,1.251-3.174c1.943,0,2.616,2.584,0.904,3.467C5.976,40.427,5.305,40.339,4.667,39.695z
	 M3.208,34.653C3.869,34,3.852,33.122,3.174,32.591c-0.285-0.229-0.673-0.409-0.86-0.409c-0.663,0-1.382,0.771-1.382,1.478
	c0,0.482,0.144,0.775,0.519,1.072c0.683,0.536,1.168,0.517,1.76-0.078H3.208z M1.765,34.439c-0.241-0.166-0.438-0.513-0.438-0.766
	c0-1.054,1.514-1.249,1.867-0.239c0.168,0.487,0.132,0.614-0.266,0.937C2.37,34.824,2.319,34.829,1.765,34.439z M8.599,32.889
	c0.626-0.327,1.014-1.059,1.014-1.921c0-0.902-1.112-1.941-2.072-1.941c-0.565,0-0.88,0.146-1.399,0.668
	C4.401,31.436,6.395,34.024,8.599,32.889z M6.349,32.289c-0.334-0.337-0.485-0.707-0.485-1.195c0-0.487,0.151-0.857,0.485-1.189
	c1.063-1.062,2.87-0.312,2.87,1.189C9.218,32.605,7.412,33.352,6.349,32.289z M13.214,29.266c0.795-0.697,0.078-2.414-1.007-2.414
	c-0.641,0-1.409,0.727-1.409,1.331C10.798,29.573,12.166,30.188,13.214,29.266z M11.396,28.842
	c-0.295-0.557-0.251-0.897,0.158-1.269c0.469-0.424,0.881-0.409,1.285,0.034c0.38,0.425,0.424,1.044,0.088,1.38
	C12.556,29.358,11.627,29.271,11.396,28.842L11.396,28.842z M4.986,26.589c-0.561-0.41-0.28-0.761,0.651-0.81
	c0.98-0.044,1.192,0.156,0.709,0.692C5.942,26.92,5.491,26.959,4.986,26.589z M14.691,14.279c-0.312-0.349-0.341-1.01-0.341-7.766
	c0-6.963,0.024-7.421,0.38-8.014c1.244-2.033,4.394-1.646,5.145,0.634c0.298,0.89-0.063,2.319-0.551,2.226
	c-0.278-0.054-0.332-0.263-0.283-1.148c0.029-0.651-0.049-1.207-0.2-1.395c-0.707-0.892-2.188-1.036-3.047-0.297l-0.556,0.476
	l-0.098,7.833C15.043,14.306,15.023,14.645,14.691,14.279L14.691,14.279z M6.617,7.782C6.329,7.462,6.273,6.824,6.222,3.203
	L6.161-1.005L5.607-1.48c-0.86-0.739-2.34-0.595-3.052,0.297C2.407-0.995,2.329-0.439,2.36,0.209
	c0.044,0.885-0.01,1.095-0.283,1.148C1.836,1.404,1.68,1.207,1.512,0.648C1.205-0.374,1.517-1.341,2.399-2.117
	c0.953-0.836,1.901-0.96,3.035-0.395C7.01-1.727,7.063-1.51,7.002,3.664C6.954,7.894,6.932,8.128,6.617,7.782z M11.78-4.289
	c-0.948-0.495-1.65-1.894-1.46-2.911c0.29-1.541,2.021-2.66,3.475-2.243c1.521,0.437,2.232,1.456,2.087,2.986
	C15.687-4.445,13.6-3.341,11.78-4.289z M14.468-5.389c0.746-0.746,0.848-1.375,0.37-2.294c-0.37-0.717-0.849-0.982-1.774-0.982
	c-1.919,0-2.616,2.723-0.93,3.64C13.034-4.538,13.727-4.645,14.468-5.389L14.468-5.389z M8.489-10.145
	c-0.583-0.407-0.749-1.312-0.375-2.033c0.48-0.929,1.683-1.139,2.448-0.427c0.793,0.739,0.731,1.833-0.141,2.504
	C9.986-9.767,8.997-9.792,8.489-10.145L8.489-10.145z M9.894-10.757c0.598-0.229,0.256-1.46-0.405-1.46
	c-0.278,0-0.863,0.536-0.863,0.79c0,0.217,0.57,0.79,0.788,0.79C9.506-10.638,9.721-10.691,9.894-10.757z M13.536-11.33
	c-0.707-0.383-1.229-1.538-1.075-2.365c0.393-2.097,3.021-2.665,4.201-0.91C18.042-12.551,15.735-10.133,13.536-11.33z
	 M15.726-12.212c0.614-0.612,0.712-1.339,0.259-1.946c-0.697-0.938-2.233-0.758-2.639,0.312c-0.229,0.598,0.068,1.524,0.585,1.826
	C14.468-11.708,15.315-11.801,15.726-12.212z M-18.224,47.073l-0.497-0.498l0.244-2.413c0.412-4.091,0.514-3.926-1.261-2.023
	c-0.841,0.901-1.626,1.652-1.746,1.662c-0.119,0.01-0.375-0.155-0.57-0.37c-0.346-0.381-0.3-0.449,1.965-2.857
	c1.273-1.36,2.426-2.473,2.56-2.473c0.137,0,0.388,0.156,0.561,0.347c0.285,0.316,0.288,0.614,0.019,3.281
	c-0.161,1.614-0.263,3.014-0.231,3.116c0.037,0.103,0.805-0.575,1.709-1.502c0.907-0.932,1.714-1.688,1.792-1.688
	c0.081,0,0.302,0.176,0.498,0.391c0.344,0.38,0.295,0.448-2.065,2.955c-1.329,1.414-2.431,2.574-2.448,2.574
	C-17.714,47.575-17.951,47.351-18.224,47.073L-18.224,47.073z M39.608,43.621c0-0.396,0.117-0.635,0.341-0.707
	c1.531-0.469,2.37-1.278,2.126-2.039c-0.185-0.595-1.019-0.517-2.077,0.186c-1.18,0.785-2.014,0.937-2.711,0.479
	c-0.78-0.508-1.023-0.888-1.028-1.619c-0.01-1.199,0.94-2.414,2.34-2.994c0.717-0.298,0.731-0.292,0.912,0.429
	c0.117,0.459,0.063,0.547-0.375,0.659c-0.566,0.141-1.702,1.321-1.702,1.765c0,0.156,0.176,0.375,0.395,0.492
	c0.317,0.171,0.679,0.059,1.912-0.595c1.73-0.922,2.214-0.917,3.071,0.015c1.098,1.189,0.513,2.882-1.385,3.984
	C40.145,44.415,39.608,44.4,39.608,43.621L39.608,43.621z M-24.114,41.188c-0.212-0.399-0.19-0.585,0.144-1.229l0.39-0.766
	l-0.914-1.341l-0.917-1.346l-0.929,0.111c-0.838,0.103-0.96,0.063-1.26-0.395c-0.183-0.273-0.297-0.536-0.254-0.575
	c0.039-0.034,1.709-0.4,3.708-0.814l3.63-0.746l0.47,0.546l0.468,0.547l-0.4,0.624c-0.219,0.341-1.087,1.794-1.931,3.228
	c-0.841,1.434-1.626,2.608-1.743,2.613C-23.768,41.646-23.978,41.441-24.114,41.188z M-21.881,36.487l0.531-0.917l-1.341,0.303
	c-0.736,0.165-1.368,0.326-1.399,0.355c-0.037,0.029,0.227,0.463,0.575,0.961C-22.8,38.198-22.893,38.237-21.881,36.487z
	 M43.929,38.271c-3.521-2.258-4.32-2.794-4.32-2.887c0-0.243,1.424-2.398,1.945-2.95c1.059-1.102,2.209-1.097,3.501,0.024
	c0.678,0.586,0.766,0.766,0.766,1.541c0,0.653-0.166,1.151-0.658,1.94c-0.727,1.171-0.741,1.112,0.551,1.971
	c0.415,0.277,0.43,0.351,0.186,0.741c-0.146,0.238-0.37,0.438-0.487,0.438S44.621,38.721,43.929,38.271L43.929,38.271z
	 M44.036,35.468c0.619-1.053,0.634-1.57,0.063-2.102c-0.727-0.673-1.487-0.463-2.268,0.629l-0.663,0.922l1.043,0.702
	c0.57,0.39,1.103,0.707,1.181,0.707S43.763,35.94,44.036,35.468z M46.143,31.387l-2.619-2.76l0.229-0.688l0.225-0.692h3.832
	c3.95,0,4.048,0.024,3.628,0.805c-0.151,0.282-0.414,0.38-1.053,0.38h-0.858l-0.619,1.473c-0.337,0.814-0.619,1.6-0.619,1.746
	c0,0.146,0.229,0.478,0.507,0.741c0.38,0.355,0.473,0.59,0.38,0.965c-0.067,0.278-0.189,0.565-0.263,0.648
	C48.829,34.088,47.586,32.908,46.143,31.387L46.143,31.387z M47.688,29.689c0.22-0.502,0.405-0.945,0.405-0.984
	s-0.644-0.078-1.424-0.078h-1.424l0.976,0.989c0.531,0.542,0.989,0.985,1.014,0.985C47.264,30.602,47.469,30.192,47.688,29.689z
	 M-29.495,32.518l-0.322-0.673l2.567-2.789c1.412-1.541,2.64-2.75,2.73-2.691c0.09,0.054,0.222,0.371,0.295,0.702
	c0.12,0.546-0.015,0.756-1.682,2.564l-1.816,1.966l2.762-0.132l2.765-0.132l0.315,0.609c0.402,0.78,0.453,0.761-3.235,0.927
	c-1.573,0.068-3.13,0.166-3.457,0.225C-29.103,33.181-29.21,33.117-29.495,32.518L-29.495,32.518z M-30.6,26.92
	c-0.831-0.409-1.558-1.657-2.031-3.472c-0.205-0.79-0.373-1.482-0.375-1.546c-0.005-0.16,6.692-1.838,6.824-1.706
	c0.207,0.21,0.863,3.009,0.865,3.706c0.005,1.146-0.751,2.394-1.765,2.9C-28.135,27.335-29.653,27.389-30.6,26.92L-30.6,26.92z
	 M-27.484,25.496c0.844-0.604,1.063-1.297,0.812-2.545c-0.12-0.604-0.261-1.136-0.31-1.189c-0.051-0.049-1.07,0.155-2.27,0.453
	c-2.382,0.59-2.375,0.58-1.892,1.936c0.302,0.858,0.812,1.487,1.39,1.736C-29.212,26.115-28.079,25.921-27.484,25.496z
	 M47.79,25.194c-0.727-0.312-1.818-1.521-1.989-2.204c-0.37-1.473,0.312-3.56,1.375-4.228c0.342-0.21,0.449-0.186,0.761,0.2
	c0.352,0.429,0.347,0.453-0.127,0.926c-1.628,1.629-0.731,4.203,1.458,4.203c1.2,0,1.888-0.438,2.272-1.438
	c0.288-0.756,0.293-0.95,0.049-1.652c-0.249-0.731-0.244-0.819,0.083-1.024c0.57-0.355,0.761-0.272,1.067,0.458
	c0.717,1.717-0.073,3.901-1.726,4.76C50.346,25.54,48.58,25.545,47.79,25.194L47.79,25.194z M-33.403,19.489
	c0-0.551,0.107-0.702,0.69-0.985c0.663-0.312,0.692-0.37,0.69-1.365c-0.005-2.043-0.153-2.442-1.007-2.723
	c-0.692-0.229-0.768-0.32-0.768-0.927c0-0.792-0.421-0.868,4.045,0.738l3.16,1.134l0.059,0.676l0.059,0.673l-3.27,1.716
	c-1.797,0.946-3.357,1.717-3.462,1.717C-33.315,20.143-33.403,19.85-33.403,19.489L-33.403,19.489z M-29.307,16.759l1.084-0.619
	l-0.963-0.366c-1.777-0.678-1.653-0.717-1.653,0.507c0,0.688,0.085,1.103,0.224,1.103C-30.492,17.383-29.905,17.1-29.307,16.759z
	 M48.536,17.626l-2.023-0.058V15.92c0-0.902,0.059-2.053,0.127-2.555c0.117-0.858,0.161-0.917,0.717-0.917h0.59l-0.098,1.875
	c-0.093,1.807-0.083,1.875,0.322,1.879c0.224,0,0.614,0.054,0.858,0.117c0.395,0.107,0.443,0.049,0.448-0.543
	c0-0.363,0.059-1.129,0.127-1.699c0.117-0.988,0.146-1.037,0.702-1.037h0.585l-0.142,1.677l-0.142,1.68h0.912h0.912l0.029-1.236
	c0.02-0.678,0.049-1.321,0.078-1.431c0.024-0.107,0.054-0.395,0.068-0.641c0.019-0.361,0.136-0.444,0.639-0.444h0.619l-0.117,2.023
	c-0.068,1.112-0.122,2.265-0.127,2.567l-0.005,0.541l-1.526-0.044C51.247,17.714,49.648,17.665,48.536,17.626L48.536,17.626z
	 M-28.864,3.186l-3.257-0.946l0.065-0.568c0.034-0.312,0.103-0.604,0.146-0.651c0.071-0.071,6.565,1.733,6.763,1.877
	c0.119,0.088-0.193,1.263-0.332,1.248C-25.55,4.139-27.074,3.705-28.864,3.186z M44.562,1.548c-0.448-1.222-0.814-2.312-0.814-2.424
	c0.005-0.207,6.451-2.589,6.603-2.44c0.044,0.046,0.443,1.097,0.887,2.338c0.834,2.333,0.824,2.647-0.058,2.526
	c-0.269-0.037-0.532-0.49-0.937-1.609c-0.312-0.858-0.595-1.587-0.629-1.621c-0.132-0.132-1.521,0.395-1.521,0.575
	c0,0.103,0.225,0.814,0.497,1.578c0.512,1.412,0.488,1.633-0.189,1.75c-0.317,0.054-0.483-0.195-0.922-1.382
	c-0.298-0.797-0.575-1.482-0.614-1.521c-0.127-0.127-1.531,0.361-1.531,0.531c0,0.085,0.263,0.893,0.595,1.792
	c0.556,1.519,0.57,1.651,0.254,1.88c-0.186,0.137-0.439,0.246-0.576,0.246C45.479,3.766,45.006,2.767,44.562,1.548z M-28.066,0.095
	c-1.675-0.81-3.082-1.504-3.121-1.546c-0.039-0.039,0.112-0.437,0.339-0.88l0.412-0.81h2.365c1.299,0,2.365-0.049,2.365-0.11
	s-0.663-0.917-1.472-1.904l-1.47-1.792l0.297-0.712c0.163-0.39,0.366-0.778,0.449-0.863c0.083-0.083,1.58,0.529,3.325,1.358
	l3.172,1.512l-0.2,0.57c-0.232,0.67-0.361,0.654-2.326-0.332c-0.705-0.351-1.624-0.782-2.038-0.956l-0.756-0.317l0.771,0.936
	c1.694,2.05,2.426,3.152,2.302,3.472c-0.098,0.256-0.429,0.325-1.631,0.339c-0.829,0.01-1.95,0.076-2.492,0.149l-0.982,0.129
	l2.216,1.031c1.219,0.565,2.216,1.073,2.216,1.126c0,0.214-0.465,1.097-0.575,1.085C-24.965,1.572-26.389,0.904-28.066,0.095z
	 M43.655-2.539c-1.17-0.48-2.272-2.24-2.272-3.621c0-1.363,0.707-2.489,1.99-3.162c0.896-0.475,1.224-0.546,2.038-0.453
	c1.375,0.158,2.408,0.904,2.989,2.158c0.263,0.563,0.478,1.319,0.482,1.677c0,0.619-0.034,0.651-0.644,0.592
	c-0.4-0.039-0.648-0.173-0.663-0.358c-0.01-0.163-0.029-0.507-0.049-0.763c-0.01-0.256-0.381-0.824-0.819-1.258
	c-0.741-0.739-0.849-0.785-1.678-0.692c-1.141,0.129-1.833,0.595-2.204,1.487c-0.38,0.907-0.121,1.894,0.702,2.684l0.576,0.551
	l0.818-0.46c0.805-0.456,0.824-0.456,1.103-0.081c0.448,0.592,0.36,0.761-0.702,1.346C44.26-2.304,44.23-2.3,43.65-2.539H43.655z
	 M-23.556-8.685c-1.456-1.095-2.674-2.072-2.711-2.17c-0.095-0.258,1.214-1.985,2.138-2.818c1.192-1.078,2.46-0.91,3.628,0.478
	c0.819,0.976,0.641,2.031-0.627,3.696c-0.268,0.356-0.456,0.675-0.414,0.707c0.041,0.032,0.407,0.305,0.809,0.604
	c0.709,0.527,0.724,0.561,0.422,1.019c-0.17,0.264-0.378,0.478-0.456,0.478C-20.847-6.69-22.103-7.588-23.556-8.685z
	 M-21.908-10.428c0.67-0.949,0.712-1.846,0.102-2.27c-0.741-0.522-1.331-0.38-2.155,0.515c-0.419,0.451-0.758,0.873-0.753,0.936
	c0.005,0.132,1.992,1.597,2.155,1.592C-22.5-9.658-22.208-10.006-21.908-10.428z M38.214-9.663c-0.81-0.982-1.482-1.894-1.507-2.023
	c-0.044-0.271,4.993-4.54,5.247-4.442c0.093,0.034,0.838,0.86,1.662,1.836c1.395,1.65,1.473,1.796,1.181,2.121
	c-0.483,0.531-0.683,0.441-1.619-0.736c-1.253-1.57-1.287-1.587-1.984-1.09c-0.327,0.234-0.6,0.487-0.6,0.561
	c0,0.076,0.453,0.69,1.009,1.37c0.839,1.024,0.971,1.283,0.766,1.529c-0.409,0.497-0.722,0.339-1.707-0.878
	c-0.526-0.646-0.999-1.175-1.053-1.177c-0.059,0-0.38,0.241-0.731,0.536l-0.629,0.542l1.17,1.375
	c0.644,0.758,1.171,1.456,1.176,1.553c0,0.173-0.586,0.692-0.8,0.705C39.73-7.878,39.023-8.68,38.214-9.663z M-19.373-14.131
	l-2.396-2.526l1.829-1.714l1.831-1.711l0.458,0.429l0.458,0.429l-1.407,1.263l-1.404,1.263l0.539,0.563
	c0.297,0.31,0.631,0.563,0.744,0.563c0.112,0,0.666-0.456,1.231-1.012c0.69-0.683,1.129-0.975,1.341-0.892
	c0.661,0.253,0.512,0.68-0.607,1.755l-1.134,1.09l0.346,0.526c0.59,0.904,0.856,0.849,2.167-0.454
	c0.673-0.666,1.319-1.211,1.434-1.211c0.117,0,0.363,0.168,0.548,0.373c0.322,0.356,0.261,0.438-1.462,2.021
	c-0.988,0.909-1.87,1.677-1.958,1.709S-18.053-12.744-19.373-14.131z M34.391-13.678l-1.569-1.448l0.482-0.57
	c2.326-2.741,4.042-4.61,4.237-4.61c0.127,0,0.37,0.158,0.551,0.354c0.298,0.334,0.22,0.47-1.302,2.235
	c-0.893,1.034-1.751,2.033-1.901,2.224c-0.259,0.312-0.176,0.446,0.887,1.392c1.161,1.046,1.166,1.051,0.79,1.468
	c-0.204,0.229-0.429,0.415-0.492,0.41C36.01-12.227,35.249-12.883,34.391-13.678L34.391-13.678z M-14.35-18.439
	c-1.036-1.577-1.885-2.933-1.882-3.008c0.002-0.193,2.721-1.943,3.436-2.211c1.148-0.432,2.158,0.161,2.77,1.629
	c0.271,0.646,0.275,0.819,0.027,1.409l-0.283,0.675l1.299,0.46c0.717,0.254,1.329,0.551,1.363,0.658
	c0.037,0.107-0.202,0.349-0.524,0.532c-0.565,0.322-0.639,0.317-1.948-0.168c-1.307-0.482-1.382-0.487-1.877-0.163
	c-0.639,0.417-0.641,0.529-0.027,1.434c0.271,0.4,0.495,0.807,0.495,0.907c0,0.188-0.595,0.697-0.827,0.709
	c-0.075,0.002-0.985-1.285-2.023-2.862H-14.35z M-12.19-19.912c1.029-0.709,1.209-1.158,0.795-1.962
	c-0.41-0.79-0.932-0.778-2.236,0.044l-1.029,0.648l0.644,0.929c0.354,0.51,0.714,0.929,0.802,0.932c0.09,0,0.551-0.266,1.024-0.592
	V-19.912z M30.197-16.959l-1.813-1.185l1.911-2.955c1.054-1.624,1.97-2.953,2.038-2.955c0.068,0,0.327,0.159,0.571,0.356
	l0.443,0.361l-1.619,2.431c-0.893,1.339-1.541,2.487-1.443,2.553s0.663,0.424,1.248,0.797c0.586,0.373,1.103,0.707,1.151,0.741
	c0.107,0.08-0.41,1.048-0.561,1.043C32.061-15.774,31.192-16.309,30.197-16.959L30.197-16.959z M-8.196-22.184
	c-0.841-1.682-1.526-3.138-1.526-3.233s0.154-0.227,0.344-0.292c0.19-0.068,0.439-0.168,0.556-0.227
	c0.117-0.056,0.885,1.285,1.753,3.067c1.478,3.033,1.529,3.182,1.17,3.452c-0.202,0.154-0.461,0.283-0.57,0.288
	C-6.583-19.125-7.358-20.5-8.196-22.184L-8.196-22.184z M24.415-20.029c-1.946-0.844-2.838-2.914-2.068-4.771
	c0.625-1.484,1.771-2.267,3.346-2.279c2.335-0.022,4.057,1.853,3.798,4.135C29.223-20.556,26.628-19.068,24.415-20.029z
	 M26.657-21.172c1.01-0.422,1.502-1.19,1.502-2.338c0-0.851-0.088-1.068-0.668-1.651c-0.551-0.548-0.824-0.67-1.487-0.67
	c-1.111,0-1.96,0.476-2.296,1.29c-0.61,1.458-0.142,2.784,1.185,3.362c0.775,0.339,0.971,0.339,1.765,0.01V-21.172z M-5.11-20.851
	c0.061-0.407,0.202-1.76,0.317-3.008c0.356-3.928,0.349-3.891,0.97-4.108c0.305-0.104,0.634-0.134,0.729-0.065
	c0.098,0.07,1.017,1.061,2.041,2.201c1.026,1.139,2.136,2.363,2.465,2.721c0.502,0.543,0.554,0.68,0.307,0.836
	c-0.539,0.341-1.143,0.198-1.636-0.39l-0.49-0.58l-1.587,0.519c-1.633,0.537-1.802,0.7-1.807,1.782
	c-0.002,0.298-0.173,0.512-0.509,0.642C-5.132-19.99-5.229-20.056-5.11-20.851z M-2.328-23.9c0.49-0.129,0.892-0.288,0.892-0.349
	c0-0.063-0.392-0.556-0.87-1.095c-0.844-0.956-0.871-0.968-0.978-0.488c-0.19,0.858-0.242,2.17-0.085,2.17
	C-3.286-23.662-2.818-23.769-2.328-23.9z M17.642-22.172c-1.497-0.532-2.336-1.738-2.336-3.35c0-1.37,0.474-2.37,1.453-3.079
	c1.443-1.046,3.516-0.917,4.809,0.305c0.809,0.761,0.828,0.934,0.175,1.283c-0.448,0.241-0.526,0.227-0.795-0.159
	c-0.38-0.541-1.628-0.919-2.501-0.753c-1.843,0.344-2.409,2.899-0.927,4.149c0.663,0.559,1.849,0.688,2.6,0.288
	c0.336-0.183,0.463-0.156,0.678,0.136c0.419,0.576,0.312,0.812-0.532,1.148C19.314-21.821,18.646-21.813,17.642-22.172
	L17.642-22.172z M1.853-25.585c-0.292-1.819-0.531-3.423-0.529-3.564c0.002-0.173,0.214-0.239,0.644-0.198l0.639,0.061l0.432,2.733
	c0.236,1.502,0.458,2.755,0.495,2.782c0.034,0.029,0.712-0.041,1.507-0.156c1.205-0.171,1.475-0.159,1.628,0.081
	c0.424,0.658,0.11,0.87-1.792,1.211c-1.032,0.186-2.012,0.339-2.182,0.346C2.445-22.284,2.28-22.93,1.853-25.585L1.853-25.585z"/>
</svg>
