<?xml version="1.0" encoding="utf-8"?>
<!-- Generator: Adobe Illustrator 15.0.0, SVG Export Plug-In . SVG Version: 6.00 Build 0)  -->
<!DOCTYPE svg PUBLIC "-//W3C//DTD SVG 1.1//EN" "http://www.w3.org/Graphics/SVG/1.1/DTD/svg11.dtd">
<svg version="1.1" id="Layer_1" xmlns="http://www.w3.org/2000/svg" xmlns:xlink="http://www.w3.org/1999/xlink" x="0px" y="0px"
	 width="100px" height="100px" viewBox="0 0 100 100" enable-background="new 0 0 100 100" xml:space="preserve">
<path fill="#FFFFFF" d="M35.727,35.281c-0.783-1.601-1.192-3.354-1.192-5.255c0-2.979,0.968-5.589,2.907-7.825
	c0.446-0.559,0.969-1.079,1.528-1.603c2.98-2.646,6.559-3.949,10.771-3.949c4.246-0.038,7.861,1.267,10.845,3.876
	c1.714,1.453,2.945,3.13,3.651,5.031c0.484,1.305,0.746,2.682,0.783,4.137v0.074c-0.037,0.708,0.261,1.378,0.817,1.937
	c0.56,0.559,1.754,0.784,3.579,0.671c1.789-0.111,3.055-0.485,3.764-1.081c0.709-0.596,1.08-1.416,1.045-2.46
	c0-0.038,0-0.074,0-0.113v-0.185c-0.224-5.627-2.572-10.435-7.082-14.458c-4.73-4.247-10.473-6.373-17.18-6.373
	c-6.669,0-12.409,2.123-17.142,6.373c-4.732,4.248-7.118,9.39-7.118,15.39c0,3.839,0.968,7.342,2.868,10.435
	c0.299,0.449,0.597,0.932,0.932,1.418c2.796,3.578,6.597,6.26,11.329,8.085c0.372,0.113,0.745,0.262,1.118,0.411
	c0.186,0.075,0.409,0.149,0.596,0.185c0.335,0.113,1.154,0.374,2.459,0.709c1.268,0.373,3.093,0.782,5.442,1.191
	c2.348,0.41,4.619,1.195,6.818,2.273c2.198,1.008,4.023,2.312,5.478,3.876c0.636,0.782,1.155,1.565,1.565,2.388
	c0.781,1.603,1.154,3.353,1.154,5.254c0,2.123-0.482,4.022-1.453,5.775c-0.408,0.708-0.896,1.415-1.453,2.049
	c-0.447,0.561-0.97,1.082-1.527,1.564c-2.982,2.646-6.559,3.951-10.771,3.951c-4.212,0.035-7.825-1.268-10.845-3.838
	c-1.715-1.491-2.943-3.17-3.651-5.031c-0.485-1.305-0.746-2.686-0.783-4.174v-0.038c0-1.043-0.446-1.787-1.305-2.197
	c-0.855-0.446-2.012-0.596-3.391-0.483s-2.497,0.521-3.354,1.192c-0.857,0.597-1.23,1.379-1.155,2.386v0.148
	c0,0.036,0,0.111,0,0.188c0.223,5.627,2.571,10.434,7.08,14.42c4.732,4.285,10.472,6.41,17.179,6.41
	c6.708,0,12.409-2.125,17.143-6.41c3.318-2.941,5.479-6.334,6.484-10.137c0.409-1.676,0.635-3.428,0.635-5.253
	c0-3.839-0.932-7.305-2.835-10.397c-0.334-0.483-0.632-0.932-0.966-1.416c-3.021-3.912-7.155-6.744-12.448-8.531
	c-0.186-0.038-0.37-0.113-0.596-0.188c-0.113-0.035-0.67-0.185-1.678-0.446c-1.006-0.26-2.606-0.596-4.881-0.931
	c-2.312-0.411-4.771-1.192-7.379-2.348c-0.97-0.484-1.862-0.932-2.684-1.416c-1.416-0.858-2.608-1.826-3.578-2.907
	C36.621,36.882,36.1,36.101,35.727,35.281L35.727,35.281z"/>
<path fill="none" stroke="#FFFFFF" stroke-width="0.629" stroke-linecap="round" stroke-linejoin="round" stroke-miterlimit="10" d="
	M35.727,35.281c0.372,0.82,0.893,1.604,1.527,2.348c0.969,1.081,2.161,2.048,3.577,2.906c0.82,0.484,1.715,0.932,2.684,1.416
	c2.608,1.156,5.068,1.938,7.377,2.348c2.274,0.335,3.877,0.669,4.885,0.932c1.006,0.26,1.563,0.409,1.675,0.447
	c0.226,0.075,0.412,0.149,0.599,0.185c5.291,1.791,9.428,4.62,12.445,8.534c0.335,0.483,0.634,0.933,0.969,1.416
	c1.9,3.095,2.832,6.561,2.832,10.396c0,1.826-0.223,3.577-0.634,5.254c-1.006,3.801-3.167,7.192-6.481,10.139
	c-4.732,4.283-10.438,6.406-17.146,6.406c-6.708,0-12.446-2.123-17.179-6.406c-4.508-3.986-6.857-8.795-7.08-14.422
	c0-0.074,0-0.149,0-0.188v-0.149c-0.074-1.005,0.297-1.788,1.155-2.385c0.858-0.672,1.976-1.081,3.354-1.192
	c1.38-0.111,2.535,0.039,3.392,0.483c0.857,0.411,1.305,1.155,1.305,2.198v0.035c0.037,1.492,0.299,2.871,0.783,4.174
	c0.709,1.863,1.938,3.541,3.652,5.031c3.018,2.57,6.633,3.875,10.844,3.838c4.211,0,7.789-1.306,10.771-3.949
	c0.559-0.484,1.078-1.006,1.525-1.562c0.561-0.635,1.045-1.344,1.453-2.053c0.971-1.75,1.455-3.65,1.455-5.773
	c0-1.9-0.373-3.651-1.154-5.256c-0.41-0.818-0.933-1.604-1.566-2.385c-1.452-1.566-3.279-2.871-5.477-3.876
	c-2.199-1.082-4.474-1.864-6.819-2.274c-2.348-0.41-4.173-0.817-5.441-1.19c-1.305-0.335-2.124-0.599-2.46-0.709
	c-0.186-0.038-0.41-0.113-0.596-0.187c-0.372-0.149-0.745-0.299-1.117-0.409c-4.733-1.828-8.534-4.51-11.33-8.088
	c-0.334-0.483-0.633-0.966-0.931-1.415c-1.9-3.093-2.869-6.596-2.869-10.435c0-6,2.386-11.144,7.118-15.392
	c4.733-4.249,10.471-6.373,17.143-6.373c6.707,0,12.446,2.124,17.18,6.373c4.511,4.024,6.855,8.833,7.08,14.458v0.187
	c0,0.038,0,0.075,0,0.113c0.037,1.042-0.336,1.863-1.043,2.459c-0.709,0.596-1.976,0.969-3.764,1.082
	c-1.827,0.111-3.021-0.113-3.579-0.671c-0.56-0.56-0.854-1.229-0.817-1.938v-0.075c-0.037-1.452-0.299-2.831-0.782-4.135
	c-0.709-1.901-1.939-3.579-3.652-5.032c-2.981-2.606-6.596-3.911-10.846-3.875c-4.211,0-7.788,1.305-10.77,3.95
	c-0.56,0.521-1.081,1.043-1.528,1.604c-1.938,2.236-2.906,4.843-2.906,7.825C34.534,31.926,34.944,33.68,35.727,35.281
	L35.727,35.281z"/>
<path fill="#FFFFFF" d="M46.197,0.475c-0.111,0.223-0.147,0.447-0.111,0.708c7.118,23.85,6.074,43.973-3.056,60.333
	c-4.808,8.459-7.044,15.39-6.782,20.758c0.224,5.623,3.093,9.65,8.57,12.071c0.224,0.075,0.446,0.075,0.671,0
	c0.261-0.112,0.446-0.263,0.559-0.485c0.075-0.223,0.075-0.444,0-0.709c-0.111-0.26-0.26-0.407-0.484-0.482
	C40.757,90.545,38.26,87.079,38,82.232c-0.187-5.178,2.012-11.774,6.559-19.785c9.427-16.732,10.509-37.338,3.316-61.785
	c-0.111-0.224-0.261-0.41-0.484-0.521c-0.223-0.15-0.447-0.186-0.671-0.075C46.46,0.14,46.31,0.289,46.197,0.475L46.197,0.475z"/>
<path fill="none" stroke="#FFFFFF" stroke-width="0.629" stroke-linecap="round" stroke-linejoin="round" stroke-miterlimit="10" d="
	M46.197,0.475c0.112-0.186,0.261-0.335,0.521-0.41c0.224-0.111,0.447-0.075,0.671,0.075c0.224,0.111,0.373,0.297,0.484,0.521
	c7.193,24.445,6.111,45.053-3.316,61.784c-4.545,8.014-6.745,14.609-6.559,19.787c0.261,4.846,2.758,8.312,7.564,10.435
	c0.225,0.075,0.373,0.224,0.484,0.483c0.075,0.264,0.075,0.485,0,0.709c-0.111,0.223-0.298,0.373-0.559,0.484
	c-0.225,0.075-0.447,0.075-0.671,0c-5.478-2.424-8.347-6.447-8.57-12.07c-0.262-5.369,1.975-12.301,6.782-20.76
	c9.13-16.359,10.174-36.481,3.056-60.332C46.05,0.923,46.086,0.699,46.197,0.475L46.197,0.475z"/>
<path fill="#FFFFFF" d="M39.899,57.566c-0.074,0-0.147,0.035-0.186,0.072c-2.943,1.789-3.913,3.392-2.943,4.77
	c2.795,4.473,6.559,7.156,11.365,8.086c1.342,0.188,1.938,0.188,1.751,0c-0.148-0.186-0.224-0.334-0.186-0.408l0.932-2.835
	c0-0.036,0-0.073,0-0.108c0-0.227,0-0.449,0.037-0.709c0-0.113-0.037-0.188-0.075-0.265c-0.037-0.073-0.112-0.108-0.187-0.108
	c-4.136-1.008-7.527-3.767-10.173-8.312c-0.037-0.037-0.111-0.075-0.149-0.111C40.049,57.604,39.975,57.566,39.899,57.566
	L39.899,57.566z"/>
<path fill="#FFFFFF" d="M34.459,53.766c-0.783,0-1.49,0.26-2.049,0.817c-0.56,0.597-0.857,1.306-0.857,2.088
	s0.298,1.453,0.857,2.013c0.559,0.559,1.266,0.856,2.049,0.856s1.455-0.298,2.013-0.856c0.597-0.56,0.895-1.229,0.895-2.013
	c0-0.782-0.298-1.491-0.895-2.088C35.914,54.025,35.242,53.766,34.459,53.766L34.459,53.766z"/>
<path fill="none" stroke="#FFFFFF" stroke-width="0.629" stroke-linecap="round" stroke-linejoin="round" stroke-miterlimit="10" d="
	M32.41,54.583c-0.56,0.597-0.857,1.306-0.857,2.088s0.298,1.453,0.857,2.013c0.559,0.559,1.266,0.856,2.049,0.856
	s1.455-0.298,2.013-0.856c0.597-0.56,0.895-1.229,0.895-2.013c0-0.782-0.298-1.491-0.895-2.088c-0.56-0.558-1.229-0.817-2.013-0.817
	S32.969,54.025,32.41,54.583L32.41,54.583z"/>
<path fill="none" stroke="#FFFFFF" stroke-width="1.887" stroke-linecap="round" stroke-linejoin="round" stroke-miterlimit="10" d="
	M50.073,66.919l6.782-1.976l2.088,7.267 M51.826,77.54l3.055-7.192l-6.41-0.933 M48.807,51.826l-9.279,7.38"/>
</svg>
