<?xml version="1.0" encoding="utf-8"?>
<!-- Generator: Adobe Illustrator 15.0.0, SVG Export Plug-In . SVG Version: 6.00 Build 0)  -->
<!DOCTYPE svg PUBLIC "-//W3C//DTD SVG 1.1//EN" "http://www.w3.org/Graphics/SVG/1.1/DTD/svg11.dtd">
<svg version="1.1" id="Layer_1" xmlns="http://www.w3.org/2000/svg" xmlns:xlink="http://www.w3.org/1999/xlink" x="0px" y="0px"
	 width="100px" height="45px" viewBox="0 0 100 45" enable-background="new 0 0 100 45" xml:space="preserve">
<g>
	<g>
		<path fill="#5F84C3" d="M5.812,42.05c-0.031,0-0.078-0.03-0.14-0.093H5.656c-0.01-0.01-0.046-0.036-0.108-0.078
			C5.537,41.858,5.521,41.835,5.5,41.81c-0.021-0.025-0.036-0.044-0.046-0.055c-0.01-0.01-0.023-0.033-0.039-0.069
			C5.4,41.649,5.381,41.621,5.361,41.6L1.556,32.53c-0.093-0.207-0.096-0.422-0.008-0.645c0.088-0.223,0.246-0.375,0.474-0.458
			c0.207-0.094,0.419-0.096,0.637-0.008s0.373,0.24,0.466,0.458l3.028,7.19l3.028-7.19c0.093-0.218,0.251-0.37,0.474-0.458
			s0.438-0.086,0.645,0.008c0.218,0.083,0.37,0.235,0.458,0.458c0.087,0.223,0.09,0.438,0.007,0.645L6.93,41.6l-0.062,0.124
			c0,0.011-0.005,0.021-0.016,0.031L6.65,41.957c-0.021,0.021-0.054,0.041-0.101,0.062c-0.046,0.021-0.116,0.046-0.209,0.077H6.308
			c-0.042,0.011-0.096,0.016-0.163,0.016s-0.116-0.005-0.147-0.016H5.967c-0.042-0.021-0.083-0.031-0.125-0.031L5.827,42.05H5.812z"
			/>
		<path opacity="0.5" fill="#5F84C3" d="M19.555,34.704c0-0.134,0.064-0.201,0.194-0.201c0.129,0,0.194,0.067,0.194,0.201v7.206
			c0,0.135-0.064,0.202-0.194,0.202c-0.13,0-0.194-0.067-0.194-0.202v-1.895c-0.3,0.632-0.738,1.139-1.312,1.522
			c-0.575,0.383-1.204,0.574-1.887,0.574c-0.994,0-1.84-0.373-2.539-1.118s-1.048-1.641-1.048-2.687s0.35-1.941,1.048-2.687
			c0.699-0.746,1.545-1.118,2.539-1.118c0.684,0,1.312,0.191,1.887,0.574c0.574,0.383,1.012,0.891,1.312,1.522V34.704z
			 M14.097,40.723c0.626,0.668,1.379,1.001,2.259,1.001s1.633-0.333,2.26-1.001s0.939-1.473,0.939-2.415s-0.313-1.745-0.939-2.407
			s-1.38-0.994-2.26-0.994s-1.633,0.332-2.259,0.994c-0.627,0.662-0.94,1.465-0.94,2.407S13.47,40.055,14.097,40.723z"/>
		<path opacity="0.5" fill="#5F84C3" d="M23.313,31.443c0-0.135,0.064-0.202,0.194-0.202s0.194,0.067,0.194,0.202V41.91
			c0,0.135-0.065,0.202-0.194,0.202s-0.194-0.067-0.194-0.202V31.443z"/>
		<path opacity="0.5" fill="#5F84C3" d="M26.916,34.704c0-0.134,0.067-0.201,0.202-0.201c0.052,0,0.096,0.021,0.132,0.062
			c0.036,0.042,0.054,0.088,0.054,0.14v4.333c0,0.746,0.259,1.38,0.776,1.902c0.518,0.523,1.144,0.784,1.879,0.784
			c0.735,0,1.364-0.261,1.887-0.784c0.523-0.522,0.784-1.156,0.784-1.902v-4.333c0-0.052,0.021-0.098,0.062-0.14
			c0.041-0.041,0.087-0.062,0.14-0.062c0.134,0,0.202,0.067,0.202,0.201v4.333c0,0.85-0.3,1.574-0.9,2.175
			c-0.601,0.601-1.323,0.9-2.167,0.9c-0.844,0-1.563-0.3-2.159-0.9c-0.596-0.601-0.893-1.325-0.893-2.175V34.704z"/>
		<path opacity="0.5" fill="#5F84C3" d="M42.555,34.704c0-0.134,0.064-0.201,0.194-0.201c0.129,0,0.194,0.067,0.194,0.201v7.206
			c0,0.135-0.064,0.202-0.194,0.202c-0.13,0-0.194-0.067-0.194-0.202v-1.895c-0.3,0.632-0.738,1.139-1.312,1.522
			c-0.575,0.383-1.204,0.574-1.887,0.574c-0.994,0-1.84-0.373-2.539-1.118s-1.048-1.641-1.048-2.687s0.35-1.941,1.048-2.687
			c0.699-0.746,1.545-1.118,2.539-1.118c0.684,0,1.312,0.191,1.887,0.574c0.574,0.383,1.012,0.891,1.312,1.522V34.704z
			 M37.096,40.723c0.626,0.668,1.379,1.001,2.259,1.001s1.633-0.333,2.26-1.001s0.939-1.473,0.939-2.415s-0.313-1.745-0.939-2.407
			s-1.38-0.994-2.26-0.994s-1.633,0.332-2.259,0.994c-0.627,0.662-0.94,1.465-0.94,2.407S36.469,40.055,37.096,40.723z"/>
		<path opacity="0.5" fill="#5F84C3" d="M46.204,41.91V31.475c0-0.155,0.067-0.233,0.202-0.233c0.042,0,0.083,0.026,0.125,0.078
			c0.041,0.052,0.062,0.104,0.062,0.155V36.6c0.311-0.632,0.758-1.14,1.343-1.522s1.229-0.574,1.934-0.574
			c1.025,0,1.896,0.37,2.617,1.11c0.719,0.74,1.079,1.633,1.079,2.679s-0.36,1.943-1.079,2.694
			c-0.721,0.751-1.592,1.126-2.617,1.126c-0.704,0-1.349-0.191-1.934-0.574c-0.585-0.384-1.033-0.886-1.343-1.507v1.879
			c0,0.052-0.018,0.099-0.054,0.14c-0.037,0.042-0.081,0.062-0.132,0.062C46.271,42.112,46.204,42.045,46.204,41.91z M46.592,38.152
			v0.14c0,0.942,0.321,1.75,0.963,2.423c0.642,0.673,1.416,1.009,2.322,1.009s1.682-0.336,2.33-1.009
			c0.646-0.673,0.971-1.48,0.971-2.423s-0.324-1.744-0.971-2.407c-0.648-0.662-1.416-0.994-2.307-0.994s-1.657,0.318-2.299,0.955
			S46.624,37.251,46.592,38.152z"/>
		<path opacity="0.5" fill="#5F84C3" d="M56.562,31.443c0-0.135,0.064-0.202,0.193-0.202c0.13,0,0.195,0.067,0.195,0.202V41.91
			c0,0.135-0.065,0.202-0.195,0.202c-0.129,0-0.193-0.067-0.193-0.202V31.443z"/>
		<path opacity="0.5" fill="#5F84C3" d="M67.123,38.013v0.062c-0.021,0.124-0.084,0.187-0.188,0.187h-6.771v0.047
			c0,0.932,0.323,1.731,0.971,2.399s1.426,1.007,2.337,1.017c0.569,0,1.096-0.14,1.576-0.419c0.482-0.279,0.867-0.657,1.157-1.134
			c0.072-0.104,0.163-0.119,0.272-0.047c0.107,0.073,0.126,0.161,0.054,0.265c-0.331,0.518-0.769,0.935-1.312,1.25
			c-0.545,0.315-1.127,0.474-1.748,0.474c-1.015-0.01-1.879-0.386-2.594-1.126c-0.714-0.74-1.082-1.633-1.102-2.679
			c0.02-1.057,0.388-1.954,1.102-2.694c0.715-0.74,1.566-1.11,2.555-1.11c0.989,0,1.833,0.336,2.531,1.009
			C66.664,36.186,67.05,37.019,67.123,38.013z M65.646,35.761c-0.621-0.569-1.348-0.854-2.182-0.854s-1.562,0.285-2.189,0.854
			s-0.992,1.278-1.095,2.127h6.554C66.631,37.039,66.268,36.33,65.646,35.761z"/>
	</g>
	<g>
		<path fill="#5F84C3" d="M4.197,9.601c0.1-0.122,0.083-0.298-0.036-0.399L0.964,6.553c-0.119-0.1-0.298-0.083-0.396,0.036
			c-0.1,0.12-0.083,0.298,0.036,0.396l3.196,2.65C3.921,9.735,4.099,9.719,4.197,9.601z"/>
		<path fill="#5F84C3" d="M27.94,6.721l-3.198,2.65c-0.119,0.1-0.135,0.277-0.037,0.396c0.1,0.121,0.277,0.138,0.399,0.038
			l3.194-2.65c0.12-0.101,0.137-0.277,0.038-0.396C28.238,6.638,28.061,6.623,27.94,6.721z"/>
		<path fill="#5F84C3" d="M14.105,7.602c0.155,0.004,0.286-0.117,0.289-0.275l0.115-4.149c0.004-0.155-0.118-0.286-0.274-0.289
			c-0.155-0.003-0.284,0.118-0.289,0.273l-0.116,4.15C13.827,7.468,13.95,7.596,14.105,7.602z"/>
		<g>
			<polygon fill="#5F84C3" points="4.577,17.477 9.611,17.477 13.031,27.164 			"/>
			<polygon fill="#5F84C3" points="10.607,17.477 17.635,17.477 14.122,27.736 11.844,21.087 			"/>
			<polygon fill="#5F84C3" points="18.493,17.477 23.764,17.477 15.214,27.164 			"/>
			<polygon fill="#5F84C3" points="4.577,16.574 9.136,16.574 6.856,12.965 			"/>
			<polygon fill="#5F84C3" points="19.205,16.574 23.764,16.574 21.484,12.965 			"/>
			<polygon fill="#5F84C3" points="10.894,16.574 17.305,16.574 14.099,12.965 			"/>
			<polygon fill="#5F84C3" points="9.943,16.288 7.568,12.679 13.031,12.679 			"/>
			<polygon fill="#5F84C3" points="18.303,16.288 20.677,12.679 15.214,12.679 			"/>
		</g>
	</g>
</g>
</svg>
