<?xml version="1.0" encoding="utf-8"?>
<!-- Generator: Adobe Illustrator 15.0.0, SVG Export Plug-In . SVG Version: 6.00 Build 0)  -->
<!DOCTYPE svg PUBLIC "-//W3C//DTD SVG 1.1//EN" "http://www.w3.org/Graphics/SVG/1.1/DTD/svg11.dtd">
<svg version="1.1" id="Layer_1" xmlns="http://www.w3.org/2000/svg" xmlns:xlink="http://www.w3.org/1999/xlink" x="0px" y="0px"
	 width="100px" height="45px" viewBox="0 0 100 45" enable-background="new 0 0 100 45" xml:space="preserve">
<g>
	<g>
		<path fill="#5F84C3" d="M8.451,38.732c0-0.783-0.907-1.346-2.722-1.686H5.697c-0.804-0.156-1.5-0.373-2.088-0.65
			c-0.588-0.279-1.019-0.637-1.292-1.076c-0.273-0.438-0.41-0.889-0.41-1.354c0-0.896,0.395-1.633,1.183-2.211
			c0.789-0.578,1.699-0.867,2.73-0.867c0.454,0,0.917,0.078,1.392,0.232c0.474,0.154,0.828,0.299,1.06,0.434s0.539,0.324,0.92,0.572
			c0.175,0.123,0.286,0.293,0.333,0.51s0.01,0.416-0.108,0.596c-0.119,0.182-0.286,0.295-0.502,0.34
			c-0.217,0.047-0.417,0.008-0.604-0.115c-0.485-0.33-0.915-0.578-1.292-0.742s-0.776-0.248-1.199-0.248
			c-0.681,0-1.238,0.16-1.671,0.48c-0.433,0.318-0.649,0.66-0.649,1.02c0,0.176,0.041,0.326,0.124,0.449
			c0.289,0.475,1.067,0.83,2.336,1.068h0.031c0.866,0.174,1.578,0.391,2.135,0.648c1.279,0.629,1.918,1.496,1.918,2.6
			c0,0.959-0.423,1.746-1.268,2.359c-0.846,0.613-1.82,0.92-2.924,0.92c-1.351-0.01-2.671-0.525-3.96-1.547
			c-0.165-0.135-0.26-0.314-0.286-0.541s0.028-0.424,0.163-0.588c0.134-0.166,0.314-0.262,0.542-0.287
			c0.227-0.025,0.422,0.033,0.587,0.178c0.99,0.805,1.975,1.201,2.955,1.191c0.773,0,1.4-0.178,1.879-0.533
			S8.451,39.145,8.451,38.732z"/>
		<path opacity="0.5" fill="#5F84C3" d="M12.457,42.027c-0.134,0-0.201-0.057-0.201-0.17V31.4c0-0.135,0.064-0.201,0.193-0.201
			s0.193,0.066,0.193,0.201v4.641c0.268-0.484,0.642-0.871,1.122-1.16s1.003-0.434,1.57-0.434c0.845,0,1.567,0.299,2.166,0.896
			c0.598,0.6,0.897,1.326,0.897,2.182v4.301c0,0.051-0.018,0.098-0.054,0.139s-0.08,0.062-0.131,0.062
			c-0.134,0-0.201-0.068-0.201-0.201v-4.301c0-0.742-0.26-1.373-0.781-1.895c-0.521-0.521-1.147-0.781-1.879-0.781
			s-1.359,0.25-1.879,0.75c-0.521,0.5-0.796,1.105-0.828,1.818v4.408c0,0.133-0.052,0.201-0.155,0.201H12.457z"/>
		<path opacity="0.5" fill="#5F84C3" d="M22.427,35.561c0.696-0.742,1.539-1.113,2.529-1.113c0.99,0,1.835,0.371,2.537,1.113
			s1.052,1.635,1.052,2.676c0,1.043-0.351,1.934-1.052,2.678c-0.701,0.742-1.547,1.113-2.537,1.113c-0.99,0-1.833-0.371-2.529-1.113
			c-0.696-0.744-1.044-1.635-1.044-2.678C21.383,37.195,21.73,36.303,22.427,35.561z M22.705,40.643
			c0.624,0.664,1.374,0.998,2.251,0.998c0.876,0,1.629-0.334,2.258-0.998c0.629-0.666,0.943-1.467,0.943-2.406
			c0-0.938-0.314-1.74-0.943-2.404c-0.629-0.666-1.382-0.998-2.258-0.998c-0.877,0-1.627,0.332-2.251,0.998
			c-0.624,0.664-0.936,1.467-0.936,2.404C21.77,39.176,22.081,39.977,22.705,40.643z"/>
		<path opacity="0.5" fill="#5F84C3" d="M35.289,34.85c-1.526,0-2.691,1.145-3.496,3.434v3.543c0,0.133-0.062,0.201-0.186,0.201
			c-0.124,0-0.186-0.068-0.186-0.201v-3.543c-0.01-0.02-0.01-0.051,0-0.092v-3.543c0-0.051,0.018-0.098,0.054-0.139
			s0.08-0.062,0.131-0.062c0.124,0,0.186,0.066,0.186,0.201v2.568c0.145-0.342,0.304-0.641,0.479-0.898
			c0.835-1.248,1.841-1.871,3.017-1.871c0.134,0,0.201,0.066,0.201,0.201S35.423,34.85,35.289,34.85z"/>
		<path opacity="0.5" fill="#5F84C3" d="M40.533,34.447c0.134,0,0.201,0.064,0.201,0.193s-0.067,0.193-0.201,0.193h-1.237v6.033
			c0,0.217,0.077,0.402,0.232,0.557s0.319,0.232,0.495,0.232s0.263,0.064,0.263,0.193s-0.067,0.193-0.201,0.193
			c-0.32,0-0.595-0.117-0.828-0.35c-0.232-0.23-0.348-0.508-0.348-0.826v-6.033h-1.3c-0.134,0-0.201-0.064-0.201-0.193
			s0.067-0.193,0.201-0.193h1.3v-3.031c0-0.135,0.064-0.201,0.193-0.201c0.128,0,0.193,0.066,0.193,0.201v3.031H40.533z"/>
	</g>
	<path opacity="0.5" fill="#5F84C3" d="M21.533,13.8c-0.305-0.605-1.044-0.848-1.653-0.539l-2.481,1.259l-2.703-2.701
		c-0.201-0.199-0.457-0.301-0.722-0.33c-0.224,0.222-0.477,0.417-0.743,0.587c-0.04-0.238-0.087-0.472-0.142-0.697
		c1.283-0.808,2.141-2.232,2.141-3.861c0-2.521-2.043-4.56-4.563-4.56s-4.562,2.04-4.562,4.56c0,2.087,1.401,3.841,3.313,4.383
		c0.073,0.25,0.134,0.496,0.174,0.719c-0.784-0.214-1.486-0.63-2.043-1.192c-0.188-0.023-0.386-0.023-0.567,0.044l-2.36,0.864
		L2.803,9.086c-0.332-0.6-1.089-0.806-1.671-0.478c-0.591,0.334-0.807,1.083-0.474,1.674l2.327,4.171
		c0.222,0.401,0.638,0.632,1.07,0.632c0.143,0,0.288-0.027,0.426-0.079l2.641-0.965l0.282,0.26l-1.22,12.175
		c0,0.678,0.55,1.23,1.229,1.23c0.68,0,1.233-0.553,1.233-1.23l1.287-6.2h1.793v6.2c0,0.678,0.55,1.23,1.229,1.23
		c0.679,0,1.229-0.553,1.229-1.23V14.793l2.103,2.1c0.235,0.234,0.553,0.361,0.87,0.361c0.188,0,0.381-0.047,0.557-0.137
		l3.278-1.665C21.599,15.144,21.84,14.406,21.533,13.8z"/>
</g>
<g>
	<g>
		<path fill="#5F84C3" d="M9.371,345.967c0.166,0.166,0.249,0.368,0.249,0.605c0,0.238-0.085,0.443-0.256,0.614
			s-0.371,0.256-0.598,0.256h-2.47v8.296c0,0.238-0.083,0.44-0.249,0.605c-0.166,0.166-0.368,0.249-0.606,0.249
			S5,356.51,4.835,356.344c-0.166-0.165-0.249-0.367-0.249-0.605v-8.296H2.132c-0.239,0-0.44-0.085-0.606-0.256
			c-0.166-0.171-0.249-0.376-0.249-0.614c0-0.237,0.083-0.439,0.249-0.605c0.166-0.166,0.367-0.249,0.606-0.249h6.633
			C9.003,345.718,9.205,345.801,9.371,345.967z"/>
		<path opacity="0.5" fill="#5F84C3" d="M18.816,352.491v0.062c-0.021,0.124-0.083,0.187-0.187,0.187h-6.773v0.047
			c0,0.932,0.323,1.731,0.971,2.399s1.427,1.008,2.338,1.018c0.57,0,1.095-0.14,1.577-0.419c0.481-0.28,0.867-0.658,1.157-1.134
			c0.072-0.104,0.163-0.119,0.272-0.047s0.126,0.16,0.054,0.264c-0.332,0.519-0.769,0.935-1.312,1.251
			c-0.544,0.315-1.126,0.474-1.748,0.474c-1.015-0.01-1.879-0.386-2.594-1.126c-0.714-0.74-1.082-1.634-1.103-2.68
			c0.021-1.057,0.389-1.955,1.103-2.695c0.715-0.741,1.566-1.111,2.556-1.111c0.989,0,1.833,0.337,2.532,1.01
			C18.358,350.664,18.744,351.497,18.816,352.491z M17.34,350.239c-0.622-0.569-1.349-0.854-2.183-0.854
			c-0.834,0-1.564,0.285-2.19,0.854c-0.627,0.569-0.992,1.279-1.095,2.128h6.556C18.324,351.519,17.961,350.809,17.34,350.239z"/>
		<path opacity="0.5" fill="#5F84C3" d="M23.927,356.593c-0.477,0-0.958-0.093-1.445-0.279c-0.652-0.259-1.124-0.533-1.414-0.823
			c-0.062-0.062-0.081-0.13-0.055-0.202s0.07-0.119,0.132-0.14c0.062-0.021,0.124-0.003,0.187,0.054
			c0.062,0.058,0.178,0.147,0.349,0.272c0.171,0.124,0.479,0.276,0.924,0.458s0.886,0.271,1.321,0.271
			c0.694,0,1.287-0.176,1.779-0.528c0.492-0.352,0.738-0.776,0.738-1.273c0-0.394-0.119-0.693-0.357-0.901
			c-0.259-0.228-0.523-0.388-0.792-0.481c-0.363-0.113-0.736-0.215-1.119-0.303c-0.383-0.088-0.655-0.152-0.816-0.194
			c-0.161-0.041-0.383-0.121-0.668-0.24c-0.285-0.119-0.495-0.241-0.629-0.365c-0.363-0.332-0.544-0.748-0.544-1.251
			c0-0.502,0.236-0.935,0.707-1.297s0.986-0.544,1.546-0.544c0.559,0,1.035,0.083,1.429,0.249c0.559,0.228,0.917,0.455,1.072,0.684
			c0.052,0.052,0.062,0.113,0.031,0.186c-0.031,0.073-0.081,0.117-0.148,0.133s-0.127-0.003-0.179-0.055
			c-0.528-0.528-1.211-0.792-2.05-0.792c-0.549,0-1.021,0.14-1.414,0.419c-0.394,0.28-0.59,0.621-0.59,1.025
			c0,0.528,0.238,0.906,0.714,1.134c0.373,0.187,0.81,0.337,1.312,0.451s0.844,0.196,1.025,0.248s0.409,0.132,0.684,0.241
			c0.274,0.108,0.484,0.23,0.629,0.365c0.373,0.342,0.559,0.795,0.559,1.359s-0.282,1.059-0.847,1.483
			S24.745,356.593,23.927,356.593z"/>
		<path opacity="0.5" fill="#5F84C3" d="M31.461,348.98c0.134,0,0.202,0.065,0.202,0.194c0,0.13-0.068,0.194-0.202,0.194h-1.243
			v6.059c0,0.218,0.078,0.404,0.233,0.56s0.321,0.232,0.497,0.232s0.264,0.065,0.264,0.194c0,0.13-0.067,0.194-0.202,0.194
			c-0.321,0-0.598-0.116-0.831-0.35s-0.35-0.51-0.35-0.831v-6.059h-1.305c-0.135,0-0.202-0.064-0.202-0.194
			c0-0.129,0.067-0.194,0.202-0.194h1.305v-3.045c0-0.135,0.065-0.202,0.194-0.202s0.194,0.067,0.194,0.202v3.045H31.461z"/>
		<path opacity="0.5" fill="#5F84C3" d="M41.295,349.183c0-0.135,0.064-0.202,0.194-0.202c0.129,0,0.194,0.067,0.194,0.202v7.208
			c0,0.135-0.065,0.202-0.194,0.202c-0.13,0-0.194-0.067-0.194-0.202v-1.896c-0.3,0.632-0.738,1.14-1.312,1.522
			c-0.575,0.384-1.204,0.575-1.888,0.575c-0.994,0-1.841-0.373-2.54-1.118c-0.699-0.746-1.048-1.642-1.048-2.688
			s0.349-1.942,1.048-2.688c0.699-0.746,1.546-1.119,2.54-1.119c0.684,0,1.313,0.191,1.888,0.575
			c0.575,0.383,1.012,0.891,1.312,1.522V349.183z M35.834,355.202c0.626,0.668,1.38,1.002,2.26,1.002s1.634-0.334,2.26-1.002
			s0.94-1.473,0.94-2.415s-0.313-1.745-0.94-2.408s-1.38-0.994-2.26-0.994s-1.634,0.331-2.26,0.994
			c-0.627,0.663-0.94,1.466-0.94,2.408S35.208,354.534,35.834,355.202z"/>
		<path opacity="0.5" fill="#5F84C3" d="M44.946,356.391v-10.439c0-0.155,0.067-0.233,0.202-0.233c0.042,0,0.083,0.026,0.125,0.078
			s0.062,0.104,0.062,0.155v5.127c0.311-0.632,0.759-1.14,1.344-1.522c0.585-0.384,1.23-0.575,1.934-0.575
			c1.025,0,1.898,0.37,2.617,1.111c0.721,0.74,1.08,1.634,1.08,2.68s-0.359,1.944-1.08,2.695c-0.719,0.751-1.591,1.126-2.617,1.126
			c-0.704,0-1.349-0.191-1.934-0.575c-0.585-0.383-1.033-0.885-1.344-1.507v1.88c0,0.052-0.018,0.099-0.054,0.14
			c-0.037,0.042-0.081,0.062-0.132,0.062C45.013,356.593,44.946,356.525,44.946,356.391z M45.334,352.631v0.141
			c0,0.942,0.321,1.75,0.963,2.423c0.642,0.674,1.416,1.01,2.322,1.01s1.683-0.336,2.33-1.01c0.646-0.673,0.971-1.48,0.971-2.423
			s-0.324-1.745-0.971-2.408s-1.416-0.994-2.306-0.994s-1.657,0.318-2.299,0.955S45.365,351.73,45.334,352.631z"/>
		<path opacity="0.5" fill="#5F84C3" d="M55.308,345.92c0-0.134,0.064-0.202,0.194-0.202c0.129,0,0.193,0.068,0.193,0.202v10.471
			c0,0.135-0.064,0.202-0.193,0.202c-0.13,0-0.194-0.067-0.194-0.202V345.92z"/>
		<path opacity="0.5" fill="#5F84C3" d="M65.871,352.491v0.062c-0.021,0.124-0.083,0.187-0.187,0.187h-6.773v0.047
			c0,0.932,0.324,1.731,0.972,2.399c0.646,0.668,1.426,1.008,2.338,1.018c0.569,0,1.095-0.14,1.576-0.419
			c0.482-0.28,0.867-0.658,1.158-1.134c0.072-0.104,0.163-0.119,0.271-0.047s0.127,0.16,0.055,0.264
			c-0.332,0.519-0.77,0.935-1.313,1.251c-0.543,0.315-1.126,0.474-1.747,0.474c-1.016-0.01-1.88-0.386-2.595-1.126
			s-1.082-1.634-1.103-2.68c0.021-1.057,0.388-1.955,1.103-2.695c0.715-0.741,1.566-1.111,2.556-1.111s1.833,0.337,2.532,1.01
			C65.413,350.664,65.799,351.497,65.871,352.491z M64.396,350.239c-0.621-0.569-1.35-0.854-2.183-0.854
			c-0.834,0-1.564,0.285-2.19,0.854c-0.627,0.569-0.992,1.279-1.096,2.128h6.556C65.379,351.519,65.017,350.809,64.396,350.239z"/>
	</g>
	<path opacity="0.5" fill="#5F84C3" d="M14.079,317.354c-1.758-0.002-3.528,0.138-5.184,0.746c-0.754,0.244-1.44,0.655-2.096,1.098
		c-1.485,1.16-2.855,2.605-3.454,4.44c-0.336,0.877-0.029,1.869-0.389,2.74c-0.476,1.324-1.48,2.346-2.288,3.466
		c-0.115,0.14-0.267,0.395-0.081,0.545c0.458,0.42,1.063,0.646,1.551,1.028c-0.187,0.517-0.383,1.027-0.65,1.511
		c-0.071,0.133-0.175,0.312-0.058,0.452c0.197,0.278,0.447,0.517,0.667,0.784c-0.167,0.068-0.336,0.144-0.511,0.219
		c0.151,0.313,0.331,0.609,0.447,0.942c0.244,0.854-0.139,1.723-0.18,2.582c0.036,0.721,0.68,1.585,1.481,1.342
		c1.863-0.477,3.599-1.342,5.323-2.171c0.558-0.332,1.237-0.581,1.539-1.191c0.563-1.113,0.616-2.386,0.738-3.604
		c0.081-0.581-0.029-1.283,0.418-1.742c0.243-0.325,0.666-0.447,1.049-0.506c1.83-0.15,3.688-0.063,5.505-0.359
		c0.162-0.946,0.226-1.904,0.342-2.855c0.237-2.492,0.464-4.994,0.325-7.489c-0.041-0.442-0.063-0.895-0.22-1.312
		c-0.035-0.105-0.117-0.192-0.228-0.228c-0.911-0.307-1.886-0.341-2.832-0.416C14.89,317.362,14.485,317.355,14.079,317.354z
		 M13.325,323.163c1.546,0,2.8,1.255,2.8,2.802c0,1.546-1.253,2.8-2.8,2.8c-1.546,0-2.801-1.254-2.801-2.8
		C10.524,324.418,11.779,323.163,13.325,323.163z M13.325,323.211c-1.518,0-2.749,1.228-2.753,2.745h2.753V323.211z M13.325,325.956
		v2.764c1.522,0,2.754-1.235,2.754-2.755c0-0.003,0-0.007,0-0.009H13.325z M16.437,330.06c-1.283,0.018-2.56,0.092-3.837,0.157
		c-0.592-0.012-1.237,0.342-1.365,0.957c-0.232,1.638-0.121,3.385-0.916,4.889c-0.269,0.534-0.818,0.763-1.278,1.043
		c-0.193,0.118,0.568,0.461,0.568,0.461s-0.897,0.119-0.928,0.465c-0.035,0.385,0.928,0.696,0.928,0.696s-0.901,0.31-0.928,0.696
		c-0.031,0.438,0.928,0.929,0.928,0.929s-0.928,0.118-0.928,0.464c0,0.347,0.928,0.465,0.928,0.465l-0.928,0.929h7.432l-0.93-0.929
		c0,0,0.939-0.165,0.923-0.516c-0.015-0.337-0.923-0.413-0.923-0.413s0.959-0.491,0.93-0.929c-0.028-0.387-0.93-0.696-0.93-0.696
		s0.963-0.312,0.93-0.696c-0.032-0.346-0.93-0.465-0.93-0.465s0.922-0.491,0.93-0.929c0.006-0.447-0.918-0.976-0.918-0.976
		s0.911-0.083,0.918-0.419c0.006-0.345-0.93-0.463-0.93-0.463s0.875-0.495,0.93-0.929c0.062-0.501-0.564-1.272-0.773-1.302
		c0.291-0.354,0.696-0.644,0.86-1.085C16.286,331.001,16.204,330.496,16.437,330.06L16.437,330.06z"/>
</g>
</svg>
