<?xml version="1.0" encoding="utf-8"?>
<!-- Generator: Adobe Illustrator 15.0.0, SVG Export Plug-In . SVG Version: 6.00 Build 0)  -->
<!DOCTYPE svg PUBLIC "-//W3C//DTD SVG 1.1//EN" "http://www.w3.org/Graphics/SVG/1.1/DTD/svg11.dtd">
<svg version="1.1" id="Layer_1" xmlns="http://www.w3.org/2000/svg" xmlns:xlink="http://www.w3.org/1999/xlink" x="0px" y="0px"
	 width="100px" height="45px" viewBox="0 0 100 45" enable-background="new 0 0 100 45" xml:space="preserve">
<g>
	<g>
		<path fill="#5F84C3" d="M9.371,31.485c0.166,0.166,0.249,0.368,0.249,0.605c0,0.238-0.085,0.443-0.256,0.614
			s-0.371,0.256-0.598,0.256h-2.47v8.296c0,0.238-0.083,0.44-0.249,0.605c-0.166,0.166-0.368,0.249-0.606,0.249
			S5,42.028,4.835,41.862c-0.166-0.165-0.249-0.367-0.249-0.605v-8.296H2.132c-0.239,0-0.44-0.085-0.606-0.256
			c-0.166-0.171-0.249-0.376-0.249-0.614c0-0.237,0.083-0.439,0.249-0.605c0.166-0.166,0.367-0.249,0.606-0.249h6.633
			C9.003,31.236,9.205,31.319,9.371,31.485z"/>
		<path opacity="0.5" fill="#5F84C3" d="M18.816,38.01v0.062c-0.021,0.124-0.083,0.187-0.187,0.187h-6.773v0.047
			c0,0.932,0.323,1.731,0.971,2.399s1.427,1.008,2.338,1.018c0.57,0,1.095-0.14,1.577-0.419c0.481-0.28,0.867-0.658,1.157-1.134
			c0.072-0.104,0.163-0.119,0.272-0.047s0.126,0.16,0.054,0.264c-0.332,0.519-0.769,0.935-1.312,1.251
			c-0.544,0.315-1.126,0.474-1.748,0.474c-1.015-0.01-1.879-0.386-2.594-1.126c-0.714-0.74-1.082-1.634-1.103-2.68
			c0.021-1.057,0.389-1.955,1.103-2.695c0.715-0.741,1.566-1.111,2.556-1.111c0.989,0,1.833,0.337,2.532,1.01
			C18.358,36.183,18.744,37.016,18.816,38.01z M17.34,35.758c-0.622-0.569-1.349-0.854-2.183-0.854c-0.834,0-1.564,0.285-2.19,0.854
			c-0.627,0.569-0.992,1.279-1.095,2.128h6.556C18.324,37.037,17.961,36.327,17.34,35.758z"/>
		<path opacity="0.5" fill="#5F84C3" d="M23.927,42.111c-0.477,0-0.958-0.093-1.445-0.279c-0.652-0.259-1.124-0.533-1.414-0.823
			c-0.062-0.062-0.081-0.13-0.055-0.202s0.07-0.119,0.132-0.14c0.062-0.021,0.124-0.003,0.187,0.054
			c0.062,0.058,0.178,0.147,0.349,0.272c0.171,0.124,0.479,0.276,0.924,0.458s0.886,0.271,1.321,0.271
			c0.694,0,1.287-0.176,1.779-0.528c0.492-0.352,0.738-0.776,0.738-1.273c0-0.394-0.119-0.693-0.357-0.901
			c-0.259-0.228-0.523-0.388-0.792-0.481c-0.363-0.113-0.736-0.215-1.119-0.303c-0.383-0.088-0.655-0.152-0.816-0.194
			c-0.161-0.041-0.383-0.121-0.668-0.24c-0.285-0.119-0.495-0.241-0.629-0.365c-0.363-0.332-0.544-0.748-0.544-1.251
			c0-0.502,0.236-0.935,0.707-1.297s0.986-0.544,1.546-0.544c0.559,0,1.035,0.083,1.429,0.249c0.559,0.228,0.917,0.455,1.072,0.684
			c0.052,0.052,0.062,0.113,0.031,0.186c-0.031,0.073-0.081,0.117-0.148,0.133s-0.127-0.003-0.179-0.055
			c-0.528-0.528-1.211-0.792-2.05-0.792c-0.549,0-1.021,0.14-1.414,0.419c-0.394,0.28-0.59,0.621-0.59,1.025
			c0,0.528,0.238,0.906,0.714,1.134c0.373,0.187,0.81,0.337,1.312,0.451s0.844,0.196,1.025,0.248s0.409,0.132,0.684,0.241
			c0.274,0.108,0.484,0.23,0.629,0.365c0.373,0.342,0.559,0.795,0.559,1.359s-0.282,1.059-0.847,1.483S24.745,42.111,23.927,42.111z
			"/>
		<path opacity="0.5" fill="#5F84C3" d="M31.461,34.499c0.134,0,0.202,0.065,0.202,0.194c0,0.13-0.068,0.194-0.202,0.194h-1.243
			v6.059c0,0.218,0.078,0.404,0.233,0.56s0.321,0.232,0.497,0.232s0.264,0.065,0.264,0.194c0,0.13-0.067,0.194-0.202,0.194
			c-0.321,0-0.598-0.116-0.831-0.35s-0.35-0.51-0.35-0.831v-6.059h-1.305c-0.135,0-0.202-0.064-0.202-0.194
			c0-0.129,0.067-0.194,0.202-0.194h1.305v-3.045c0-0.135,0.065-0.202,0.194-0.202s0.194,0.067,0.194,0.202v3.045H31.461z"/>
		<path opacity="0.5" fill="#5F84C3" d="M41.295,34.701c0-0.135,0.064-0.202,0.194-0.202c0.129,0,0.194,0.067,0.194,0.202v7.208
			c0,0.135-0.065,0.202-0.194,0.202c-0.13,0-0.194-0.067-0.194-0.202v-1.896c-0.3,0.632-0.738,1.14-1.312,1.522
			c-0.575,0.384-1.204,0.575-1.888,0.575c-0.994,0-1.841-0.373-2.54-1.118c-0.699-0.746-1.048-1.642-1.048-2.688
			s0.349-1.942,1.048-2.688c0.699-0.746,1.546-1.119,2.54-1.119c0.684,0,1.313,0.191,1.888,0.575
			c0.575,0.383,1.012,0.891,1.312,1.522V34.701z M35.834,40.721c0.626,0.668,1.38,1.002,2.26,1.002s1.634-0.334,2.26-1.002
			s0.94-1.473,0.94-2.415s-0.313-1.745-0.94-2.408s-1.38-0.994-2.26-0.994s-1.634,0.331-2.26,0.994
			c-0.627,0.663-0.94,1.466-0.94,2.408S35.208,40.053,35.834,40.721z"/>
		<path opacity="0.5" fill="#5F84C3" d="M44.946,41.909V31.47c0-0.155,0.067-0.233,0.202-0.233c0.042,0,0.083,0.026,0.125,0.078
			s0.062,0.104,0.062,0.155v5.127c0.311-0.632,0.759-1.14,1.344-1.522c0.585-0.384,1.23-0.575,1.934-0.575
			c1.025,0,1.898,0.37,2.617,1.111c0.721,0.74,1.08,1.634,1.08,2.68s-0.359,1.944-1.08,2.695c-0.719,0.751-1.591,1.126-2.617,1.126
			c-0.704,0-1.349-0.191-1.934-0.575c-0.585-0.383-1.033-0.885-1.344-1.507v1.88c0,0.052-0.018,0.099-0.054,0.14
			c-0.037,0.042-0.081,0.062-0.132,0.062C45.013,42.111,44.946,42.044,44.946,41.909z M45.334,38.149v0.141
			c0,0.942,0.321,1.75,0.963,2.423c0.642,0.674,1.416,1.01,2.322,1.01s1.683-0.336,2.33-1.01c0.646-0.673,0.971-1.48,0.971-2.423
			s-0.324-1.745-0.971-2.408s-1.416-0.994-2.306-0.994s-1.657,0.318-2.299,0.955S45.365,37.249,45.334,38.149z"/>
		<path opacity="0.5" fill="#5F84C3" d="M55.308,31.438c0-0.134,0.064-0.202,0.194-0.202c0.129,0,0.193,0.068,0.193,0.202v10.471
			c0,0.135-0.064,0.202-0.193,0.202c-0.13,0-0.194-0.067-0.194-0.202V31.438z"/>
		<path opacity="0.5" fill="#5F84C3" d="M65.871,38.01v0.062c-0.021,0.124-0.083,0.187-0.187,0.187h-6.773v0.047
			c0,0.932,0.324,1.731,0.972,2.399c0.646,0.668,1.426,1.008,2.338,1.018c0.569,0,1.095-0.14,1.576-0.419
			c0.482-0.28,0.867-0.658,1.158-1.134c0.072-0.104,0.163-0.119,0.271-0.047s0.127,0.16,0.055,0.264
			c-0.332,0.519-0.77,0.935-1.313,1.251c-0.543,0.315-1.126,0.474-1.747,0.474c-1.016-0.01-1.88-0.386-2.595-1.126
			s-1.082-1.634-1.103-2.68c0.021-1.057,0.388-1.955,1.103-2.695c0.715-0.741,1.566-1.111,2.556-1.111s1.833,0.337,2.532,1.01
			C65.413,36.183,65.799,37.016,65.871,38.01z M64.396,35.758c-0.621-0.569-1.35-0.854-2.183-0.854c-0.834,0-1.564,0.285-2.19,0.854
			c-0.627,0.569-0.992,1.279-1.096,2.128h6.556C65.379,37.037,65.017,36.327,64.396,35.758z"/>
	</g>
	<path opacity="0.5" fill="#5F84C3" d="M14.079,2.873c-1.758-0.002-3.528,0.138-5.184,0.746c-0.754,0.244-1.44,0.655-2.096,1.098
		c-1.485,1.16-2.855,2.605-3.454,4.44c-0.336,0.877-0.029,1.869-0.389,2.74c-0.476,1.324-1.48,2.346-2.288,3.466
		c-0.115,0.14-0.267,0.395-0.081,0.545c0.458,0.42,1.063,0.646,1.551,1.028c-0.187,0.517-0.383,1.027-0.65,1.511
		C1.417,18.58,1.313,18.76,1.43,18.899c0.197,0.278,0.447,0.517,0.667,0.784c-0.167,0.068-0.336,0.144-0.511,0.219
		c0.151,0.313,0.331,0.609,0.447,0.942c0.244,0.854-0.139,1.723-0.18,2.582c0.036,0.721,0.68,1.585,1.481,1.342
		c1.863-0.477,3.599-1.342,5.323-2.171c0.558-0.332,1.237-0.581,1.539-1.191c0.563-1.113,0.616-2.386,0.738-3.604
		c0.081-0.581-0.029-1.283,0.418-1.742c0.243-0.325,0.666-0.447,1.049-0.506c1.83-0.15,3.688-0.063,5.505-0.359
		c0.162-0.946,0.226-1.904,0.342-2.855c0.237-2.492,0.464-4.994,0.325-7.489c-0.041-0.442-0.063-0.895-0.22-1.312
		c-0.035-0.105-0.117-0.192-0.228-0.228c-0.911-0.307-1.886-0.341-2.832-0.416C14.89,2.881,14.485,2.874,14.079,2.873z
		 M13.325,8.682c1.546,0,2.8,1.255,2.8,2.802c0,1.546-1.253,2.8-2.8,2.8c-1.546,0-2.801-1.254-2.801-2.8
		C10.524,9.937,11.779,8.682,13.325,8.682z M13.325,8.729c-1.518,0-2.749,1.228-2.753,2.745h2.753V8.729z M13.325,11.475v2.764
		c1.522,0,2.754-1.235,2.754-2.755c0-0.003,0-0.007,0-0.009H13.325z M16.437,15.578c-1.283,0.018-2.56,0.092-3.837,0.157
		c-0.592-0.012-1.237,0.342-1.365,0.957c-0.232,1.638-0.121,3.385-0.916,4.889c-0.269,0.534-0.818,0.763-1.278,1.043
		c-0.193,0.118,0.568,0.461,0.568,0.461s-0.897,0.119-0.928,0.465c-0.035,0.385,0.928,0.696,0.928,0.696s-0.901,0.31-0.928,0.696
		c-0.031,0.438,0.928,0.929,0.928,0.929s-0.928,0.118-0.928,0.464c0,0.347,0.928,0.465,0.928,0.465l-0.928,0.929h7.432l-0.93-0.929
		c0,0,0.939-0.165,0.923-0.516c-0.015-0.337-0.923-0.413-0.923-0.413s0.959-0.491,0.93-0.929c-0.028-0.387-0.93-0.696-0.93-0.696
		s0.963-0.312,0.93-0.696c-0.032-0.346-0.93-0.465-0.93-0.465s0.922-0.491,0.93-0.929c0.006-0.447-0.918-0.976-0.918-0.976
		s0.911-0.083,0.918-0.419c0.006-0.345-0.93-0.463-0.93-0.463s0.875-0.495,0.93-0.929c0.062-0.501-0.564-1.272-0.773-1.302
		c0.291-0.354,0.696-0.644,0.86-1.085C16.286,16.52,16.204,16.015,16.437,15.578L16.437,15.578z"/>
</g>
</svg>
