<?xml version="1.0" encoding="utf-8"?>
<!-- Generator: Adobe Illustrator 15.0.0, SVG Export Plug-In . SVG Version: 6.00 Build 0)  -->
<!DOCTYPE svg PUBLIC "-//W3C//DTD SVG 1.1//EN" "http://www.w3.org/Graphics/SVG/1.1/DTD/svg11.dtd">
<svg version="1.1" id="Layer_1" xmlns="http://www.w3.org/2000/svg" xmlns:xlink="http://www.w3.org/1999/xlink" x="0px" y="0px"
	 width="100px" height="45px" viewBox="0 0 100 45" enable-background="new 0 0 100 45" xml:space="preserve">
<g>
	<g>
		<g>
			<rect x="9.229" y="18.735" fill="#5F84C3" width="0.323" height="0.324"/>
			<path fill="#5F84C3" d="M9.551,12.613v0.604H9.229v-0.604H9.551z M9.551,13.842v0.603H9.229v-0.603H9.551z M9.551,15.069v0.605
				H9.229v-0.605H9.551z M9.551,16.28v0.604H9.229V16.28H9.551z M9.551,17.507v0.604H9.229v-0.604H9.551z"/>
			<rect x="9.229" y="11.687" fill="#5F84C3" width="0.323" height="0.321"/>
		</g>
		<rect x="8.483" y="19.36" fill="#5F84C3" width="1.712" height="0.323"/>
		<rect x="8.483" y="11.103" fill="#5F84C3" width="1.712" height="0.32"/>
		<path fill="#5F84C3" d="M4.873,12.284c0.419,1.062,0.24,1.738,0.993,1.191c0.707-0.516,0.021-3.095-0.425-3.835l0.018-0.354
			c0,0,0.514-0.516,1.653-0.449c1.139,0.068,6.246-0.174,6.246-0.174c0.407-0.008,0.731-0.315,0.725-0.688
			c-0.006-0.371-0.342-0.668-0.749-0.661L7.662,7.415l-0.005-0.27l6.555,0.016c0.406-0.007,0.731-0.314,0.724-0.688
			c-0.006-0.372-0.342-0.667-0.749-0.661L7.632,5.928L7.627,5.792l5.671-0.102c0.407-0.006,0.732-0.314,0.725-0.688
			c-0.005-0.373-0.341-0.668-0.749-0.66L7.163,4.45L7.157,4.179l3.462-0.061c0.407-0.008,0.73-0.135,0.724-0.508
			c-0.007-0.372-0.341-0.669-0.968-0.657L4.261,2.882C2.344,2.917,0.463,4.569,0.5,6.729c0.04,2.161,0.482,2.592,2.229,3.398
			l1.439,1.032L4.873,12.284z"/>
		<path fill="#5F84C3" d="M14.203,18.723c-0.419-1.062-0.198-1.589-0.993-1.391c-0.979,0.246-0.188,3.024,0,3.775
			c0,0-0.003,0.133-0.397,0.396s-1.245,0.268-1.245,0.268l-6.246,0.174c-0.407,0.007-0.73,0.314-0.725,0.688
			c0.007,0.373,0.342,0.667,0.749,0.662l5.671-0.102l0.005,0.139l-6.555,0.115c-0.407,0.008-0.732,0.316-0.725,0.688
			c0.006,0.373,0.342,0.668,0.749,0.662l6.555-0.117l0.004,0.139L5.379,24.92c-0.406,0.006-0.73,0.314-0.724,0.686
			c0.007,0.373,0.342,0.668,0.749,0.66l6.113-0.107l0.005,0.27l-3.462-0.07c-0.407,0.008-0.731,0.316-0.724,0.688
			c0.006,0.373,0.486,0.537,1.114,0.525l5.969,0.156c1.917-0.035,3.797-1.555,3.76-3.715c-0.135-1.648-0.333-1.846-2.122-3.038
			c0,0-0.86-0.661-1.257-1.059S14.203,18.723,14.203,18.723z"/>
	</g>
	<g>
		<path fill="#5F84C3" d="M2.969,42.102c-0.238,0-0.44-0.082-0.605-0.248s-0.249-0.367-0.249-0.605v-9.162
			c0-0.236,0.083-0.439,0.249-0.605c0.166-0.164,0.367-0.248,0.605-0.248h5.078c0.228,0,0.427,0.084,0.598,0.248
			C8.815,31.646,8.9,31.85,8.9,32.086c0,0.238-0.085,0.443-0.256,0.613c-0.171,0.172-0.371,0.258-0.598,0.258H3.838v2.84h3.618
			c0.228,0,0.427,0.086,0.598,0.258c0.171,0.17,0.256,0.371,0.256,0.605c0,0.232-0.083,0.434-0.249,0.605
			c-0.166,0.17-0.368,0.256-0.605,0.256H3.838v2.857h4.208c0.228,0,0.427,0.086,0.598,0.256c0.17,0.17,0.256,0.373,0.256,0.605
			s-0.085,0.436-0.256,0.605c-0.171,0.172-0.371,0.256-0.598,0.256H3.016l-0.031-0.016L2.969,42.102z"/>
		<path opacity="0.5" fill="#5F84C3" d="M13.605,42.102c-0.476,0-0.958-0.092-1.444-0.279c-0.652-0.258-1.124-0.533-1.413-0.822
			c-0.062-0.062-0.081-0.129-0.055-0.203c0.026-0.072,0.07-0.117,0.132-0.139c0.062-0.021,0.124-0.002,0.186,0.055
			s0.179,0.146,0.35,0.271c0.171,0.123,0.479,0.277,0.924,0.457c0.445,0.182,0.885,0.271,1.32,0.271
			c0.693,0,1.286-0.176,1.778-0.527s0.738-0.775,0.738-1.273c0-0.393-0.119-0.693-0.357-0.9c-0.259-0.227-0.522-0.389-0.792-0.48
			c-0.362-0.115-0.735-0.215-1.118-0.303c-0.383-0.088-0.655-0.152-0.815-0.195c-0.161-0.041-0.383-0.121-0.667-0.24
			c-0.285-0.119-0.495-0.24-0.629-0.365c-0.362-0.33-0.543-0.748-0.543-1.25s0.235-0.934,0.707-1.297
			c0.471-0.361,0.986-0.543,1.545-0.543s1.035,0.084,1.429,0.248c0.559,0.229,0.916,0.457,1.071,0.684
			c0.052,0.053,0.062,0.115,0.031,0.188c-0.031,0.072-0.081,0.115-0.148,0.131s-0.126-0.002-0.178-0.055
			c-0.528-0.527-1.211-0.791-2.05-0.791c-0.549,0-1.02,0.139-1.413,0.42c-0.394,0.279-0.59,0.621-0.59,1.023
			c0,0.529,0.238,0.906,0.714,1.135c0.373,0.186,0.81,0.336,1.312,0.449c0.502,0.115,0.843,0.197,1.025,0.248
			c0.181,0.053,0.409,0.133,0.683,0.242c0.274,0.107,0.484,0.23,0.629,0.363c0.373,0.342,0.559,0.795,0.559,1.359
			s-0.282,1.059-0.847,1.482C15.114,41.891,14.423,42.102,13.605,42.102z"/>
		<path opacity="0.5" fill="#5F84C3" d="M21.136,34.494c0.135,0,0.202,0.064,0.202,0.193s-0.067,0.193-0.202,0.193h-1.242v6.057
			c0,0.217,0.078,0.404,0.233,0.559c0.155,0.156,0.321,0.232,0.497,0.232c0.176,0,0.264,0.066,0.264,0.195s-0.068,0.193-0.202,0.193
			c-0.321,0-0.598-0.115-0.831-0.35c-0.233-0.232-0.35-0.51-0.35-0.83v-6.057h-1.304c-0.135,0-0.202-0.064-0.202-0.193
			s0.067-0.193,0.202-0.193h1.304v-3.045c0-0.133,0.064-0.201,0.194-0.201c0.129,0,0.194,0.068,0.194,0.201v3.045H21.136z"/>
		<path opacity="0.5" fill="#5F84C3" d="M25.018,32.615v-0.373c0-0.135,0.064-0.201,0.194-0.201c0.129,0,0.194,0.066,0.194,0.201
			v0.373c0,0.051-0.018,0.096-0.054,0.131c-0.037,0.037-0.08,0.055-0.132,0.055C25.085,32.801,25.018,32.738,25.018,32.615z
			 M25.018,41.9V34.68c0-0.125,0.064-0.186,0.194-0.186c0.129,0,0.194,0.061,0.194,0.186V41.9c0,0.051-0.018,0.098-0.054,0.139
			c-0.037,0.043-0.08,0.062-0.132,0.062C25.085,42.102,25.018,42.035,25.018,41.9z"/>
		<path opacity="0.5" fill="#5F84C3" d="M35.468,41.963l-0.031,0.076c-0.042,0.043-0.093,0.062-0.155,0.062
			c-0.125,0-0.187-0.066-0.187-0.201v-4.332c0-0.746-0.262-1.379-0.784-1.902c-0.523-0.523-1.146-0.785-1.871-0.785
			s-1.346,0.252-1.863,0.754s-0.787,1.109-0.808,1.824V41.9l-0.046,0.139l-0.031,0.016c-0.031,0.031-0.067,0.047-0.108,0.047h-0.047
			c-0.114-0.02-0.171-0.088-0.171-0.201v-4.332c0-0.084,0.01-0.207,0.031-0.373v-2.5c0-0.135,0.062-0.201,0.187-0.201
			c0.124,0,0.186,0.066,0.186,0.201v1.383c0.269-0.486,0.639-0.873,1.11-1.158c0.471-0.283,1.007-0.426,1.607-0.426
			c0.601,0,1.162,0.184,1.685,0.551c0.522,0.367,0.893,0.846,1.11,1.436c0.217-0.59,0.587-1.068,1.11-1.436
			c0.523-0.367,1.11-0.551,1.763-0.551c0.838,0,1.553,0.299,2.143,0.9c0.59,0.6,0.885,1.324,0.885,2.174V41.9
			c0,0.135-0.062,0.201-0.187,0.201c-0.052,0-0.098-0.02-0.14-0.062c-0.042-0.041-0.062-0.088-0.062-0.139v-4.332
			c0-0.746-0.259-1.379-0.776-1.902c-0.518-0.523-1.139-0.785-1.863-0.785c-0.725,0-1.346,0.252-1.863,0.754
			c-0.518,0.502-0.787,1.109-0.808,1.824V41.9C35.483,41.932,35.478,41.951,35.468,41.963z"/>
		<path opacity="0.5" fill="#5F84C3" d="M50.095,34.695c0-0.135,0.064-0.201,0.194-0.201s0.194,0.066,0.194,0.201V41.9
			c0,0.135-0.065,0.201-0.194,0.201s-0.194-0.066-0.194-0.201v-1.895c-0.3,0.631-0.738,1.139-1.312,1.521
			c-0.575,0.383-1.204,0.574-1.887,0.574c-0.994,0-1.84-0.373-2.539-1.117c-0.699-0.746-1.048-1.641-1.048-2.688
			c0-1.045,0.35-1.939,1.048-2.686s1.545-1.117,2.539-1.117c0.683,0,1.312,0.191,1.887,0.574c0.574,0.383,1.012,0.891,1.312,1.521
			V34.695z M44.637,40.713c0.626,0.668,1.379,1,2.259,1s1.633-0.332,2.259-1s0.939-1.473,0.939-2.416
			c0-0.941-0.313-1.744-0.939-2.406s-1.379-0.994-2.259-0.994s-1.633,0.332-2.259,0.994c-0.626,0.662-0.939,1.465-0.939,2.406
			C43.697,39.24,44.01,40.045,44.637,40.713z"/>
		<path opacity="0.5" fill="#5F84C3" d="M56.089,34.494c0.134,0,0.201,0.064,0.201,0.193s-0.067,0.193-0.201,0.193h-1.242v6.057
			c0,0.217,0.077,0.404,0.232,0.559c0.155,0.156,0.321,0.232,0.497,0.232s0.264,0.066,0.264,0.195s-0.067,0.193-0.201,0.193
			c-0.321,0-0.599-0.115-0.831-0.35c-0.233-0.232-0.35-0.51-0.35-0.83v-6.057h-1.304c-0.135,0-0.202-0.064-0.202-0.193
			s0.067-0.193,0.202-0.193h1.304v-3.045c0-0.133,0.064-0.201,0.194-0.201c0.129,0,0.194,0.068,0.194,0.201v3.045H56.089z"/>
		<path opacity="0.5" fill="#5F84C3" d="M65.917,34.695c0-0.135,0.065-0.201,0.194-0.201c0.13,0,0.194,0.066,0.194,0.201V41.9
			c0,0.135-0.064,0.201-0.194,0.201c-0.129,0-0.194-0.066-0.194-0.201v-1.895c-0.3,0.631-0.737,1.139-1.312,1.521
			s-1.203,0.574-1.887,0.574c-0.994,0-1.84-0.373-2.539-1.117c-0.698-0.746-1.048-1.641-1.048-2.688c0-1.045,0.35-1.939,1.048-2.686
			c0.699-0.746,1.545-1.117,2.539-1.117c0.684,0,1.312,0.191,1.887,0.574s1.012,0.891,1.312,1.521V34.695z M60.46,40.713
			c0.626,0.668,1.379,1,2.259,1s1.633-0.332,2.26-1c0.626-0.668,0.938-1.473,0.938-2.416c0-0.941-0.312-1.744-0.938-2.406
			c-0.627-0.662-1.38-0.994-2.26-0.994s-1.633,0.332-2.259,0.994c-0.627,0.662-0.939,1.465-0.939,2.406
			C59.521,39.24,59.833,40.045,60.46,40.713z"/>
		<path opacity="0.5" fill="#5F84C3" d="M69.566,41.9V31.465c0-0.154,0.067-0.232,0.201-0.232c0.042,0,0.083,0.025,0.125,0.078
			c0.041,0.051,0.062,0.104,0.062,0.154v5.125c0.311-0.631,0.759-1.139,1.344-1.521c0.584-0.383,1.229-0.574,1.933-0.574
			c1.025,0,1.897,0.369,2.616,1.109c0.72,0.74,1.08,1.633,1.08,2.68c0,1.045-0.36,1.943-1.08,2.693
			c-0.719,0.75-1.591,1.125-2.616,1.125c-0.704,0-1.349-0.191-1.933-0.574c-0.585-0.383-1.033-0.885-1.344-1.506V41.9
			c0,0.051-0.018,0.098-0.054,0.139c-0.037,0.043-0.081,0.062-0.133,0.062C69.634,42.102,69.566,42.035,69.566,41.9z M69.954,38.143
			v0.141c0,0.941,0.321,1.748,0.963,2.422c0.642,0.672,1.415,1.008,2.321,1.008s1.683-0.336,2.329-1.008
			c0.647-0.674,0.971-1.48,0.971-2.422c0-0.943-0.323-1.746-0.971-2.408c-0.646-0.662-1.415-0.994-2.306-0.994
			s-1.656,0.318-2.298,0.955C70.321,36.473,69.985,37.242,69.954,38.143z"/>
		<path opacity="0.5" fill="#5F84C3" d="M79.923,31.434c0-0.133,0.064-0.201,0.194-0.201c0.129,0,0.194,0.068,0.194,0.201V41.9
			c0,0.135-0.065,0.201-0.194,0.201c-0.13,0-0.194-0.066-0.194-0.201V31.434z"/>
		<path opacity="0.5" fill="#5F84C3" d="M90.481,38.002v0.062c-0.021,0.125-0.083,0.188-0.187,0.188h-6.77v0.045
			c0,0.932,0.323,1.732,0.971,2.4c0.646,0.668,1.426,1.006,2.337,1.016c0.568,0,1.094-0.139,1.575-0.418s0.867-0.658,1.157-1.135
			c0.072-0.102,0.163-0.117,0.271-0.045c0.109,0.072,0.127,0.16,0.055,0.264c-0.331,0.518-0.769,0.934-1.312,1.25
			c-0.543,0.316-1.125,0.473-1.746,0.473c-1.015-0.01-1.879-0.385-2.594-1.125c-0.714-0.74-1.082-1.633-1.103-2.68
			c0.021-1.055,0.389-1.953,1.103-2.693c0.715-0.74,1.565-1.109,2.555-1.109c0.988,0,1.832,0.336,2.531,1.008
			C90.023,36.176,90.409,37.01,90.481,38.002z M89.007,35.752c-0.621-0.57-1.349-0.855-2.182-0.855
			c-0.834,0-1.563,0.285-2.189,0.855c-0.627,0.568-0.992,1.277-1.095,2.127h6.553C89.99,37.029,89.628,36.32,89.007,35.752z"/>
	</g>
</g>
</svg>
