<?xml version="1.0" encoding="utf-8"?>
<!-- Generator: Adobe Illustrator 15.0.0, SVG Export Plug-In . SVG Version: 6.00 Build 0)  -->
<!DOCTYPE svg PUBLIC "-//W3C//DTD SVG 1.1//EN" "http://www.w3.org/Graphics/SVG/1.1/DTD/svg11.dtd">
<svg version="1.1"
	 id="svg7226" xmlns:svg="http://www.w3.org/2000/svg" xmlns:rdf="http://www.w3.org/1999/02/22-rdf-syntax-ns#" xmlns:cc="http://creativecommons.org/ns#" xmlns:dc="http://purl.org/dc/elements/1.1/"
	 xmlns="http://www.w3.org/2000/svg" xmlns:xlink="http://www.w3.org/1999/xlink" x="0px" y="0px" width="100px" height="100px"
	 viewBox="-40 -36.665 100 100" enable-background="new -40 -36.665 100 100" xml:space="preserve">
<path id="path3" fill="#FFFFFF" d="M-40,1.67h7.083l5.352,15.737h0.063l5.063-15.737h7.083v22.881h-4.712V8.335h-0.063
	l-5.608,16.216h-3.877l-5.608-16.055h-0.066v16.055H-40V1.67z M-8.909,17.373c0.063,1.45,0.437,2.515,1.121,3.188
	s1.667,1.011,2.949,1.011c0.918,0,1.709-0.229,2.371-0.688s1.067-0.947,1.218-1.46h4.004c-0.64,1.968-1.624,3.384-2.947,4.263
	C-1.519,24.561-3.12,25-5,25c-1.304,0-2.478-0.215-3.525-0.64c-1.047-0.43-1.934-1.025-2.659-1.797
	c-0.728-0.771-1.289-1.689-1.682-2.754c-0.396-1.069-0.593-2.246-0.593-3.525c0-1.24,0.203-2.393,0.608-3.462
	s0.981-1.992,1.731-2.771c0.747-0.781,1.638-1.394,2.676-1.843C-7.41,7.759-6.26,7.534-5,7.534c1.411,0,2.639,0.273,3.687,0.818
	c1.045,0.544,1.904,1.277,2.578,2.195s1.16,1.965,1.458,3.14c0.3,1.177,0.408,2.402,0.322,3.687H-8.909L-8.909,17.373z
	 M-1.506,14.487c-0.215-1.152-0.593-2.029-1.138-2.627s-1.375-0.896-2.483-0.896c-0.728,0-1.331,0.122-1.812,0.369
	c-0.481,0.244-0.864,0.549-1.155,0.913c-0.288,0.364-0.491,0.747-0.608,1.152c-0.117,0.408-0.188,0.769-0.208,1.091h7.402V14.487z
	 M10.01,7.983h3.33v3.044h-3.33v8.206c0,0.767,0.129,1.279,0.386,1.533c0.254,0.259,0.767,0.391,1.538,0.391
	c0.513,0,0.981-0.049,1.406-0.132v3.56c-0.381,0.063-0.811,0.107-1.279,0.127s-0.928,0.029-1.377,0.029
	c-0.706,0-1.375-0.049-2.004-0.142c-0.63-0.098-1.184-0.288-1.665-0.576s-0.862-0.688-1.138-1.206
	c-0.278-0.508-0.417-1.182-0.417-2.017v-9.773H2.703V7.983h2.756V3.018h4.551V7.983L10.01,7.983z M17.812,17.373
	c0.059,1.45,0.435,2.515,1.118,3.188s1.665,1.011,2.949,1.011c0.918,0,1.709-0.229,2.368-0.688c0.664-0.459,1.069-0.947,1.221-1.46
	h4.004c-0.64,1.968-1.621,3.384-2.949,4.263C25.2,24.561,23.599,25,21.719,25c-1.304,0-2.48-0.215-3.525-0.64
	c-1.045-0.43-1.934-1.025-2.656-1.797c-0.732-0.771-1.289-1.689-1.685-2.754c-0.396-1.069-0.591-2.246-0.591-3.525
	c0-1.24,0.2-2.393,0.605-3.462c0.405-1.067,0.986-1.992,1.729-2.771c0.752-0.781,1.641-1.394,2.676-1.843
	c1.04-0.449,2.188-0.674,3.447-0.674c1.411,0,2.637,0.273,3.687,0.818c1.045,0.544,1.909,1.277,2.578,2.195
	c0.674,0.918,1.157,1.965,1.46,3.14c0.298,1.177,0.405,2.402,0.322,3.687H17.812L17.812,17.373z M25.215,14.487
	c-0.215-1.152-0.596-2.029-1.143-2.627c-0.542-0.598-1.372-0.896-2.48-0.896c-0.728,0-1.328,0.122-1.812,0.369
	c-0.483,0.244-0.864,0.549-1.152,0.913s-0.493,0.747-0.61,1.152c-0.117,0.408-0.186,0.769-0.205,1.091h7.402V14.487z M30.566,16.284
	c0-1.326,0.205-2.527,0.615-3.606c0.4-1.079,0.977-1.997,1.729-2.756c0.747-0.757,1.641-1.345,2.69-1.763
	c1.05-0.415,2.222-0.625,3.525-0.625s2.485,0.21,3.54,0.625c1.06,0.417,1.963,1.006,2.71,1.763c0.747,0.759,1.323,1.677,1.729,2.756
	s0.61,2.28,0.61,3.606c0,1.323-0.205,2.52-0.61,3.589s-0.981,1.982-1.729,2.739c-0.747,0.762-1.65,1.348-2.71,1.763
	C41.611,24.79,40.43,25,39.126,25s-2.476-0.21-3.525-0.625s-1.943-1.001-2.69-1.763c-0.752-0.757-1.328-1.67-1.729-2.739
	C30.771,18.804,30.566,17.607,30.566,16.284z M35.117,16.284c0,0.664,0.068,1.309,0.195,1.938s0.347,1.196,0.654,1.694
	c0.312,0.508,0.723,0.908,1.235,1.206s1.157,0.444,1.924,0.444s1.416-0.146,1.938-0.444s0.938-0.698,1.25-1.206
	c0.312-0.498,0.527-1.064,0.654-1.694c0.132-0.63,0.195-1.274,0.195-1.938s-0.063-1.316-0.195-1.955
	c-0.127-0.643-0.342-1.207-0.654-1.7c-0.312-0.491-0.728-0.891-1.25-1.201s-1.172-0.464-1.938-0.464s-1.411,0.154-1.924,0.464
	s-0.923,0.71-1.235,1.201c-0.308,0.493-0.527,1.057-0.654,1.7C35.186,14.971,35.117,15.62,35.117,16.284z M49.326,7.983h4.326v3.076
	h0.068c0.215-0.513,0.498-0.986,0.864-1.426c0.361-0.437,0.776-0.811,1.25-1.121c0.469-0.31,0.977-0.549,1.519-0.723
	c0.547-0.171,1.099-0.256,1.65-0.256c0.342,0,0.674,0.054,0.996,0.161v4.229c-0.215-0.042-0.469-0.078-0.771-0.11
	c-0.298-0.032-0.586-0.049-0.859-0.049c-0.84,0-1.543,0.139-2.119,0.417c-0.576,0.276-1.04,0.657-1.396,1.138
	c-0.352,0.479-0.601,1.045-0.752,1.696c-0.146,0.652-0.225,1.341-0.225,2.068v7.466h-4.551V7.983L49.326,7.983z"/>
</svg>
