<?xml version="1.0" encoding="utf-8"?>
<!-- Generator: Adobe Illustrator 15.0.0, SVG Export Plug-In . SVG Version: 6.00 Build 0)  -->
<!DOCTYPE svg PUBLIC "-//W3C//DTD SVG 1.1//EN" "http://www.w3.org/Graphics/SVG/1.1/DTD/svg11.dtd">
<svg version="1.1" id="Layer_1" xmlns="http://www.w3.org/2000/svg" xmlns:xlink="http://www.w3.org/1999/xlink" x="0px" y="0px"
	 width="267.092px" height="75.722px" viewBox="-55.723 -13.89 267.092 75.722"
	 enable-background="new -55.723 -13.89 267.092 75.722" xml:space="preserve">
<g>
	<path fill="#5F84C3" d="M-37.25,50.104c0,0.213-0.044,0.409-0.133,0.587v0.026c-0.089,0.249-0.258,0.463-0.506,0.64
		c-1.777,1.386-3.794,2.079-6.051,2.079c-2.719,0-5.038-0.928-6.957-2.785c-1.919-1.857-2.879-4.119-2.879-6.784
		c0-2.666,0.959-4.936,2.879-6.811c1.919-1.875,4.238-2.812,6.957-2.812c2.292,0,4.318,0.693,6.078,2.079
		c0.337,0.249,0.533,0.586,0.586,1.013s-0.044,0.805-0.293,1.134c-0.249,0.328-0.586,0.52-1.013,0.572
		c-0.426,0.054-0.809-0.053-1.146-0.319c-1.244-0.96-2.724-1.439-4.438-1.439c-1.715,0-3.239,0.64-4.571,1.919
		c-1.333,1.279-2,2.826-2,4.639s0.67,3.358,2.013,4.638c1.341,1.279,2.936,1.919,4.785,1.919c1.262,0,2.479-0.337,3.652-1.013
		v-3.651h-3.812c-0.409,0-0.764-0.151-1.066-0.453c-0.302-0.303-0.453-0.662-0.453-1.08c0-0.417,0.146-0.769,0.44-1.053
		c0.293-0.284,0.653-0.427,1.079-0.427h5.305c0.427,0,0.791,0.143,1.093,0.427c0.302,0.284,0.453,0.64,0.453,1.066V50.104z"/>
	<path opacity="0.5" fill="#5F84C3" d="M-30.359,42.293c1.199-1.279,2.652-1.919,4.358-1.919c1.706,0,3.163,0.64,4.372,1.919
		c1.208,1.28,1.812,2.817,1.812,4.612s-0.604,3.332-1.812,4.611c-1.209,1.279-2.666,1.919-4.372,1.919
		c-1.706,0-3.159-0.64-4.358-1.919c-1.2-1.279-1.799-2.816-1.799-4.611S-31.559,43.573-30.359,42.293z M-29.88,51.05
		c1.075,1.146,2.368,1.72,3.879,1.72c1.51,0,2.808-0.573,3.892-1.72c1.084-1.146,1.626-2.527,1.626-4.145s-0.542-2.999-1.626-4.146
		s-2.381-1.719-3.892-1.719c-1.511,0-2.804,0.572-3.879,1.719s-1.613,2.528-1.613,4.146S-30.955,49.904-29.88,51.05z"/>
	<path opacity="0.5" fill="#5F84C3" d="M-15.338,44.373c-0.178,0-0.267-0.089-0.267-0.268c0-0.177,0.088-0.266,0.267-0.266h6.078
		c0.16,0,0.24,0.089,0.24,0.266c0,0.179-0.08,0.268-0.24,0.268H-15.338z"/>
	<path opacity="0.5" fill="#5F84C3" d="M0.015,40.374c0.231,0,0.347,0.111,0.347,0.333c0,0.223-0.116,0.334-0.347,0.334h-2.132
		v10.396c0,0.373,0.133,0.693,0.4,0.96s0.55,0.399,0.853,0.399c0.302,0,0.453,0.111,0.453,0.333c0,0.223-0.116,0.334-0.347,0.334
		c-0.551,0-1.026-0.2-1.426-0.6c-0.4-0.4-0.6-0.876-0.6-1.427V41.041h-2.239c-0.231,0-0.347-0.111-0.347-0.334
		c0-0.222,0.116-0.333,0.347-0.333h2.239v-5.225c0-0.23,0.111-0.347,0.333-0.347s0.333,0.116,0.333,0.347v5.225H0.015z"/>
	<path opacity="0.5" fill="#5F84C3" d="M7.839,42.293c1.199-1.279,2.652-1.919,4.358-1.919c1.706,0,3.163,0.64,4.372,1.919
		c1.208,1.28,1.812,2.817,1.812,4.612s-0.604,3.332-1.812,4.611c-1.209,1.279-2.666,1.919-4.372,1.919
		c-1.706,0-3.159-0.64-4.358-1.919c-1.2-1.279-1.799-2.816-1.799-4.611S6.639,43.573,7.839,42.293z M8.319,51.05
		c1.075,1.146,2.368,1.72,3.879,1.72c1.51,0,2.808-0.573,3.892-1.72c1.084-1.146,1.626-2.527,1.626-4.145s-0.542-2.999-1.626-4.146
		s-2.381-1.719-3.892-1.719c-1.511,0-2.804,0.572-3.879,1.719s-1.613,2.528-1.613,4.146S7.243,49.904,8.319,51.05z"/>
	<path opacity="0.5" fill="#5F84C3" d="M22.86,44.373c-0.178,0-0.267-0.089-0.267-0.268c0-0.177,0.088-0.266,0.267-0.266h6.078
		c0.16,0,0.24,0.089,0.24,0.266c0,0.179-0.08,0.268-0.24,0.268H22.86z"/>
	<path opacity="0.5" fill="#5F84C3" d="M44.665,53.195l-0.054,0.134c-0.071,0.071-0.16,0.106-0.267,0.106
		c-0.213,0-0.32-0.115-0.32-0.346v-7.438c0-1.279-0.449-2.368-1.346-3.266s-1.968-1.346-3.212-1.346
		c-1.244,0-2.311,0.431-3.199,1.292c-0.889,0.862-1.351,1.906-1.386,3.133v7.624l-0.08,0.239l-0.053,0.026
		c-0.053,0.054-0.116,0.08-0.187,0.08h-0.08c-0.196-0.035-0.293-0.15-0.293-0.346v-7.438c0-0.143,0.017-0.355,0.053-0.64v-4.292
		c0-0.23,0.106-0.347,0.32-0.347s0.32,0.116,0.32,0.347v2.372c0.462-0.835,1.097-1.497,1.906-1.985
		c0.808-0.488,1.728-0.733,2.759-0.733c1.03,0,1.995,0.315,2.892,0.946c0.897,0.631,1.533,1.453,1.906,2.466
		c0.374-1.013,1.009-1.835,1.906-2.466c0.897-0.631,1.906-0.946,3.025-0.946c1.439,0,2.666,0.516,3.679,1.546
		c1.013,1.031,1.52,2.275,1.52,3.732v7.438c0,0.23-0.107,0.346-0.32,0.346c-0.089,0-0.169-0.035-0.24-0.106
		c-0.071-0.071-0.106-0.15-0.106-0.239v-7.438c0-1.279-0.444-2.368-1.333-3.266s-1.955-1.346-3.199-1.346
		c-1.244,0-2.311,0.431-3.199,1.292c-0.889,0.862-1.351,1.906-1.386,3.133v7.624C44.691,53.143,44.682,53.179,44.665,53.195z"/>
	<path opacity="0.5" fill="#5F84C3" d="M69.775,40.721c0-0.23,0.111-0.347,0.333-0.347c0.222,0,0.333,0.116,0.333,0.347V53.09
		c0,0.23-0.111,0.346-0.333,0.346c-0.223,0-0.333-0.115-0.333-0.346v-3.253c-0.516,1.085-1.266,1.955-2.252,2.612
		c-0.986,0.658-2.066,0.986-3.239,0.986c-1.706,0-3.159-0.64-4.358-1.919s-1.799-2.816-1.799-4.611s0.6-3.332,1.799-4.612
		c1.2-1.279,2.652-1.919,4.358-1.919c1.173,0,2.252,0.329,3.239,0.986s1.737,1.528,2.252,2.612V40.721z M60.405,51.05
		c1.075,1.146,2.368,1.72,3.878,1.72c1.51,0,2.803-0.573,3.878-1.72c1.075-1.146,1.613-2.527,1.613-4.145s-0.538-2.995-1.613-4.132
		s-2.368-1.706-3.878-1.706c-1.511,0-2.803,0.569-3.878,1.706c-1.076,1.137-1.613,2.515-1.613,4.132S59.329,49.904,60.405,51.05z"/>
	<path opacity="0.5" fill="#5F84C3" d="M82.729,41.067c-2.63,0-4.638,1.973-6.024,5.917v6.105c0,0.23-0.106,0.346-0.32,0.346
		s-0.32-0.115-0.32-0.346v-6.105c-0.018-0.035-0.018-0.088,0-0.159v-6.104c0-0.089,0.031-0.169,0.093-0.24
		c0.062-0.07,0.138-0.106,0.227-0.106c0.213,0,0.32,0.116,0.32,0.347v4.425c0.249-0.587,0.524-1.102,0.827-1.546
		c1.439-2.15,3.172-3.226,5.198-3.226c0.23,0,0.347,0.116,0.347,0.347C83.076,40.952,82.96,41.067,82.729,41.067z"/>
	<path opacity="0.5" fill="#5F84C3" d="M87.741,53.09V35.123c0-0.23,0.115-0.347,0.346-0.347c0.089,0,0.165,0.036,0.228,0.106
		c0.062,0.071,0.093,0.151,0.093,0.24v13.834l8.583-8.583c0.143-0.142,0.298-0.138,0.467,0.014s0.174,0.307,0.014,0.466
		l-5.411,5.412l5.411,6.584c0.089,0.106,0.102,0.23,0.04,0.373c-0.062,0.143-0.156,0.213-0.28,0.213s-0.213-0.044-0.267-0.133
		l-5.411-6.531l-3.065,3.065c-0.036,0.036-0.062,0.054-0.08,0.054v3.199c0,0.089-0.031,0.168-0.093,0.239
		c-0.062,0.071-0.139,0.106-0.228,0.106C87.856,53.436,87.741,53.32,87.741,53.09z"/>
	<path opacity="0.5" fill="#5F84C3" d="M114.344,46.398v0.106c-0.035,0.214-0.143,0.32-0.319,0.32h-11.623v0.08
		c0,1.599,0.556,2.972,1.667,4.118c1.11,1.146,2.447,1.729,4.012,1.746c0.977,0,1.879-0.24,2.705-0.72s1.488-1.128,1.986-1.946
		c0.124-0.178,0.279-0.204,0.466-0.08c0.188,0.125,0.218,0.276,0.094,0.453c-0.569,0.889-1.319,1.604-2.253,2.146
		c-0.933,0.542-1.933,0.812-2.998,0.812c-1.742-0.018-3.226-0.662-4.452-1.933s-1.857-2.803-1.893-4.598
		c0.035-1.813,0.666-3.354,1.893-4.625s2.688-1.906,4.385-1.906s3.146,0.578,4.346,1.732
		C113.557,43.262,114.219,44.692,114.344,46.398z M111.811,42.533c-1.066-0.977-2.314-1.466-3.745-1.466s-2.684,0.489-3.759,1.466
		c-1.075,0.978-1.701,2.195-1.879,3.652h11.249C113.5,44.729,112.878,43.511,111.811,42.533z"/>
	<path opacity="0.5" fill="#5F84C3" d="M122.927,40.374c0.231,0,0.347,0.111,0.347,0.333c0,0.223-0.115,0.334-0.347,0.334h-2.132
		v10.396c0,0.373,0.133,0.693,0.399,0.96s0.551,0.399,0.854,0.399c0.302,0,0.453,0.111,0.453,0.333c0,0.223-0.116,0.334-0.347,0.334
		c-0.551,0-1.026-0.2-1.427-0.6c-0.399-0.4-0.6-0.876-0.6-1.427V41.041h-2.239c-0.23,0-0.346-0.111-0.346-0.334
		c0-0.222,0.115-0.333,0.346-0.333h2.239v-5.225c0-0.23,0.111-0.347,0.334-0.347c0.222,0,0.333,0.116,0.333,0.347v5.225H122.927z"/>
</g>
<polygon fill="#5F84C3" points="-50.732,28.76 -55.722,28.76 -43.971,-13.89 -42.438,-13.89 "/>
<polygon fill="#5F84C3" points="-41.203,28.76 -46.194,28.76 -41.044,-13.89 -39.511,-13.89 "/>
<polygon fill="#5F84C3" points="-31.674,28.76 -36.666,28.76 -38.117,-13.89 -36.584,-13.89 "/>
<polygon fill="#5F84C3" points="-22.147,28.76 -27.137,28.76 -35.192,-13.89 -33.657,-13.89 "/>
</svg>
