<?xml version="1.0" encoding="utf-8"?>
<!-- Generator: Adobe Illustrator 15.0.0, SVG Export Plug-In . SVG Version: 6.00 Build 0)  -->
<!DOCTYPE svg PUBLIC "-//W3C//DTD SVG 1.1//EN" "http://www.w3.org/Graphics/SVG/1.1/DTD/svg11.dtd">
<svg version="1.1" id="Layer_1" xmlns="http://www.w3.org/2000/svg" xmlns:xlink="http://www.w3.org/1999/xlink" x="0px" y="0px"
	 width="267.092px" height="75.722px" viewBox="-55.723 -13.89 267.092 75.722"
	 enable-background="new -55.723 -13.89 267.092 75.722" xml:space="preserve">
<g>
	<path fill="#5F84C3" d="M-43.461,44.88c1.208,0.925,1.813,2.213,1.813,3.865c-0.018,0.587,0.018,1.11,0.106,1.573
		c0.462,0.143,0.773,0.448,0.933,0.919c0.16,0.472,0.089,0.911-0.213,1.319c-0.302,0.409-0.738,0.613-1.306,0.613h-0.026
		c-0.8,0-1.431-0.408-1.893-1.226c-0.374-0.782-0.56-1.849-0.56-3.199c-0.036-0.817-0.409-1.457-1.12-1.919
		c-0.462-0.303-0.959-0.516-1.493-0.64h-3.146v5.784c0,0.409-0.146,0.756-0.44,1.039c-0.293,0.285-0.644,0.427-1.053,0.427
		c-0.409,0-0.756-0.142-1.04-0.427c-0.285-0.283-0.427-0.63-0.427-1.039V36.243c0-0.408,0.142-0.755,0.427-1.039
		c0.284-0.284,0.63-0.427,1.04-0.427h4.771c1.582,0,2.928,0.56,4.039,1.68c1.11,1.119,1.666,2.515,1.666,4.185
		C-41.382,42.312-42.075,43.725-43.461,44.88z M-47.086,43.228c0.764,0,1.413-0.267,1.946-0.8s0.8-1.178,0.8-1.933
		s-0.267-1.403-0.8-1.946c-0.533-0.541-1.182-0.812-1.946-0.812h-3.279v5.491H-47.086z"/>
	<path opacity="0.5" fill="#5F84C3" d="M-24.908,46.399v0.106c-0.036,0.213-0.143,0.32-0.32,0.32H-36.85v0.08
		c0,1.6,0.555,2.972,1.667,4.118c1.11,1.146,2.448,1.729,4.012,1.746c0.977,0,1.879-0.24,2.706-0.72
		c0.826-0.48,1.488-1.129,1.986-1.946c0.124-0.177,0.28-0.204,0.466-0.08c0.187,0.125,0.217,0.276,0.093,0.453
		c-0.569,0.89-1.319,1.604-2.252,2.146s-1.933,0.812-2.999,0.812c-1.742-0.018-3.226-0.661-4.452-1.933
		c-1.227-1.27-1.857-2.803-1.893-4.598c0.035-1.812,0.666-3.354,1.893-4.625c1.226-1.271,2.688-1.906,4.385-1.906
		c1.697,0,3.146,0.578,4.345,1.732C-25.695,43.264-25.032,44.693-24.908,46.399z M-27.441,42.534
		c-1.066-0.978-2.314-1.466-3.745-1.466s-2.684,0.488-3.758,1.466c-1.076,0.978-1.702,2.195-1.879,3.652h11.249
		C-25.752,44.729-26.374,43.512-27.441,42.534z"/>
	<path opacity="0.5" fill="#5F84C3" d="M-8.701,58.795c0,0.23-0.111,0.347-0.333,0.347s-0.333-0.116-0.333-0.347v-9.037
		c-0.516,1.066-1.275,1.924-2.279,2.572c-1.004,0.649-2.102,0.974-3.292,0.974c-1.759,0-3.248-0.631-4.465-1.893
		c-1.218-1.262-1.826-2.79-1.826-4.585s0.608-3.318,1.826-4.572c1.217-1.252,2.706-1.879,4.465-1.879
		c1.19,0,2.288,0.324,3.292,0.973c1.004,0.649,1.764,1.516,2.279,2.6v-3.226c0-0.23,0.111-0.347,0.333-0.347
		s0.333,0.116,0.333,0.347V58.795z M-9.367,46.826v-0.24c-0.053-1.528-0.626-2.834-1.719-3.918
		c-1.093-1.084-2.391-1.627-3.892-1.627c-1.502,0-2.803,0.569-3.905,1.707c-1.102,1.137-1.652,2.501-1.652,4.092
		c0,1.59,0.55,2.949,1.652,4.078s2.417,1.692,3.945,1.692s2.839-0.563,3.932-1.692C-9.914,49.789-9.367,48.426-9.367,46.826z"/>
	<path opacity="0.5" fill="#5F84C3" d="M-3.024,40.722c0-0.23,0.116-0.347,0.347-0.347c0.089,0,0.164,0.036,0.227,0.106
		c0.062,0.071,0.093,0.151,0.093,0.24v7.437c0,1.28,0.444,2.369,1.333,3.266c0.888,0.898,1.963,1.347,3.225,1.347
		s2.341-0.448,3.239-1.347c0.897-0.896,1.346-1.985,1.346-3.266v-7.437c0-0.089,0.036-0.169,0.107-0.24
		c0.071-0.07,0.151-0.106,0.24-0.106c0.231,0,0.347,0.116,0.347,0.347v7.437c0,1.458-0.516,2.702-1.546,3.732
		c-1.031,1.031-2.27,1.546-3.718,1.546c-1.449,0-2.684-0.515-3.706-1.546c-1.022-1.03-1.533-2.274-1.533-3.732V40.722z"/>
	<path opacity="0.5" fill="#5F84C3" d="M13.61,37.149v-0.64c0-0.23,0.11-0.347,0.333-0.347c0.222,0,0.333,0.116,0.333,0.347v0.64
		c0,0.089-0.031,0.165-0.093,0.227c-0.062,0.062-0.138,0.094-0.227,0.094C13.725,37.47,13.61,37.363,13.61,37.149z M13.61,53.09
		V40.695c0-0.214,0.11-0.32,0.333-0.32c0.222,0,0.333,0.106,0.333,0.32V53.09c0,0.09-0.031,0.17-0.093,0.24
		c-0.062,0.071-0.138,0.106-0.227,0.106C13.725,53.437,13.61,53.321,13.61,53.09z"/>
	<path opacity="0.5" fill="#5F84C3" d="M27.764,41.068c-2.63,0-4.639,1.973-6.024,5.918v6.104c0,0.231-0.107,0.347-0.32,0.347
		c-0.213,0-0.319-0.115-0.319-0.347v-6.104c-0.018-0.036-0.018-0.089,0-0.16v-6.104c0-0.089,0.031-0.169,0.093-0.24
		c0.062-0.07,0.138-0.106,0.227-0.106c0.213,0,0.32,0.116,0.32,0.347v4.425c0.249-0.586,0.524-1.102,0.826-1.546
		c1.439-2.15,3.172-3.226,5.198-3.226c0.23,0,0.346,0.116,0.346,0.347C28.111,40.953,27.995,41.068,27.764,41.068z"/>
	<path opacity="0.5" fill="#5F84C3" d="M44.451,46.399v0.106c-0.036,0.213-0.143,0.32-0.32,0.32H32.509v0.08
		c0,1.6,0.555,2.972,1.666,4.118c1.11,1.146,2.448,1.729,4.012,1.746c0.977,0,1.879-0.24,2.706-0.72
		c0.826-0.48,1.488-1.129,1.986-1.946c0.124-0.177,0.28-0.204,0.466-0.08c0.187,0.125,0.218,0.276,0.094,0.453
		c-0.569,0.89-1.32,1.604-2.253,2.146c-0.933,0.542-1.932,0.812-2.999,0.812c-1.742-0.018-3.226-0.661-4.452-1.933
		c-1.226-1.27-1.857-2.803-1.893-4.598c0.035-1.812,0.667-3.354,1.893-4.625s2.688-1.906,4.385-1.906s3.146,0.578,4.345,1.732
		C43.665,43.264,44.326,44.693,44.451,46.399z M41.919,42.534c-1.066-0.978-2.315-1.466-3.745-1.466
		c-1.431,0-2.684,0.488-3.759,1.466s-1.702,2.195-1.879,3.652h11.249C43.607,44.729,42.985,43.512,41.919,42.534z"/>
	<path opacity="0.5" fill="#5F84C3" d="M59.485,53.197l-0.053,0.133c-0.071,0.071-0.16,0.106-0.267,0.106
		c-0.213,0-0.32-0.115-0.32-0.347v-7.437c0-1.28-0.449-2.368-1.346-3.266c-0.897-0.897-1.968-1.347-3.212-1.347
		s-2.31,0.432-3.199,1.293c-0.889,0.862-1.351,1.906-1.386,3.133v7.623l-0.08,0.24l-0.053,0.026c-0.054,0.054-0.116,0.08-0.187,0.08
		h-0.08c-0.196-0.035-0.293-0.15-0.293-0.347v-7.437c0-0.143,0.018-0.355,0.053-0.64v-4.292c0-0.23,0.107-0.347,0.32-0.347
		c0.213,0,0.32,0.116,0.32,0.347v2.372c0.462-0.835,1.097-1.496,1.906-1.985c0.809-0.489,1.728-0.733,2.759-0.733
		c1.03,0,1.995,0.316,2.893,0.946c0.897,0.631,1.532,1.453,1.906,2.466c0.373-1.013,1.008-1.835,1.906-2.466
		c0.897-0.63,1.906-0.946,3.025-0.946c1.439,0,2.666,0.516,3.679,1.546c1.013,1.031,1.52,2.275,1.52,3.732v7.437
		c0,0.231-0.106,0.347-0.32,0.347c-0.089,0-0.169-0.035-0.24-0.106c-0.071-0.07-0.107-0.15-0.107-0.24v-7.437
		c0-1.28-0.444-2.368-1.333-3.266c-0.889-0.897-1.955-1.347-3.199-1.347s-2.31,0.432-3.199,1.293
		c-0.889,0.862-1.351,1.906-1.386,3.133v7.623C59.511,53.144,59.503,53.18,59.485,53.197z"/>
	<path opacity="0.5" fill="#5F84C3" d="M86.035,46.399v0.106c-0.036,0.213-0.143,0.32-0.32,0.32H74.093v0.08
		c0,1.6,0.555,2.972,1.666,4.118c1.11,1.146,2.448,1.729,4.012,1.746c0.978,0,1.879-0.24,2.706-0.72
		c0.826-0.48,1.487-1.129,1.985-1.946c0.124-0.177,0.28-0.204,0.467-0.08c0.187,0.125,0.217,0.276,0.093,0.453
		c-0.568,0.89-1.319,1.604-2.252,2.146s-1.933,0.812-2.999,0.812c-1.742-0.018-3.226-0.661-4.452-1.933
		c-1.226-1.27-1.857-2.803-1.893-4.598c0.036-1.812,0.667-3.354,1.893-4.625s2.688-1.906,4.385-1.906
		c1.696,0,3.146,0.578,4.345,1.732C85.248,43.264,85.91,44.693,86.035,46.399z M83.503,42.534c-1.066-0.978-2.315-1.466-3.746-1.466
		s-2.683,0.488-3.758,1.466s-1.702,2.195-1.879,3.652h11.249C85.19,44.729,84.568,43.512,83.503,42.534z"/>
	<path opacity="0.5" fill="#5F84C3" d="M90.833,53.437c-0.036-0.035-0.076-0.053-0.12-0.053c-0.045,0-0.066-0.036-0.066-0.106
		c-0.036-0.036-0.054-0.08-0.054-0.134V40.695c0-0.214,0.111-0.32,0.333-0.32c0.223,0,0.334,0.106,0.334,0.32v2.398
		c0.462-0.816,1.102-1.475,1.919-1.973c0.817-0.497,1.715-0.746,2.692-0.746c1.439,0,2.674,0.516,3.705,1.546
		c1.03,1.031,1.546,2.275,1.546,3.732v7.437c0,0.231-0.111,0.347-0.333,0.347c-0.223,0-0.333-0.115-0.333-0.347v-7.437
		c0-1.28-0.449-2.368-1.347-3.266s-1.977-1.347-3.238-1.347c-1.263,0-2.346,0.449-3.252,1.347s-1.359,1.985-1.359,3.266v7.437
		c0,0.231-0.107,0.347-0.32,0.347H90.833z"/>
	<path opacity="0.5" fill="#5F84C3" d="M110.958,40.375c0.231,0,0.347,0.111,0.347,0.333c0,0.223-0.115,0.333-0.347,0.333h-2.132
		v10.396c0,0.373,0.133,0.693,0.399,0.96s0.551,0.399,0.854,0.399c0.302,0,0.453,0.111,0.453,0.333c0,0.223-0.116,0.333-0.347,0.333
		c-0.552,0-1.026-0.199-1.427-0.6c-0.399-0.399-0.6-0.875-0.6-1.426V41.041h-2.239c-0.23,0-0.347-0.11-0.347-0.333
		c0-0.222,0.116-0.333,0.347-0.333h2.239V35.15c0-0.23,0.111-0.347,0.333-0.347c0.223,0,0.334,0.116,0.334,0.347v5.225H110.958z"/>
	<path opacity="0.5" fill="#5F84C3" d="M121.807,53.437c-0.818,0-1.645-0.159-2.479-0.479c-1.119-0.444-1.929-0.915-2.426-1.413
		c-0.106-0.106-0.138-0.222-0.093-0.347c0.044-0.124,0.119-0.203,0.227-0.239c0.106-0.036,0.213-0.005,0.319,0.093
		s0.307,0.254,0.6,0.467c0.294,0.213,0.822,0.476,1.587,0.786c0.764,0.312,1.519,0.467,2.266,0.467c1.19,0,2.208-0.302,3.052-0.906
		s1.267-1.333,1.267-2.187c0-0.675-0.205-1.189-0.613-1.546c-0.444-0.391-0.897-0.666-1.359-0.826
		c-0.622-0.195-1.263-0.368-1.92-0.52s-1.124-0.263-1.399-0.333c-0.275-0.071-0.657-0.209-1.146-0.414
		c-0.489-0.203-0.85-0.412-1.08-0.626c-0.622-0.568-0.933-1.284-0.933-2.146c0-0.862,0.403-1.604,1.213-2.227
		c0.809-0.621,1.692-0.933,2.652-0.933c0.959,0,1.776,0.143,2.452,0.427c0.96,0.391,1.572,0.782,1.839,1.173
		c0.089,0.089,0.107,0.195,0.054,0.319c-0.054,0.125-0.138,0.2-0.253,0.227c-0.116,0.027-0.218-0.004-0.307-0.093
		c-0.906-0.906-2.079-1.359-3.519-1.359c-0.942,0-1.751,0.239-2.426,0.72c-0.676,0.479-1.014,1.066-1.014,1.76
		c0,0.906,0.409,1.555,1.227,1.945c0.64,0.32,1.391,0.578,2.253,0.773c0.861,0.195,1.448,0.338,1.759,0.426
		c0.311,0.09,0.702,0.227,1.173,0.414c0.471,0.186,0.831,0.395,1.08,0.626c0.64,0.587,0.959,1.364,0.959,2.332
		c0,0.969-0.484,1.817-1.452,2.546C124.397,53.072,123.211,53.437,121.807,53.437z"/>
</g>
<path fill="#5F84C3" d="M-50.055-13.89c-3.11,0-5.668,2.558-5.668,5.668s2.558,5.668,5.668,5.668c3.111,0,5.668-2.558,5.668-5.668
	S-46.944-13.89-50.055-13.89z M-50.055-4.905c-1.797,0-3.248-1.451-3.248-3.248s1.451-3.249,3.248-3.249
	c1.798,0,3.25,1.452,3.25,3.249C-46.805-6.425-48.257-4.905-50.055-4.905z M-50.055,1.8c-3.11,0-5.668,2.559-5.668,5.67
	c0,3.109,2.558,5.668,5.668,5.668c3.111,0,5.668-2.559,5.668-5.668C-44.387,4.359-46.944,1.8-50.055,1.8z M-50.055,10.718
	c-1.797,0-3.248-1.451-3.248-3.248c0-1.799,1.451-3.25,3.248-3.25c1.798,0,3.25,1.451,3.25,3.25
	C-46.805,9.267-48.257,10.718-50.055,10.718z M-50.055,17.423c-3.11,0-5.668,2.558-5.668,5.668c0,3.111,2.558,5.668,5.668,5.668
	c3.111,0,5.668-2.557,5.668-5.668C-44.387,19.981-46.944,17.423-50.055,17.423z M-50.055,26.41c-1.797,0-3.248-1.451-3.248-3.25
	c0-1.796,1.451-3.249,3.248-3.249c1.798,0,3.25,1.452,3.25,3.249C-46.805,24.959-48.257,26.41-50.055,26.41z M-40.239-8.499
	c0-0.691,0.553-1.176,1.176-1.176h21.29c0.69,0,1.244,0.553,1.244,1.176c0,0.69-0.554,1.174-1.244,1.174h-21.29
	C-39.754-7.254-40.239-7.808-40.239-8.499z M-16.805,7.47c0,0.69-0.553,1.174-1.175,1.174h-21.291c-0.691,0-1.175-0.553-1.175-1.174
	c0-0.692,0.553-1.176,1.175-1.176h21.291C-17.358,6.294-16.805,6.778-16.805,7.47z M-16.805,23.16c0,0.691-0.553,1.176-1.175,1.176
	h-21.291c-0.691,0-1.175-0.553-1.175-1.176c0-0.69,0.553-1.174,1.175-1.174h21.291C-17.358,21.917-16.805,22.47-16.805,23.16z"/>
</svg>
