<?xml version="1.0" encoding="utf-8"?>
<!-- Generator: Adobe Illustrator 15.0.0, SVG Export Plug-In . SVG Version: 6.00 Build 0)  -->
<!DOCTYPE svg PUBLIC "-//W3C//DTD SVG 1.1//EN" "http://www.w3.org/Graphics/SVG/1.1/DTD/svg11.dtd">
<svg version="1.1" id="Layer_1" xmlns="http://www.w3.org/2000/svg" xmlns:xlink="http://www.w3.org/1999/xlink" x="0px" y="0px"
	 width="267.092px" height="75.722px" viewBox="-55.723 -13.89 267.092 75.722"
	 enable-background="new -55.723 -13.89 267.092 75.722" xml:space="preserve">
<g>
	<path fill="#5F84C3" d="M-46.606,53.331c-0.053,0-0.133-0.053-0.24-0.159h-0.026c-0.018-0.018-0.08-0.062-0.187-0.134
		c-0.018-0.035-0.045-0.075-0.08-0.12c-0.036-0.044-0.062-0.075-0.08-0.093s-0.04-0.058-0.066-0.12
		c-0.027-0.062-0.058-0.111-0.093-0.146l-6.531-15.567c-0.16-0.355-0.165-0.724-0.014-1.106c0.151-0.382,0.422-0.645,0.813-0.786
		c0.355-0.16,0.72-0.164,1.093-0.014c0.373,0.151,0.64,0.413,0.799,0.786l5.198,12.342l5.198-12.342
		c0.16-0.373,0.431-0.635,0.813-0.786c0.382-0.15,0.75-0.146,1.106,0.014c0.373,0.142,0.635,0.404,0.787,0.786
		c0.15,0.383,0.155,0.751,0.013,1.106l-6.584,15.567l-0.106,0.213c0,0.018-0.009,0.036-0.026,0.054l-0.347,0.347
		c-0.036,0.035-0.093,0.07-0.173,0.106c-0.08,0.035-0.2,0.08-0.36,0.133h-0.053c-0.071,0.019-0.165,0.026-0.28,0.026
		c-0.116,0-0.2-0.008-0.253-0.026h-0.053c-0.071-0.035-0.143-0.053-0.213-0.053l-0.027-0.027H-46.606z"/>
	<path opacity="0.5" fill="#5F84C3" d="M-23.015,40.723c0-0.23,0.111-0.347,0.333-0.347c0.222,0,0.333,0.116,0.333,0.347v12.369
		c0,0.23-0.111,0.346-0.333,0.346c-0.223,0-0.333-0.115-0.333-0.346V49.84c-0.516,1.084-1.266,1.955-2.252,2.611
		c-0.986,0.658-2.066,0.986-3.239,0.986c-1.706,0-3.159-0.64-4.358-1.919c-1.199-1.279-1.799-2.816-1.799-4.611
		s0.6-3.332,1.799-4.611c1.2-1.28,2.652-1.92,4.358-1.92c1.173,0,2.252,0.329,3.239,0.986c0.986,0.658,1.737,1.529,2.252,2.612
		V40.723z M-32.385,51.053c1.075,1.146,2.368,1.719,3.878,1.719c1.51,0,2.803-0.573,3.878-1.719
		c1.075-1.146,1.613-2.528,1.613-4.146s-0.538-2.994-1.613-4.132c-1.075-1.137-2.368-1.706-3.878-1.706
		c-1.511,0-2.803,0.569-3.878,1.706c-1.076,1.138-1.613,2.515-1.613,4.132S-33.46,49.906-32.385,51.053z"/>
	<path opacity="0.5" fill="#5F84C3" d="M-16.564,35.125c0-0.23,0.111-0.347,0.333-0.347s0.333,0.116,0.333,0.347v17.967
		c0,0.23-0.111,0.346-0.333,0.346s-0.333-0.115-0.333-0.346V35.125z"/>
	<path opacity="0.5" fill="#5F84C3" d="M-10.38,40.723c0-0.23,0.115-0.347,0.347-0.347c0.089,0,0.164,0.036,0.227,0.106
		c0.062,0.072,0.093,0.151,0.093,0.24v7.438c0,1.279,0.444,2.368,1.333,3.266s1.964,1.346,3.226,1.346s2.341-0.448,3.239-1.346
		c0.897-0.897,1.346-1.986,1.346-3.266v-7.438c0-0.089,0.036-0.168,0.106-0.24c0.071-0.07,0.151-0.106,0.24-0.106
		c0.23,0,0.347,0.116,0.347,0.347v7.438c0,1.457-0.516,2.701-1.546,3.731c-1.031,1.031-2.271,1.546-3.718,1.546
		c-1.449,0-2.684-0.515-3.706-1.546c-1.022-1.03-1.533-2.274-1.533-3.731V40.723z"/>
	<path opacity="0.5" fill="#5F84C3" d="M17.902,46.4v0.107c-0.036,0.213-0.143,0.319-0.32,0.319H5.96v0.08
		c0,1.6,0.555,2.972,1.666,4.118c1.11,1.146,2.448,1.729,4.012,1.746c0.977,0,1.879-0.24,2.706-0.72s1.488-1.128,1.986-1.946
		c0.124-0.177,0.28-0.203,0.466-0.079c0.187,0.124,0.218,0.275,0.094,0.453c-0.569,0.889-1.32,1.604-2.253,2.146
		c-0.933,0.542-1.932,0.812-2.999,0.812c-1.742-0.017-3.226-0.661-4.452-1.932s-1.857-2.804-1.893-4.599
		c0.035-1.812,0.667-3.354,1.893-4.625s2.688-1.906,4.385-1.906s3.146,0.578,4.345,1.733S17.778,44.694,17.902,46.4z M15.37,42.535
		c-1.066-0.977-2.315-1.466-3.745-1.466c-1.431,0-2.684,0.489-3.759,1.466c-1.075,0.978-1.702,2.195-1.879,3.652h11.249
		C17.058,44.73,16.436,43.513,15.37,42.535z"/>
	<path opacity="0.5" fill="#5F84C3" d="M30.75,53.092V35.125c0-0.23,0.115-0.347,0.346-0.347h5.465c1.421,0,2.643,0.507,3.665,1.52
		s1.533,2.239,1.533,3.679s-0.506,2.661-1.519,3.665c-1.013,1.004-2.239,1.506-3.679,1.506h-5.145v7.944
		c0,0.23-0.111,0.346-0.333,0.346S30.75,53.322,30.75,53.092z M31.416,44.455h5.145c1.244,0,2.306-0.436,3.186-1.307
		c0.879-0.87,1.319-1.928,1.319-3.172s-0.44-2.311-1.319-3.199c-0.88-0.888-1.942-1.332-3.186-1.332h-5.145V44.455z"/>
	<path opacity="0.5" fill="#5F84C3" d="M52.688,41.069c-2.63,0-4.638,1.973-6.024,5.918v6.104c0,0.23-0.106,0.346-0.32,0.346
		s-0.32-0.115-0.32-0.346v-6.104c-0.018-0.036-0.018-0.089,0-0.16v-6.104c0-0.089,0.031-0.168,0.093-0.24
		c0.062-0.07,0.137-0.106,0.227-0.106c0.213,0,0.32,0.116,0.32,0.347v4.425c0.249-0.586,0.524-1.102,0.826-1.546
		c1.439-2.149,3.172-3.226,5.198-3.226c0.23,0,0.347,0.116,0.347,0.347C53.035,40.954,52.919,41.069,52.688,41.069z"/>
	<path opacity="0.5" fill="#5F84C3" d="M58.885,42.296c1.2-1.28,2.652-1.92,4.358-1.92s3.163,0.64,4.372,1.92
		c1.208,1.279,1.813,2.816,1.813,4.611s-0.604,3.332-1.813,4.611s-2.666,1.919-4.372,1.919s-3.159-0.64-4.358-1.919
		c-1.199-1.279-1.799-2.816-1.799-4.611S57.686,43.575,58.885,42.296z M59.365,51.053c1.075,1.146,2.368,1.719,3.878,1.719
		c1.51,0,2.808-0.573,3.892-1.719c1.083-1.146,1.626-2.528,1.626-4.146s-0.542-2.999-1.626-4.146
		c-1.084-1.146-2.382-1.719-3.892-1.719c-1.511,0-2.804,0.573-3.878,1.719c-1.076,1.146-1.613,2.528-1.613,4.146
		S58.29,49.906,59.365,51.053z"/>
	<path opacity="0.5" fill="#5F84C3" d="M74.36,58.796V40.723c0-0.23,0.111-0.347,0.333-0.347c0.222,0,0.333,0.116,0.333,0.347v3.226
		c0.515-1.084,1.275-1.95,2.279-2.599c1.003-0.648,2.102-0.974,3.292-0.974c1.759,0,3.247,0.627,4.465,1.88
		c1.217,1.253,1.826,2.776,1.826,4.571s-0.609,3.323-1.826,4.585c-1.218,1.262-2.706,1.893-4.465,1.893
		c-1.19,0-2.289-0.324-3.292-0.973c-1.004-0.648-1.764-1.506-2.279-2.572v9.036c0,0.23-0.111,0.347-0.333,0.347
		C74.47,59.143,74.36,59.026,74.36,58.796z M75.026,46.587v0.24c0,1.6,0.546,2.964,1.639,4.092c1.093,1.129,2.404,1.692,3.932,1.692
		s2.843-0.563,3.945-1.692c1.102-1.128,1.652-2.487,1.652-4.078s-0.551-2.954-1.652-4.092c-1.103-1.138-2.404-1.706-3.905-1.706
		c-1.502,0-2.799,0.542-3.892,1.626S75.079,45.059,75.026,46.587z"/>
	<path opacity="0.5" fill="#5F84C3" d="M93.138,42.296c1.2-1.28,2.652-1.92,4.358-1.92s3.163,0.64,4.372,1.92
		c1.208,1.279,1.812,2.816,1.812,4.611s-0.604,3.332-1.812,4.611c-1.209,1.279-2.666,1.919-4.372,1.919s-3.158-0.64-4.358-1.919
		c-1.199-1.279-1.799-2.816-1.799-4.611S91.939,43.575,93.138,42.296z M93.619,51.053c1.075,1.146,2.367,1.719,3.878,1.719
		s2.808-0.573,3.893-1.719c1.083-1.146,1.626-2.528,1.626-4.146s-0.543-2.999-1.626-4.146c-1.085-1.146-2.382-1.719-3.893-1.719
		s-2.803,0.573-3.878,1.719c-1.075,1.146-1.613,2.528-1.613,4.146S92.544,49.906,93.619,51.053z"/>
	<path opacity="0.5" fill="#5F84C3" d="M112.825,53.438c-0.818,0-1.645-0.159-2.479-0.479c-1.119-0.444-1.929-0.915-2.426-1.413
		c-0.106-0.106-0.138-0.222-0.093-0.346c0.044-0.125,0.119-0.204,0.227-0.24c0.106-0.035,0.213-0.004,0.319,0.094
		s0.307,0.253,0.6,0.466c0.294,0.214,0.822,0.476,1.587,0.786c0.764,0.312,1.519,0.467,2.266,0.467c1.19,0,2.208-0.302,3.052-0.906
		c0.844-0.604,1.267-1.333,1.267-2.186c0-0.676-0.205-1.19-0.613-1.547c-0.444-0.391-0.897-0.666-1.359-0.826
		c-0.622-0.195-1.263-0.368-1.92-0.52c-0.657-0.15-1.124-0.262-1.399-0.333s-0.657-0.209-1.146-0.413
		c-0.489-0.204-0.85-0.413-1.08-0.627c-0.622-0.568-0.933-1.283-0.933-2.146s0.403-1.604,1.213-2.226
		c0.809-0.622,1.692-0.934,2.652-0.934c0.959,0,1.776,0.143,2.452,0.427c0.96,0.392,1.572,0.782,1.839,1.173
		c0.089,0.089,0.107,0.196,0.054,0.32s-0.138,0.199-0.253,0.227c-0.116,0.026-0.218-0.004-0.307-0.094
		c-0.906-0.906-2.079-1.359-3.519-1.359c-0.942,0-1.751,0.24-2.426,0.72c-0.676,0.479-1.014,1.066-1.014,1.76
		c0,0.906,0.409,1.555,1.227,1.945c0.64,0.32,1.391,0.578,2.253,0.773c0.861,0.195,1.448,0.338,1.759,0.427s0.702,0.227,1.173,0.413
		s0.831,0.396,1.08,0.626c0.64,0.587,0.959,1.364,0.959,2.333s-0.484,1.816-1.452,2.545
		C115.415,53.074,114.228,53.438,112.825,53.438z"/>
	<path opacity="0.5" fill="#5F84C3" d="M121.755,37.15v-0.64c0-0.23,0.11-0.347,0.333-0.347c0.222,0,0.333,0.116,0.333,0.347v0.64
		c0,0.09-0.031,0.165-0.094,0.227c-0.062,0.062-0.138,0.094-0.227,0.094C121.87,37.471,121.755,37.364,121.755,37.15z
		 M121.755,53.092V40.696c0-0.214,0.11-0.32,0.333-0.32c0.222,0,0.333,0.106,0.333,0.32v12.396c0,0.089-0.031,0.169-0.094,0.239
		c-0.062,0.071-0.138,0.106-0.227,0.106C121.87,53.438,121.755,53.322,121.755,53.092z"/>
	<path opacity="0.5" fill="#5F84C3" d="M133.243,40.376c0.23,0,0.347,0.111,0.347,0.333c0,0.223-0.116,0.334-0.347,0.334h-2.133
		v10.396c0,0.373,0.134,0.693,0.4,0.96s0.551,0.399,0.853,0.399s0.453,0.111,0.453,0.334c0,0.222-0.115,0.333-0.347,0.333
		c-0.551,0-1.025-0.2-1.426-0.6c-0.399-0.4-0.6-0.875-0.6-1.427V41.043h-2.239c-0.231,0-0.347-0.111-0.347-0.334
		c0-0.222,0.115-0.333,0.347-0.333h2.239v-5.225c0-0.23,0.11-0.347,0.333-0.347c0.222,0,0.333,0.116,0.333,0.347v5.225H133.243z"/>
	<path opacity="0.5" fill="#5F84C3" d="M139.907,37.15v-0.64c0-0.23,0.11-0.347,0.333-0.347c0.222,0,0.333,0.116,0.333,0.347v0.64
		c0,0.09-0.031,0.165-0.093,0.227c-0.062,0.062-0.138,0.094-0.227,0.094C140.022,37.471,139.907,37.364,139.907,37.15z
		 M139.907,53.092V40.696c0-0.214,0.11-0.32,0.333-0.32c0.222,0,0.333,0.106,0.333,0.32v12.396c0,0.089-0.031,0.169-0.093,0.239
		c-0.062,0.071-0.138,0.106-0.227,0.106C140.022,53.438,139.907,53.322,139.907,53.092z"/>
	<path opacity="0.5" fill="#5F84C3" d="M148.556,42.296c1.2-1.28,2.652-1.92,4.358-1.92s3.163,0.64,4.372,1.92
		c1.208,1.279,1.812,2.816,1.812,4.611s-0.604,3.332-1.812,4.611c-1.209,1.279-2.666,1.919-4.372,1.919s-3.158-0.64-4.358-1.919
		c-1.199-1.279-1.799-2.816-1.799-4.611S147.357,43.575,148.556,42.296z M149.037,51.053c1.074,1.146,2.367,1.719,3.878,1.719
		s2.808-0.573,3.893-1.719c1.083-1.146,1.626-2.528,1.626-4.146s-0.543-2.999-1.626-4.146c-1.085-1.146-2.382-1.719-3.893-1.719
		s-2.804,0.573-3.878,1.719c-1.076,1.146-1.613,2.528-1.613,4.146S147.961,49.906,149.037,51.053z"/>
	<path opacity="0.5" fill="#5F84C3" d="M164.27,53.438c-0.035-0.035-0.075-0.053-0.119-0.053c-0.045,0-0.067-0.035-0.067-0.106
		c-0.035-0.036-0.053-0.08-0.053-0.134V40.696c0-0.214,0.11-0.32,0.333-0.32c0.222,0,0.333,0.106,0.333,0.32v2.399
		c0.462-0.817,1.102-1.476,1.919-1.973c0.817-0.498,1.715-0.747,2.692-0.747c1.439,0,2.675,0.516,3.706,1.546
		c1.03,1.031,1.546,2.275,1.546,3.732v7.438c0,0.23-0.111,0.346-0.333,0.346c-0.223,0-0.334-0.115-0.334-0.346v-7.438
		c0-1.279-0.448-2.368-1.346-3.266c-0.897-0.896-1.978-1.346-3.239-1.346s-2.346,0.449-3.252,1.346
		c-0.906,0.897-1.359,1.986-1.359,3.266v7.438c0,0.23-0.106,0.346-0.319,0.346H164.27z"/>
</g>
<g>
	<path fill="#5F84C3" d="M-49.382-2.371c0.171-0.205,0.143-0.51-0.062-0.682L-54.932-7.6c-0.204-0.17-0.511-0.143-0.679,0.063
		c-0.171,0.205-0.143,0.511,0.061,0.682l5.488,4.55C-49.855-2.136-49.551-2.165-49.382-2.371z"/>
	<path fill="#5F84C3" d="M-8.628-7.309l-5.489,4.548c-0.205,0.171-0.232,0.476-0.063,0.68c0.171,0.207,0.475,0.236,0.683,0.064
		l5.484-4.549c0.207-0.17,0.236-0.475,0.064-0.681C-8.117-7.452-8.423-7.48-8.628-7.309z"/>
	<path fill="#5F84C3" d="M-32.375-5.799c0.267,0.009,0.49-0.202,0.496-0.47l0.198-7.125c0.006-0.266-0.203-0.488-0.471-0.496
		c-0.266-0.007-0.487,0.203-0.497,0.471l-0.198,7.123C-32.852-6.029-32.642-5.806-32.375-5.799z"/>
	<polygon fill="#5F84C3" points="-48.73,11.15 -40.09,11.15 -34.219,27.782 	"/>
	<polygon fill="#5F84C3" points="-38.38,11.15 -26.316,11.15 -32.347,28.761 -36.257,17.348 	"/>
	<polygon fill="#5F84C3" points="-24.844,11.15 -15.796,11.15 -30.471,27.782 	"/>
	<polygon fill="#5F84C3" points="-48.73,9.601 -40.905,9.601 -44.817,3.405 	"/>
	<polygon fill="#5F84C3" points="-23.621,9.601 -15.796,9.601 -19.709,3.405 	"/>
	<polygon fill="#5F84C3" points="-37.887,9.601 -26.883,9.601 -32.386,3.405 	"/>
	<polygon fill="#5F84C3" points="-39.518,9.112 -43.595,2.917 -34.219,2.917 	"/>
	<polygon fill="#5F84C3" points="-25.17,9.112 -21.095,2.917 -30.471,2.917 	"/>
</g>
</svg>
