<?xml version="1.0" encoding="utf-8"?>
<!-- Generator: Adobe Illustrator 15.0.0, SVG Export Plug-In . SVG Version: 6.00 Build 0)  -->
<!DOCTYPE svg PUBLIC "-//W3C//DTD SVG 1.1//EN" "http://www.w3.org/Graphics/SVG/1.1/DTD/svg11.dtd">
<svg version="1.1" id="Layer_1" xmlns="http://www.w3.org/2000/svg" xmlns:xlink="http://www.w3.org/1999/xlink" x="0px" y="0px"
	 width="267.092px" height="75.722px" viewBox="-55.723 -13.89 267.092 75.722"
	 enable-background="new -55.723 -13.89 267.092 75.722" xml:space="preserve">
<g>
	<path fill="#5F84C3" d="M-44.9,46.692h-0.053c-0.516,0-0.924-0.204-1.227-0.612l-3.812-5.332v11.223c0,0.409-0.147,0.756-0.44,1.04
		c-0.293,0.284-0.645,0.426-1.053,0.426s-0.755-0.142-1.04-0.426s-0.426-0.631-0.426-1.04V36.243c0-0.408,0.142-0.755,0.426-1.039
		s0.631-0.427,1.04-0.427h0.08c0.515,0,0.906,0.204,1.173,0.613l5.305,7.357l5.305-7.357c0.302-0.409,0.702-0.613,1.2-0.613h0.026
		c0.409,0.018,0.76,0.169,1.053,0.453c0.293,0.284,0.439,0.622,0.439,1.013v15.728c0,0.392-0.146,0.733-0.439,1.026
		c-0.293,0.293-0.645,0.439-1.053,0.439s-0.755-0.142-1.04-0.426s-0.426-0.631-0.426-1.04V40.748L-43.7,46.08
		C-44.003,46.488-44.403,46.692-44.9,46.692z"/>
	<path opacity="0.5" fill="#5F84C3" d="M-20.51,40.722c0-0.23,0.111-0.347,0.333-0.347s0.333,0.116,0.333,0.347V53.09
		c0,0.231-0.111,0.347-0.333,0.347s-0.333-0.115-0.333-0.347v-3.252c-0.516,1.085-1.266,1.955-2.252,2.612
		c-0.986,0.658-2.066,0.986-3.239,0.986c-1.706,0-3.159-0.64-4.358-1.919c-1.2-1.279-1.799-2.816-1.799-4.611s0.6-3.332,1.799-4.611
		c1.199-1.28,2.652-1.92,4.358-1.92c1.173,0,2.253,0.329,3.239,0.986c0.986,0.658,1.737,1.529,2.252,2.612V40.722z M-29.88,51.051
		c1.075,1.146,2.368,1.72,3.878,1.72c1.511,0,2.803-0.573,3.879-1.72c1.075-1.146,1.613-2.527,1.613-4.145s-0.538-2.994-1.613-4.132
		c-1.076-1.138-2.368-1.706-3.879-1.706c-1.51,0-2.803,0.568-3.878,1.706s-1.613,2.515-1.613,4.132S-30.955,49.905-29.88,51.051z"/>
	<path opacity="0.5" fill="#5F84C3" d="M-7.555,41.068c-2.63,0-4.638,1.973-6.024,5.918v6.104c0,0.231-0.106,0.347-0.32,0.347
		s-0.32-0.115-0.32-0.347v-6.104c-0.018-0.036-0.018-0.089,0-0.16v-6.104c0-0.089,0.031-0.169,0.093-0.24
		c0.062-0.07,0.137-0.106,0.227-0.106c0.213,0,0.32,0.116,0.32,0.347v4.425c0.249-0.586,0.524-1.102,0.826-1.546
		c1.439-2.149,3.172-3.226,5.198-3.226c0.23,0,0.347,0.116,0.347,0.347C-7.208,40.953-7.324,41.068-7.555,41.068z"/>
	<path opacity="0.5" fill="#5F84C3" d="M-2.544,53.09V35.124c0-0.23,0.115-0.347,0.346-0.347c0.089,0,0.165,0.036,0.227,0.106
		c0.062,0.071,0.093,0.151,0.093,0.24v13.835l8.583-8.584c0.142-0.142,0.298-0.137,0.467,0.014c0.168,0.151,0.173,0.307,0.013,0.467
		l-5.411,5.411l5.411,6.584c0.089,0.106,0.102,0.231,0.04,0.373c-0.062,0.143-0.156,0.213-0.28,0.213
		c-0.125,0-0.213-0.044-0.267-0.133l-5.411-6.531l-3.065,3.065c-0.036,0.036-0.062,0.054-0.08,0.054v3.198
		c0,0.09-0.031,0.17-0.093,0.24c-0.062,0.071-0.138,0.106-0.227,0.106C-2.428,53.437-2.544,53.321-2.544,53.09z"/>
	<path opacity="0.5" fill="#5F84C3" d="M24.059,46.399v0.106c-0.036,0.214-0.143,0.32-0.32,0.32H12.117v0.08
		c0,1.6,0.556,2.972,1.667,4.118c1.11,1.146,2.448,1.729,4.012,1.746c0.977,0,1.879-0.24,2.706-0.72s1.488-1.128,1.986-1.946
		c0.124-0.177,0.28-0.204,0.466-0.079c0.187,0.124,0.218,0.275,0.094,0.453c-0.569,0.889-1.32,1.604-2.253,2.146
		c-0.933,0.542-1.933,0.812-2.999,0.812c-1.742-0.017-3.226-0.661-4.452-1.933c-1.227-1.27-1.857-2.803-1.893-4.598
		c0.035-1.812,0.666-3.354,1.893-4.625c1.226-1.271,2.688-1.906,4.385-1.906c1.697,0,3.146,0.578,4.345,1.732
		C23.273,43.264,23.935,44.693,24.059,46.399z M21.527,42.534c-1.066-0.977-2.315-1.466-3.745-1.466
		c-1.431,0-2.684,0.489-3.759,1.466c-1.075,0.978-1.702,2.195-1.879,3.652h11.249C23.215,44.729,22.593,43.512,21.527,42.534z"/>
	<path opacity="0.5" fill="#5F84C3" d="M32.642,40.375c0.231,0,0.347,0.111,0.347,0.333c0,0.223-0.116,0.334-0.347,0.334H30.51
		v10.396c0,0.373,0.133,0.693,0.4,0.96s0.551,0.399,0.853,0.399c0.302,0,0.453,0.111,0.453,0.334c0,0.222-0.116,0.333-0.347,0.333
		c-0.551,0-1.026-0.2-1.426-0.601c-0.399-0.399-0.6-0.875-0.6-1.426V41.042h-2.239c-0.231,0-0.346-0.111-0.346-0.334
		c0-0.222,0.115-0.333,0.346-0.333h2.239V35.15c0-0.23,0.111-0.347,0.333-0.347s0.333,0.116,0.333,0.347v5.225H32.642z"/>
	<path opacity="0.5" fill="#5F84C3" d="M65.163,53.197l-5.225-12.502L54.66,53.224c-0.053,0.143-0.151,0.213-0.293,0.213
		c-0.143,0-0.249-0.07-0.32-0.213l-7.544-17.939c-0.125-0.195-0.071-0.338,0.16-0.427c0.213-0.054,0.364,0,0.453,0.16l7.224,17.22
		l5.225-12.396c0.053-0.16,0.168-0.239,0.346-0.239c0.16-0.036,0.284,0.044,0.374,0.239l5.198,12.396l7.25-17.22
		c0.071-0.107,0.173-0.164,0.307-0.174c0.133-0.009,0.24,0.031,0.32,0.12c0.08,0.089,0.084,0.196,0.014,0.32l-7.544,17.939
		c-0.071,0.143-0.183,0.213-0.333,0.213S65.234,53.357,65.163,53.197z"/>
	<path opacity="0.5" fill="#5F84C3" d="M76.678,37.149v-0.64c0-0.23,0.11-0.347,0.333-0.347c0.222,0,0.333,0.116,0.333,0.347v0.64
		c0,0.09-0.031,0.165-0.093,0.227c-0.062,0.062-0.138,0.094-0.227,0.094C76.794,37.47,76.678,37.363,76.678,37.149z M76.678,53.09
		V40.695c0-0.214,0.11-0.32,0.333-0.32c0.222,0,0.333,0.106,0.333,0.32V53.09c0,0.09-0.031,0.17-0.093,0.24
		c-0.062,0.071-0.138,0.106-0.227,0.106C76.794,53.437,76.678,53.321,76.678,53.09z"/>
	<path opacity="0.5" fill="#5F84C3" d="M84.382,53.437c-0.036-0.035-0.076-0.053-0.12-0.053s-0.066-0.036-0.066-0.106
		c-0.036-0.036-0.054-0.08-0.054-0.134V40.695c0-0.214,0.111-0.32,0.334-0.32c0.222,0,0.333,0.106,0.333,0.32v2.398
		c0.462-0.816,1.102-1.475,1.919-1.973c0.817-0.497,1.715-0.746,2.692-0.746c1.439,0,2.675,0.516,3.705,1.546
		c1.03,1.031,1.546,2.275,1.546,3.732v7.437c0,0.231-0.11,0.347-0.333,0.347c-0.222,0-0.333-0.115-0.333-0.347v-7.437
		c0-1.279-0.449-2.368-1.346-3.266c-0.898-0.897-1.978-1.346-3.239-1.346s-2.346,0.448-3.252,1.346s-1.359,1.986-1.359,3.266v7.437
		c0,0.231-0.106,0.347-0.32,0.347H84.382z"/>
	<path opacity="0.5" fill="#5F84C3" d="M112.237,53.09c0,0.231-0.115,0.347-0.346,0.347c-0.09,0-0.165-0.035-0.227-0.106
		c-0.062-0.07-0.094-0.15-0.094-0.24v-3.225c-0.533,1.066-1.302,1.928-2.306,2.585c-1.004,0.658-2.11,0.986-3.319,0.986
		c-1.759,0-3.256-0.644-4.491-1.933c-1.235-1.288-1.853-2.829-1.853-4.625c0-1.794,0.617-3.327,1.853-4.598s2.732-1.906,4.491-1.906
		c1.209,0,2.315,0.329,3.319,0.986c1.004,0.658,1.772,1.529,2.306,2.612v-8.796c0-0.089,0.035-0.178,0.106-0.268
		c0.071-0.088,0.143-0.133,0.214-0.133c0.23,0,0.346,0.133,0.346,0.4V53.09z M111.571,46.879V46.64
		c-0.054-1.546-0.631-2.866-1.732-3.959c-1.103-1.093-2.417-1.639-3.945-1.639s-2.848,0.568-3.959,1.706
		c-1.11,1.137-1.666,2.515-1.666,4.131c0,1.618,0.556,3.004,1.666,4.159c1.111,1.155,2.443,1.732,3.999,1.732
		c1.555,0,2.883-0.577,3.985-1.732C111.02,49.883,111.571,48.497,111.571,46.879z"/>
	<path opacity="0.5" fill="#5F84C3" d="M119.261,42.295c1.199-1.28,2.652-1.92,4.358-1.92s3.162,0.64,4.371,1.92
		c1.209,1.279,1.812,2.816,1.812,4.611s-0.604,3.332-1.812,4.611s-2.665,1.919-4.371,1.919s-3.159-0.64-4.358-1.919
		c-1.2-1.279-1.8-2.816-1.8-4.611S118.061,43.574,119.261,42.295z M119.741,51.051c1.075,1.146,2.368,1.72,3.879,1.72
		c1.51,0,2.808-0.573,3.892-1.72c1.084-1.146,1.626-2.527,1.626-4.145s-0.542-2.999-1.626-4.146
		c-1.084-1.146-2.382-1.719-3.892-1.719c-1.511,0-2.804,0.573-3.879,1.719c-1.075,1.146-1.612,2.528-1.612,4.146
		S118.666,49.905,119.741,51.051z"/>
	<path opacity="0.5" fill="#5F84C3" d="M147.397,53.224c0,0.054-0.036,0.103-0.106,0.146c-0.071,0.045-0.139,0.066-0.2,0.066
		c-0.062,0-0.111-0.009-0.146-0.026c-0.106,0-0.16-0.044-0.16-0.133c-0.018,0-0.026-0.009-0.026-0.027v-0.026l-3.519-8.37
		l-3.52,8.37c-0.053,0.124-0.133,0.196-0.239,0.213h-0.16c-0.054,0-0.111-0.03-0.173-0.093c-0.062-0.062-0.094-0.12-0.094-0.174
		l-5.171-12.288c-0.107-0.214-0.045-0.355,0.187-0.427c0.195-0.106,0.347-0.053,0.453,0.16l4.878,11.622l3.492-8.316
		c0.053-0.16,0.16-0.231,0.319-0.214c0.16,0.019,0.284,0.09,0.373,0.214l3.492,8.316l4.905-11.622
		c0.035-0.124,0.12-0.187,0.253-0.187c0.134,0,0.24,0.044,0.32,0.133c0.08,0.09,0.093,0.196,0.04,0.32L147.397,53.224z"/>
</g>
<path fill="#5F84C3" d="M-55.722-13.89v42.65h42.65v-42.65H-55.722z M-15.299,26.533h-38.197v-38.197h38.197V26.533z"/>
<rect x="-51.413" y="-9.066" fill="#5F84C3" width="15.463" height="33.029"/>
<rect x="-33.394" y="-9.066" fill="#5F84C3" width="15.133" height="33.029"/>
</svg>
