<?xml version="1.0" encoding="utf-8"?>
<!-- Generator: Adobe Illustrator 15.0.0, SVG Export Plug-In . SVG Version: 6.00 Build 0)  -->
<!DOCTYPE svg PUBLIC "-//W3C//DTD SVG 1.1//EN" "http://www.w3.org/Graphics/SVG/1.1/DTD/svg11.dtd">
<svg version="1.1" id="Layer_1" xmlns="http://www.w3.org/2000/svg" xmlns:xlink="http://www.w3.org/1999/xlink" x="0px" y="0px"
	 width="267.092px" height="75.722px" viewBox="-55.723 -13.89 267.092 75.722"
	 enable-background="new -55.723 -13.89 267.092 75.722" xml:space="preserve">
<g>
	<path fill="#5F84C3" d="M-44.9,46.693h-0.053c-0.516,0-0.924-0.204-1.227-0.613l-3.812-5.331v11.223
		c0,0.409-0.147,0.755-0.44,1.039c-0.293,0.285-0.645,0.427-1.053,0.427s-0.755-0.142-1.04-0.427
		c-0.284-0.284-0.426-0.63-0.426-1.039V36.244c0-0.408,0.142-0.755,0.426-1.039s0.631-0.427,1.04-0.427h0.08
		c0.515,0,0.906,0.204,1.173,0.613l5.305,7.356l5.305-7.356c0.302-0.409,0.702-0.613,1.2-0.613h0.026
		c0.409,0.018,0.76,0.169,1.053,0.453c0.293,0.284,0.439,0.622,0.439,1.013v15.728c0,0.391-0.146,0.733-0.439,1.026
		c-0.293,0.293-0.645,0.439-1.053,0.439s-0.755-0.142-1.04-0.427c-0.284-0.284-0.426-0.63-0.426-1.039V40.749L-43.7,46.08
		C-44.003,46.489-44.403,46.693-44.9,46.693z"/>
	<path opacity="0.5" fill="#5F84C3" d="M-20.51,40.723c0-0.23,0.111-0.347,0.333-0.347s0.333,0.116,0.333,0.347v12.368
		c0,0.231-0.111,0.347-0.333,0.347s-0.333-0.115-0.333-0.347v-3.252c-0.516,1.084-1.266,1.955-2.252,2.612
		c-0.986,0.658-2.066,0.986-3.239,0.986c-1.706,0-3.159-0.64-4.358-1.919c-1.2-1.279-1.799-2.816-1.799-4.612
		c0-1.794,0.6-3.332,1.799-4.611c1.199-1.279,2.652-1.919,4.358-1.919c1.173,0,2.253,0.329,3.239,0.986s1.737,1.528,2.252,2.612
		V40.723z M-29.88,51.052c1.075,1.146,2.368,1.72,3.878,1.72c1.511,0,2.803-0.573,3.879-1.72c1.075-1.146,1.613-2.527,1.613-4.146
		c0-1.616-0.538-2.994-1.613-4.131c-1.076-1.138-2.368-1.706-3.879-1.706c-1.51,0-2.803,0.568-3.878,1.706
		c-1.075,1.137-1.613,2.515-1.613,4.131C-31.492,48.524-30.955,49.905-29.88,51.052z"/>
	<path opacity="0.5" fill="#5F84C3" d="M-7.555,41.069c-2.63,0-4.638,1.973-6.024,5.917v6.104c0,0.231-0.106,0.347-0.32,0.347
		s-0.32-0.115-0.32-0.347v-6.104c-0.018-0.035-0.018-0.088,0-0.159v-6.104c0-0.089,0.031-0.169,0.093-0.24
		c0.062-0.07,0.137-0.106,0.227-0.106c0.213,0,0.32,0.116,0.32,0.347v4.425c0.249-0.587,0.524-1.102,0.826-1.546
		c1.439-2.15,3.172-3.226,5.198-3.226c0.23,0,0.347,0.116,0.347,0.347S-7.324,41.069-7.555,41.069z"/>
	<path opacity="0.5" fill="#5F84C3" d="M-2.544,53.091V35.125c0-0.231,0.115-0.347,0.346-0.347c0.089,0,0.165,0.036,0.227,0.106
		c0.062,0.071,0.093,0.151,0.093,0.24v13.834l8.583-8.583c0.142-0.142,0.298-0.138,0.467,0.014c0.168,0.151,0.173,0.306,0.013,0.466
		l-5.411,5.412l5.411,6.584c0.089,0.106,0.102,0.23,0.04,0.373c-0.062,0.143-0.156,0.213-0.28,0.213
		c-0.125,0-0.213-0.044-0.267-0.133l-5.411-6.531l-3.065,3.065c-0.036,0.036-0.062,0.054-0.08,0.054v3.198
		c0,0.089-0.031,0.169-0.093,0.24c-0.062,0.071-0.138,0.106-0.227,0.106C-2.428,53.438-2.544,53.322-2.544,53.091z"/>
	<path opacity="0.5" fill="#5F84C3" d="M24.059,46.4v0.106c-0.036,0.214-0.143,0.32-0.32,0.32H12.117v0.079
		c0,1.6,0.556,2.973,1.667,4.119c1.11,1.146,2.448,1.729,4.012,1.746c0.977,0,1.879-0.24,2.706-0.72
		c0.826-0.48,1.488-1.129,1.986-1.946c0.124-0.178,0.28-0.204,0.466-0.08c0.187,0.125,0.218,0.275,0.094,0.453
		c-0.569,0.889-1.32,1.604-2.253,2.146c-0.933,0.542-1.933,0.812-2.999,0.812c-1.742-0.018-3.226-0.662-4.452-1.933
		c-1.227-1.271-1.857-2.803-1.893-4.599c0.035-1.812,0.666-3.354,1.893-4.624c1.226-1.271,2.688-1.906,4.385-1.906
		c1.697,0,3.146,0.577,4.345,1.732S23.935,44.694,24.059,46.4z M21.527,42.535c-1.066-0.978-2.315-1.466-3.745-1.466
		c-1.431,0-2.684,0.488-3.759,1.466s-1.702,2.195-1.879,3.652h11.249C23.215,44.73,22.593,43.513,21.527,42.535z"/>
	<path opacity="0.5" fill="#5F84C3" d="M32.642,40.376c0.231,0,0.347,0.111,0.347,0.333c0,0.223-0.116,0.333-0.347,0.333H30.51
		v10.396c0,0.373,0.133,0.693,0.4,0.96c0.267,0.266,0.551,0.399,0.853,0.399c0.302,0,0.453,0.111,0.453,0.333
		c0,0.223-0.116,0.333-0.347,0.333c-0.551,0-1.026-0.199-1.426-0.6c-0.399-0.399-0.6-0.875-0.6-1.426V41.042h-2.239
		c-0.231,0-0.346-0.11-0.346-0.333c0-0.222,0.115-0.333,0.346-0.333h2.239v-5.225c0-0.23,0.111-0.347,0.333-0.347
		s0.333,0.116,0.333,0.347v5.225H32.642z"/>
	<path opacity="0.5" fill="#5F84C3" d="M47.916,51.865c-0.64-0.391-1.053-0.68-1.24-0.867c-0.187-0.186-0.258-0.342-0.213-0.466
		c0.044-0.124,0.12-0.204,0.227-0.24c0.106-0.035,0.222,0.005,0.346,0.12c0.125,0.116,0.404,0.333,0.84,0.653
		c0.435,0.319,1.208,0.706,2.319,1.159c1.111,0.453,2.208,0.68,3.292,0.68c1.794,0,3.31-0.443,4.545-1.333
		c1.235-0.888,1.853-1.981,1.853-3.278c0-1.013-0.293-1.777-0.88-2.293c-0.32-0.283-0.622-0.52-0.906-0.706
		c-0.285-0.187-0.702-0.368-1.253-0.546c-0.64-0.214-1.444-0.436-2.412-0.667c-0.969-0.23-1.631-0.396-1.986-0.493
		c-0.356-0.098-0.827-0.244-1.413-0.439s-1.035-0.4-1.346-0.613s-0.644-0.479-1-0.8c-0.64-0.604-0.959-1.497-0.959-2.679
		s0.564-2.208,1.692-3.079c1.128-0.87,2.493-1.306,4.092-1.306c1.759,0,3.332,0.479,4.718,1.439
		c0.498,0.338,0.817,0.612,0.959,0.826c0.142,0.16,0.133,0.319-0.026,0.479c-0.196,0.125-0.356,0.116-0.48-0.026
		c-1.351-1.351-3.075-2.026-5.171-2.026c-1.404,0-2.604,0.364-3.599,1.093c-0.995,0.729-1.493,1.609-1.493,2.64
		c0,0.978,0.373,1.812,1.12,2.506c0.551,0.497,1.51,0.924,2.879,1.279c0.391,0.106,0.955,0.244,1.693,0.413
		c0.737,0.169,1.288,0.303,1.652,0.399c0.364,0.099,0.844,0.245,1.439,0.44c0.595,0.195,1.053,0.404,1.373,0.626
		c0.32,0.223,0.648,0.503,0.986,0.84c0.657,0.604,0.986,1.502,0.986,2.692c0,1.476-0.68,2.724-2.04,3.745
		c-1.359,1.022-3.003,1.533-4.931,1.533C51.652,53.571,49.764,53.002,47.916,51.865z"/>
	<path opacity="0.5" fill="#5F84C3" d="M65.083,37.15v-0.64c0-0.23,0.111-0.347,0.333-0.347s0.333,0.116,0.333,0.347v0.64
		c0,0.089-0.031,0.165-0.093,0.227c-0.062,0.062-0.138,0.094-0.227,0.094C65.198,37.471,65.083,37.363,65.083,37.15z M65.083,53.091
		V40.695c0-0.213,0.111-0.319,0.333-0.319s0.333,0.106,0.333,0.319v12.396c0,0.089-0.031,0.169-0.093,0.24
		c-0.062,0.071-0.138,0.106-0.227,0.106C65.198,53.438,65.083,53.322,65.083,53.091z"/>
	<path opacity="0.5" fill="#5F84C3" d="M81.476,40.669v0.106v0.027c-0.036,0.089-0.089,0.169-0.16,0.239l-8.583,11.729h8.396
		c0.23,0,0.347,0.111,0.347,0.333c0,0.223-0.116,0.333-0.347,0.333h-9.037c-0.142,0-0.249-0.058-0.32-0.173
		c-0.071-0.116-0.053-0.235,0.053-0.36l8.637-11.835h-8.371c-0.213,0-0.32-0.116-0.32-0.347s0.106-0.347,0.32-0.347h8.957
		C81.263,40.376,81.405,40.474,81.476,40.669z"/>
	<path opacity="0.5" fill="#5F84C3" d="M98.989,46.4v0.106c-0.035,0.214-0.143,0.32-0.319,0.32H87.047v0.079
		c0,1.6,0.556,2.973,1.667,4.119c1.11,1.146,2.447,1.729,4.012,1.746c0.977,0,1.879-0.24,2.705-0.72
		c0.826-0.48,1.488-1.129,1.986-1.946c0.124-0.178,0.279-0.204,0.466-0.08c0.187,0.125,0.218,0.275,0.094,0.453
		c-0.569,0.889-1.319,1.604-2.253,2.146c-0.933,0.542-1.933,0.812-2.998,0.812c-1.742-0.018-3.226-0.662-4.452-1.933
		s-1.857-2.803-1.893-4.599c0.035-1.812,0.666-3.354,1.893-4.624s2.688-1.906,4.385-1.906s3.146,0.577,4.346,1.732
		C98.203,43.264,98.865,44.694,98.989,46.4z M96.457,42.535c-1.066-0.978-2.315-1.466-3.745-1.466c-1.431,0-2.684,0.488-3.759,1.466
		s-1.702,2.195-1.879,3.652h11.249C98.145,44.73,97.523,43.513,96.457,42.535z"/>
</g>
<path opacity="0.5" fill="#5F84C3" d="M-41.385,2.724c-3.836-1.588-3.836-2.146-3.836-2.518c0-0.906,1.217-1.04,1.942-1.04
	c2.242,0,3.612,0.782,4.27,1.158l2.881,1.645l3.149-8.313l-2.064-1.211c-1.366-0.8-2.838-1.352-4.455-1.664v-4.671h-8.46v5.208
	c-4.152,1.529-6.802,5.092-6.802,9.428c0,6.812,6.47,9.348,9.202,10.42c3.321,1.347,3.321,2.249,3.321,2.734
	c0,1.166-1.361,1.581-2.527,1.581c-1.706,0-3.542-0.546-4.916-1.462l-3.016-2.012l-3.026,8.449l1.743,1.244
	c1.473,1.053,3.522,1.842,5.705,2.235v4.826h8.505v-5.34c4.341-1.577,7.118-5.301,7.118-9.837
	C-32.653,7.041-37.645,4.248-41.385,2.724z"/>
</svg>
