<?xml version="1.0" encoding="utf-8"?>
<!-- Generator: Adobe Illustrator 15.0.0, SVG Export Plug-In . SVG Version: 6.00 Build 0)  -->
<!DOCTYPE svg PUBLIC "-//W3C//DTD SVG 1.1//EN" "http://www.w3.org/Graphics/SVG/1.1/DTD/svg11.dtd">
<svg version="1.1"
	 id="svg7226" xmlns:dc="http://purl.org/dc/elements/1.1/" xmlns:cc="http://creativecommons.org/ns#" xmlns:rdf="http://www.w3.org/1999/02/22-rdf-syntax-ns#" xmlns:svg="http://www.w3.org/2000/svg"
	 xmlns="http://www.w3.org/2000/svg" xmlns:xlink="http://www.w3.org/1999/xlink" x="0px" y="0px" width="100px" height="100px"
	 viewBox="0 0 100 100" enable-background="new 0 0 100 100" xml:space="preserve">
<g>
	<path fill="#FFFFFF" d="M50.006,0C22.388,0,0,22.388,0,50.006C0,77.63,22.388,100,50.006,100h41.132H100v-8.862V50.006
		C100,22.388,77.631,0,50.006,0z M50.006,91.138v-0.055c-22.692,0-41.083-18.39-41.083-41.077c0-22.692,18.391-41.083,41.083-41.083
		c22.688,0,41.077,18.391,41.077,41.083h0.055v41.132H50.006z"/>
	<path fill="#FFFFFF" d="M81.53,45.074c-0.146-0.958-0.323-1.896-0.555-2.822c-0.269-1.074-0.599-2.112-0.977-3.141
		c-0.317-0.876-0.641-1.736-1.032-2.576c-0.464-0.994-1-1.938-1.562-2.874c-0.463-0.778-0.915-1.554-1.446-2.289
		c-0.641-0.895-1.36-1.715-2.093-2.536c-0.593-0.665-1.154-1.34-1.801-1.956c-0.812-0.772-1.697-1.449-2.588-2.137
		c-0.69-0.527-1.343-1.089-2.069-1.562c-0.988-0.641-2.051-1.153-3.106-1.685c-0.732-0.372-1.435-0.796-2.198-1.11
		c-1.227-0.501-2.526-0.837-3.826-1.188c-0.677-0.18-1.318-0.445-2.015-0.583c-2.026-0.402-4.113-0.632-6.256-0.632
		c-17.69,0-32.021,14.332-32.021,32.022c0,17.676,14.331,32.025,32.021,32.025h32.025V50.006l-0.171-3.277
		C81.806,46.161,81.622,45.633,81.53,45.074z M72.57,63.488v9.082H50.006c-12.473,0-22.579-10.083-22.579-22.564
		c0-12.473,10.106-22.58,22.579-22.58c12.482,0,22.564,10.107,22.564,22.58c0,5.081-1.733,9.717-4.553,13.482H72.57z"/>
</g>
</svg>
