<?xml version="1.0" encoding="utf-8"?>
<!-- Generator: Adobe Illustrator 15.0.0, SVG Export Plug-In . SVG Version: 6.00 Build 0)  -->
<!DOCTYPE svg PUBLIC "-//W3C//DTD SVG 1.1//EN" "http://www.w3.org/Graphics/SVG/1.1/DTD/svg11.dtd">
<svg version="1.1"
	 id="svg7226" xmlns:svg="http://www.w3.org/2000/svg" xmlns:rdf="http://www.w3.org/1999/02/22-rdf-syntax-ns#" xmlns:cc="http://creativecommons.org/ns#" xmlns:dc="http://purl.org/dc/elements/1.1/"
	 xmlns="http://www.w3.org/2000/svg" xmlns:xlink="http://www.w3.org/1999/xlink" x="0px" y="0px" width="100px" height="100px"
	 viewBox="-40 -36.665 100 100" enable-background="new -40 -36.665 100 100" xml:space="preserve">
<g>
	<g id="g14">
		<g id="g20" transform="translate(368.5059,420.9448)">
			<path id="path22" fill="none" stroke="#FFFFFF" stroke-miterlimit="10" d="M-335.815-396.924
				c0,11.801-9.568,21.369-21.368,21.369c-11.8,0-21.366-9.568-21.366-21.369c0-11.801,9.565-21.369,21.366-21.369
				C-345.384-418.293-335.815-408.726-335.815-396.924z"/>
		</g>
		<path id="path24" fill="none" stroke="#FFFFFF" stroke-miterlimit="10" d="M54.064,53.939h-85.477V-5.893h85.477V53.939z"/>
		<g id="g26" transform="translate(264.1284,564.395)">
			<path id="path28" fill="none" stroke="#FFFFFF" stroke-miterlimit="10" d="M-262.909-583.628c0,3.778-3.062,6.837-6.839,6.837
				c-3.776,0-6.837-3.06-6.837-6.837c0-3.775,3.062-6.837,6.837-6.837C-265.971-590.466-262.909-587.403-262.909-583.628z"/>
		</g>
		<g id="g30" transform="translate(368.4268,564.395)">
			<path id="path32" fill="none" stroke="#FFFFFF" stroke-miterlimit="10" d="M-335.756-583.628c0,1.652-1.346,2.992-2.998,2.992
				c-1.651,0-2.987-1.34-2.987-2.992s1.336-2.99,2.987-2.99C-337.102-586.619-335.756-585.281-335.756-583.628z"/>
		</g>
		<g id="g34" transform="translate(391.8135,564.395)">
			<path id="path36" fill="none" stroke="#FFFFFF" stroke-miterlimit="10" d="M-352.092-583.628c0,5.547-4.497,10.043-10.049,10.043
				c-5.543,0-10.038-4.496-10.038-10.043c0-5.545,4.495-10.043,10.038-10.043C-356.589-593.672-352.092-589.174-352.092-583.628z"/>
		</g>
		<g id="g38" transform="translate(362.3389,588.7231)">
			<path id="path40" fill="none" stroke="#FFFFFF" stroke-miterlimit="10" d="M-331.504-615.293c0,0.639-0.518,1.158-1.162,1.158
				c-0.634,0-1.152-0.519-1.152-1.158c0-0.637,0.519-1.155,1.152-1.155C-332.021-616.449-331.504-615.93-331.504-615.293z"/>
		</g>
		<g id="g42" transform="translate(439.373,322.2363)">
			<path id="path44" fill="none" stroke="#FFFFFF" stroke-miterlimit="10" d="M-385.309-268.451c0,4.698-3.853,8.55-8.55,8.55
				h-68.38c-4.703,0-8.547-3.852-8.547-8.55v-80.903c0-4.702,3.845-8.547,8.547-8.547h68.38c4.697,0,8.55,3.845,8.55,8.547V-268.451
				z"/>
		</g>
		<g id="g46" transform="translate(184.2549,299.5586)">
			<path id="path48" fill="none" stroke="#FFFFFF" stroke-miterlimit="10" d="M-207.12-238.933c-3.771,0-6.837-3.069-6.837-6.841
				v-80.903c0-3.77,3.066-6.837,6.837-6.837h68.38c3.771,0,6.839,3.067,6.839,6.837v80.903c0,3.771-3.068,6.841-6.839,6.841H-207.12
				z"/>
		</g>
		<path id="path50" fill="none" stroke="#FFFFFF" stroke-miterlimit="10" d="M-29.424,47.858h-8.747v-9.649h8.747V47.858z"/>
		<path id="path52" fill="none" stroke="#FFFFFF" stroke-miterlimit="10" d="M-38.171,8.358h8.747v28.646h-8.747V8.358z"/>
		<path id="path54" fill="none" stroke="#FFFFFF" stroke-miterlimit="10" d="M49.525,30.169h8.646V14.287h-8.646V30.169z"/>
	</g>
</g>
</svg>
