<?xml version="1.0" encoding="utf-8"?>
<!-- Generator: Adobe Illustrator 15.0.0, SVG Export Plug-In . SVG Version: 6.00 Build 0)  -->
<!DOCTYPE svg PUBLIC "-//W3C//DTD SVG 1.1//EN" "http://www.w3.org/Graphics/SVG/1.1/DTD/svg11.dtd">
<svg version="1.1"
	 id="svg7226" xmlns:rdf="http://www.w3.org/1999/02/22-rdf-syntax-ns#" xmlns:svg="http://www.w3.org/2000/svg" xmlns:cc="http://creativecommons.org/ns#" xmlns:dc="http://purl.org/dc/elements/1.1/"
	 xmlns="http://www.w3.org/2000/svg" xmlns:xlink="http://www.w3.org/1999/xlink" x="0px" y="0px" width="100px" height="100px"
	 viewBox="-40 -36.665 100 100" enable-background="new -40 -36.665 100 100" xml:space="preserve">
<g id="g3049" transform="matrix(0.09559336,0,0,0.09559336,128.59748,-13.762703)">
</g>
<g id="g3031" transform="matrix(0.74074074,0,0,0.74074074,-38.092873,-31.448527)">
	<path id="path3019" fill="#FFFFFF" d="M120.228,49.73c-3.968-3.968-8.596-7.033-13.632-9.106
		c-0.277-10.738-4.548-20.796-12.168-28.42c-7.876-7.88-18.35-12.218-29.49-12.218c-11.143,0-21.62,4.337-29.498,12.218
		c-7.857,7.857-11.881,18.094-12.145,28.417c-5.046,2.07-9.677,5.135-13.648,9.109C1.766,57.607-2.575,68.078-2.575,79.218
		c0,11.139,4.341,21.62,12.221,29.497c7.877,7.877,18.348,12.215,29.491,12.215c9.486,0,18.47-3.164,25.796-8.965
		c7.327,5.801,16.311,8.965,25.804,8.965c11.139,0,21.607-4.337,29.49-12.215C136.49,92.453,136.49,65.988,120.228,49.73z
		 M38.726,15.49c7-7,16.307-10.853,26.208-10.853c9.904,0,19.205,3.853,26.211,10.853c6.368,6.37,10.099,14.656,10.718,23.555
		c-3.579-0.989-7.31-1.536-11.126-1.536c-9.492,0-18.477,3.171-25.804,8.971c-7.327-5.797-16.311-8.971-25.796-8.971
		c-3.813,0-7.541,0.547-11.12,1.533C28.63,30.452,32.177,22.041,38.726,15.49z M101.89,43.877
		c-0.527,9.076-4.265,17.546-10.745,24.03c-3.097,3.092-6.65,5.524-10.493,7.33c-0.91-9.637-5.089-18.576-12.023-25.507
		c-0.04-0.043-0.086-0.076-0.132-0.119c6.387-4.811,14.106-7.451,22.241-7.451C94.573,42.16,98.33,42.756,101.89,43.877z
		 M39.138,42.16c8.134,0,15.846,2.64,22.23,7.451c-0.043,0.043-0.086,0.076-0.132,0.115c-7.119,7.119-11.12,16.196-12.006,25.51
		c-3.846-1.8-7.412-4.239-10.504-7.33c-6.671-6.675-10.221-15.283-10.731-24.036C31.554,42.756,35.298,42.16,39.138,42.16z
		 M39.138,116.289c-9.901,0-19.205-3.863-26.208-10.857c-7-7.007-10.853-16.315-10.853-26.214c0-9.901,3.853-19.202,10.853-26.206
		c3.095-3.095,6.658-5.531,10.501-7.336c0.886,9.317,4.887,18.394,12.006,25.513c3.975,3.975,8.609,7.04,13.655,9.11
		c0.264,10.321,4.287,20.558,12.145,28.416c0.043,0.046,0.089,0.073,0.129,0.119C54.984,113.646,47.272,116.289,39.138,116.289
		L39.138,116.289z M64.934,105.808c-0.132-0.132-0.28-0.244-0.412-0.376c-6.549-6.552-10.095-14.97-10.708-23.551
		c3.583,0.982,7.307,1.529,11.12,1.529c3.82,0,7.551-0.547,11.13-1.529c-0.62,8.898-4.351,17.183-10.722,23.551
		C65.211,105.564,65.069,105.676,64.934,105.808z M116.939,105.426c-7,7-16.302,10.863-26.201,10.863
		c-8.141,0-15.853-2.65-22.241-7.462c0.04-0.04,0.092-0.073,0.132-0.112c7.62-7.627,11.898-17.686,12.168-28.423
		c5.036-2.07,9.664-5.135,13.631-9.103c6.935-6.928,11.114-15.87,12.023-25.503c3.836,1.799,7.396,4.238,10.488,7.326
		C131.381,67.465,131.381,90.976,116.939,105.426z"/>
</g>
</svg>
