<?xml version="1.0" encoding="UTF-8" standalone="no"?>
<!-- Created with Inkscape (http://www.inkscape.org/) -->

<svg
   xmlns:dc="http://purl.org/dc/elements/1.1/"
   xmlns:cc="http://creativecommons.org/ns#"
   xmlns:rdf="http://www.w3.org/1999/02/22-rdf-syntax-ns#"
   xmlns:svg="http://www.w3.org/2000/svg"
   xmlns="http://www.w3.org/2000/svg"
   xmlns:sodipodi="http://sodipodi.sourceforge.net/DTD/sodipodi-0.dtd"
   xmlns:inkscape="http://www.inkscape.org/namespaces/inkscape"
   version="1.1"
   width="35"
   height="36.5"
   id="svg8650"
   inkscape:version="0.48.3.1 r9886"
   sodipodi:docname="communication.svg">
  <sodipodi:namedview
     pagecolor="#ffffff"
     bordercolor="#666666"
     borderopacity="1"
     objecttolerance="10"
     gridtolerance="10"
     guidetolerance="10"
     inkscape:pageopacity="0"
     inkscape:pageshadow="2"
     inkscape:window-width="1440"
     inkscape:window-height="841"
     id="namedview28"
     showgrid="false"
     inkscape:zoom="1.1429945"
     inkscape:cx="17.809322"
     inkscape:cy="18.25"
     inkscape:window-x="0"
     inkscape:window-y="27"
     inkscape:window-maximized="1"
     inkscape:current-layer="svg8650" />
  <defs
     id="defs8652" />
  <metadata
     id="metadata8655">
    <rdf:RDF>
      <cc:Work
         rdf:about="">
        <dc:format>image/svg+xml</dc:format>
        <dc:type
           rdf:resource="http://purl.org/dc/dcmitype/StillImage" />
        <dc:title />
      </cc:Work>
    </rdf:RDF>
  </metadata>
  <g
     transform="matrix(0.46359527,0,0,0.46359527,-902.57158,1289.2392)"
     id="g10480"
     style="fill:#fffff1;display:inline">
    <polygon
       points="77.76,5 71.244,5 69.813,5 69.215,6.304 30.126,91.825 28.681,94.986 32.158,94.986 38.674,94.986 40.11,94.986 40.705,93.68 79.791,8.161 81.234,5 "
       transform="matrix(0.28960315,0.64599148,-0.66853037,0.29970751,2002.0905,-2807.9445)"
       id="polygon124-4-9"
       style="fill:#fffff1;fill-opacity:1" />
    <polygon
       points="38.674,94.986 40.11,94.986 40.705,93.68 79.791,8.161 81.234,5 77.76,5 71.244,5 69.813,5 69.215,6.304 30.126,91.825 28.681,94.986 32.158,94.986 "
       transform="matrix(0.28960315,0.64599148,-0.66853037,0.29970751,2002.2095,-2775.132)"
       id="polygon124-4-6-0"
       style="fill:#fffff1;fill-opacity:1" />
    <polygon
       points="69.813,5 69.215,6.304 30.126,91.825 28.681,94.986 32.158,94.986 38.674,94.986 40.11,94.986 40.705,93.68 79.791,8.161 81.234,5 77.76,5 71.244,5 "
       transform="matrix(-0.64599148,0.28960315,-0.29970751,-0.66853037,2017.6065,-2723.7147)"
       id="polygon124-4-6-9-1"
       style="fill:#fffff1;fill-opacity:1" />
    <polygon
       points="40.11,94.986 40.705,93.68 79.791,8.161 81.234,5 77.76,5 71.244,5 69.813,5 69.215,6.304 30.126,91.825 28.681,94.986 32.158,94.986 38.674,94.986 "
       transform="matrix(-0.64599148,0.28960315,-0.29970751,-0.66853037,2051.0428,-2724.4579)"
       id="polygon124-4-6-9-5-4"
       style="fill:#fffff1;fill-opacity:1" />
  </g>
</svg>
