<?xml version="1.0" encoding="UTF-8" standalone="no"?>
<!-- Created with Inkscape (http://www.inkscape.org/) -->

<svg
   xmlns:dc="http://purl.org/dc/elements/1.1/"
   xmlns:cc="http://creativecommons.org/ns#"
   xmlns:rdf="http://www.w3.org/1999/02/22-rdf-syntax-ns#"
   xmlns:svg="http://www.w3.org/2000/svg"
   xmlns="http://www.w3.org/2000/svg"
   version="1.1"
   width="35"
   height="36.5"
   id="svg8650">
  <defs
     id="defs8652" />
  <metadata
     id="metadata8655">
    <rdf:RDF>
      <cc:Work
         rdf:about="">
        <dc:format>image/svg+xml</dc:format>
        <dc:type
           rdf:resource="http://purl.org/dc/dcmitype/StillImage" />
        <dc:title></dc:title>
      </cc:Work>
    </rdf:RDF>
  </metadata>
  <g
     transform="translate(0.30932203,-1074.6334)"
     id="layer1"
     style="fill:#242424">
    <path
       d="m 34.36359,1022.0285 -16.86354,-6.1663 -16.87715,6.1612 -0.6229,0.2269 0,0.9199 0,0.1875 0,22.6427 9.37508,3.3829 7.47677,2.6978 0.6482,0.234 0.6481,-0.234 16.85185,-6.0807 0,-22.5015 0,-0.3036 0,-0.9347 z m -17.51174,28.6809 -15.55555,-5.6127 0,-21.4579 11.08074,3.9978 4.47481,1.6149 z m 0.6482,-22.5963 -7.97034,-2.8756 -7.01548,-2.5321 14.98582,-5.4696 14.97222,5.4747 z m 16.20365,16.9836 -15.55555,5.6127 0,-21.4579 15.55555,-5.5902 z"
       id="path3-52-9-2"
       style="fill:#242424;fill-opacity:1;display:inline" />
  </g>
  <g
     transform="matrix(0.3895051,0,0,0.3895051,-532.91496,1123.012)"
     id="g10476"
     style="fill:#242424;display:inline">
    <path
       d="m 3515.4881,1083.2368 v -1.754 c 0,0 6.142,-11.568 6.142,-20.176 0,-7.456 -3.008,-18.42 -17.544,-18.42 -14.536,0 -18.421,10.234 -18.421,18.42 0,8.815 6.141,20.176 6.141,20.176 0,0 0,1.743 0,1.754 -18.677,5.355 -38.597,20.395 -38.597,26.316 0,-0.037 0,7.018 0,7.018 0,0 -0.072,2.56 2.632,5.264 2.704,2.705 8.771,2.632 8.771,2.632 h 39.474 36.844 c 0,0 7.07,-0.056 9.647,-2.632 2.575,-2.576 2.632,-5.264 2.632,-5.264 0,0 0,-6.971 0,-7.018 0,-6.615 -20.322,-20.943 -37.721,-26.316 z m 32.457,30.703 c 0,7.098 -11.545,5.262 -20.176,5.262 h -49.122 c -8.631,0 -20.174,1.836 -20.174,-5.262 v -4.387 c 3.737,-8.189 29.966,-21.791 38.596,-22.807 v -7.019 c -3.907,-4.178 -6.141,-11.46 -6.141,-18.421 0,-10.333 6.003,-13.157 13.158,-13.157 7.152,0 12.28,2.824 12.28,13.157 0,6.958 -2.236,14.242 -6.142,18.421 v 7.019 c 8.5,2.094 34.166,15.021 37.721,22.807 v 4.387 l 0,0 z"
       transform="matrix(0.89857452,0,0,0.89857452,-1890.4324,-3966.5324)"
       id="path3-7-60"
       style="fill:#242424;fill-opacity:1" />
    <path
       d="m 3503.6471,1107.7988 c -0.877,0 -13.269,-12.438 -13.269,-12.438 l -1.644,1.91 c 0,0 13.962,14.912 14.912,14.912 0.95,0 14.036,-14.912 14.036,-14.912 l -1.755,-1.755 c 0,0 -11.404,12.283 -12.28,12.283 z"
       transform="matrix(0.89857452,0,0,0.89857452,-1890.4324,-3966.5324)"
       id="path5-0-72"
       style="fill:#242424;fill-opacity:1" />
  </g>
  <g
     transform="matrix(0.35353535,0,0,0.35353535,105.4346,-52.511096)"
     id="Your_Icon-04-0"
     style="fill:#242424;fill-opacity:1;display:inline">
    <polygon
       points="1,99 1,72.093 23,49.882 23,99 "
       id="polygon12-37"
       style="fill:#242424;fill-opacity:1" />
    <polygon
       points="32,99 32,51.068 55,67.888 55,99 "
       id="polygon14-0"
       style="fill:#242424;fill-opacity:1" />
    <polygon
       points="62,99 62,63.209 85,48.057 85,99 "
       id="polygon16-0"
       style="fill:#242424;fill-opacity:1" />
    <polygon
       points="25.67,39.329 54.903,60.748 100,30.844 100,21.325 55.1,51.068 25.274,29.334 1.007,52.419 1,62.891 "
       id="polygon18-66"
       style="fill:#242424;fill-opacity:1" />
  </g>
  <g
     transform="matrix(0.57045884,0,0,0.57045884,-636.72672,1517.6988)"
     id="g10499"
     style="fill:#fffff1;display:inline">
    <polygon
       points="55.52,94.986 57.754,94.986 97.768,94.986 100,94.986 100,92.755 100,86.494 100,84.262 97.768,84.262 57.754,84.262 55.52,84.262 55.52,86.494 55.52,92.755 "
       transform="matrix(0.6135412,0,0,0.63494789,1226.7816,-2771.3969)"
       id="polygon120-2"
       style="fill:#fffff1;fill-opacity:1;filter:url(#filter4277-4)" />
    <polygon
       points="38.44,15.765 39.666,15.146 39.666,13.772 39.666,8.642 39.666,5 36.42,6.652 1.221,24.567 0,25.187 0,26.556 0,31.371 0,32.743 1.224,33.363 36.422,51.2 39.666,52.843 39.666,49.207 39.666,44.077 39.666,42.704 38.44,42.084 12.396,28.925 "
       transform="matrix(0.6135412,0,0,0.63494789,1226.7816,-2771.3969)"
       id="polygon122-6"
       style="fill:#fffff1;fill-opacity:1;filter:url(#filter4277-4)" />
    <polygon
       points="38.674,94.986 40.11,94.986 40.705,93.68 79.791,8.161 81.234,5 77.76,5 71.244,5 69.813,5 69.215,6.304 30.126,91.825 28.681,94.986 32.158,94.986 "
       transform="matrix(0.6135412,0,0,0.63494789,1226.7816,-2771.3969)"
       id="polygon124-43"
       style="fill:#fffff1;fill-opacity:1" />
  </g>
  <g
     transform="matrix(0.46753837,0,0,0.46753837,-666.86723,1197.0454)"
     id="g10486"
     style="fill:#242424;display:inline">
    <path
       d="m 21.903,68.117 c -0.645,0 -1.288,-0.261 -1.757,-0.775 L 5.621,51.422 c -0.828,-0.908 -0.828,-2.297 0,-3.204 L 20.146,32.297 c 0.885,-0.969 2.389,-1.038 3.359,-0.154 0.97,0.885 1.039,2.389 0.154,3.358 L 10.595,49.819 23.66,64.138 c 0.885,0.969 0.816,2.473 -0.154,3.358 -0.457,0.415 -1.031,0.621 -1.603,0.621 z"
       transform="matrix(0.83176113,0,0,0.83176113,1580.9614,-2783.1861)"
       id="path7-9"
       style="fill:#242424;fill-opacity:1;filter:url(#filter4277-4)" />
    <path
       d="m 78.099,68.117 c -0.572,0 -1.145,-0.205 -1.601,-0.621 -0.97,-0.885 -1.039,-2.388 -0.154,-3.358 L 89.408,49.82 76.344,35.501 c -0.885,-0.97 -0.816,-2.474 0.154,-3.358 0.97,-0.884 2.473,-0.815 3.358,0.154 l 14.525,15.921 c 0.828,0.908 0.828,2.297 0,3.204 l -14.525,15.92 c -0.469,0.514 -1.112,0.775 -1.757,0.775 z"
       transform="matrix(0.83176113,0,0,0.83176113,1580.9614,-2783.1861)"
       id="path11-71"
       style="fill:#242424;fill-opacity:1;filter:url(#filter4277-4)" />
    <path
       d="M 63.773,5.613 C 62.708,5.218 61.597,5.018 60.471,5.018 c -3.997,0 -7.606,2.544 -8.979,6.33 0,0 -20.241,55.865 -20.256,55.922 -0.007,0.022 -1.399,25.182 -1.399,25.182 -0.08,1.06 0.559,2.043 1.562,2.403 0.265,0.096 0.538,0.141 0.808,0.141 0.753,0 1.481,-0.357 1.936,-0.993 0,0 15.017,-20.109 15.02,-20.117 C 49.191,73.825 69.452,17.954 69.452,17.954 71.26,12.977 68.712,7.442 63.773,5.613 z M 45.582,69.868 36.544,66.522 53.972,18.448 63.006,21.796 45.582,69.868 z M 55.964,12.955 c 0.695,-1.916 2.506,-3.203 4.507,-3.203 0.558,0 1.112,0.1 1.645,0.298 2.504,0.927 3.789,3.75 2.865,6.295 l -0.361,0.997 -9.032,-3.347 0.376,-1.04 z m -21.472,73.227 1.298,-14.888 7.33,2.714 -8.628,12.174 z"
       transform="matrix(0.83176113,0,0,0.83176113,1580.9614,-2783.1861)"
       id="path13-7-6"
       style="fill:#242424;fill-opacity:1" />
  </g>
  <g
     transform="matrix(0.46359527,0,0,0.46359527,-902.57158,1289.2392)"
     id="g10480"
     style="fill:#fffff1;display:inline">
    <polygon
       points="77.76,5 71.244,5 69.813,5 69.215,6.304 30.126,91.825 28.681,94.986 32.158,94.986 38.674,94.986 40.11,94.986 40.705,93.68 79.791,8.161 81.234,5 "
       transform="matrix(0.28960315,0.64599148,-0.66853037,0.29970751,2002.0905,-2807.9445)"
       id="polygon124-4-9"
       style="fill:#fffff1;fill-opacity:1" />
    <polygon
       points="38.674,94.986 40.11,94.986 40.705,93.68 79.791,8.161 81.234,5 77.76,5 71.244,5 69.813,5 69.215,6.304 30.126,91.825 28.681,94.986 32.158,94.986 "
       transform="matrix(0.28960315,0.64599148,-0.66853037,0.29970751,2002.2095,-2775.132)"
       id="polygon124-4-6-0"
       style="fill:#fffff1;fill-opacity:1" />
    <polygon
       points="69.813,5 69.215,6.304 30.126,91.825 28.681,94.986 32.158,94.986 38.674,94.986 40.11,94.986 40.705,93.68 79.791,8.161 81.234,5 77.76,5 71.244,5 "
       transform="matrix(-0.64599148,0.28960315,-0.29970751,-0.66853037,2017.6065,-2723.7147)"
       id="polygon124-4-6-9-1"
       style="fill:#fffff1;fill-opacity:1" />
    <polygon
       points="40.11,94.986 40.705,93.68 79.791,8.161 81.234,5 77.76,5 71.244,5 69.813,5 69.215,6.304 30.126,91.825 28.681,94.986 32.158,94.986 38.674,94.986 "
       transform="matrix(-0.64599148,0.28960315,-0.29970751,-0.66853037,2051.0428,-2724.4579)"
       id="polygon124-4-6-9-5-4"
       style="fill:#fffff1;fill-opacity:1" />
  </g>
</svg>
