<?xml version="1.0" encoding="UTF-8" standalone="no"?>
<!-- Created with Inkscape (http://www.inkscape.org/) -->

<svg
   xmlns:dc="http://purl.org/dc/elements/1.1/"
   xmlns:cc="http://creativecommons.org/ns#"
   xmlns:rdf="http://www.w3.org/1999/02/22-rdf-syntax-ns#"
   xmlns:svg="http://www.w3.org/2000/svg"
   xmlns="http://www.w3.org/2000/svg"
   xmlns:sodipodi="http://sodipodi.sourceforge.net/DTD/sodipodi-0.dtd"
   xmlns:inkscape="http://www.inkscape.org/namespaces/inkscape"
   version="1.2"
   width="137.60001"
   height="171.39999"
   id="svg9683"
   inkscape:version="0.48.3.1 r9886"
   sodipodi:docname="group_projects.svg">
  <sodipodi:namedview
     pagecolor="#ffffff"
     bordercolor="#666666"
     borderopacity="1"
     objecttolerance="10"
     gridtolerance="10"
     guidetolerance="10"
     inkscape:pageopacity="0"
     inkscape:pageshadow="2"
     inkscape:window-width="1440"
     inkscape:window-height="841"
     id="namedview42"
     showgrid="false"
     inkscape:zoom="0.97361264"
     inkscape:cx="33.536689"
     inkscape:cy="94.607405"
     inkscape:window-x="1280"
     inkscape:window-y="27"
     inkscape:window-maximized="1"
     inkscape:current-layer="svg9683" />
  <defs
     id="defs9685" />
  <metadata
     id="metadata9688">
    <rdf:RDF>
      <cc:Work
         rdf:about="">
        <dc:format>image/svg+xml</dc:format>
        <dc:type
           rdf:resource="http://purl.org/dc/dcmitype/StillImage" />
        <dc:title></dc:title>
      </cc:Work>
    </rdf:RDF>
  </metadata>
  <g
     style="display:inline"
     id="g12370"
     transform="matrix(0,1.3161017,-1.3161017,0,-4832.2101,-3288.1566)">
    <path
       id="path6531-4-7"
       style="fill:#fffff1;fill-opacity:1;fill-rule:nonzero;stroke:none"
       d="m 2590.5294,-3747.1829 c -8.1507,-11.02 -23.671,-28.9501 -23.671,-28.9501 0,0 -16.5532,16.9071 -25.416,27.3963 11.2022,-1.0854 29.7047,-1.8766 49.087,1.5538"
       inkscape:connector-curvature="0" />
    <path
       id="path6535-6-5"
       style="opacity:0.3;fill:#fffff1;fill-opacity:1;fill-rule:nonzero;stroke:none"
       d="m 2596.1818,-3739.201 c -25.489,-5.9023 -51.4571,-3.3399 -60.7785,-2.0844 -5.8844,7.548 -12.1402,16.4532 -18.2348,26.7564 31.7081,-4.2271 64.016,-3.1791 95.3974,3.0944 -5.3891,-10.624 -11.0243,-19.8775 -16.3841,-27.7664"
       inkscape:connector-curvature="0" />
    <path
       id="path6539-0-9"
       style="opacity:0.3;fill:#fffff1;fill-opacity:1;fill-rule:nonzero;stroke:none"
       d="m 2628.6569,-3671.6084 c -2.6926,-8.8195 -5.8913,-17.5278 -9.6111,-26.1015 -0.7927,-1.8148 -1.6042,-3.541 -2.4123,-5.2925 -34.126,-7.5389 -69.5525,-8.6874 -104.0871,-3.3778 -0.914,1.6971 -1.8478,3.3666 -2.7411,5.1256 -4.3182,8.4168 -8.1119,17.0023 -11.3991,25.7352 17.4207,-2.265 76.8203,-8.4588 130.2507,3.911"
       inkscape:connector-curvature="0" />
  </g>
</svg>
