<?xml version="1.0" encoding="UTF-8" standalone="no"?>
<!-- Created with Inkscape (http://www.inkscape.org/) -->

<svg
   xmlns:dc="http://purl.org/dc/elements/1.1/"
   xmlns:cc="http://creativecommons.org/ns#"
   xmlns:rdf="http://www.w3.org/1999/02/22-rdf-syntax-ns#"
   xmlns:svg="http://www.w3.org/2000/svg"
   xmlns="http://www.w3.org/2000/svg"
   xmlns:sodipodi="http://sodipodi.sourceforge.net/DTD/sodipodi-0.dtd"
   xmlns:inkscape="http://www.inkscape.org/namespaces/inkscape"
   version="1.2"
   width="136"
   height="95"
   id="svg9683"
   inkscape:version="0.48.3.1 r9886"
   sodipodi:docname="logo.svg">
  <sodipodi:namedview
     pagecolor="#ffffff"
     bordercolor="#666666"
     borderopacity="1"
     objecttolerance="10"
     gridtolerance="10"
     guidetolerance="10"
     inkscape:pageopacity="0"
     inkscape:pageshadow="2"
     inkscape:window-width="1440"
     inkscape:window-height="841"
     id="namedview42"
     showgrid="false"
     inkscape:zoom="1.3768962"
     inkscape:cx="129.61892"
     inkscape:cy="21.359027"
     inkscape:window-x="0"
     inkscape:window-y="27"
     inkscape:window-maximized="1"
     inkscape:current-layer="svg9683" />
  <defs
     id="defs9685" />
  <metadata
     id="metadata9688">
    <rdf:RDF>
      <cc:Work
         rdf:about="">
        <dc:format>image/svg+xml</dc:format>
        <dc:type
           rdf:resource="http://purl.org/dc/dcmitype/StillImage" />
        <dc:title />
      </cc:Work>
    </rdf:RDF>
  </metadata>
  <g
     id="g3134"
     transform="translate(-1.4469135,-3.7981165)">
    <g
       transform="matrix(0.49089616,0,0,0.49089616,-471.72275,2381.7299)"
       style="fill:none;stroke:#e26964;stroke-width:6.30708361;stroke-miterlimit:5.33333349;stroke-dasharray:none;display:inline"
       id="g8788">
      <path
         style="fill:none;stroke:#e26964;stroke-width:6.30708361;stroke-linecap:round;stroke-miterlimit:5.33333349;stroke-dasharray:none"
         inkscape:connector-curvature="0"
         stroke-miterlimit="10"
         d="m 1100.9194,-4702.2593 c -1.2295,2.285 -5.3485,14.1484 -16.2259,14.1772 -10.9313,0.029 -15.3851,-11.9039 -16.8151,-14.1772 -1.4286,-2.272 -5.8807,-14.2053 -16.8122,-14.1764 -10.9607,0.029 -14.8775,11.8889 -16.2244,14.1764 -1.3483,2.2884 -5.2636,14.1484 -16.2244,14.1772 -10.9328,0.029 -15.3865,-11.9039 -16.8136,-14.1772 -1.4301,-2.272 -5.88217,-14.2053 -16.81514,-14.1764 -10.8774,0.029 -14.99638,11.8923 -16.22438,14.1764"
         id="path6-4-58-5-3-6" />
      <path
         style="fill:none;stroke:#e26964;stroke-width:6.30708361;stroke-linecap:round;stroke-miterlimit:5.33333349;stroke-dasharray:none"
         inkscape:connector-curvature="0"
         stroke-miterlimit="10"
         d="m 1236.8256,-4702.4754 c -1.2695,2.285 -5.5226,14.1484 -16.7542,14.1772 -11.2873,0.029 -15.8862,-11.9039 -17.3627,-14.1772 -1.4751,-2.272 -6.0722,-14.2053 -17.3597,-14.1764 -11.3177,0.03 -15.362,11.8889 -16.7527,14.1764 -1.3922,2.2884 -5.435,14.1484 -16.7528,14.1772 -11.2888,0.029 -15.8876,-11.9039 -17.3611,-14.1772 -1.4766,-2.272 -6.0738,-14.2053 -17.3627,-14.1764 -11.2316,0.029 -15.4848,11.8923 -16.7527,14.1764"
         id="path6-4-3-49-1-6-9" />
    </g>
    <path
       sodipodi:nodetypes="cccsc"
       id="path6-4-3-4-2-1-1-6-8"
       d="M 135.23986,74.269212 C 132.56261,78.00035 124.78829,97.33793 103.02446,97.385115 81.316048,97.431557 72.472604,77.975767 69.639008,74.269212 66.799466,70.564701 57.959261,51.107671 36.25061,51.15467 14.652259,51.201112 6.4735218,70.544947 4.0351948,74.269212"
       stroke-miterlimit="10"
       inkscape:connector-curvature="0"
       style="opacity:0.98666669;fill:none;stroke:#5a8ae2;stroke-width:3.09612322;stroke-linecap:round;stroke-miterlimit:5.33333349;stroke-opacity:1;stroke-dasharray:none;display:inline" />
    <path
       transform="matrix(0.7496768,0,0,-0.77934906,1033.2534,1431.7728)"
       d="m -1197.2235,1741.7562 c 0,48.8901 -39.6333,88.5233 -88.5233,88.5233 -48.8901,0 -88.5233,-39.6332 -88.5233,-88.5233 0,-0.3066 0,-0.6133 0,-0.9199"
       sodipodi:ry="88.523293"
       sodipodi:rx="88.523293"
       sodipodi:cy="1741.7562"
       sodipodi:cx="-1285.7468"
       id="path9583-7-5"
       style="color:#000000;fill:none;stroke:#5dd3ac;stroke-width:4.05056095;stroke-linecap:round;stroke-miterlimit:5.33333349;stroke-dasharray:none;marker:none;visibility:visible;display:inline;overflow:visible;enable-background:accumulate"
       sodipodi:type="arc"
       sodipodi:start="0"
       sodipodi:end="3.1519846"
       sodipodi:open="true" />
  </g>
</svg>
