<?xml version="1.0" encoding="UTF-8" standalone="no"?>
<!-- Created with Inkscape (http://www.inkscape.org/) -->

<svg
   xmlns:dc="http://purl.org/dc/elements/1.1/"
   xmlns:cc="http://creativecommons.org/ns#"
   xmlns:rdf="http://www.w3.org/1999/02/22-rdf-syntax-ns#"
   xmlns:svg="http://www.w3.org/2000/svg"
   xmlns="http://www.w3.org/2000/svg"
   version="1.1"
   width="695.59998"
   height="133.2"
   id="svg6424">
  <defs
     id="defs6426" />
  <metadata
     id="metadata6429">
    <rdf:RDF>
      <cc:Work
         rdf:about="">
        <dc:format>image/svg+xml</dc:format>
        <dc:type
           rdf:resource="http://purl.org/dc/dcmitype/StillImage" />
        <dc:title></dc:title>
      </cc:Work>
    </rdf:RDF>
  </metadata>
  <g
     transform="translate(0,-919.16216)"
     id="layer1">
    <g
       transform="translate(-956.89086,768.40046)"
       id="g6763">
      <path
         d="m 131.57742,335.39121 c -30.1409,-39.3367 -87.347199,-103.20093 -87.347199,-103.20093 0,0 -58.8014,62.13473 -90.1965,100.59713 40.4290004,-4.6116 107.2667,-8.6075 177.543699,2.6038"
         id="path6531-4-2-2"
         style="fill:#e26964;fill-opacity:1;fill-rule:nonzero;stroke:none;display:inline" />
      <path
         d="m 46.247421,243.03418 302.075999,0"
         id="path10720"
         style="fill:none;stroke:#fffff1;stroke-width:1px;stroke-linecap:butt;stroke-linejoin:miter;stroke-opacity:1;display:inline" />
    </g>
    <g
       transform="translate(-16.637683,247.44641)"
       id="g6822">
      <path
         d="m -502.10326,262.66792 c -92.5041,-19.772 -186.221,-8.915 -219.8405,-3.8043 -20.8086,27.6473 -42.8764,60.22323 -64.2757,97.84343 114.3646,-17.2276 231.221,-15.4221 345.049,5.3301 -20.1339,-38.0749 -41.0728,-71.18003 -60.9328,-99.36923"
         id="path6535-6-1-0"
         style="fill:#5a8ae2;fill-opacity:1;fill-rule:nonzero;stroke:none;display:inline" />
      <path
         d="m -533.49936,271.71172 302.07596,0"
         id="path10720-9"
         style="fill:none;stroke:#fffff1;stroke-width:1px;stroke-linecap:butt;stroke-linejoin:miter;stroke-opacity:1;display:inline" />
    </g>
    <g
       transform="translate(-80.779349,181.97683)"
       id="g6916">
      <path
         d="m 551.87245,870.39616 c -10.2752,-31.7168 -22.3726,-63.0009 -36.3462,-93.76623 -2.9769,-6.5119 -6.0164,-12.7021 -9.0449,-18.9842 -123.8276,-25.1583 -251.964,-27.1353 -376.4795,-5.8211 -3.2001,6.1907 -6.4735,12.2836 -9.5946,18.6969 -15.0935,30.69193 -28.280501,61.96113 -39.627901,93.73183 62.836501,-9.2572 277.184401,-35.2938 471.093101,6.1428"
         id="path6539-0-3-1"
         style="fill:#5dd3ac;fill-opacity:1;fill-rule:nonzero;stroke:none;display:inline" />
      <path
         d="m 473.78755,774.67473 302.07596,0"
         id="path10720-9-1"
         style="fill:none;stroke:#fffff1;stroke-width:1px;stroke-linecap:butt;stroke-linejoin:miter;stroke-opacity:1;display:inline" />
    </g>
  </g>
</svg>
