<?xml version="1.0" encoding="UTF-8" standalone="no"?>
<!-- Created with Inkscape (http://www.inkscape.org/) -->

<svg
   xmlns:dc="http://purl.org/dc/elements/1.1/"
   xmlns:cc="http://creativecommons.org/ns#"
   xmlns:rdf="http://www.w3.org/1999/02/22-rdf-syntax-ns#"
   xmlns:svg="http://www.w3.org/2000/svg"
   xmlns="http://www.w3.org/2000/svg"
   version="1.1"
   width="35"
   height="36.5"
   id="svg8650">
  <defs
     id="defs8652" />
  <metadata
     id="metadata8655">
    <rdf:RDF>
      <cc:Work
         rdf:about="">
        <dc:format>image/svg+xml</dc:format>
        <dc:type
           rdf:resource="http://purl.org/dc/dcmitype/StillImage" />
        <dc:title></dc:title>
      </cc:Work>
    </rdf:RDF>
  </metadata>
  <g
     transform="translate(0,-1015.8622)"
     id="layer1">
    <path
       d="m 34.36359,1022.0285 -16.86354,-6.1663 -16.87715,6.1612 -0.6229,0.2269 0,0.9199 0,0.1875 0,22.6427 9.37508,3.3829 7.47677,2.6978 0.6482,0.234 0.6481,-0.234 16.85185,-6.0807 0,-22.5015 0,-0.3036 0,-0.9347 z m -17.51174,28.6809 -15.55555,-5.6127 0,-21.4579 11.08074,3.9978 4.47481,1.6149 z m 0.6482,-22.5963 -7.97034,-2.8756 -7.01548,-2.5321 14.98582,-5.4696 14.97222,5.4747 z m 16.20365,16.9836 -15.55555,5.6127 0,-21.4579 15.55555,-5.5902 z"
       id="path3-52-9-2"
       style="fill:#fffff1;fill-opacity:1;display:inline" />
  </g>
</svg>
