<?xml version="1.0" encoding="UTF-8" standalone="no"?>
<!-- Created with Inkscape (http://www.inkscape.org/) -->

<svg
   xmlns:dc="http://purl.org/dc/elements/1.1/"
   xmlns:cc="http://creativecommons.org/ns#"
   xmlns:rdf="http://www.w3.org/1999/02/22-rdf-syntax-ns#"
   xmlns:svg="http://www.w3.org/2000/svg"
   xmlns="http://www.w3.org/2000/svg"
   version="1.2"
   width="137.60001"
   height="171.39999"
   id="svg9683">
  <defs
     id="defs9685" />
  <metadata
     id="metadata9688">
    <rdf:RDF>
      <cc:Work
         rdf:about="">
        <dc:format>image/svg+xml</dc:format>
        <dc:type
           rdf:resource="http://purl.org/dc/dcmitype/StillImage" />
        <dc:title></dc:title>
      </cc:Work>
    </rdf:RDF>
  </metadata>
  <g
     transform="matrix(0,1.3161017,-1.3161017,0,-3830.6134,-3290.8789)"
     id="g12375"
     style="display:inline">
    <path
       d="m 2592.5978,-2986.15 c -8.1507,-11.02 -23.671,-28.9501 -23.671,-28.9501 0,0 -16.5531,16.9071 -25.416,27.3963 11.2022,-1.0854 29.7048,-1.8766 49.087,1.5538"
       id="path6531-4-7-9"
       style="opacity:0.3;fill:#fffff1;fill-opacity:1;fill-rule:nonzero;stroke:none" />
    <path
       d="m 2598.2502,-2978.1681 c -25.4889,-5.9023 -51.457,-3.3399 -60.7784,-2.0844 -5.8845,7.548 -12.1402,16.4532 -18.2348,26.7564 31.7081,-4.2271 64.016,-3.1791 95.3974,3.0944 -5.3892,-10.624 -11.0244,-19.8775 -16.3842,-27.7664"
       id="path6535-6-5-0"
       style="fill:#fffff1;fill-opacity:1;fill-rule:nonzero;stroke:none" />
    <path
       d="m 2630.7253,-2910.5755 c -2.6926,-8.8195 -5.8912,-17.5278 -9.6111,-26.1015 -0.7927,-1.8148 -1.6042,-3.541 -2.4122,-5.2925 -34.1261,-7.5389 -69.5526,-8.6874 -104.0871,-3.3778 -0.9141,1.6971 -1.8479,3.3666 -2.7412,5.1256 -4.3182,8.4168 -8.1118,17.0023 -11.3991,25.7352 17.4207,-2.265 76.8204,-8.4588 130.2507,3.911"
       id="path6539-0-9-3"
       style="opacity:0.3;fill:#fffff1;fill-opacity:1;fill-rule:nonzero;stroke:none" />
  </g>
</svg>
