<?xml version="1.0" encoding="UTF-8" standalone="no"?>
<!-- Created with Inkscape (http://www.inkscape.org/) -->

<svg
   xmlns:dc="http://purl.org/dc/elements/1.1/"
   xmlns:cc="http://creativecommons.org/ns#"
   xmlns:rdf="http://www.w3.org/1999/02/22-rdf-syntax-ns#"
   xmlns:svg="http://www.w3.org/2000/svg"
   xmlns="http://www.w3.org/2000/svg"
   version="1.1"
   width="35"
   height="36.5"
   id="svg8650">
  <defs
     id="defs8652" />
  <metadata
     id="metadata8655">
    <rdf:RDF>
      <cc:Work
         rdf:about="">
        <dc:format>image/svg+xml</dc:format>
        <dc:type
           rdf:resource="http://purl.org/dc/dcmitype/StillImage" />
        <dc:title></dc:title>
      </cc:Work>
    </rdf:RDF>
  </metadata>
  <g
     transform="translate(0.30932203,-1074.6334)"
     id="layer1"
     style="fill:#242424">
    <path
       d="m 34.36359,1022.0285 -16.86354,-6.1663 -16.87715,6.1612 -0.6229,0.2269 0,0.9199 0,0.1875 0,22.6427 9.37508,3.3829 7.47677,2.6978 0.6482,0.234 0.6481,-0.234 16.85185,-6.0807 0,-22.5015 0,-0.3036 0,-0.9347 z m -17.51174,28.6809 -15.55555,-5.6127 0,-21.4579 11.08074,3.9978 4.47481,1.6149 z m 0.6482,-22.5963 -7.97034,-2.8756 -7.01548,-2.5321 14.98582,-5.4696 14.97222,5.4747 z m 16.20365,16.9836 -15.55555,5.6127 0,-21.4579 15.55555,-5.5902 z"
       id="path3-52-9-2"
       style="fill:#242424;fill-opacity:1;display:inline" />
  </g>
  <g
     transform="matrix(0.3895051,0,0,0.3895051,-472.28784,1183.9484)"
     id="g10476"
     style="fill:#fffff1;display:inline">
    <path
       d="m 3515.4881,1083.2368 v -1.754 c 0,0 6.142,-11.568 6.142,-20.176 0,-7.456 -3.008,-18.42 -17.544,-18.42 -14.536,0 -18.421,10.234 -18.421,18.42 0,8.815 6.141,20.176 6.141,20.176 0,0 0,1.743 0,1.754 -18.677,5.355 -38.597,20.395 -38.597,26.316 0,-0.037 0,7.018 0,7.018 0,0 -0.072,2.56 2.632,5.264 2.704,2.705 8.771,2.632 8.771,2.632 h 39.474 36.844 c 0,0 7.07,-0.056 9.647,-2.632 2.575,-2.576 2.632,-5.264 2.632,-5.264 0,0 0,-6.971 0,-7.018 0,-6.615 -20.322,-20.943 -37.721,-26.316 z m 32.457,30.703 c 0,7.098 -11.545,5.262 -20.176,5.262 h -49.122 c -8.631,0 -20.174,1.836 -20.174,-5.262 v -4.387 c 3.737,-8.189 29.966,-21.791 38.596,-22.807 v -7.019 c -3.907,-4.178 -6.141,-11.46 -6.141,-18.421 0,-10.333 6.003,-13.157 13.158,-13.157 7.152,0 12.28,2.824 12.28,13.157 0,6.958 -2.236,14.242 -6.142,18.421 v 7.019 c 8.5,2.094 34.166,15.021 37.721,22.807 v 4.387 l 0,0 z"
       transform="matrix(0.89857452,0,0,0.89857452,-1890.4324,-3966.5324)"
       id="path3-7-60"
       style="fill:#fffff1;fill-opacity:1" />
    <path
       d="m 3503.6471,1107.7988 c -0.877,0 -13.269,-12.438 -13.269,-12.438 l -1.644,1.91 c 0,0 13.962,14.912 14.912,14.912 0.95,0 14.036,-14.912 14.036,-14.912 l -1.755,-1.755 c 0,0 -11.404,12.283 -12.28,12.283 z"
       transform="matrix(0.89857452,0,0,0.89857452,-1890.4324,-3966.5324)"
       id="path5-0-72"
       style="fill:#fffff1;fill-opacity:1" />
  </g>
</svg>
