<?xml version="1.0" encoding="UTF-8" standalone="no"?>
<!-- Created with Inkscape (http://www.inkscape.org/) -->

<svg
   xmlns:dc="http://purl.org/dc/elements/1.1/"
   xmlns:cc="http://creativecommons.org/ns#"
   xmlns:rdf="http://www.w3.org/1999/02/22-rdf-syntax-ns#"
   xmlns:svg="http://www.w3.org/2000/svg"
   xmlns="http://www.w3.org/2000/svg"
   xmlns:sodipodi="http://sodipodi.sourceforge.net/DTD/sodipodi-0.dtd"
   xmlns:inkscape="http://www.inkscape.org/namespaces/inkscape"
   width="210"
   height="281"
   id="svg4515"
   version="1.1"
   inkscape:version="0.48.3.1 r9886"
   sodipodi:docname="want_in.svg">
  <defs
     id="defs4517" />
  <sodipodi:namedview
     id="base"
     pagecolor="#ffffff"
     bordercolor="#666666"
     borderopacity="1.0"
     inkscape:pageopacity="0.0"
     inkscape:pageshadow="2"
     inkscape:zoom="0.35"
     inkscape:cx="380.71429"
     inkscape:cy="520"
     inkscape:document-units="px"
     inkscape:current-layer="layer1"
     showgrid="false"
     inkscape:window-width="1440"
     inkscape:window-height="841"
     inkscape:window-x="0"
     inkscape:window-y="27"
     inkscape:window-maximized="1" />
  <metadata
     id="metadata4520">
    <rdf:RDF>
      <cc:Work
         rdf:about="">
        <dc:format>image/svg+xml</dc:format>
        <dc:type
           rdf:resource="http://purl.org/dc/dcmitype/StillImage" />
        <dc:title />
      </cc:Work>
    </rdf:RDF>
  </metadata>
  <g
     inkscape:label="Layer 1"
     inkscape:groupmode="layer"
     id="layer1"
     transform="translate(0,-771.36218)">
    <path
       inkscape:connector-curvature="0"
       d="m 146.9039,1047.9183 c 0.8377,-28.1393 1.80501,-50.48898 2.87099,-56.97819 3.59291,-21.83635 12.71038,-34.53823 15.47686,-61.33521 2.75531,-26.79421 7.73008,-32.31323 15.18362,-47.23169 7.46215,-14.91857 29.28724,-29.55517 29.56357,-40.33093 0.0984,-4.1428 -6.63296,-7.45928 -15.20053,0 -8.55908,7.45365 -37.84344,42.81544 -41.98625,37.56434 -4.1428,-5.23982 7.73285,-30.66069 13.54235,-52.75923 5.80099,-22.10428 9.39103,-37.56998 0.54426,-39.77816 -8.84114,-2.21095 -14.08661,13.53947 -23.20131,48.0609 -9.1147,34.5327 -10.5022,34.5327 -15.19766,31.49255 -4.69557,-3.03451 -0.0563,-52.84663 -0.0563,-52.84663 0.68811,-20.13309 3.46596,-43.74044 -7.63418,-42.35571 -11.11705,1.39026 -14.58302,28.46931 -14.58302,43.74597 0,15.27952 1.10553,47.61531 -3.75633,47.61531 -4.864827,0 -8.745338,-8.04023 -12.214069,-42.06237 -3.468833,-34.01938 -6.940433,-34.05043 -10.412032,-34.01938 -5.298946,0.0481 -11.105676,5.5557 -11.105676,24.99771 0,19.43923 7.636945,52.7705 8.330794,74.29661 0.699278,21.52333 -6.940433,32.63188 -16.661486,34.02224 C 50.683632,921.40679 38.184726,904.04029 20.829597,897.09987 3.4687307,890.15954 0,910.98626 0,910.98626 c 0,0 13.189783,2.77785 21.523344,9.72668 8.336326,6.93757 17.357997,25.68593 17.357997,25.68593 9.030073,8.32782 43.745966,36.8 43.745966,36.8 0,0 1.387595,31.24723 -0.699381,57.62113 -0.208605,2.6566 -0.580837,5.832 -1.032166,9.2558 25.49135,1.6752 45.60733,4.8506 66.00824,-2.1575 z"
       id="path3"
       style="fill:#242424;display:inline" />
  </g>
</svg>
