<?xml version="1.0" encoding="UTF-8" standalone="no"?>
<!-- Created with Inkscape (http://www.inkscape.org/) -->

<svg
   xmlns:dc="http://purl.org/dc/elements/1.1/"
   xmlns:cc="http://creativecommons.org/ns#"
   xmlns:rdf="http://www.w3.org/1999/02/22-rdf-syntax-ns#"
   xmlns:svg="http://www.w3.org/2000/svg"
   xmlns="http://www.w3.org/2000/svg"
   xmlns:sodipodi="http://sodipodi.sourceforge.net/DTD/sodipodi-0.dtd"
   xmlns:inkscape="http://www.inkscape.org/namespaces/inkscape"
   version="1.1"
   width="35"
   height="36.5"
   id="svg8650"
   inkscape:version="0.48.3.1 r9886"
   sodipodi:docname="graphic_design.svg">
  <sodipodi:namedview
     pagecolor="#ffffff"
     bordercolor="#666666"
     borderopacity="1"
     objecttolerance="10"
     gridtolerance="10"
     guidetolerance="10"
     inkscape:pageopacity="0"
     inkscape:pageshadow="2"
     inkscape:window-width="1440"
     inkscape:window-height="841"
     id="namedview23"
     showgrid="false"
     inkscape:zoom="2.285989"
     inkscape:cx="17.809322"
     inkscape:cy="55.368644"
     inkscape:window-x="0"
     inkscape:window-y="27"
     inkscape:window-maximized="1"
     inkscape:current-layer="svg8650" />
  <defs
     id="defs8652" />
  <metadata
     id="metadata8655">
    <rdf:RDF>
      <cc:Work
         rdf:about="">
        <dc:format>image/svg+xml</dc:format>
        <dc:type
           rdf:resource="http://purl.org/dc/dcmitype/StillImage" />
        <dc:title />
      </cc:Work>
    </rdf:RDF>
  </metadata>
  <g
     transform="matrix(0.46753837,0,0,0.46753837,-741.10452,1300.0496)"
     id="g10486"
     style="fill:#fffff1;display:inline">
    <path
       d="m 21.903,68.117 c -0.645,0 -1.288,-0.261 -1.757,-0.775 L 5.621,51.422 c -0.828,-0.908 -0.828,-2.297 0,-3.204 L 20.146,32.297 c 0.885,-0.969 2.389,-1.038 3.359,-0.154 0.97,0.885 1.039,2.389 0.154,3.358 L 10.595,49.819 23.66,64.138 c 0.885,0.969 0.816,2.473 -0.154,3.358 -0.457,0.415 -1.031,0.621 -1.603,0.621 z"
       transform="matrix(0.83176113,0,0,0.83176113,1580.9614,-2783.1861)"
       id="path7-9"
       style="fill:#fffff1;fill-opacity:1;filter:url(#filter4277-4)" />
    <path
       d="m 78.099,68.117 c -0.572,0 -1.145,-0.205 -1.601,-0.621 -0.97,-0.885 -1.039,-2.388 -0.154,-3.358 L 89.408,49.82 76.344,35.501 c -0.885,-0.97 -0.816,-2.474 0.154,-3.358 0.97,-0.884 2.473,-0.815 3.358,0.154 l 14.525,15.921 c 0.828,0.908 0.828,2.297 0,3.204 l -14.525,15.92 c -0.469,0.514 -1.112,0.775 -1.757,0.775 z"
       transform="matrix(0.83176113,0,0,0.83176113,1580.9614,-2783.1861)"
       id="path11-71"
       style="fill:#fffff1;fill-opacity:1;filter:url(#filter4277-4)" />
    <path
       d="M 63.773,5.613 C 62.708,5.218 61.597,5.018 60.471,5.018 c -3.997,0 -7.606,2.544 -8.979,6.33 0,0 -20.241,55.865 -20.256,55.922 -0.007,0.022 -1.399,25.182 -1.399,25.182 -0.08,1.06 0.559,2.043 1.562,2.403 0.265,0.096 0.538,0.141 0.808,0.141 0.753,0 1.481,-0.357 1.936,-0.993 0,0 15.017,-20.109 15.02,-20.117 C 49.191,73.825 69.452,17.954 69.452,17.954 71.26,12.977 68.712,7.442 63.773,5.613 z M 45.582,69.868 36.544,66.522 53.972,18.448 63.006,21.796 45.582,69.868 z M 55.964,12.955 c 0.695,-1.916 2.506,-3.203 4.507,-3.203 0.558,0 1.112,0.1 1.645,0.298 2.504,0.927 3.789,3.75 2.865,6.295 l -0.361,0.997 -9.032,-3.347 0.376,-1.04 z m -21.472,73.227 1.298,-14.888 7.33,2.714 -8.628,12.174 z"
       transform="matrix(0.83176113,0,0,0.83176113,1580.9614,-2783.1861)"
       id="path13-7-6"
       style="fill:#fffff1;fill-opacity:1" />
  </g>
</svg>
