<?xml version="1.0" encoding="UTF-8" standalone="no"?>
<!-- Created with Inkscape (http://www.inkscape.org/) -->

<svg
   xmlns:dc="http://purl.org/dc/elements/1.1/"
   xmlns:cc="http://creativecommons.org/ns#"
   xmlns:rdf="http://www.w3.org/1999/02/22-rdf-syntax-ns#"
   xmlns:svg="http://www.w3.org/2000/svg"
   xmlns="http://www.w3.org/2000/svg"
   xmlns:sodipodi="http://sodipodi.sourceforge.net/DTD/sodipodi-0.dtd"
   xmlns:inkscape="http://www.inkscape.org/namespaces/inkscape"
   version="1.2"
   width="137.60001"
   height="171.39999"
   id="svg9683"
   inkscape:version="0.48.3.1 r9886"
   sodipodi:docname="placements.svg">
  <sodipodi:namedview
     pagecolor="#ffffff"
     bordercolor="#666666"
     borderopacity="1"
     objecttolerance="10"
     gridtolerance="10"
     guidetolerance="10"
     inkscape:pageopacity="0"
     inkscape:pageshadow="2"
     inkscape:window-width="1440"
     inkscape:window-height="841"
     id="namedview42"
     showgrid="false"
     inkscape:zoom="1.9472253"
     inkscape:cx="49.454215"
     inkscape:cy="101.12184"
     inkscape:window-x="0"
     inkscape:window-y="27"
     inkscape:window-maximized="1"
     inkscape:current-layer="svg9683" />
  <defs
     id="defs9685" />
  <metadata
     id="metadata9688">
    <rdf:RDF>
      <cc:Work
         rdf:about="">
        <dc:format>image/svg+xml</dc:format>
        <dc:type
           rdf:resource="http://purl.org/dc/dcmitype/StillImage" />
        <dc:title></dc:title>
      </cc:Work>
    </rdf:RDF>
  </metadata>
  <path
     style="opacity:0.3;fill:none;stroke:#fffff1;stroke-width:5;stroke-linecap:round;stroke-miterlimit:5.33333349000000023;stroke-dasharray:none"
     inkscape:connector-curvature="0"
     stroke-miterlimit="10"
     d="m 68.150644,107.90763 c -0.608058,1.13006 -2.645141,6.9972 -8.024642,7.01144 -5.406157,0.0143 -7.608817,-5.88716 -8.316035,-7.01144 -0.706525,-1.12363 -2.908345,-7.02534 -8.314601,-7.01105 -5.420697,0.0144 -7.35778,5.87975 -8.0239,7.01105 -0.666812,1.13175 -2.603153,6.9972 -8.0239,7.01144 -5.406899,0.0143 -7.60951,-5.88716 -8.315293,-7.01144 -0.707267,-1.12363 -2.909072,-7.02534 -8.316055,-7.01105 -5.3795006,0.0144 -7.4165734,5.88143 -8.0238901,7.01105"
     id="path6-4-58-5-3-6" />
  <path
     style="opacity:0.3;fill:none;stroke:#fffff1;stroke-width:5;stroke-linecap:round;stroke-miterlimit:5.33333349000000023;stroke-dasharray:none"
     inkscape:connector-curvature="0"
     stroke-miterlimit="10"
     d="m 135.36409,107.80076 c -0.62785,1.13006 -2.73125,6.99719 -8.28592,7.01144 -5.58222,0.0143 -7.85664,-5.88717 -8.58686,-7.01144 -0.72952,-1.12364 -3.00305,-7.02534 -8.58537,-7.01105 -5.59725,0.0148 -7.59739,5.87975 -8.28517,7.01105 -0.68852,1.13174 -2.687922,6.99719 -8.285226,7.01144 -5.582962,0.0143 -7.857333,-5.88717 -8.586064,-7.01144 -0.730263,-1.12364 -3.003844,-7.02534 -8.586855,-7.01105 -5.554673,0.0143 -7.658125,5.88143 -8.285174,7.01105"
     id="path6-4-3-49-1-6-9" />
  <path
     style="opacity:1;fill:none;stroke:#fffff1;stroke-width:5;stroke-linecap:round;stroke-miterlimit:5.33333349000000023;stroke-opacity:1;stroke-dasharray:none;display:inline"
     inkscape:connector-curvature="0"
     stroke-miterlimit="10"
     d="m 135.17235,108.77437 c -2.69722,3.75896 -10.52952,23.24078 -32.45569,23.28831 C 80.846337,132.10947 71.936934,112.50857 69.082202,108.77437 66.221482,105.04223 57.315339,85.440072 35.44477,85.487422 13.685324,85.534212 5.4455851,105.02233 2.9890718,108.77437"
     id="path6-4-3-4-2-1-1-6-8"
     sodipodi:nodetypes="cccsc" />
  <path
     sodipodi:open="true"
     sodipodi:end="3.1519846"
     sodipodi:start="0"
     sodipodi:type="arc"
     style="color:#000000;fill:none;stroke:#fffff1;stroke-width:6.49291514999999997;stroke-linecap:round;stroke-miterlimit:5.33333349000000023;stroke-dasharray:none;marker:none;visibility:visible;display:inline;overflow:visible;enable-background:accumulate;opacity:0.3"
     id="path9583-7-5"
     sodipodi:cx="-1285.7468"
     sodipodi:cy="1741.7562"
     sodipodi:rx="88.523293"
     sodipodi:ry="88.523293"
     d="m -1197.2235,1741.7562 a 88.523293,88.523293 0 1 1 -177.0418,-0.9199"
     transform="matrix(0.75526836,0,0,-0.78516194,1039.8839,1476.4031)" />
</svg>
