<?xml version="1.0" encoding="utf-8"?>
<!-- Generator: Adobe Illustrator 15.0.0, SVG Export Plug-In . SVG Version: 6.00 Build 0)  -->
<!DOCTYPE svg PUBLIC "-//W3C//DTD SVG 1.1//EN" "http://www.w3.org/Graphics/SVG/1.1/DTD/svg11.dtd">
<svg version="1.1"
	 id="svg7226" xmlns:rdf="http://www.w3.org/1999/02/22-rdf-syntax-ns#" xmlns:svg="http://www.w3.org/2000/svg" xmlns:cc="http://creativecommons.org/ns#" xmlns:dc="http://purl.org/dc/elements/1.1/"
	 xmlns="http://www.w3.org/2000/svg" xmlns:xlink="http://www.w3.org/1999/xlink" x="0px" y="0px" width="100px" height="100px"
	 viewBox="-40 -36.665 100 100" enable-background="new -40 -36.665 100 100" xml:space="preserve">
<g id="g3044" transform="matrix(0.44178127,0,0,0.44178127,-0.87886347,3.2317621)">
	<path id="path2482" fill="#F57900" stroke="#FFFFF1" d="M-19.228,49.59c0.051,2.94,1.006,8.681,2.414,13.179
		c2.972,9.47,8.007,18.263,15.026,25.993c7.193,7.947,16.043,14.331,26.276,18.876c10.761,4.757,22.423,7.189,34.517,7.164
		c12.094-0.022,23.734-2.485,34.493-7.288c10.239-4.578,19.079-10.986,26.265-18.955c7.007-7.763,12.038-16.568,15.009-26.051
		c1.503-4.792,2.443-9.662,2.827-14.545c0.382-4.803,0.225-9.629-0.464-14.443c-1.333-9.381-4.578-18.179-9.574-26.21
		c-4.587-7.369-10.476-13.828-17.472-19.258v-0.012L39.396-66.255c-0.057-0.051-0.124-0.102-0.181-0.147
		c-4.644-3.56-12.45-3.549-17.546,0.023c-5.17,3.611-5.583,9.25-1,13.031c9.715,7.668,19.395,15.687,29.159,23.35l-89.743-0.056
		c-10.199,0-16.195,4.849-17.461,11.929c-1.114,6.256,3.825,14.004,12.681,14.004C-29.58-4.106-14.318-4.162,0.855-4.19
		l-81.306,60.155c-0.102,0.069-0.209,0.146-0.317,0.225c-7.651,5.878-10.137,15.642-5.317,21.824
		c4.911,6.284,15.331,6.296,23.084,0.033l44.366-36.323C-18.635,41.725-19.274,46.641-19.228,49.59L-19.228,49.59z"/>
	
		<linearGradient id="path39153_1_" gradientUnits="userSpaceOnUse" x1="2166.7996" y1="-1502.7867" x2="2160.0886" y2="-1582.0398" gradientTransform="matrix(0.363 0 0 -0.3709 -724.2929 -550.3287)">
		<stop  offset="0" style="stop-color:#FFFFFF"/>
		<stop  offset="1" style="stop-color:#DADADA"/>
	</linearGradient>
	<path id="path39153" fill="url(#path39153_1_)" d="M108.35,36.322c0,24.004-21.747,43.468-48.578,43.468
		c-26.829,0-48.569-19.464-48.569-43.468l0,0c0-24.001,21.74-43.456,48.569-43.456C86.603-7.134,108.35,12.322,108.35,36.322z"/>
	
		<linearGradient id="path3562_1_" gradientUnits="userSpaceOnUse" x1="27.9982" y1="-148.7826" x2="32.4726" y2="502.6074" gradientTransform="matrix(1 0 0 1 0 3.051758e-05)">
		<stop  offset="0" style="stop-color:#FFFFFF"/>
		<stop  offset="1" style="stop-color:#FFFFFF;stop-opacity:0"/>
	</linearGradient>
	<path id="path3562" opacity="0.4857" fill="#FFFFF1" stroke="url(#path3562_1_)" enable-background="new    " d="M30.613-63.243
		c-2.067,0.006-4.18,0.644-5.599,1.639c0,0-0.006,0.006-0.006,0.011c-1.436,1-1.724,1.882-1.77,2.351
		c-0.039,0.47-0.067,0.853,0.973,1.712c0.096,0.08,0.192,0.165,0.282,0.249c0.633,0.515,29.164,23.718,29.164,23.718
		c1.91,1.554,2.635,4.143,1.821,6.465c-0.827,2.322-3.02,1.961-5.482,1.966c-28.803,0.261-90.032,0.096-90.032,0.096
		c-4.878,0.006-12.003,2.645-12.342,8.109c-0.327,5.239,4.651,7.454,8.071,7.454L0.839-9.565c2.498,0,4.718,1.136,5.526,3.498
		c0.802,2.362,0.018,2.718-1.961,4.239l-81.3,62.404c-0.006,0.011-0.011,0.022-0.023,0.022c-0.327,0.25-0.429,0.316-0.311,0.225
		c-2.831,2.171-4.582,5.02-5.21,7.551c-0.627,2.542-0.238,4.52,0.96,6.057c2.447,3.132,9.048,3.742,14.817-0.926l44.338-36.279
		c1.853-1.514,4.441-1.742,6.527-0.588c2.091,1.176,3.255,3.482,2.944,5.853c0,0-0.577,5.02-0.548,7.007
		c0.983,13.473,7.409,25.136,15.93,35.353c14.715,16.23,35.026,23.305,56.454,24.141c21.495-0.225,41.863-8.497,56.463-24.333
		c26.674-32.651,20.153-68.331-8.928-91.997C83.52-26.043,59.412-43.543,35.848-61.639c-0.024-0.017-0.046-0.039-0.069-0.056
		c-0.033-0.022-0.08-0.051-0.102-0.073C34.592-62.594,32.682-63.243,30.613-63.243z"/>
	<path id="path2478" fill="#242424" d="M31.688,32.503c0.385-6.952,3.787-13.094,8.895-17.445
		c5.018-4.277,11.775-6.884,19.156-6.884c7.37,0,14.116,2.606,19.156,6.884c5.108,4.351,8.499,10.489,8.884,17.445
		c0.407,7.164-2.462,13.811-7.483,18.739c-5.108,5.018-12.408,8.17-20.558,8.17c-8.159,0-15.449-3.152-20.569-8.17
		C34.152,46.314,31.292,39.667,31.688,32.503z"/>
	
		<radialGradient id="path39166_1_" cx="881.9458" cy="-908.9635" r="103.6804" gradientTransform="matrix(0.7277 0 0 -0.5601 -602.3011 -505.3416)" gradientUnits="userSpaceOnUse">
		<stop  offset="0" style="stop-color:#FFFFFF"/>
		<stop  offset="1" style="stop-color:#FFFFFF;stop-opacity:0"/>
	</radialGradient>
	<path id="path39166" opacity="0.52" fill="url(#path39166_1_)" enable-background="new    " d="M30.693-63.215
		c-2.069,0-4.335,0.605-5.747,1.594c-1.435,1-1.718,1.926-1.757,2.396c-0.044,0.474-0.078,0.904,0.955,1.757
		c0.096,0.084,0.227,0.073,0.323,0.164c0.633,0.514,29.238,23.802,29.238,23.802c1.91,1.56,2.577,4.068,1.751,6.392
		c-0.813,2.322-2.96,1.91-5.425,1.921c-28.809,0.26-90.116,0.158-90.116,0.158c-4.871,0.006-11.963,2.685-12.303,8.149
		c-0.327,5.239,4.73,7.352,8.149,7.352H0.817C3.315-9.536,5.602-8.383,6.41-6.016c0.802,2.362-0.102,2.628-2.079,4.154
		l-81.166,62.471c-0.006,0.011-0.153-0.011-0.158,0c-0.328,0.25-0.277,0.25-0.164,0.159c-2.826,2.171-4.645,5.142-5.273,7.673
		c-0.621,2.533-0.237,4.375,0.96,5.9c2.447,3.143,9.087,3.866,14.862-0.789l44.253-36.27c1.854-1.514,4.464-1.797,6.555-0.643
		c2.086,1.176,3.186,3.548,2.876,5.922c0,0-0.514,4.872-0.48,6.872c0.485,6.645,2.306,12.883,5.058,18.727
		c13.41,23.496,49.05-63.06,132.99-54.686c-4.339-7.606-10.42-14.551-18.06-20.772C83.597-26.003,59.365-43.527,35.812-61.621
		c-0.044-0.023-0.135-0.13-0.157-0.158C34.57-62.605,32.762-63.22,30.693-63.215z"/>
</g>
</svg>
