<?xml version="1.0" encoding="utf-8"?>
<!-- Generator: Adobe Illustrator 15.0.0, SVG Export Plug-In . SVG Version: 6.00 Build 0)  -->
<!DOCTYPE svg PUBLIC "-//W3C//DTD SVG 1.1//EN" "http://www.w3.org/Graphics/SVG/1.1/DTD/svg11.dtd">
<svg version="1.1"
	 id="svg7226" xmlns:svg="http://www.w3.org/2000/svg" xmlns:rdf="http://www.w3.org/1999/02/22-rdf-syntax-ns#" xmlns:cc="http://creativecommons.org/ns#" xmlns:dc="http://purl.org/dc/elements/1.1/"
	 xmlns="http://www.w3.org/2000/svg" xmlns:xlink="http://www.w3.org/1999/xlink" x="0px" y="0px" width="100px" height="100px"
	 viewBox="-40 -36.665 100 100" enable-background="new -40 -36.665 100 100" xml:space="preserve">
<path id="path212" fill="#FFFFFF" d="M51.797,21.958c-0.195,0-0.391,0.02-0.586,0.029l-3.74-8.094c0-0.002,0-0.002-0.005-0.004
	L37.744-7.151c1.455-1.479,2.354-3.511,2.354-5.75c0-4.531-3.672-8.203-8.203-8.203c-2.954,0-5.537,1.567-6.982,3.911l-31.987-6.15
	c-0.664-3.865-4.021-6.809-8.074-6.809c-4.531,0-8.203,3.674-8.203,8.203c0,2.737,1.345,5.154,3.406,6.646l-12.642,46.714
	c-4.16,0.4-7.412,3.896-7.412,8.159c0,4.531,3.672,8.208,8.203,8.208c2.954,0,5.537-1.572,6.98-3.916l31.99,6.152
	c0.664,3.862,4.021,6.807,8.071,6.807c4.531,0,8.203-3.672,8.203-8.203c0-0.293-0.015-0.586-0.044-0.869L46.26,36.206
	c1.46,1.338,3.398,2.158,5.537,2.158c4.531,0,8.203-3.672,8.203-8.203C60,25.635,56.328,21.958,51.797,21.958z M-8.169-17.656
	l31.987,6.15c0.371,2.156,1.577,4.019,3.281,5.249l-3.926,14.49L0.051,4.043l-9.355-20.244C-8.872-16.641-8.494-17.131-8.169-17.656
	z M45.952,24.414c-0.435,0.439-0.811,0.933-1.138,1.46l-12.827-2.471l11.372-4.59L45.952,24.414z M28.896,9.268l3.711-13.723
	l7.266,15.71L28.896,9.268z M-5.85,5.076l-15.276,6.138l6.689-24.717L-5.85,5.076z M-23.335,19.38l18.611,3.281L-26.26,33.53
	c-0.237-0.215-0.481-0.415-0.74-0.601L-23.335,19.38z M-0.784,27.153c1.46,1.338,3.401,2.168,5.537,2.168
	c2.898,0,5.439-1.509,6.897-3.779l6.533,1.152l-3.726,13.76c-2.624,0.254-4.878,1.743-6.191,3.877l-31.187-5.996L-0.784,27.153z
	 M20.049,41.978l3.848-14.229l19.023,3.652L20.786,42.583C20.547,42.368,20.303,42.163,20.049,41.978z"/>
</svg>
