<?xml version="1.0" encoding="utf-8"?>
<!-- Generator: Adobe Illustrator 15.0.0, SVG Export Plug-In . SVG Version: 6.00 Build 0)  -->
<!DOCTYPE svg PUBLIC "-//W3C//DTD SVG 1.1//EN" "http://www.w3.org/Graphics/SVG/1.1/DTD/svg11.dtd">
<svg version="1.1"
	 id="svg7226" xmlns:rdf="http://www.w3.org/1999/02/22-rdf-syntax-ns#" xmlns:svg="http://www.w3.org/2000/svg" xmlns:cc="http://creativecommons.org/ns#" xmlns:dc="http://purl.org/dc/elements/1.1/" xmlns:sodipodi="http://sodipodi.sourceforge.net/DTD/sodipodi-0.dtd" xmlns:inkscape="http://www.inkscape.org/namespaces/inkscape" inkscape:version="0.48.3.1 r9886" sodipodi:docname="Create a project&apos;s logo.svg"
	 xmlns="http://www.w3.org/2000/svg" xmlns:xlink="http://www.w3.org/1999/xlink" x="0px" y="0px" width="100px" height="100px"
	 viewBox="-40 -36.665 100 100" enable-background="new -40 -36.665 100 100" xml:space="preserve">
<sodipodi:namedview  id="namedview9" inkscape:pageopacity="0" guidetolerance="10" gridtolerance="10" bordercolor="#666666" inkscape:guide-bbox="true" inkscape:zoom="17.697788" pagecolor="#ffffff" inkscape:cy="21.014469" inkscape:window-y="27" inkscape:window-height="841" showgrid="false" inkscape:pageshadow="2" borderopacity="1" inkscape:current-layer="svg7226" inkscape:window-width="1440" showguides="true" inkscape:window-maximized="1" objecttolerance="10" inkscape:window-x="0" inkscape:cx="26.847802">
	</sodipodi:namedview>
<g id="g3950" transform="matrix(0.27242183,0,0,0.27242183,-26.119,10.938717)">
	<path id="path3105" inkscape:connector-curvature="0" fill="#FFFFFF" d="M103.199-130.102L74.297-80.104l28.75,49.837l57.643,0.161
		l28.929-49.846l-28.75-49.998L103.199-130.102z M122.888-103.7c0.807,0,1.291,0.269,2.187,0.627l32.818,19.062
		c1.524,0.905,2.223,2.384,2.509,4.06v0.466c-0.287,1.676-0.986,3.002-2.509,3.907l-32.818,19.062
		c-0.896,0.358-1.389,0.627-2.187,0.627c-2.581,0-4.687-2.106-4.687-4.687v-38.437C118.201-101.594,120.307-103.7,122.888-103.7z"/>
	<rect id="rect2988" x="108.495" y="-23.438" fill="#FFFFFF" width="47.677" height="16.517"/>
	<rect id="rect2990" x="108.495" y="-0.926" fill="#FFFFFF" width="47.677" height="16.518"/>
	<rect id="rect2992" x="108.495" y="22.339" fill="#FFFFFF" width="47.677" height="16.526"/>
	<rect id="rect2994" x="108.495" y="44.869" fill="#FFFFFF" width="47.677" height="16.508"/>
	<rect id="rect2996" x="100.295" y="68.887" fill="#FFFFFF" width="64.086" height="16.508"/>
	<polygon id="polygon2998" fill="#FFFFFF" points="-50.954,124.433 15.364,26.856 92.848,74.139 92.848,65.876 12.379,15.593 	"/>
	<polygon id="polygon3000" fill="#FFFFFF" points="-27.85,147.698 51.121,94.393 92.848,89.517 92.848,81.272 44.042,87.653 	"/>
	<polygon id="polygon3002" fill="#FFFFFF" points="293.02,147.698 214.048,94.393 172.322,89.517 172.322,81.272 221.128,87.653 	
		"/>
	<line id="line3004" fill="#FFFFFF" x1="108.495" y1="74.139" x2="108.495" y2="65.876"/>
	<path id="path3006" inkscape:connector-curvature="0" fill="#FFFFFF" d="M-35.307,70.016"/>
	<polygon id="polygon3008" fill="#FFFFFF" points="316.124,124.433 249.806,26.856 172.322,74.139 172.322,65.876 252.781,15.593 	
		"/>
</g>
<g id="g3049" transform="matrix(0.09559336,0,0,0.09559336,128.59748,-13.762703)">
</g>
</svg>
