<?xml version="1.0" encoding="utf-8"?>
<!-- Generator: Adobe Illustrator 15.0.0, SVG Export Plug-In . SVG Version: 6.00 Build 0)  -->
<!DOCTYPE svg PUBLIC "-//W3C//DTD SVG 1.1//EN" "http://www.w3.org/Graphics/SVG/1.1/DTD/svg11.dtd">
<svg version="1.1" id="Layer_1" xmlns="http://www.w3.org/2000/svg" xmlns:xlink="http://www.w3.org/1999/xlink" x="0px" y="0px"
	 width="100px" height="100px" viewBox="0 0 100 100" enable-background="new 0 0 100 100" xml:space="preserve">
<g>
	<path fill="#FFFFFF" d="M100,51.158v13.016c0,5.096-4.147,9.242-9.242,9.242h-2.681c-1.191,11.201-10.692,19.953-22.202,19.953
		h-6.65c-0.959,2.463-3.346,4.217-6.149,4.217h-6.152c-3.642,0-6.6-2.959-6.6-6.596s2.958-6.598,6.6-6.598h6.152
		c2.805,0,5.19,1.752,6.149,4.217h6.65c9.684,0,17.574-7.881,17.574-17.572V40.625c0-18.443-15.008-33.45-33.451-33.45
		c-18.44,0-33.447,15.007-33.447,33.45v30.414c0,1.316-1.061,2.379-2.376,2.379H9.24C4.146,73.416,0,69.27,0,64.174V51.158
		c0-5.098,4.146-9.246,9.241-9.246h2.556v-1.288c0-21.068,17.14-38.21,38.203-38.21c21.065,0,38.201,17.142,38.201,38.21v1.288
		h2.557C95.853,41.912,100,46.064,100,51.158L100,51.158z"/>
</g>
</svg>
