<?xml version="1.0" encoding="utf-8"?>
<!-- Generator: Adobe Illustrator 15.0.0, SVG Export Plug-In . SVG Version: 6.00 Build 0)  -->
<!DOCTYPE svg PUBLIC "-//W3C//DTD SVG 1.1//EN" "http://www.w3.org/Graphics/SVG/1.1/DTD/svg11.dtd">
<svg version="1.1" id="Layer_1" xmlns="http://www.w3.org/2000/svg" xmlns:xlink="http://www.w3.org/1999/xlink" x="0px" y="0px"
	 width="100px" height="100px" viewBox="0 0 100 100" enable-background="new 0 0 100 100" xml:space="preserve">
<g id="g10476" transform="matrix(0.3895051,0,0,0.3895051,-472.28784,1183.9484)">
	<path id="path3-7-60" fill="#202021" d="M1372.432-2912.636v-4.503c0,0,15.76-29.698,15.76-51.802
		c0-19.14-7.722-47.284-45.044-47.284c-37.312,0-47.289,26.265-47.289,47.284c0,22.634,15.769,51.802,15.769,51.802s0,4.473,0,4.503
		c-47.948,13.752-99.093,52.363-99.093,67.566c0-0.103,0,18.014,0,18.014s-0.183,6.564,6.764,13.516
		c6.931,6.942,22.511,6.754,22.511,6.754h101.338h94.601c0,0,18.147-0.143,24.761-6.754c6.614-6.622,6.759-13.516,6.759-13.516
		s0-17.899,0-18.014C1469.27-2862.056,1417.095-2898.839,1372.432-2912.636L1372.432-2912.636z M1455.761-2833.815
		c0,18.225-29.645,13.514-51.809,13.514h-126.108c-22.155,0-51.797,4.711-51.797-13.514v-11.255
		c9.595-21.025,76.932-55.948,99.098-58.555v-18.026c-10.039-10.722-15.774-29.418-15.774-47.291
		c0-26.525,15.412-33.783,33.777-33.783c18.373,0,31.535,7.258,31.535,33.783c0,17.867-5.741,36.564-15.77,47.291v18.026
		c21.818,5.373,87.712,38.568,96.843,58.555v11.255l0,0H1455.761z"/>
	<path id="path5-0-72" fill="#202021" d="M1342.028-2849.578c-2.251,0-34.063-31.929-34.063-31.929l-4.227,4.899
		c0,0,35.845,38.28,38.29,38.28c2.433,0,36.03-38.28,36.03-38.28l-4.508-4.503
		C1373.55-2881.111,1344.276-2849.578,1342.028-2849.578z"/>
</g>
</svg>
