<?xml version="1.0" encoding="utf-8"?>
<!-- Generator: Adobe Illustrator 15.0.0, SVG Export Plug-In . SVG Version: 6.00 Build 0)  -->
<!DOCTYPE svg PUBLIC "-//W3C//DTD SVG 1.1//EN" "http://www.w3.org/Graphics/SVG/1.1/DTD/svg11.dtd">
<svg version="1.1" id="Layer_1" xmlns="http://www.w3.org/2000/svg" xmlns:xlink="http://www.w3.org/1999/xlink" x="0px" y="0px"
	 width="30px" height="30px" viewBox="35 35 30 30" enable-background="new 35 35 30 30" xml:space="preserve">
<g id="g10476" transform="matrix(0.3895051,0,0,0.3895051,-472.28784,1183.9484)">
	<path id="path3-7-60" fill="#FFFFFF" d="M1350.361-2911.844v-1.351c0,0,4.729-8.909,4.729-15.541
		c0-5.743-2.317-14.186-13.514-14.186c-11.193,0-14.186,7.88-14.186,14.186c0,6.79,4.73,15.541,4.73,15.541s0,1.341,0,1.351
		c-14.385,4.125-29.728,15.708-29.728,20.271c0-0.032,0,5.403,0,5.403s-0.055,1.968,2.028,4.054c2.08,2.083,6.754,2.028,6.754,2.028
		h30.401h28.381c0,0,5.443-0.045,7.429-2.028c1.983-1.986,2.026-4.054,2.026-4.054s0-5.371,0-5.403
		C1379.412-2896.671,1363.76-2907.705,1350.361-2911.844L1350.361-2911.844z M1375.36-2888.199c0,5.468-8.893,4.054-15.542,4.054
		h-37.833c-6.647,0-15.54,1.414-15.54-4.054v-3.375c2.879-6.308,23.08-16.786,29.73-17.568v-5.408
		c-3.012-3.217-4.732-8.825-4.732-14.187c0-7.958,4.623-10.135,10.133-10.135c5.513,0,9.462,2.177,9.462,10.135
		c0,5.36-1.722,10.969-4.731,14.187v5.408c6.544,1.612,26.313,11.571,29.051,17.568v3.375l0,0H1375.36z"/>
	<path id="path5-0-72" fill="#FFFFFF" d="M1341.24-2892.927c-0.674,0-10.219-9.577-10.219-9.577l-1.267,1.469
		c0,0,10.753,11.483,11.487,11.483c0.731,0,10.809-11.483,10.809-11.483l-1.352-1.352
		C1350.697-2902.387,1341.915-2892.927,1341.24-2892.927z"/>
</g>
</svg>
