<?xml version="1.0" encoding="utf-8"?>
<!-- Generator: Adobe Illustrator 15.0.0, SVG Export Plug-In . SVG Version: 6.00 Build 0)  -->
<!DOCTYPE svg PUBLIC "-//W3C//DTD SVG 1.1//EN" "http://www.w3.org/Graphics/SVG/1.1/DTD/svg11.dtd">
<svg version="1.1" id="Layer_1" xmlns="http://www.w3.org/2000/svg" xmlns:xlink="http://www.w3.org/1999/xlink" x="0px" y="0px"
	 width="100px" height="100px" viewBox="0 0 100 100" enable-background="new 0 0 100 100" xml:space="preserve">
<g enable-background="new    ">
	<path fill="#FFFFFF" d="M8.316,97.968c0.025-0.017,0.048-0.015,0.066,0.005s0.015,0.042-0.011,0.064
		c-0.24,0.18-0.505,0.27-0.793,0.27c-0.35-0.002-0.648-0.125-0.897-0.367c-0.248-0.242-0.372-0.534-0.372-0.875
		c0-0.342,0.124-0.634,0.372-0.876c0.249-0.242,0.548-0.363,0.897-0.363c0.296,0,0.56,0.09,0.793,0.269
		c0.025,0.021,0.03,0.042,0.014,0.063c-0.025,0.025-0.048,0.027-0.066,0.007c-0.214-0.166-0.461-0.248-0.74-0.248
		c-0.324,0-0.602,0.111-0.832,0.335C6.516,96.475,6.4,96.746,6.4,97.064c0,0.317,0.115,0.589,0.347,0.814
		c0.23,0.225,0.508,0.337,0.832,0.337C7.856,98.216,8.102,98.133,8.316,97.968z"/>
	<path fill="#FFFFFF" d="M9.952,96.685c-0.345,0-0.608,0.259-0.79,0.776v0.8c0,0.031-0.014,0.046-0.042,0.046
		c-0.027,0-0.042-0.015-0.042-0.046v-0.8c-0.002-0.005-0.002-0.012,0-0.021v-0.8c0-0.012,0.005-0.022,0.013-0.032
		c0.008-0.009,0.018-0.014,0.029-0.014c0.028,0,0.042,0.016,0.042,0.046v0.58c0.033-0.077,0.069-0.145,0.108-0.203
		c0.189-0.281,0.416-0.423,0.682-0.423c0.03,0,0.046,0.016,0.046,0.046S9.982,96.685,9.952,96.685z"/>
	<path fill="#FFFFFF" d="M12.141,97.384v0.014c-0.005,0.028-0.02,0.042-0.042,0.042h-1.524v0.011c0,0.21,0.073,0.39,0.219,0.54
		s0.32,0.227,0.525,0.229c0.129,0,0.247-0.032,0.355-0.095c0.108-0.063,0.195-0.148,0.26-0.255c0.017-0.023,0.037-0.027,0.062-0.011
		s0.028,0.036,0.013,0.06c-0.075,0.116-0.174,0.21-0.296,0.281s-0.253,0.106-0.394,0.106c-0.228-0.002-0.423-0.087-0.583-0.254
		c-0.161-0.166-0.244-0.367-0.248-0.603c0.004-0.237,0.087-0.439,0.248-0.606c0.16-0.167,0.353-0.25,0.575-0.25
		c0.222,0,0.412,0.076,0.569,0.228S12.124,97.16,12.141,97.384z M11.809,96.877c-0.141-0.128-0.304-0.192-0.491-0.192
		s-0.353,0.064-0.493,0.192s-0.224,0.288-0.246,0.479h1.475C12.029,97.165,11.948,97.005,11.809,96.877z"/>
	<path fill="#FFFFFF" d="M14.08,96.64c0-0.03,0.015-0.046,0.044-0.046s0.044,0.016,0.044,0.046v1.621
		c0,0.031-0.015,0.046-0.044,0.046s-0.044-0.015-0.044-0.046v-0.426c-0.067,0.142-0.166,0.256-0.295,0.343
		c-0.13,0.086-0.271,0.129-0.425,0.129c-0.224,0-0.414-0.084-0.571-0.252s-0.236-0.369-0.236-0.604s0.079-0.437,0.236-0.604
		s0.348-0.252,0.571-0.252c0.153,0,0.295,0.043,0.425,0.13c0.129,0.086,0.228,0.2,0.295,0.342V96.64z M12.852,97.994
		c0.142,0.15,0.311,0.226,0.509,0.226s0.367-0.075,0.509-0.226c0.141-0.15,0.211-0.332,0.211-0.544s-0.07-0.393-0.211-0.542
		c-0.142-0.148-0.311-0.224-0.509-0.224s-0.367,0.075-0.509,0.224c-0.141,0.149-0.211,0.33-0.211,0.542S12.711,97.844,12.852,97.994
		z"/>
	<path fill="#FFFFFF" d="M15.429,96.594c0.03,0,0.046,0.015,0.046,0.044s-0.016,0.044-0.046,0.044h-0.279v1.363
		c0,0.049,0.018,0.091,0.053,0.125c0.034,0.035,0.072,0.053,0.111,0.053c0.04,0,0.06,0.015,0.06,0.044s-0.015,0.044-0.045,0.044
		c-0.072,0-0.135-0.026-0.188-0.079s-0.078-0.114-0.078-0.187v-1.363h-0.294c-0.03,0-0.046-0.015-0.046-0.044
		s0.016-0.044,0.046-0.044h0.294v-0.685c0-0.03,0.014-0.046,0.043-0.046s0.044,0.016,0.044,0.046v0.685H15.429z"/>
	<path fill="#FFFFFF" d="M17.831,97.384v0.014c-0.005,0.028-0.02,0.042-0.042,0.042h-1.524v0.011c0,0.21,0.073,0.39,0.219,0.54
		s0.32,0.227,0.525,0.229c0.129,0,0.247-0.032,0.355-0.095c0.108-0.063,0.195-0.148,0.26-0.255c0.017-0.023,0.037-0.027,0.062-0.011
		s0.028,0.036,0.013,0.06c-0.075,0.116-0.174,0.21-0.296,0.281s-0.253,0.106-0.394,0.106c-0.228-0.002-0.423-0.087-0.583-0.254
		c-0.161-0.166-0.244-0.367-0.248-0.603c0.004-0.237,0.087-0.439,0.248-0.606c0.16-0.167,0.353-0.25,0.575-0.25
		c0.222,0,0.412,0.076,0.569,0.228S17.814,97.16,17.831,97.384z M17.499,96.877c-0.141-0.128-0.304-0.192-0.491-0.192
		s-0.353,0.064-0.493,0.192s-0.224,0.288-0.246,0.479h1.475C17.72,97.165,17.639,97.005,17.499,96.877z"/>
	<path fill="#FFFFFF" d="M19.97,98.261c0,0.031-0.015,0.046-0.045,0.046c-0.012,0-0.021-0.005-0.03-0.014
		c-0.008-0.01-0.012-0.021-0.012-0.032v-0.423c-0.07,0.141-0.171,0.253-0.303,0.34c-0.132,0.086-0.276,0.129-0.435,0.129
		c-0.231,0-0.428-0.084-0.589-0.254c-0.162-0.168-0.243-0.37-0.243-0.606c0-0.235,0.081-0.436,0.243-0.603
		c0.161-0.167,0.357-0.25,0.589-0.25c0.158,0,0.303,0.043,0.435,0.13c0.132,0.086,0.232,0.2,0.303,0.342v-1.153
		c0-0.012,0.005-0.023,0.014-0.035c0.01-0.012,0.019-0.018,0.028-0.018c0.03,0,0.045,0.018,0.045,0.053V98.261z M19.883,97.446
		v-0.031c-0.007-0.202-0.083-0.376-0.228-0.519c-0.145-0.144-0.316-0.215-0.518-0.215c-0.2,0-0.373,0.074-0.519,0.224
		c-0.146,0.148-0.219,0.329-0.219,0.541c0,0.213,0.073,0.395,0.219,0.546s0.32,0.228,0.524,0.228s0.378-0.076,0.522-0.228
		S19.883,97.659,19.883,97.446z"/>
	<path fill="#FFFFFF" d="M21.784,98.261v-2.349c0-0.035,0.015-0.053,0.045-0.053c0.01,0,0.019,0.006,0.028,0.018
		s0.014,0.023,0.014,0.035v1.153c0.07-0.142,0.171-0.256,0.303-0.342c0.132-0.087,0.276-0.13,0.436-0.13
		c0.23,0,0.427,0.083,0.589,0.25s0.242,0.367,0.242,0.603c0,0.236-0.08,0.438-0.242,0.606c-0.162,0.17-0.358,0.254-0.589,0.254
		c-0.159,0-0.304-0.043-0.436-0.129c-0.132-0.087-0.232-0.199-0.303-0.34v0.423c0,0.012-0.004,0.022-0.012,0.032
		c-0.009,0.009-0.019,0.014-0.03,0.014C21.799,98.307,21.784,98.292,21.784,98.261z M21.871,97.415v0.031
		c0,0.213,0.072,0.395,0.217,0.546s0.319,0.228,0.522,0.228c0.204,0,0.379-0.076,0.524-0.228s0.219-0.333,0.219-0.546
		c0-0.212-0.073-0.393-0.219-0.541c-0.146-0.149-0.318-0.224-0.519-0.224s-0.373,0.071-0.518,0.215
		C21.954,97.039,21.879,97.213,21.871,97.415z"/>
	<path fill="#FFFFFF" d="M25.227,96.633c0-0.01,0.005-0.019,0.014-0.026c0.01-0.009,0.021-0.013,0.032-0.013h0.007h0.003
		l0.008,0.004c0.016,0.016,0.024,0.03,0.024,0.042v1.569c0,0.221-0.078,0.41-0.234,0.567s-0.347,0.236-0.57,0.236
		c-0.121,0-0.237-0.028-0.35-0.084c-0.027-0.012-0.033-0.031-0.017-0.06c0.009-0.025,0.026-0.032,0.052-0.021
		c0.103,0.051,0.208,0.077,0.314,0.077c0.198,0,0.367-0.07,0.507-0.21c0.141-0.14,0.21-0.309,0.21-0.507V97.95
		c-0.056,0.107-0.137,0.192-0.243,0.255c-0.105,0.063-0.222,0.095-0.348,0.095c-0.19,0-0.354-0.067-0.487-0.201
		s-0.201-0.295-0.201-0.484V96.64c0-0.03,0.016-0.046,0.046-0.046c0.012,0,0.021,0.005,0.029,0.014
		c0.008,0.01,0.013,0.021,0.013,0.032v0.975c0,0.166,0.059,0.307,0.176,0.423c0.118,0.117,0.258,0.175,0.42,0.175
		s0.3-0.056,0.414-0.167c0.114-0.112,0.175-0.247,0.182-0.406V96.633z"/>
	<path fill="#FFFFFF" d="M28.929,98.275l-1.607-2.233v2.219c0,0.031-0.015,0.046-0.042,0.046c-0.012,0-0.022-0.005-0.031-0.014
		c-0.01-0.01-0.015-0.021-0.015-0.032v-2.349c0-0.014,0.006-0.026,0.018-0.038c0.025-0.015,0.047-0.012,0.063,0.007l1.614,2.244
		v-2.202c0-0.012,0.005-0.022,0.015-0.031c0.009-0.01,0.02-0.015,0.031-0.015c0.027,0,0.042,0.016,0.042,0.046v2.338
		c0,0.031-0.015,0.046-0.042,0.046c-0.021,0-0.035-0.01-0.042-0.028C28.93,98.278,28.929,98.277,28.929,98.275z"/>
	<path fill="#FFFFFF" d="M29.886,98.3c-0.023-0.023-0.034-0.052-0.034-0.084s0.011-0.061,0.034-0.084s0.052-0.035,0.084-0.035
		c0.033,0,0.061,0.012,0.084,0.035s0.035,0.052,0.035,0.084s-0.012,0.061-0.035,0.084s-0.051,0.035-0.084,0.035
		C29.938,98.335,29.909,98.323,29.886,98.3z"/>
	<path fill="#FFFFFF" d="M30.731,98.261v-2.352c0-0.03,0.016-0.046,0.046-0.046c0.012,0,0.021,0.005,0.031,0.016
		s0.014,0.021,0.014,0.03v1.572l1.604-1.604c0.015-0.012,0.029-0.015,0.046-0.009c0.016,0.006,0.026,0.017,0.029,0.03
		c0.004,0.014,0,0.027-0.012,0.042l-1,0.999l1.003,1.29c0.012,0.019,0.014,0.036,0.006,0.053c-0.009,0.017-0.019,0.024-0.03,0.024
		s-0.025-0.006-0.042-0.018l-0.999-1.286l-0.605,0.608v0.649c0,0.012-0.004,0.022-0.014,0.032c-0.01,0.009-0.02,0.014-0.031,0.014
		C30.747,98.307,30.731,98.292,30.731,98.261z"/>
	<path fill="#FFFFFF" d="M33.189,98.3c-0.023-0.023-0.034-0.052-0.034-0.084s0.011-0.061,0.034-0.084s0.052-0.035,0.084-0.035
		c0.033,0,0.061,0.012,0.084,0.035s0.035,0.052,0.035,0.084s-0.012,0.061-0.035,0.084s-0.051,0.035-0.084,0.035
		C33.241,98.335,33.213,98.323,33.189,98.3z"/>
	<path fill="#FFFFFF" d="M35.73,98.275l-1.607-2.233v2.219c0,0.031-0.015,0.046-0.042,0.046c-0.012,0-0.022-0.005-0.031-0.014
		c-0.01-0.01-0.015-0.021-0.015-0.032v-2.349c0-0.014,0.006-0.026,0.018-0.038c0.025-0.015,0.047-0.012,0.063,0.007l1.614,2.244
		v-2.202c0-0.012,0.005-0.022,0.015-0.031c0.009-0.01,0.02-0.015,0.031-0.015c0.027,0,0.042,0.016,0.042,0.046v2.338
		c0,0.031-0.015,0.046-0.042,0.046c-0.021,0-0.035-0.01-0.042-0.028C35.731,98.278,35.73,98.277,35.73,98.275z"/>
	<path fill="#FFFFFF" d="M38.033,96.64c0-0.03,0.015-0.046,0.044-0.046s0.044,0.016,0.044,0.046v1.621
		c0,0.031-0.015,0.046-0.044,0.046s-0.044-0.015-0.044-0.046v-0.426c-0.067,0.142-0.166,0.256-0.295,0.343
		c-0.13,0.086-0.271,0.129-0.425,0.129c-0.224,0-0.414-0.084-0.571-0.252s-0.236-0.369-0.236-0.604s0.079-0.437,0.236-0.604
		s0.348-0.252,0.571-0.252c0.153,0,0.295,0.043,0.425,0.13c0.129,0.086,0.228,0.2,0.295,0.342V96.64z M36.805,97.994
		c0.142,0.15,0.311,0.226,0.509,0.226s0.367-0.075,0.509-0.226c0.141-0.15,0.211-0.332,0.211-0.544s-0.07-0.393-0.211-0.542
		c-0.142-0.148-0.311-0.224-0.509-0.224s-0.367,0.075-0.509,0.224c-0.141,0.149-0.211,0.33-0.211,0.542S36.664,97.844,36.805,97.994
		z"/>
	<path fill="#FFFFFF" d="M39.732,96.685c-0.345,0-0.608,0.259-0.79,0.776v0.8c0,0.031-0.014,0.046-0.042,0.046
		c-0.027,0-0.042-0.015-0.042-0.046v-0.8c-0.002-0.005-0.002-0.012,0-0.021v-0.8c0-0.012,0.005-0.022,0.013-0.032
		c0.008-0.009,0.018-0.014,0.029-0.014c0.028,0,0.042,0.016,0.042,0.046v0.58c0.033-0.077,0.069-0.145,0.108-0.203
		c0.189-0.281,0.416-0.423,0.682-0.423c0.03,0,0.046,0.016,0.046,0.046S39.763,96.685,39.732,96.685z"/>
	<path fill="#FFFFFF" d="M41.731,96.64c0-0.03,0.015-0.046,0.044-0.046s0.044,0.016,0.044,0.046v1.621
		c0,0.031-0.015,0.046-0.044,0.046s-0.044-0.015-0.044-0.046v-0.426c-0.067,0.142-0.166,0.256-0.295,0.343
		c-0.13,0.086-0.271,0.129-0.425,0.129c-0.224,0-0.414-0.084-0.571-0.252s-0.236-0.369-0.236-0.604s0.079-0.437,0.236-0.604
		s0.348-0.252,0.571-0.252c0.153,0,0.295,0.043,0.425,0.13c0.129,0.086,0.228,0.2,0.295,0.342V96.64z M40.503,97.994
		c0.142,0.15,0.311,0.226,0.509,0.226s0.367-0.075,0.509-0.226c0.141-0.15,0.211-0.332,0.211-0.544s-0.07-0.393-0.211-0.542
		c-0.142-0.148-0.311-0.224-0.509-0.224s-0.367,0.075-0.509,0.224c-0.141,0.149-0.211,0.33-0.211,0.542S40.362,97.844,40.503,97.994
		z"/>
	<path fill="#FFFFFF" d="M43.105,98.307c-0.106,0-0.215-0.021-0.324-0.062c-0.147-0.059-0.253-0.12-0.318-0.186
		c-0.015-0.014-0.019-0.029-0.013-0.046c0.006-0.016,0.016-0.026,0.03-0.031c0.014-0.005,0.027,0,0.042,0.013
		c0.014,0.013,0.04,0.033,0.078,0.061c0.039,0.028,0.108,0.062,0.208,0.104c0.101,0.041,0.199,0.062,0.297,0.062
		c0.156,0,0.29-0.04,0.4-0.119c0.111-0.079,0.166-0.175,0.166-0.287c0-0.088-0.026-0.156-0.08-0.202
		c-0.059-0.052-0.118-0.088-0.179-0.108c-0.081-0.025-0.165-0.049-0.251-0.068c-0.087-0.02-0.147-0.034-0.184-0.044
		c-0.036-0.009-0.087-0.027-0.15-0.054c-0.064-0.027-0.111-0.055-0.142-0.082c-0.082-0.075-0.122-0.169-0.122-0.282
		c0-0.112,0.053-0.21,0.158-0.291c0.106-0.082,0.223-0.123,0.349-0.123c0.125,0,0.232,0.019,0.321,0.057
		c0.126,0.051,0.206,0.103,0.241,0.153c0.012,0.012,0.014,0.025,0.007,0.042s-0.018,0.026-0.033,0.029
		c-0.016,0.004-0.028,0-0.04-0.012c-0.119-0.119-0.272-0.179-0.462-0.179c-0.123,0-0.229,0.032-0.317,0.095
		c-0.089,0.062-0.133,0.14-0.133,0.23c0,0.119,0.054,0.204,0.16,0.256c0.084,0.042,0.183,0.075,0.296,0.101
		c0.112,0.026,0.189,0.045,0.23,0.057s0.092,0.029,0.154,0.054c0.062,0.024,0.108,0.052,0.141,0.082
		c0.084,0.077,0.126,0.179,0.126,0.306c0,0.128-0.063,0.238-0.19,0.334S43.29,98.307,43.105,98.307z"/>
	<path fill="#FFFFFF" d="M44.276,96.171v-0.084c0-0.03,0.015-0.045,0.044-0.045s0.044,0.015,0.044,0.045v0.084
		c0,0.012-0.004,0.021-0.013,0.029c-0.008,0.009-0.018,0.013-0.029,0.013C44.292,96.213,44.276,96.199,44.276,96.171z
		 M44.276,98.261v-1.625c0-0.028,0.015-0.042,0.044-0.042s0.044,0.014,0.044,0.042v1.625c0,0.012-0.004,0.022-0.013,0.032
		c-0.008,0.009-0.018,0.014-0.029,0.014C44.292,98.307,44.276,98.292,44.276,98.261z"/>
	<path fill="#FFFFFF" d="M46.63,98.275l-0.008,0.018c-0.009,0.009-0.021,0.014-0.034,0.014c-0.028,0-0.042-0.015-0.042-0.046v-0.975
		c0-0.168-0.06-0.311-0.177-0.429c-0.118-0.117-0.258-0.176-0.421-0.176s-0.304,0.056-0.42,0.169s-0.177,0.25-0.182,0.411v0.999
		l-0.011,0.032l-0.007,0.003c-0.007,0.007-0.016,0.011-0.024,0.011h-0.011c-0.025-0.005-0.038-0.02-0.038-0.046v-0.975
		c0-0.019,0.002-0.047,0.007-0.084V96.64c0-0.03,0.014-0.046,0.042-0.046s0.042,0.016,0.042,0.046v0.311
		c0.061-0.109,0.144-0.196,0.25-0.26c0.105-0.064,0.227-0.097,0.361-0.097c0.136,0,0.262,0.042,0.38,0.124
		c0.117,0.083,0.2,0.19,0.25,0.323c0.049-0.133,0.132-0.24,0.25-0.323c0.117-0.082,0.249-0.124,0.396-0.124
		c0.188,0,0.35,0.067,0.482,0.203c0.133,0.135,0.199,0.298,0.199,0.489v0.975c0,0.031-0.015,0.046-0.042,0.046
		c-0.012,0-0.022-0.005-0.031-0.014c-0.01-0.01-0.015-0.021-0.015-0.032v-0.975c0-0.168-0.058-0.311-0.175-0.429
		c-0.116-0.117-0.256-0.176-0.419-0.176s-0.303,0.056-0.42,0.169c-0.116,0.113-0.177,0.25-0.182,0.411v0.999
		C46.633,98.269,46.632,98.272,46.63,98.275z"/>
	<path fill="#FFFFFF" d="M48.624,98.307c-0.03,0-0.045-0.013-0.045-0.038v-2.363c0-0.03,0.015-0.046,0.044-0.046
		c0.028,0,0.043,0.016,0.043,0.046v1.049c0.061-0.109,0.146-0.197,0.254-0.263c0.108-0.064,0.227-0.098,0.354-0.098
		c0.191,0,0.354,0.067,0.489,0.203c0.136,0.135,0.203,0.299,0.203,0.492v0.972c0,0.012-0.004,0.022-0.013,0.032
		c-0.008,0.009-0.018,0.014-0.029,0.014c-0.03,0-0.046-0.015-0.046-0.046v-0.972c0-0.167-0.059-0.311-0.176-0.428
		c-0.118-0.118-0.26-0.177-0.425-0.177c-0.166,0-0.308,0.057-0.425,0.17c-0.118,0.113-0.18,0.25-0.188,0.41v0.996
		c0,0.031-0.012,0.046-0.034,0.046H48.624z"/>
	<path fill="#FFFFFF" d="M52.064,96.64c0-0.03,0.015-0.046,0.044-0.046s0.044,0.016,0.044,0.046v1.621
		c0,0.031-0.015,0.046-0.044,0.046s-0.044-0.015-0.044-0.046v-0.426c-0.067,0.142-0.166,0.256-0.295,0.343
		c-0.13,0.086-0.271,0.129-0.425,0.129c-0.224,0-0.414-0.084-0.571-0.252s-0.236-0.369-0.236-0.604s0.079-0.437,0.236-0.604
		s0.348-0.252,0.571-0.252c0.153,0,0.295,0.043,0.425,0.13c0.129,0.086,0.228,0.2,0.295,0.342V96.64z M50.836,97.994
		c0.142,0.15,0.311,0.226,0.509,0.226s0.367-0.075,0.509-0.226c0.141-0.15,0.211-0.332,0.211-0.544s-0.07-0.393-0.211-0.542
		c-0.142-0.148-0.311-0.224-0.509-0.224s-0.367,0.075-0.509,0.224c-0.141,0.149-0.211,0.33-0.211,0.542S50.695,97.844,50.836,97.994
		z"/>
	<path fill="#FFFFFF" d="M52.917,98.307c-0.005-0.005-0.01-0.007-0.016-0.007s-0.009-0.005-0.009-0.014
		c-0.005-0.005-0.007-0.011-0.007-0.018v-1.633c0-0.028,0.015-0.042,0.044-0.042c0.028,0,0.043,0.014,0.043,0.042v0.314
		c0.061-0.107,0.145-0.193,0.252-0.259c0.107-0.064,0.225-0.098,0.354-0.098c0.188,0,0.351,0.067,0.485,0.203
		c0.135,0.135,0.203,0.298,0.203,0.489v0.975c0,0.031-0.015,0.046-0.044,0.046s-0.044-0.015-0.044-0.046v-0.975
		c0-0.168-0.059-0.311-0.177-0.429c-0.117-0.117-0.259-0.176-0.424-0.176c-0.166,0-0.308,0.059-0.427,0.176
		c-0.119,0.118-0.179,0.261-0.179,0.429v0.975c0,0.031-0.014,0.046-0.042,0.046H52.917z"/>
	<path fill="#FFFFFF" d="M56.73,95.856c0.03,0,0.046,0.015,0.046,0.044s-0.016,0.043-0.046,0.043c-0.121,0-0.207,0.029-0.259,0.086
		c-0.051,0.058-0.076,0.164-0.076,0.32v0.23h0.293c0.028,0,0.042,0.015,0.042,0.045s-0.014,0.046-0.042,0.046h-0.293v1.587
		c0,0.03-0.016,0.045-0.046,0.045s-0.045-0.015-0.045-0.045v-1.587h-0.28c-0.03,0-0.045-0.016-0.045-0.046s0.015-0.045,0.045-0.045
		h0.28v-0.23c0-0.175,0.034-0.301,0.103-0.378S56.584,95.856,56.73,95.856z"/>
	<path fill="#FFFFFF" d="M58.22,96.685c-0.345,0-0.608,0.259-0.79,0.776v0.8c0,0.031-0.014,0.046-0.042,0.046
		c-0.027,0-0.042-0.015-0.042-0.046v-0.8c-0.002-0.005-0.002-0.012,0-0.021v-0.8c0-0.012,0.005-0.022,0.013-0.032
		c0.008-0.009,0.018-0.014,0.029-0.014c0.028,0,0.042,0.016,0.042,0.046v0.58c0.033-0.077,0.069-0.145,0.108-0.203
		c0.189-0.281,0.416-0.423,0.682-0.423c0.03,0,0.046,0.016,0.046,0.046S58.25,96.685,58.22,96.685z"/>
	<path fill="#FFFFFF" d="M59.032,96.846c0.157-0.168,0.348-0.252,0.571-0.252s0.415,0.084,0.573,0.252
		c0.159,0.168,0.238,0.369,0.238,0.604s-0.079,0.437-0.238,0.604c-0.158,0.168-0.35,0.252-0.573,0.252s-0.414-0.084-0.571-0.252
		s-0.235-0.369-0.235-0.604S58.875,97.014,59.032,96.846z M59.096,97.994c0.141,0.15,0.311,0.226,0.508,0.226
		c0.198,0,0.368-0.075,0.511-0.226c0.142-0.15,0.213-0.332,0.213-0.544s-0.071-0.394-0.213-0.544
		c-0.143-0.149-0.312-0.225-0.511-0.225c-0.197,0-0.367,0.075-0.508,0.225c-0.142,0.15-0.212,0.332-0.212,0.544
		S58.954,97.844,59.096,97.994z"/>
	<path fill="#FFFFFF" d="M62.436,98.275l-0.008,0.018c-0.009,0.009-0.021,0.014-0.034,0.014c-0.028,0-0.042-0.015-0.042-0.046
		v-0.975c0-0.168-0.06-0.311-0.177-0.429c-0.118-0.117-0.258-0.176-0.421-0.176s-0.304,0.056-0.42,0.169s-0.177,0.25-0.182,0.411
		v0.999l-0.011,0.032l-0.007,0.003c-0.007,0.007-0.016,0.011-0.024,0.011H61.1c-0.025-0.005-0.038-0.02-0.038-0.046v-0.975
		c0-0.019,0.002-0.047,0.007-0.084V96.64c0-0.03,0.014-0.046,0.042-0.046s0.042,0.016,0.042,0.046v0.311
		c0.061-0.109,0.144-0.196,0.25-0.26c0.105-0.064,0.227-0.097,0.361-0.097c0.136,0,0.262,0.042,0.38,0.124
		c0.117,0.083,0.2,0.19,0.25,0.323c0.049-0.133,0.132-0.24,0.25-0.323c0.117-0.082,0.249-0.124,0.396-0.124
		c0.188,0,0.35,0.067,0.482,0.203c0.133,0.135,0.199,0.298,0.199,0.489v0.975c0,0.031-0.015,0.046-0.042,0.046
		c-0.012,0-0.022-0.005-0.031-0.014c-0.01-0.01-0.015-0.021-0.015-0.032v-0.975c0-0.168-0.058-0.311-0.175-0.429
		c-0.116-0.117-0.256-0.176-0.419-0.176s-0.303,0.056-0.42,0.169c-0.116,0.113-0.177,0.25-0.182,0.411v0.999
		C62.438,98.269,62.438,98.272,62.436,98.275z"/>
	<path fill="#FFFFFF" d="M65.962,96.594c0.03,0,0.046,0.015,0.046,0.044s-0.016,0.044-0.046,0.044h-0.279v1.363
		c0,0.049,0.018,0.091,0.053,0.125c0.034,0.035,0.072,0.053,0.111,0.053c0.04,0,0.06,0.015,0.06,0.044s-0.015,0.044-0.045,0.044
		c-0.072,0-0.135-0.026-0.188-0.079s-0.078-0.114-0.078-0.187v-1.363h-0.294c-0.03,0-0.046-0.015-0.046-0.044
		s0.016-0.044,0.046-0.044h0.294v-0.685c0-0.03,0.014-0.046,0.043-0.046s0.044,0.016,0.044,0.046v0.685H65.962z"/>
	<path fill="#FFFFFF" d="M66.877,98.307c-0.03,0-0.045-0.013-0.045-0.038v-2.363c0-0.03,0.015-0.046,0.044-0.046
		c0.028,0,0.043,0.016,0.043,0.046v1.049c0.061-0.109,0.146-0.197,0.254-0.263c0.108-0.064,0.227-0.098,0.354-0.098
		c0.191,0,0.354,0.067,0.489,0.203c0.136,0.135,0.203,0.299,0.203,0.492v0.972c0,0.012-0.004,0.022-0.013,0.032
		c-0.008,0.009-0.018,0.014-0.029,0.014c-0.03,0-0.046-0.015-0.046-0.046v-0.972c0-0.167-0.059-0.311-0.176-0.428
		c-0.118-0.118-0.26-0.177-0.425-0.177c-0.166,0-0.308,0.057-0.425,0.17c-0.118,0.113-0.18,0.25-0.188,0.41v0.996
		c0,0.031-0.012,0.046-0.034,0.046H66.877z"/>
	<path fill="#FFFFFF" d="M70.506,97.384v0.014c-0.005,0.028-0.02,0.042-0.042,0.042h-1.524v0.011c0,0.21,0.073,0.39,0.219,0.54
		s0.32,0.227,0.525,0.229c0.129,0,0.247-0.032,0.355-0.095c0.108-0.063,0.195-0.148,0.26-0.255c0.017-0.023,0.037-0.027,0.062-0.011
		s0.028,0.036,0.013,0.06c-0.075,0.116-0.174,0.21-0.296,0.281s-0.253,0.106-0.394,0.106c-0.228-0.002-0.423-0.087-0.583-0.254
		c-0.161-0.166-0.244-0.367-0.248-0.603c0.004-0.237,0.087-0.439,0.248-0.606c0.16-0.167,0.353-0.25,0.575-0.25
		c0.222,0,0.412,0.076,0.569,0.228S70.489,97.16,70.506,97.384z M70.174,96.877c-0.141-0.128-0.304-0.192-0.491-0.192
		s-0.353,0.064-0.493,0.192s-0.224,0.288-0.246,0.479h1.475C70.395,97.165,70.313,97.005,70.174,96.877z"/>
	<path fill="#FFFFFF" d="M73.886,98.275l-1.607-2.233v2.219c0,0.031-0.015,0.046-0.042,0.046c-0.012,0-0.022-0.005-0.031-0.014
		c-0.01-0.01-0.015-0.021-0.015-0.032v-2.349c0-0.014,0.006-0.026,0.018-0.038c0.025-0.015,0.047-0.012,0.063,0.007l1.614,2.244
		v-2.202c0-0.012,0.005-0.022,0.015-0.031c0.009-0.01,0.02-0.015,0.031-0.015c0.027,0,0.042,0.016,0.042,0.046v2.338
		c0,0.031-0.015,0.046-0.042,0.046c-0.021,0-0.035-0.01-0.042-0.028C73.887,98.278,73.886,98.277,73.886,98.275z"/>
	<path fill="#FFFFFF" d="M75.003,96.846c0.157-0.168,0.348-0.252,0.571-0.252s0.415,0.084,0.573,0.252
		c0.159,0.168,0.238,0.369,0.238,0.604s-0.079,0.437-0.238,0.604c-0.158,0.168-0.35,0.252-0.573,0.252s-0.414-0.084-0.571-0.252
		s-0.235-0.369-0.235-0.604S74.846,97.014,75.003,96.846z M75.066,97.994c0.141,0.15,0.311,0.226,0.508,0.226
		c0.198,0,0.368-0.075,0.511-0.226c0.142-0.15,0.213-0.332,0.213-0.544s-0.071-0.394-0.213-0.544
		c-0.143-0.149-0.312-0.225-0.511-0.225c-0.197,0-0.367,0.075-0.508,0.225c-0.142,0.15-0.212,0.332-0.212,0.544
		S74.925,97.844,75.066,97.994z"/>
	<path fill="#FFFFFF" d="M76.997,96.64c0-0.03,0.016-0.046,0.046-0.046c0.012,0,0.021,0.005,0.029,0.014
		c0.008,0.01,0.013,0.021,0.013,0.032v0.975c0,0.168,0.058,0.311,0.175,0.429c0.116,0.117,0.257,0.177,0.423,0.177
		c0.165,0,0.307-0.06,0.425-0.177c0.117-0.118,0.176-0.261,0.176-0.429V96.64c0-0.012,0.005-0.022,0.015-0.032
		c0.009-0.009,0.02-0.014,0.031-0.014c0.03,0,0.045,0.016,0.045,0.046v0.975c0,0.191-0.067,0.354-0.202,0.489
		c-0.136,0.136-0.298,0.203-0.488,0.203c-0.189,0-0.352-0.067-0.485-0.203c-0.134-0.135-0.201-0.298-0.201-0.489V96.64z"/>
	<path fill="#FFFFFF" d="M79.206,98.307c-0.005-0.005-0.01-0.007-0.016-0.007s-0.009-0.005-0.009-0.014
		c-0.005-0.005-0.007-0.011-0.007-0.018v-1.633c0-0.028,0.015-0.042,0.044-0.042c0.028,0,0.043,0.014,0.043,0.042v0.314
		c0.061-0.107,0.145-0.193,0.252-0.259c0.107-0.064,0.225-0.098,0.354-0.098c0.188,0,0.351,0.067,0.485,0.203
		c0.135,0.135,0.203,0.298,0.203,0.489v0.975c0,0.031-0.015,0.046-0.044,0.046s-0.044-0.015-0.044-0.046v-0.975
		c0-0.168-0.059-0.311-0.177-0.429c-0.117-0.117-0.259-0.176-0.424-0.176c-0.166,0-0.308,0.059-0.427,0.176
		c-0.119,0.118-0.179,0.261-0.179,0.429v0.975c0,0.031-0.014,0.046-0.042,0.046H79.206z"/>
	<path fill="#FFFFFF" d="M82.404,98.261v-2.355c0-0.03,0.016-0.046,0.046-0.046h0.717c0.186,0,0.346,0.066,0.48,0.199
		c0.134,0.134,0.201,0.294,0.201,0.482c0,0.189-0.066,0.35-0.2,0.481c-0.133,0.131-0.293,0.197-0.481,0.197h-0.675v1.041
		c0,0.031-0.015,0.046-0.044,0.046S82.404,98.292,82.404,98.261z M82.492,97.129h0.675c0.163,0,0.302-0.058,0.417-0.172
		s0.173-0.253,0.173-0.416s-0.058-0.303-0.173-0.419s-0.254-0.175-0.417-0.175h-0.675V97.129z"/>
	<path fill="#FFFFFF" d="M85.28,96.685c-0.345,0-0.608,0.259-0.79,0.776v0.8c0,0.031-0.014,0.046-0.042,0.046
		c-0.027,0-0.042-0.015-0.042-0.046v-0.8c-0.002-0.005-0.002-0.012,0-0.021v-0.8c0-0.012,0.005-0.022,0.013-0.032
		c0.008-0.009,0.018-0.014,0.029-0.014c0.028,0,0.042,0.016,0.042,0.046v0.58c0.033-0.077,0.069-0.145,0.108-0.203
		c0.189-0.281,0.416-0.423,0.682-0.423c0.03,0,0.046,0.016,0.046,0.046S85.311,96.685,85.28,96.685z"/>
	<path fill="#FFFFFF" d="M86.094,96.846c0.157-0.168,0.348-0.252,0.571-0.252s0.415,0.084,0.573,0.252
		c0.159,0.168,0.238,0.369,0.238,0.604s-0.079,0.437-0.238,0.604c-0.158,0.168-0.35,0.252-0.573,0.252s-0.414-0.084-0.571-0.252
		s-0.235-0.369-0.235-0.604S85.937,97.014,86.094,96.846z M86.157,97.994c0.141,0.15,0.311,0.226,0.508,0.226
		c0.198,0,0.368-0.075,0.511-0.226c0.142-0.15,0.213-0.332,0.213-0.544s-0.071-0.394-0.213-0.544
		c-0.143-0.149-0.312-0.225-0.511-0.225c-0.197,0-0.367,0.075-0.508,0.225c-0.142,0.15-0.212,0.332-0.212,0.544
		S86.016,97.844,86.157,97.994z"/>
	<path fill="#FFFFFF" d="M87.822,99.017c-0.028,0-0.042-0.015-0.042-0.044s0.02-0.044,0.058-0.044c0.039,0,0.075-0.018,0.11-0.053
		c0.035-0.034,0.053-0.078,0.053-0.129v-2.111c0-0.028,0.014-0.042,0.042-0.042c0.011,0,0.022,0.004,0.033,0.013
		c0.01,0.008,0.016,0.018,0.016,0.029v2.111c0,0.074-0.026,0.138-0.079,0.19S87.896,99.017,87.822,99.017z M88.008,96.164V96.08
		c0-0.03,0.015-0.046,0.045-0.046c0.012,0,0.023,0.005,0.033,0.015c0.011,0.009,0.016,0.02,0.016,0.031v0.084
		c0,0.012-0.005,0.021-0.016,0.029c-0.01,0.009-0.021,0.013-0.033,0.013C88.022,96.206,88.008,96.192,88.008,96.164z"/>
	<path fill="#FFFFFF" d="M90.524,97.384v0.014c-0.005,0.028-0.02,0.042-0.042,0.042h-1.524v0.011c0,0.21,0.073,0.39,0.219,0.54
		s0.32,0.227,0.525,0.229c0.129,0,0.247-0.032,0.355-0.095c0.108-0.063,0.195-0.148,0.26-0.255c0.017-0.023,0.037-0.027,0.062-0.011
		s0.028,0.036,0.013,0.06c-0.075,0.116-0.174,0.21-0.296,0.281s-0.253,0.106-0.394,0.106c-0.228-0.002-0.423-0.087-0.583-0.254
		c-0.161-0.166-0.244-0.367-0.248-0.603c0.004-0.237,0.087-0.439,0.248-0.606c0.16-0.167,0.353-0.25,0.575-0.25
		c0.222,0,0.412,0.076,0.569,0.228S90.508,97.16,90.524,97.384z M90.192,96.877c-0.141-0.128-0.304-0.192-0.491-0.192
		s-0.353,0.064-0.493,0.192s-0.224,0.288-0.246,0.479h1.475C90.413,97.165,90.332,97.005,90.192,96.877z"/>
	<path fill="#FFFFFF" d="M91.258,98.053C91.086,97.887,91,97.686,91,97.45s0.086-0.437,0.258-0.604
		c0.173-0.168,0.371-0.252,0.597-0.252c0.225,0,0.415,0.062,0.571,0.186c0.019,0.019,0.021,0.039,0.005,0.061
		c-0.015,0.022-0.035,0.025-0.061,0.009c-0.145-0.111-0.317-0.167-0.52-0.167c-0.201,0-0.379,0.075-0.533,0.225
		c-0.153,0.15-0.23,0.332-0.23,0.544s0.077,0.394,0.23,0.544c0.154,0.15,0.342,0.226,0.563,0.226c0.177,0,0.34-0.058,0.489-0.172
		c0.021-0.014,0.04-0.01,0.058,0.013c0.018,0.021,0.017,0.042-0.002,0.061c-0.161,0.124-0.343,0.186-0.545,0.186
		C91.638,98.305,91.431,98.22,91.258,98.053z"/>
	<path fill="#FFFFFF" d="M93.645,96.594c0.03,0,0.046,0.015,0.046,0.044s-0.016,0.044-0.046,0.044h-0.279v1.363
		c0,0.049,0.018,0.091,0.053,0.125c0.034,0.035,0.072,0.053,0.111,0.053c0.04,0,0.06,0.015,0.06,0.044s-0.015,0.044-0.045,0.044
		c-0.072,0-0.135-0.026-0.188-0.079s-0.078-0.114-0.078-0.187v-1.363h-0.294c-0.03,0-0.046-0.015-0.046-0.044
		s0.016-0.044,0.046-0.044h0.294v-0.685c0-0.03,0.014-0.046,0.043-0.046s0.044,0.016,0.044,0.046v0.685H93.645z"/>
</g>
<path fill="#FFFFFF" d="M35.727,35.281c-0.783-1.601-1.192-3.354-1.192-5.255c0-2.979,0.968-5.589,2.907-7.825
	c0.446-0.559,0.969-1.079,1.528-1.603c2.98-2.646,6.559-3.949,10.77-3.949c4.247-0.038,7.862,1.267,10.845,3.876
	c1.714,1.453,2.945,3.13,3.652,5.031c0.484,1.305,0.745,2.682,0.782,4.137v0.074c-0.037,0.708,0.261,1.378,0.818,1.937
	c0.559,0.559,1.754,0.784,3.579,0.671c1.789-0.111,3.055-0.485,3.764-1.081c0.709-0.596,1.08-1.416,1.044-2.46
	c0-0.038,0-0.074,0-0.113v-0.185c-0.223-5.627-2.571-10.435-7.082-14.458c-4.73-4.247-10.472-6.373-17.179-6.373
	c-6.669,0-12.409,2.123-17.142,6.373c-4.732,4.248-7.118,9.39-7.118,15.39c0,3.839,0.968,7.342,2.868,10.435
	c0.299,0.449,0.597,0.932,0.932,1.418c2.796,3.578,6.597,6.26,11.329,8.085c0.372,0.113,0.745,0.262,1.118,0.411
	c0.186,0.075,0.409,0.149,0.596,0.185c0.335,0.113,1.154,0.374,2.459,0.709c1.268,0.373,3.093,0.782,5.442,1.191
	c2.348,0.411,4.62,1.195,6.818,2.274c2.199,1.007,4.024,2.312,5.478,3.876c0.636,0.782,1.156,1.565,1.565,2.387
	c0.782,1.603,1.155,3.353,1.155,5.254c0,2.123-0.482,4.023-1.453,5.776c-0.409,0.708-0.896,1.415-1.454,2.049
	c-0.446,0.56-0.969,1.082-1.527,1.564c-2.982,2.646-6.558,3.951-10.77,3.951c-4.212,0.035-7.825-1.267-10.845-3.838
	c-1.715-1.491-2.943-3.169-3.651-5.031c-0.485-1.305-0.746-2.685-0.783-4.174v-0.038c0-1.043-0.446-1.787-1.305-2.197
	c-0.855-0.446-2.012-0.596-3.391-0.484c-1.379,0.113-2.497,0.521-3.354,1.193c-0.857,0.596-1.23,1.379-1.155,2.386v0.148
	c0,0.036,0,0.111,0,0.187c0.223,5.627,2.571,10.434,7.08,14.421c4.732,4.284,10.472,6.41,17.179,6.41
	c6.708,0,12.41-2.126,17.143-6.41c3.318-2.942,5.479-6.335,6.484-10.137c0.409-1.676,0.635-3.428,0.635-5.253
	c0-3.839-0.932-7.305-2.835-10.397c-0.334-0.484-0.632-0.932-0.966-1.416c-3.021-3.913-7.155-6.745-12.448-8.532
	c-0.186-0.038-0.37-0.113-0.596-0.188c-0.113-0.035-0.67-0.185-1.678-0.446c-1.006-0.26-2.606-0.596-4.881-0.931
	c-2.311-0.411-4.771-1.192-7.379-2.348c-0.97-0.484-1.862-0.932-2.684-1.416c-1.416-0.858-2.608-1.826-3.578-2.907
	C36.621,36.882,36.1,36.101,35.727,35.281L35.727,35.281z"/>
<path fill="none" stroke="#FFFFFF" stroke-width="0.629" stroke-linecap="round" stroke-linejoin="round" stroke-miterlimit="10" d="
	M35.727,35.281c0.372,0.82,0.893,1.604,1.527,2.348c0.969,1.081,2.161,2.048,3.577,2.906c0.82,0.484,1.715,0.932,2.684,1.416
	c2.608,1.156,5.068,1.938,7.378,2.348c2.274,0.335,3.877,0.669,4.884,0.932c1.006,0.26,1.564,0.409,1.675,0.447
	c0.226,0.075,0.412,0.149,0.599,0.185c5.291,1.791,9.427,4.62,12.445,8.534c0.335,0.483,0.634,0.932,0.969,1.416
	c1.9,3.094,2.832,6.56,2.832,10.396c0,1.826-0.223,3.577-0.634,5.254c-1.006,3.801-3.167,7.192-6.482,10.138
	c-4.732,4.284-10.438,6.407-17.145,6.407c-6.708,0-12.446-2.123-17.179-6.407c-4.508-3.986-6.857-8.794-7.08-14.422
	c0-0.074,0-0.149,0-0.187v-0.149c-0.074-1.005,0.297-1.789,1.155-2.385c0.858-0.672,1.976-1.081,3.354-1.193
	c1.38-0.111,2.535,0.039,3.392,0.484c0.857,0.411,1.305,1.155,1.305,2.198v0.036c0.037,1.491,0.299,2.871,0.783,4.173
	c0.709,1.863,1.938,3.541,3.652,5.032c3.018,2.57,6.633,3.875,10.844,3.837c4.211,0,7.789-1.305,10.771-3.949
	c0.559-0.484,1.079-1.006,1.526-1.563c0.56-0.634,1.044-1.343,1.453-2.052c0.97-1.75,1.455-3.65,1.455-5.773
	c0-1.901-0.373-3.652-1.155-5.257c-0.409-0.818-0.932-1.603-1.566-2.384c-1.452-1.566-3.279-2.871-5.477-3.876
	c-2.198-1.082-4.473-1.864-6.819-2.274c-2.348-0.41-4.173-0.818-5.441-1.191c-1.305-0.335-2.124-0.599-2.46-0.709
	c-0.186-0.038-0.41-0.113-0.596-0.187c-0.372-0.149-0.745-0.299-1.117-0.409c-4.733-1.828-8.534-4.51-11.33-8.088
	c-0.334-0.483-0.633-0.966-0.931-1.415c-1.9-3.093-2.869-6.596-2.869-10.435c0-6,2.386-11.144,7.118-15.392
	c4.733-4.249,10.471-6.373,17.143-6.373c6.707,0,12.446,2.124,17.179,6.373c4.511,4.024,6.856,8.833,7.081,14.458v0.187
	c0,0.038,0,0.075,0,0.113c0.036,1.042-0.336,1.863-1.043,2.459c-0.709,0.596-1.976,0.969-3.764,1.082
	c-1.827,0.111-3.021-0.113-3.579-0.671c-0.56-0.56-0.855-1.229-0.818-1.938v-0.075c-0.037-1.452-0.299-2.831-0.782-4.135
	c-0.709-1.901-1.939-3.579-3.652-5.032c-2.982-2.606-6.596-3.911-10.846-3.875c-4.211,0-7.788,1.305-10.77,3.95
	c-0.56,0.521-1.081,1.043-1.528,1.603c-1.938,2.236-2.906,4.843-2.906,7.825C34.534,31.926,34.944,33.68,35.727,35.281
	L35.727,35.281z"/>
<path fill="#FFFFFF" d="M46.197,0.475c-0.111,0.223-0.147,0.447-0.111,0.708c7.118,23.85,6.074,43.973-3.056,60.332
	c-4.808,8.459-7.044,15.39-6.782,20.759c0.224,5.623,3.093,9.65,8.57,12.071c0.224,0.075,0.446,0.075,0.671,0
	c0.261-0.112,0.446-0.263,0.559-0.485c0.075-0.223,0.075-0.445,0-0.709c-0.111-0.261-0.26-0.408-0.484-0.483
	c-4.807-2.123-7.304-5.589-7.564-10.435c-0.187-5.178,2.012-11.775,6.559-19.786c9.428-16.732,10.51-37.338,3.316-61.785
	c-0.111-0.224-0.261-0.41-0.484-0.521c-0.223-0.15-0.447-0.186-0.671-0.075C46.46,0.14,46.31,0.289,46.197,0.475L46.197,0.475z"/>
<path fill="none" stroke="#FFFFFF" stroke-width="0.629" stroke-linecap="round" stroke-linejoin="round" stroke-miterlimit="10" d="
	M46.197,0.475c0.112-0.186,0.261-0.335,0.521-0.41c0.224-0.111,0.447-0.075,0.671,0.075c0.224,0.111,0.373,0.297,0.484,0.521
	c7.193,24.445,6.111,45.053-3.316,61.785c-4.545,8.013-6.745,14.608-6.559,19.786c0.261,4.846,2.758,8.312,7.564,10.435
	c0.225,0.075,0.373,0.223,0.484,0.483c0.075,0.264,0.075,0.486,0,0.709c-0.111,0.223-0.298,0.373-0.559,0.485
	c-0.225,0.075-0.447,0.075-0.671,0c-5.478-2.424-8.347-6.448-8.57-12.071c-0.262-5.369,1.975-12.3,6.782-20.759
	c9.13-16.359,10.174-36.482,3.056-60.332C46.05,0.923,46.086,0.699,46.197,0.475L46.197,0.475z"/>
<path fill="#FFFFFF" d="M39.899,57.566c-0.074,0-0.147,0.036-0.186,0.073c-2.943,1.789-3.913,3.391-2.943,4.769
	c2.795,4.473,6.559,7.156,11.365,8.086c1.342,0.188,1.938,0.188,1.751,0c-0.148-0.186-0.224-0.334-0.186-0.408l0.932-2.835
	c0-0.036,0-0.073,0-0.109c0-0.226,0-0.448,0.037-0.709c0-0.113-0.037-0.187-0.075-0.264c-0.038-0.073-0.112-0.109-0.187-0.109
	c-4.136-1.007-7.527-3.766-10.173-8.312c-0.037-0.037-0.111-0.075-0.149-0.111C40.049,57.603,39.975,57.566,39.899,57.566
	L39.899,57.566z"/>
<path fill="#FFFFFF" d="M34.459,53.765c-0.783,0-1.49,0.261-2.049,0.818c-0.56,0.597-0.857,1.305-0.857,2.088
	c0,0.782,0.298,1.453,0.857,2.012c0.559,0.559,1.266,0.857,2.049,0.857s1.455-0.298,2.013-0.857
	c0.597-0.559,0.895-1.229,0.895-2.012c0-0.783-0.298-1.491-0.895-2.088C35.914,54.025,35.242,53.765,34.459,53.765L34.459,53.765z"
	/>
<path fill="none" stroke="#FFFFFF" stroke-width="0.629" stroke-linecap="round" stroke-linejoin="round" stroke-miterlimit="10" d="
	M32.41,54.583c-0.56,0.597-0.857,1.305-0.857,2.088c0,0.782,0.298,1.453,0.857,2.012c0.559,0.559,1.266,0.857,2.049,0.857
	s1.455-0.298,2.013-0.857c0.597-0.559,0.895-1.229,0.895-2.012c0-0.783-0.298-1.491-0.895-2.088
	c-0.56-0.558-1.229-0.818-2.013-0.818S32.969,54.025,32.41,54.583L32.41,54.583z"/>
<path fill="none" stroke="#FFFFFF" stroke-width="1.887" stroke-linecap="round" stroke-linejoin="round" stroke-miterlimit="10" d="
	M50.073,66.919l6.782-1.975l2.088,7.266 M51.826,77.54l3.055-7.193l-6.41-0.932 M48.807,51.826l-9.279,7.38"/>
</svg>
