<?xml version="1.0" encoding="utf-8"?>
<!-- Generator: Adobe Illustrator 15.0.0, SVG Export Plug-In . SVG Version: 6.00 Build 0)  -->
<!DOCTYPE svg PUBLIC "-//W3C//DTD SVG 1.1//EN" "http://www.w3.org/Graphics/SVG/1.1/DTD/svg11.dtd">
<svg version="1.1" id="Layer_1" xmlns="http://www.w3.org/2000/svg" xmlns:xlink="http://www.w3.org/1999/xlink" x="0px" y="0px"
	 width="100px" height="45px" viewBox="0 0 100 45" enable-background="new 0 0 100 45" xml:space="preserve">
<g>
	<g>
		<path fill="#5F84C3" d="M3.814,33.201v6.428c0,0.227-0.083,0.426-0.248,0.596C3.401,40.396,3.203,40.48,2.97,40.48
			c-0.232,0-0.431-0.083-0.596-0.248s-0.248-0.366-0.248-0.604v-9.015c-0.021-0.299,0.08-0.526,0.302-0.682
			c0.222-0.154,0.447-0.214,0.674-0.178s0.408,0.147,0.542,0.333l5.003,6.923V30.63c0-0.227,0.083-0.423,0.248-0.589
			c0.165-0.165,0.361-0.247,0.589-0.247c0.227,0,0.426,0.082,0.596,0.247c0.17,0.166,0.255,0.362,0.255,0.589v8.999
			c0,0.237-0.085,0.438-0.255,0.604S9.705,40.48,9.468,40.48c-0.238,0-0.444-0.104-0.62-0.31c-0.042-0.041-0.067-0.072-0.078-0.093
			L3.814,33.201z"/>
		<path opacity="0.5" fill="#5F84C3" d="M20.666,36.392v0.062c-0.021,0.124-0.083,0.187-0.186,0.187h-6.753v0.046
			c0,0.93,0.322,1.728,0.968,2.394s1.422,1.004,2.331,1.015c0.568,0,1.092-0.14,1.572-0.419c0.48-0.278,0.865-0.655,1.154-1.13
			c0.072-0.104,0.163-0.119,0.271-0.047s0.126,0.16,0.054,0.264c-0.331,0.516-0.767,0.932-1.309,1.246
			c-0.542,0.315-1.123,0.473-1.743,0.473c-1.012-0.01-1.874-0.385-2.586-1.123s-1.079-1.629-1.1-2.672
			c0.021-1.053,0.387-1.948,1.1-2.687s1.562-1.107,2.548-1.107c0.986,0,1.828,0.335,2.524,1.007
			C20.209,34.569,20.593,35.4,20.666,36.392z M19.194,34.146c-0.62-0.567-1.345-0.852-2.176-0.852s-1.559,0.284-2.184,0.852
			c-0.625,0.568-0.989,1.275-1.092,2.122h6.536C20.175,35.421,19.814,34.714,19.194,34.146z"/>
		<path opacity="0.5" fill="#5F84C3" d="M29.757,32.892c0.134,0,0.202,0.067,0.202,0.201v6.954c0,0.991-0.349,1.838-1.045,2.54
			c-0.697,0.702-1.541,1.053-2.533,1.053c-0.526,0-1.053-0.123-1.58-0.371c-0.104-0.072-0.129-0.158-0.078-0.256
			c0.052-0.099,0.14-0.132,0.264-0.101c0.454,0.227,0.919,0.341,1.394,0.341c0.888-0.021,1.642-0.341,2.262-0.96
			c0.619-0.62,0.929-1.369,0.929-2.246V38.39c-0.289,0.619-0.723,1.123-1.301,1.51c-0.578,0.388-1.208,0.581-1.89,0.581
			c-0.991,0-1.835-0.372-2.532-1.115c-0.697-0.743-1.045-1.637-1.045-2.68s0.349-1.936,1.045-2.679
			c0.697-0.744,1.541-1.115,2.532-1.115c0.682,0,1.312,0.19,1.89,0.572c0.578,0.383,1.012,0.883,1.301,1.503v-1.874
			c0-0.052,0.018-0.099,0.054-0.14C29.662,32.912,29.705,32.892,29.757,32.892z M28.634,39.087c0.625-0.661,0.937-1.461,0.937-2.401
			c0-0.939-0.312-1.742-0.937-2.408c-0.625-0.666-1.376-0.999-2.254-0.999c-0.877,0-1.629,0.333-2.253,0.999
			s-0.937,1.469-0.937,2.408c0,0.94,0.312,1.74,0.937,2.401c0.625,0.66,1.376,0.991,2.253,0.991
			C27.258,40.078,28.009,39.747,28.634,39.087z"/>
		<path opacity="0.5" fill="#5F84C3" d="M34.225,34.007c0.697-0.744,1.542-1.115,2.533-1.115s1.837,0.371,2.54,1.115
			c0.702,0.743,1.053,1.636,1.053,2.679s-0.351,1.937-1.053,2.68c-0.703,0.743-1.549,1.115-2.54,1.115s-1.835-0.372-2.533-1.115
			c-0.697-0.743-1.045-1.637-1.045-2.68S33.528,34.75,34.225,34.007z M34.504,39.095c0.625,0.666,1.376,0.999,2.254,0.999
			c0.877,0,1.631-0.333,2.261-0.999c0.629-0.666,0.945-1.469,0.945-2.409c0-0.939-0.315-1.742-0.945-2.408
			c-0.63-0.666-1.384-0.999-2.261-0.999c-0.878,0-1.629,0.333-2.254,0.999c-0.625,0.666-0.937,1.469-0.937,2.408
			C33.567,37.626,33.879,38.429,34.504,39.095z"/>
		<path opacity="0.5" fill="#5F84C3" d="M45.555,32.892c0.134,0,0.201,0.064,0.201,0.193s-0.067,0.193-0.201,0.193h-1.239v6.041
			c0,0.217,0.078,0.402,0.232,0.557c0.155,0.155,0.32,0.232,0.496,0.232c0.175,0,0.263,0.065,0.263,0.194s-0.067,0.193-0.201,0.193
			c-0.32,0-0.596-0.116-0.829-0.349s-0.349-0.509-0.349-0.828v-6.041h-1.301c-0.134,0-0.202-0.064-0.202-0.193
			s0.067-0.193,0.202-0.193h1.301v-3.036c0-0.134,0.064-0.201,0.194-0.201c0.129,0,0.193,0.067,0.193,0.201v3.036H45.555z"/>
		<path opacity="0.5" fill="#5F84C3" d="M49.427,31.018v-0.372c0-0.134,0.064-0.201,0.193-0.201s0.194,0.067,0.194,0.201v0.372
			c0,0.052-0.019,0.095-0.054,0.131c-0.037,0.037-0.08,0.055-0.132,0.055C49.494,31.203,49.427,31.141,49.427,31.018z
			 M49.427,40.279v-7.202c0-0.124,0.064-0.186,0.193-0.186s0.194,0.062,0.194,0.186v7.202c0,0.052-0.019,0.098-0.054,0.14
			c-0.037,0.041-0.08,0.062-0.132,0.062C49.494,40.48,49.427,40.413,49.427,40.279z"/>
		<path opacity="0.5" fill="#5F84C3" d="M59.711,33.093c0-0.134,0.064-0.201,0.194-0.201c0.129,0,0.193,0.067,0.193,0.201v7.187
			c0,0.134-0.064,0.201-0.193,0.201c-0.13,0-0.194-0.067-0.194-0.201v-1.89c-0.299,0.63-0.735,1.136-1.309,1.518
			s-1.2,0.573-1.882,0.573c-0.991,0-1.835-0.372-2.532-1.115s-1.045-1.637-1.045-2.68s0.348-1.936,1.045-2.679
			c0.697-0.744,1.541-1.115,2.532-1.115c0.682,0,1.309,0.19,1.882,0.572c0.573,0.383,1.01,0.889,1.309,1.519V33.093z M54.268,39.095
			c0.624,0.666,1.375,0.999,2.253,0.999s1.629-0.333,2.254-0.999s0.937-1.469,0.937-2.409c0-0.939-0.312-1.739-0.937-2.4
			c-0.625-0.66-1.376-0.991-2.254-0.991s-1.629,0.331-2.253,0.991c-0.625,0.661-0.938,1.461-0.938,2.4
			C53.33,37.626,53.643,38.429,54.268,39.095z"/>
		<path opacity="0.5" fill="#5F84C3" d="M63.351,40.279V29.871c0-0.155,0.067-0.232,0.201-0.232c0.042,0,0.083,0.026,0.124,0.077
			c0.041,0.052,0.062,0.104,0.062,0.155v5.111c0.31-0.63,0.756-1.136,1.34-1.519c0.583-0.382,1.226-0.572,1.928-0.572
			c1.022,0,1.893,0.369,2.61,1.107c0.717,0.738,1.076,1.629,1.076,2.671c0,1.044-0.359,1.939-1.076,2.688
			c-0.718,0.749-1.588,1.123-2.61,1.123c-0.702,0-1.345-0.191-1.928-0.573c-0.584-0.382-1.03-0.883-1.34-1.502v1.874
			c0,0.052-0.019,0.098-0.055,0.14c-0.036,0.041-0.08,0.062-0.132,0.062C63.418,40.48,63.351,40.413,63.351,40.279z M63.738,36.531
			v0.139c0,0.94,0.319,1.745,0.96,2.417c0.64,0.671,1.412,1.007,2.315,1.007s1.678-0.336,2.323-1.007
			c0.646-0.672,0.968-1.477,0.968-2.417c0-0.939-0.322-1.739-0.968-2.4c-0.646-0.66-1.412-0.991-2.3-0.991
			c-0.889,0-1.652,0.317-2.292,0.953C64.104,34.866,63.769,35.633,63.738,36.531z"/>
		<path opacity="0.5" fill="#5F84C3" d="M73.682,29.84c0-0.134,0.064-0.201,0.193-0.201s0.193,0.067,0.193,0.201v10.439
			c0,0.134-0.064,0.201-0.193,0.201s-0.193-0.067-0.193-0.201V29.84z"/>
		<path opacity="0.5" fill="#5F84C3" d="M84.213,36.392v0.062c-0.021,0.124-0.082,0.187-0.186,0.187h-6.753v0.046
			c0,0.93,0.322,1.728,0.968,2.394s1.423,1.004,2.331,1.015c0.568,0,1.092-0.14,1.572-0.419c0.48-0.278,0.865-0.655,1.154-1.13
			c0.071-0.104,0.162-0.119,0.271-0.047s0.127,0.16,0.055,0.264c-0.331,0.516-0.767,0.932-1.309,1.246
			c-0.543,0.315-1.123,0.473-1.743,0.473c-1.012-0.01-1.874-0.385-2.586-1.123c-0.713-0.738-1.079-1.629-1.1-2.672
			c0.021-1.053,0.387-1.948,1.1-2.687c0.712-0.738,1.562-1.107,2.548-1.107c0.985,0,1.827,0.335,2.524,1.007
			C83.757,34.569,84.141,35.4,84.213,36.392z M82.742,34.146c-0.62-0.567-1.346-0.852-2.177-0.852s-1.559,0.284-2.184,0.852
			c-0.625,0.568-0.988,1.275-1.092,2.122h6.536C83.723,35.421,83.361,34.714,82.742,34.146z"/>
	</g>
	<g>
		<path fill="#5F84C3" d="M12.894,8.947c2.622,0,4.749,2.126,4.749,4.746s-2.126,4.746-4.749,4.746c-2.623,0-4.75-2.126-4.75-4.746
			C8.145,11.073,10.271,8.947,12.894,8.947z"/>
		<path fill="#5F84C3" d="M25.294,13.752c0,1.073-0.871,1.946-1.945,1.946s-1.946-0.873-1.946-1.946s0.872-1.944,1.946-1.944
			S25.294,12.679,25.294,13.752z"/>
		<path fill="#5F84C3" d="M4.392,13.752c0,1.073-0.871,1.946-1.946,1.946c-1.075,0-1.946-0.873-1.946-1.946s0.871-1.944,1.946-1.944
			C3.521,11.808,4.392,12.679,4.392,13.752z"/>
		<path fill="#5F84C3" d="M20.85,13.752c0,0.261-0.21,0.47-0.47,0.47c-0.259,0-0.469-0.209-0.469-0.47
			c0-0.26,0.21-0.469,0.469-0.469S20.85,13.492,20.85,13.752z"/>
		<path fill="#5F84C3" d="M19.215,13.752c0,0.261-0.21,0.47-0.47,0.47c-0.259,0-0.47-0.209-0.47-0.47c0-0.26,0.211-0.469,0.47-0.469
			C19.005,13.283,19.215,13.492,19.215,13.752z"/>
		<path fill="#5F84C3" d="M7.561,13.752c0,0.261-0.211,0.47-0.47,0.47s-0.47-0.209-0.47-0.47c0-0.26,0.211-0.469,0.47-0.469
			S7.561,13.492,7.561,13.752z"/>
		<path fill="#5F84C3" d="M5.925,13.752c0,0.261-0.209,0.47-0.47,0.47c-0.259,0-0.47-0.209-0.47-0.47c0-0.26,0.21-0.469,0.47-0.469
			C5.716,13.283,5.925,13.492,5.925,13.752z"/>
		<path fill="#5F84C3" d="M12.898,1.36c1.075,0,1.946,0.872,1.946,1.947c0,1.073-0.871,1.943-1.946,1.943s-1.945-0.87-1.945-1.943
			C10.953,2.232,11.823,1.36,12.898,1.36z"/>
		<path fill="#5F84C3" d="M12.898,22.251c1.075,0,1.946,0.871,1.946,1.946s-0.871,1.945-1.946,1.945s-1.945-0.87-1.945-1.945
			S11.823,22.251,12.898,22.251z"/>
		<path fill="#5F84C3" d="M12.897,5.805c0.259,0,0.47,0.211,0.47,0.47c0,0.26-0.21,0.469-0.47,0.469s-0.469-0.209-0.469-0.469
			C12.428,6.016,12.638,5.805,12.897,5.805z"/>
		<path fill="#5F84C3" d="M12.897,7.438c0.259,0,0.47,0.21,0.47,0.471c0,0.258-0.21,0.469-0.47,0.469s-0.469-0.211-0.469-0.469
			C12.428,7.648,12.638,7.438,12.897,7.438z"/>
		<path fill="#5F84C3" d="M12.897,19.085c0.259,0,0.47,0.211,0.47,0.469c0,0.261-0.21,0.471-0.47,0.471s-0.469-0.21-0.469-0.471
			C12.428,19.296,12.638,19.085,12.897,19.085z"/>
		<path fill="#5F84C3" d="M12.897,20.72c0.259,0,0.47,0.209,0.47,0.469c0,0.261-0.21,0.471-0.47,0.471s-0.469-0.21-0.469-0.471
			C12.428,20.929,12.638,20.72,12.897,20.72z"/>
		<path fill="#5F84C3" d="M21.664,4.991c0.761,0.758,0.761,1.99,0,2.751c-0.76,0.759-1.991,0.759-2.751,0
			c-0.76-0.761-0.76-1.993,0-2.751C19.672,4.231,20.904,4.231,21.664,4.991z"/>
		<path fill="#5F84C3" d="M6.884,19.762c0.759,0.761,0.759,1.993,0,2.751c-0.76,0.76-1.994,0.76-2.752,0
			c-0.761-0.758-0.761-1.99,0-2.751C4.891,19.003,6.124,19.003,6.884,19.762z"/>
		<path fill="#5F84C3" d="M18.52,8.134c0.185,0.182,0.185,0.479,0,0.662c-0.183,0.184-0.48,0.184-0.664,0
			c-0.183-0.184-0.183-0.48,0-0.662C18.04,7.95,18.337,7.95,18.52,8.134z"/>
		<path fill="#5F84C3" d="M17.364,9.287c0.184,0.185,0.184,0.481,0,0.665c-0.183,0.184-0.481,0.184-0.664,0
			c-0.184-0.184-0.184-0.48,0-0.665C16.883,9.103,17.181,9.103,17.364,9.287z"/>
		<path fill="#5F84C3" d="M9.124,17.524c0.183,0.182,0.183,0.479,0,0.662c-0.185,0.185-0.481,0.185-0.664,0
			c-0.185-0.183-0.185-0.48,0-0.662C8.643,17.341,8.939,17.341,9.124,17.524z"/>
		<path fill="#5F84C3" d="M7.967,18.679c0.184,0.184,0.184,0.48,0,0.664c-0.183,0.184-0.48,0.184-0.664,0
			c-0.183-0.184-0.183-0.48,0-0.664C7.487,18.496,7.784,18.496,7.967,18.679z"/>
		<path fill="#5F84C3" d="M4.132,4.99c0.76-0.76,1.992-0.76,2.752,0c0.759,0.759,0.759,1.991,0,2.751c-0.76,0.76-1.994,0.76-2.752,0
			C3.371,6.981,3.371,5.749,4.132,4.99z"/>
		<path fill="#5F84C3" d="M18.912,19.762c0.76-0.759,1.992-0.759,2.751,0c0.761,0.759,0.761,1.991,0,2.751
			c-0.76,0.76-1.991,0.76-2.751,0S18.152,20.521,18.912,19.762z"/>
		<path fill="#5F84C3" d="M7.275,8.132c0.184-0.183,0.481-0.183,0.664,0c0.183,0.184,0.183,0.48,0,0.664s-0.481,0.184-0.664,0
			C7.091,8.612,7.091,8.315,7.275,8.132z"/>
		<path fill="#5F84C3" d="M8.43,9.287c0.184-0.185,0.481-0.185,0.665,0s0.184,0.481,0,0.665c-0.184,0.182-0.481,0.182-0.665,0
			C8.247,9.769,8.247,9.472,8.43,9.287z"/>
		<path fill="#5F84C3" d="M16.672,17.524c0.184-0.184,0.481-0.184,0.664,0c0.183,0.182,0.183,0.479,0,0.662
			c-0.183,0.185-0.48,0.185-0.664,0C16.488,18.004,16.488,17.706,16.672,17.524z"/>
		<path fill="#5F84C3" d="M17.828,18.679c0.184-0.185,0.48-0.185,0.664,0c0.185,0.184,0.185,0.48,0,0.664
			c-0.184,0.184-0.479,0.184-0.664,0C17.644,19.159,17.644,18.862,17.828,18.679z"/>
	</g>
</g>
</svg>
