<?xml version="1.0" encoding="utf-8"?>
<!-- Generator: Adobe Illustrator 15.0.0, SVG Export Plug-In . SVG Version: 6.00 Build 0)  -->
<!DOCTYPE svg PUBLIC "-//W3C//DTD SVG 1.1//EN" "http://www.w3.org/Graphics/SVG/1.1/DTD/svg11.dtd">
<svg version="1.1" id="Layer_1" xmlns="http://www.w3.org/2000/svg" xmlns:xlink="http://www.w3.org/1999/xlink" x="0px" y="0px"
	 width="100px" height="45px" viewBox="0 0 100 45" enable-background="new 0 0 100 45" xml:space="preserve">
<g>
	<path fill="#5F85C4" d="M2.218,30.731c0-0.237,0.082-0.438,0.248-0.604c0.164-0.165,0.365-0.247,0.604-0.247
		c0.237,0,0.44,0.082,0.611,0.247c0.17,0.165,0.255,0.366,0.255,0.604v9.131c0,0.237-0.085,0.438-0.255,0.604
		c-0.171,0.165-0.374,0.247-0.611,0.247c-0.238,0-0.439-0.082-0.604-0.247C2.3,40.301,2.218,40.1,2.218,39.862V30.731z"/>
	<path opacity="0.5" fill="#5F85C4" d="M6.798,40.713c-0.021-0.02-0.044-0.03-0.069-0.03S6.69,40.662,6.69,40.621
		c-0.021-0.021-0.03-0.047-0.03-0.078v-7.227c0-0.124,0.064-0.186,0.193-0.186s0.193,0.062,0.193,0.186v1.393
		c0.269-0.475,0.64-0.856,1.114-1.146c0.475-0.288,0.995-0.433,1.562-0.433c0.836,0,1.553,0.299,2.151,0.896
		c0.599,0.6,0.897,1.321,0.897,2.167v4.317c0,0.135-0.064,0.201-0.193,0.201s-0.193-0.066-0.193-0.201v-4.317
		c0-0.743-0.261-1.374-0.781-1.896c-0.521-0.521-1.148-0.781-1.881-0.781s-1.361,0.26-1.888,0.781s-0.789,1.152-0.789,1.896v4.317
		c0,0.135-0.062,0.201-0.186,0.201H6.798z"/>
	<path opacity="0.5" fill="#5F85C4" d="M22.97,40.512c0,0.135-0.067,0.201-0.201,0.201c-0.052,0-0.096-0.02-0.131-0.062
		c-0.037-0.041-0.055-0.087-0.055-0.14V38.64c-0.31,0.619-0.756,1.12-1.339,1.501c-0.583,0.382-1.225,0.572-1.927,0.572
		c-1.021,0-1.891-0.373-2.607-1.121s-1.075-1.643-1.075-2.686c0-1.042,0.358-1.932,1.075-2.67c0.717-0.736,1.587-1.105,2.607-1.105
		c0.702,0,1.344,0.19,1.927,0.572s1.029,0.887,1.339,1.517v-5.106c0-0.053,0.021-0.104,0.062-0.155
		c0.041-0.052,0.082-0.077,0.123-0.077c0.134,0,0.201,0.077,0.201,0.232V40.512z M22.583,36.906v-0.139
		c-0.031-0.898-0.366-1.664-1.006-2.299s-1.403-0.951-2.29-0.951c-0.888,0-1.653,0.33-2.299,0.99
		c-0.645,0.66-0.967,1.46-0.967,2.398c0,0.939,0.322,1.744,0.967,2.414c0.646,0.671,1.419,1.006,2.321,1.006
		c0.903,0,1.674-0.335,2.314-1.006C22.264,38.65,22.583,37.846,22.583,36.906z"/>
	<path opacity="0.5" fill="#5F85C4" d="M33.138,36.628v0.062c-0.021,0.124-0.083,0.186-0.186,0.186h-6.748v0.047
		c0,0.929,0.322,1.726,0.968,2.391c0.645,0.666,1.421,1.004,2.329,1.014c0.567,0,1.091-0.139,1.57-0.418
		c0.479-0.278,0.864-0.654,1.153-1.129c0.072-0.104,0.162-0.119,0.271-0.047s0.126,0.16,0.055,0.264
		c-0.331,0.516-0.767,0.931-1.309,1.245c-0.541,0.315-1.121,0.472-1.74,0.472c-1.012-0.01-1.873-0.384-2.585-1.121
		c-0.712-0.738-1.078-1.628-1.099-2.67c0.021-1.053,0.387-1.947,1.099-2.686c0.712-0.736,1.561-1.105,2.546-1.105
		s1.826,0.335,2.522,1.006C32.681,34.807,33.066,35.637,33.138,36.628z M31.667,34.384c-0.619-0.567-1.344-0.851-2.174-0.851
		c-0.831,0-1.559,0.283-2.183,0.851s-0.987,1.274-1.091,2.12h6.531C32.648,35.658,32.287,34.951,31.667,34.384z"/>
	<path opacity="0.5" fill="#5F85C4" d="M35.785,43.824V33.332c0-0.135,0.064-0.201,0.193-0.201s0.193,0.066,0.193,0.201v1.872
		c0.299-0.63,0.74-1.132,1.323-1.509s1.22-0.564,1.911-0.564c1.021,0,1.886,0.363,2.592,1.09c0.707,0.729,1.061,1.613,1.061,2.654
		c0,1.043-0.354,1.93-1.061,2.662c-0.706,0.732-1.57,1.1-2.592,1.1c-0.691,0-1.328-0.189-1.911-0.565s-1.024-0.874-1.323-1.493
		v5.246c0,0.134-0.064,0.201-0.193,0.201S35.785,43.958,35.785,43.824z M36.171,36.736v0.139c0,0.93,0.317,1.721,0.952,2.376
		c0.634,0.655,1.395,0.982,2.282,0.982c0.887,0,1.65-0.327,2.29-0.982s0.96-1.444,0.96-2.368c0-0.923-0.32-1.715-0.96-2.375
		s-1.396-0.99-2.267-0.99c-0.872,0-1.625,0.314-2.26,0.943C36.535,35.091,36.203,35.85,36.171,36.736z"/>
	<path opacity="0.5" fill="#5F85C4" d="M52.777,36.628v0.062c-0.021,0.124-0.084,0.186-0.186,0.186h-6.749v0.047
		c0,0.929,0.322,1.726,0.968,2.391c0.645,0.666,1.421,1.004,2.329,1.014c0.567,0,1.091-0.139,1.57-0.418
		c0.479-0.278,0.864-0.654,1.153-1.129c0.072-0.104,0.162-0.119,0.271-0.047c0.107,0.072,0.125,0.16,0.055,0.264
		c-0.332,0.516-0.768,0.931-1.309,1.245c-0.541,0.315-1.121,0.472-1.74,0.472c-1.012-0.01-1.873-0.384-2.585-1.121
		c-0.712-0.738-1.078-1.628-1.099-2.67c0.021-1.053,0.387-1.947,1.099-2.686c0.712-0.736,1.561-1.105,2.546-1.105
		s1.826,0.335,2.522,1.006C52.32,34.807,52.705,35.637,52.777,36.628z M51.307,34.384c-0.62-0.567-1.344-0.851-2.174-0.851
		c-0.831,0-1.559,0.283-2.183,0.851s-0.987,1.274-1.091,2.12h6.532C52.287,35.658,51.926,34.951,51.307,34.384z"/>
	<path opacity="0.5" fill="#5F85C4" d="M55.562,40.713c-0.021-0.02-0.045-0.03-0.07-0.03s-0.039-0.021-0.039-0.062
		c-0.02-0.021-0.029-0.047-0.029-0.078v-7.227c0-0.124,0.064-0.186,0.193-0.186s0.193,0.062,0.193,0.186v1.393
		c0.268-0.475,0.639-0.856,1.113-1.146c0.475-0.288,0.996-0.433,1.562-0.433c0.836,0,1.553,0.299,2.152,0.896
		c0.598,0.6,0.896,1.321,0.896,2.167v4.317c0,0.135-0.064,0.201-0.193,0.201s-0.193-0.066-0.193-0.201v-4.317
		c0-0.743-0.26-1.374-0.781-1.896s-1.148-0.781-1.881-0.781s-1.361,0.26-1.887,0.781c-0.527,0.521-0.789,1.152-0.789,1.896v4.317
		c0,0.135-0.062,0.201-0.186,0.201H55.562z"/>
	<path opacity="0.5" fill="#5F85C4" d="M71.734,40.512c0,0.135-0.068,0.201-0.201,0.201c-0.053,0-0.096-0.02-0.131-0.062
		c-0.037-0.041-0.055-0.087-0.055-0.14V38.64c-0.311,0.619-0.756,1.12-1.34,1.501c-0.582,0.382-1.225,0.572-1.926,0.572
		c-1.021,0-1.891-0.373-2.607-1.121s-1.076-1.643-1.076-2.686c0-1.042,0.359-1.932,1.076-2.67c0.717-0.736,1.586-1.105,2.607-1.105
		c0.701,0,1.344,0.19,1.926,0.572c0.584,0.382,1.029,0.887,1.34,1.517v-5.106c0-0.053,0.02-0.104,0.062-0.155
		c0.041-0.052,0.082-0.077,0.123-0.077c0.133,0,0.201,0.077,0.201,0.232V40.512z M71.348,36.906v-0.139
		c-0.031-0.898-0.367-1.664-1.006-2.299c-0.641-0.635-1.404-0.951-2.291-0.951s-1.652,0.33-2.299,0.99
		c-0.645,0.66-0.967,1.46-0.967,2.398c0,0.939,0.322,1.744,0.967,2.414c0.646,0.671,1.42,1.006,2.322,1.006s1.674-0.335,2.314-1.006
		C71.027,38.65,71.348,37.846,71.348,36.906z"/>
	<path opacity="0.5" fill="#5F85C4" d="M81.902,36.628v0.062c-0.021,0.124-0.084,0.186-0.186,0.186h-6.748v0.047
		c0,0.929,0.322,1.726,0.967,2.391c0.645,0.666,1.422,1.004,2.33,1.014c0.566,0,1.09-0.139,1.57-0.418
		c0.479-0.278,0.863-0.654,1.152-1.129c0.072-0.104,0.162-0.119,0.271-0.047c0.107,0.072,0.125,0.16,0.055,0.264
		c-0.332,0.516-0.768,0.931-1.309,1.245c-0.541,0.315-1.121,0.472-1.74,0.472c-1.012-0.01-1.873-0.384-2.586-1.121
		c-0.711-0.738-1.078-1.628-1.098-2.67c0.02-1.053,0.387-1.947,1.098-2.686c0.713-0.736,1.561-1.105,2.547-1.105
		c0.984,0,1.826,0.335,2.521,1.006C81.445,34.807,81.83,35.637,81.902,36.628z M80.432,34.384c-0.619-0.567-1.344-0.851-2.174-0.851
		c-0.832,0-1.559,0.283-2.184,0.851c-0.623,0.567-0.986,1.274-1.09,2.12h6.531C81.412,35.658,81.051,34.951,80.432,34.384z"/>
	<path opacity="0.5" fill="#5F85C4" d="M84.688,40.713c-0.021-0.02-0.045-0.03-0.07-0.03s-0.039-0.021-0.039-0.062
		c-0.02-0.021-0.029-0.047-0.029-0.078v-7.227c0-0.124,0.064-0.186,0.193-0.186s0.193,0.062,0.193,0.186v1.393
		c0.268-0.475,0.639-0.856,1.113-1.146c0.475-0.288,0.996-0.433,1.562-0.433c0.836,0,1.553,0.299,2.152,0.896
		c0.598,0.6,0.896,1.321,0.896,2.167v4.317c0,0.135-0.064,0.201-0.193,0.201s-0.193-0.066-0.193-0.201v-4.317
		c0-0.743-0.26-1.374-0.781-1.896s-1.148-0.781-1.881-0.781s-1.361,0.26-1.887,0.781c-0.527,0.521-0.789,1.152-0.789,1.896v4.317
		c0,0.135-0.062,0.201-0.186,0.201H84.688z"/>
	<path opacity="0.5" fill="#5F85C4" d="M96.371,33.131c0.135,0,0.201,0.064,0.201,0.193s-0.066,0.193-0.201,0.193h-1.238v6.035
		c0,0.217,0.078,0.402,0.232,0.557c0.154,0.155,0.32,0.232,0.496,0.232c0.174,0,0.262,0.064,0.262,0.193s-0.066,0.193-0.201,0.193
		c-0.318,0-0.596-0.115-0.828-0.348c-0.23-0.232-0.348-0.508-0.348-0.828v-6.035h-1.299c-0.135,0-0.201-0.064-0.201-0.193
		s0.066-0.193,0.201-0.193h1.299v-3.033c0-0.135,0.064-0.201,0.193-0.201s0.193,0.066,0.193,0.201v3.033H96.371z"/>
</g>
<g>
	<path fill="#5F85C4" d="M3.339,20.026c1.569,0,2.841-1.271,2.841-2.84s-1.271-2.84-2.841-2.84c-1.567,0-2.839,1.272-2.839,2.84
		C0.5,18.754,1.771,20.026,3.339,20.026"/>
	<path fill="#5F85C4" d="M3.339,26.387c1.569,0,2.841-1.271,2.841-2.84s-1.271-2.84-2.841-2.84c-1.567,0-2.839,1.271-2.839,2.84
		S1.771,26.387,3.339,26.387"/>
	<path fill="#5F85C4" d="M9.7,20.026c1.568,0,2.839-1.271,2.839-2.84s-1.271-2.839-2.839-2.839s-2.84,1.271-2.84,2.839
		C6.86,18.754,8.132,20.026,9.7,20.026"/>
	<path fill="#5F85C4" d="M9.7,26.387c1.568,0,2.839-1.271,2.839-2.84s-1.271-2.84-2.839-2.84s-2.84,1.271-2.84,2.84
		S8.132,26.387,9.7,26.387"/>
	<path fill="#5F85C4" d="M12.88,7.305c1.569,0,2.84-1.271,2.84-2.839s-1.271-2.839-2.84-2.839c-1.567,0-2.839,1.271-2.839,2.839
		S11.312,7.305,12.88,7.305"/>
	<path fill="#5F85C4" d="M16.061,20.026c1.568,0,2.84-1.271,2.84-2.84s-1.271-2.84-2.84-2.84s-2.84,1.271-2.84,2.84
		S14.492,20.026,16.061,20.026"/>
	<path fill="#5F85C4" d="M16.061,26.387c1.568,0,2.84-1.271,2.84-2.84s-1.271-2.84-2.84-2.84s-2.84,1.271-2.84,2.84
		S14.492,26.387,16.061,26.387"/>
	<path fill="#5F85C4" d="M22.421,20.026c1.568,0,2.839-1.271,2.839-2.84s-1.271-2.84-2.839-2.84c-1.567,0-2.84,1.271-2.84,2.84
		S20.854,20.026,22.421,20.026"/>
	<path fill="#5F85C4" d="M22.421,26.387c1.568,0,2.839-1.271,2.839-2.84s-1.271-2.84-2.839-2.84c-1.567,0-2.84,1.271-2.84,2.84
		S20.854,26.387,22.421,26.387"/>
</g>
</svg>
