<?xml version="1.0" encoding="utf-8"?>
<!-- Generator: Adobe Illustrator 15.0.0, SVG Export Plug-In . SVG Version: 6.00 Build 0)  -->
<!DOCTYPE svg PUBLIC "-//W3C//DTD SVG 1.1//EN" "http://www.w3.org/Graphics/SVG/1.1/DTD/svg11.dtd">
<svg version="1.1"
	 id="svg7226" xmlns:svg="http://www.w3.org/2000/svg" xmlns:rdf="http://www.w3.org/1999/02/22-rdf-syntax-ns#" xmlns:cc="http://creativecommons.org/ns#" xmlns:dc="http://purl.org/dc/elements/1.1/"
	 xmlns="http://www.w3.org/2000/svg" xmlns:xlink="http://www.w3.org/1999/xlink" x="0px" y="0px" width="100px" height="100px"
	 viewBox="-40 -36.665 100 100" enable-background="new -40 -36.665 100 100" xml:space="preserve">
<g id="g3049" transform="matrix(0.09559336,0,0,0.09559336,128.59748,-13.762703)">
</g>
<g id="g3349" transform="matrix(0.17149019,0,0,0.17149019,-151.50955,-152.33348)">
	<path id="path5883-1" fill="#FFFFFF" d="M650.24,932.554h16.03v11.005h0.242c3.474-6.463,7.303-12.67,17.468-12.67
		c1.068,0,2.149,0.114,3.217,0.228v16.998c-1.423-0.242-3.217-0.242-4.783-0.242c-13.041,0-15.433,8.129-15.433,15.19v33.143H650.24
		V932.554z"/>
	<path id="path5885-9" fill="#FFFFFF" d="M749.183,977.527c-4.427,15.318-17.112,20.358-28.003,20.358
		c-17.938,0-31.705-8.627-31.705-34.823c0-7.659,2.648-32.188,30.509-32.188c12.571,0,29.911,5.993,29.911,35.064v2.99h-43.663
		c0.484,4.783,1.438,15.546,14.948,15.546c4.669,0,9.453-2.392,10.777-6.947H749.183L749.183,977.527z M732.669,958.037
		c-0.954-10.293-7.531-13.396-12.913-13.396c-7.901,0-12.086,5.025-13.041,13.396H732.669z"/>
	<path id="path5887-9" fill="#FFFFFF" d="M815.696,977.527c-4.427,15.318-17.098,20.358-27.989,20.358
		c-17.952,0-31.705-8.627-31.705-34.823c0-7.659,2.634-32.188,30.509-32.188c12.557,0,29.911,5.993,29.911,35.064v2.99h-43.663
		c0.47,4.783,1.424,15.546,14.948,15.546c4.669,0,9.453-2.392,10.763-6.947H815.696L815.696,977.527z M799.196,958.037
		c-0.968-10.293-7.545-13.396-12.927-13.396c-7.901,0-12.086,5.025-13.041,13.396H799.196z"/>
	<path id="path5889-3" fill="#FFFFFF" d="M844.781,996.205h-16.756v-85.903h16.756V996.205z"/>
	<path id="path5891-28" fill="#FFFFFF" d="M893.826,995.123c-7.901,23.575-10.051,26.679-24.644,26.679
		c-2.278,0-5.139-0.114-7.531-0.228v-13.411c0.712,0.142,1.794,0.256,3.218,0.256c6.107,0,9.453-0.854,11.019-9.567l-23.462-66.299
		h18.678l13.639,46.892h0.228l13.041-46.892h17.71L893.826,995.123z"/>
	<path id="path5893-3" fill="#FFFFFF" d="M940.364,971.189l-8.969,25.016h-11.958l32.302-85.903h13.154l31.121,85.903h-12.699
		l-8.485-25.016H940.364z M970.617,960.913l-12.67-37.812h-0.228l-13.767,37.812H970.617z"/>
	<path id="path5895-73" fill="#FFFFFF" d="M1042.055,954.692c-1.31-8.385-5.979-13.411-14.834-13.411
		c-13.041,0-17.226,12.443-17.226,23.576c0,10.763,2.648,24.031,17.112,24.031c7.062,0,13.154-5.239,14.948-14.817h10.165
		c-1.082,9.92-7.175,23.929-25.455,23.929c-17.596,0-28.017-13.268-28.017-31.349c0-19.376,9.339-34.808,30.039-34.808
		c16.372,0,22.608,11.959,23.434,22.85H1042.055L1042.055,954.692z"/>
	<path id="path5897-7" fill="#FFFFFF" d="M1075.682,942.363v40.659c0,4.926,4.186,4.926,6.35,4.926h3.701v8.257
		c-3.844,0.37-6.805,0.826-7.887,0.826c-10.421,0-12.699-5.865-12.699-13.382v-41.286h-8.485v-8.727h8.485v-17.468h10.535v17.468
		h10.051v8.727H1075.682L1075.682,942.363z"/>
	<rect id="rect5899-2" x="1096.268" y="910.303" fill="#FFFFFF" width="10.506" height="11.959"/>
	<rect id="rect5901-15" x="1096.268" y="933.636" fill="#FFFFFF" width="10.506" height="62.569"/>
	<path id="path5903-8" fill="#FFFFFF" d="M1162.182,933.636h11.503l-23.832,62.569h-11.247l-22.835-62.569h12.187l16.286,50.952
		h0.228L1162.182,933.636z"/>
	<path id="path5905-2" fill="#FFFFFF" d="M1232.51,976.587c-0.342,2.99-3.217,11.845-11.104,17.084
		c-2.875,1.936-6.947,4.328-16.998,4.328c-17.568,0-27.989-13.268-27.989-31.349c0-19.376,9.339-34.808,30.011-34.808
		c18.08,0,26.935,14.35,26.935,36.488h-45.699c0,13.041,6.122,20.557,18.194,20.557c9.908,0,15.774-7.631,16.144-12.312h10.506
		V976.587z M1222.488,959.959c-0.626-9.695-4.669-18.678-17.482-18.678c-9.681,0-17.34,8.983-17.34,18.678H1222.488z"/>
	<rect id="rect5907-2" x="650.254" y="1008.164" fill="#FFFFFF" width="194.527" height="13.411"/>
	<rect id="rect5909-5" x="906.04" y="1008.164" fill="#FFFFFF" width="326.47" height="13.411"/>
</g>
</svg>
