<?xml version="1.0" encoding="utf-8"?>
<!-- Generator: Adobe Illustrator 15.0.0, SVG Export Plug-In . SVG Version: 6.00 Build 0)  -->
<!DOCTYPE svg PUBLIC "-//W3C//DTD SVG 1.1//EN" "http://www.w3.org/Graphics/SVG/1.1/DTD/svg11.dtd">
<svg version="1.1"
	 id="svg9683" sodipodi:docname="logo.svg" inkscape:version="0.48.3.1 r9886" xmlns:sodipodi="http://sodipodi.sourceforge.net/DTD/sodipodi-0.dtd" xmlns:inkscape="http://www.inkscape.org/namespaces/inkscape" xmlns:rdf="http://www.w3.org/1999/02/22-rdf-syntax-ns#" xmlns:svg="http://www.w3.org/2000/svg" xmlns:cc="http://creativecommons.org/ns#" xmlns:dc="http://purl.org/dc/elements/1.1/"
	 xmlns="http://www.w3.org/2000/svg" xmlns:xlink="http://www.w3.org/1999/xlink" x="0px" y="0px" width="32px" height="32px"
	 viewBox="52 31.5 32 32" enable-background="new 52 31.5 32 32" xml:space="preserve">
<sodipodi:namedview  bordercolor="#666666" borderopacity="1" objecttolerance="10" pagecolor="#ffffff" gridtolerance="10" guidetolerance="10" inkscape:pageopacity="0" inkscape:pageshadow="2" inkscape:window-width="1440" inkscape:window-height="841" id="namedview42" showgrid="false" inkscape:cy="21.359027" inkscape:zoom="1.3768962" inkscape:cx="129.61892" inkscape:window-x="0" inkscape:window-y="27" inkscape:window-maximized="1" inkscape:current-layer="svg9683">
	</sodipodi:namedview>
<g id="g8788" transform="matrix(0.49089616,0,0,0.49089616,-471.72275,2381.7299)">
	
		<path id="path6-4-58-5-3-6" inkscape:connector-curvature="0" fill="none" stroke="#E26964" stroke-width="2" stroke-linecap="round" stroke-miterlimit="5.3333" d="
		M1099.176-4745.153c-0.272,0.505-1.18,3.117-3.575,3.124c-2.407,0.008-3.389-2.622-3.704-3.124c-0.313-0.5-1.294-3.127-3.702-3.121
		c-2.414,0.008-3.277,2.62-3.573,3.121c-0.297,0.505-1.16,3.117-3.574,3.124c-2.407,0.008-3.389-2.622-3.703-3.124
		c-0.314-0.5-1.295-3.127-3.703-3.121c-2.396,0.008-3.303,2.62-3.573,3.121"/>
	
		<path id="path6-4-3-49-1-6-9" inkscape:connector-curvature="0" fill="none" stroke="#E26964" stroke-width="2" stroke-linecap="round" stroke-miterlimit="5.3333" d="
		M1129.11-4745.199c-0.28,0.503-1.217,3.116-3.692,3.122c-2.487,0.008-3.497-2.622-3.824-3.122
		c-0.324-0.501-1.339-3.129-3.823-3.123c-2.491,0.006-3.382,2.62-3.69,3.123c-0.306,0.503-1.196,3.116-3.688,3.122
		c-2.487,0.008-3.501-2.622-3.825-3.122c-0.326-0.501-1.335-3.129-3.822-3.123c-2.475,0.006-3.412,2.62-3.69,3.123"/>
</g>
<path id="path6-4-3-4-2-1-1-6-8" inkscape:connector-curvature="0" sodipodi:nodetypes="cccsc" opacity="0.9867" fill="none" stroke="#5A8AE2" stroke-width="2" stroke-linecap="round" stroke-miterlimit="5.3333" enable-background="new    " d="
	M82.51,52.543c-0.589,0.822-2.302,5.082-7.096,5.093c-4.78,0.01-6.729-4.275-7.353-5.093c-0.626-0.814-2.573-5.1-7.354-5.09
	c-4.756,0.01-6.558,4.271-7.095,5.09"/>
<path id="path9583-7-5" sodipodi:ry="88.523293" sodipodi:rx="88.523293" sodipodi:cy="1741.7562" sodipodi:type="arc" sodipodi:cx="-1285.7468" sodipodi:start="0" sodipodi:end="3.1519846" sodipodi:open="true" fill="none" stroke="#5DD3AC" stroke-width="2" stroke-linecap="round" stroke-miterlimit="5.3333" d="
	M82.616,52.559c0-8.392-6.544-15.195-14.616-15.195c-8.073,0-14.617,6.803-14.617,15.195c0,0.053,0,0.105,0,0.158"/>
</svg>
