<?xml version="1.0" encoding="utf-8"?>
<!-- Generator: Adobe Illustrator 15.0.0, SVG Export Plug-In . SVG Version: 6.00 Build 0)  -->
<!DOCTYPE svg PUBLIC "-//W3C//DTD SVG 1.1//EN" "http://www.w3.org/Graphics/SVG/1.1/DTD/svg11.dtd">
<svg version="1.1"
	 id="svg7226" xmlns:svg="http://www.w3.org/2000/svg" xmlns:rdf="http://www.w3.org/1999/02/22-rdf-syntax-ns#" xmlns:cc="http://creativecommons.org/ns#" xmlns:dc="http://purl.org/dc/elements/1.1/"
	 xmlns="http://www.w3.org/2000/svg" xmlns:xlink="http://www.w3.org/1999/xlink" x="0px" y="0px" width="100px" height="100px"
	 viewBox="0 0 100 100" enable-background="new 0 0 100 100" xml:space="preserve">
<g>
	<path fill="#FFFFFF" d="M48.97,35.877c0,1.424-1.177,2.577-2.626,2.577H20c-1.449,0-2.627-1.153-2.627-2.577V23.064
		c0-1.423,1.178-2.577,2.627-2.577h26.344c1.449,0,2.626,1.154,2.626,2.577V35.877L48.97,35.877z"/>
	<path fill="#FFFFFF" d="M83.188,35.877c0,1.424-1.174,2.577-2.625,2.577H54.219c-1.45,0-2.624-1.153-2.624-2.577V23.064
		c0-1.423,1.174-2.577,2.624-2.577h26.345c1.45,0,2.626,1.154,2.626,2.577v12.812H83.188z"/>
	<path fill="#FFFFFF" d="M48.97,76.937c0,1.424-1.177,2.576-2.626,2.576H20c-1.449,0-2.627-1.152-2.627-2.576V64.124
		c0-1.423,1.178-2.576,2.627-2.576h26.344c1.449,0,2.626,1.153,2.626,2.576V76.937L48.97,76.937z"/>
	<path fill="#FFFFFF" d="M83.188,76.937c0,1.424-1.174,2.576-2.625,2.576H54.219c-1.45,0-2.624-1.152-2.624-2.576V64.124
		c0-1.423,1.174-2.576,2.624-2.576h26.345c1.45,0,2.626,1.153,2.626,2.576v12.812H83.188z"/>
	<path fill="#FFFFFF" d="M31.597,56.424c0,1.424-1.177,2.577-2.626,2.577H2.626C1.178,59.002,0,57.849,0,56.424V43.61
		c0-1.422,1.178-2.576,2.626-2.576h26.344c1.45,0,2.626,1.154,2.626,2.576V56.424z"/>
	<path fill="#FFFFFF" d="M65.815,56.424c0,1.424-1.175,2.577-2.626,2.577H36.846c-1.45,0-2.624-1.153-2.624-2.577V43.61
		c0-1.422,1.174-2.576,2.624-2.576H63.19c1.451,0,2.626,1.154,2.626,2.576L65.815,56.424L65.815,56.424z"/>
	<path fill="#FFFFFF" d="M100,56.424c0,1.424-1.176,2.577-2.627,2.577H71.029c-1.451,0-2.625-1.153-2.625-2.577V43.61
		c0-1.422,1.174-2.576,2.625-2.576h26.344c1.451,0,2.627,1.154,2.627,2.576V56.424z"/>
</g>
</svg>
