<?xml version="1.0" encoding="utf-8"?>
<!-- Generator: Adobe Illustrator 15.0.0, SVG Export Plug-In . SVG Version: 6.00 Build 0)  -->
<!DOCTYPE svg PUBLIC "-//W3C//DTD SVG 1.1//EN" "http://www.w3.org/Graphics/SVG/1.1/DTD/svg11.dtd">
<svg version="1.1"
	 id="svg7226" xmlns:svg="http://www.w3.org/2000/svg" xmlns:rdf="http://www.w3.org/1999/02/22-rdf-syntax-ns#" xmlns:cc="http://creativecommons.org/ns#" xmlns:dc="http://purl.org/dc/elements/1.1/"
	 xmlns="http://www.w3.org/2000/svg" xmlns:xlink="http://www.w3.org/1999/xlink" x="0px" y="0px" width="100px" height="100px"
	 viewBox="-40 -36.665 100 100" enable-background="new -40 -36.665 100 100" xml:space="preserve">
<g id="g3007" transform="matrix(0.24746962,0,0,0.24746962,-9.2966537,7.2943084)">
	<path id="path3" fill="#FFFFFF" d="M223.298,116.111c-8.611-8.611-13.749-20.094-14.423-32.248l-7.194-129.551
		c0-54.288-46.616-99.051-107.017-106.121c0.391-2.668-0.193-5.874-0.193-9.337c0-9.116-7.387-16.487-16.495-16.487
		c-9.116,0-16.495,7.372-16.495,16.487c0,3.463-0.594,6.669-0.195,9.337C0.885-144.75-45.729-99.976-45.729-45.698l-7.194,129.561
		c-0.673,12.154-5.811,23.637-14.423,32.248l-36.107,36.127v16.495h362.86v-16.495L223.298,116.111z"/>
	<path id="path5" fill="#FFFFFF" d="M77.976,226.454c22.785,0,41.246-18.46,41.246-41.246H36.738
		C36.738,207.994,55.208,226.454,77.976,226.454"/>
</g>
</svg>
