<?xml version="1.0" encoding="utf-8"?>
<!-- Generator: Adobe Illustrator 15.0.0, SVG Export Plug-In . SVG Version: 6.00 Build 0)  -->
<!DOCTYPE svg PUBLIC "-//W3C//DTD SVG 1.1//EN" "http://www.w3.org/Graphics/SVG/1.1/DTD/svg11.dtd">
<svg version="1.1" id="Layer_1" xmlns="http://www.w3.org/2000/svg" xmlns:xlink="http://www.w3.org/1999/xlink" x="0px" y="0px"
	 width="267.092px" height="75.722px" viewBox="-55.723 -13.89 267.092 75.722"
	 enable-background="new -55.723 -13.89 267.092 75.722" xml:space="preserve">
<g>
	<path fill="#5F84C3" d="M-52.95,51.97V36.242c0-0.408,0.142-0.755,0.426-1.039s0.631-0.427,1.04-0.427h3.146
		c2.577,0,4.771,0.911,6.584,2.732c1.812,1.821,2.719,4.021,2.719,6.598s-0.906,4.776-2.719,6.598
		c-1.813,1.821-4.008,2.731-6.584,2.731h-3.146c-0.409,0-0.755-0.142-1.04-0.426S-52.95,52.379-52.95,51.97z M-49.991,37.735v12.742
		h1.652c1.76-0.018,3.256-0.645,4.492-1.88c1.235-1.234,1.853-2.732,1.853-4.491c0-1.76-0.618-3.261-1.853-4.505
		c-1.235-1.244-2.732-1.866-4.492-1.866H-49.991z"/>
	<path opacity="0.5" fill="#5F84C3" d="M-34.051,37.148v-0.64c0-0.23,0.11-0.347,0.333-0.347c0.222,0,0.333,0.116,0.333,0.347v0.64
		c0,0.09-0.031,0.165-0.093,0.227c-0.062,0.062-0.138,0.094-0.227,0.094C-33.936,37.469-34.051,37.362-34.051,37.148z
		 M-34.051,53.09V40.694c0-0.214,0.11-0.32,0.333-0.32c0.222,0,0.333,0.106,0.333,0.32V53.09c0,0.089-0.031,0.169-0.093,0.239
		c-0.062,0.071-0.138,0.106-0.227,0.106C-33.936,53.436-34.051,53.32-34.051,53.09z"/>
	<path opacity="0.5" fill="#5F84C3" d="M-21.603,34.75c0.23,0,0.347,0.111,0.347,0.333c0,0.223-0.116,0.333-0.347,0.333
		c-0.924,0-1.582,0.218-1.973,0.653c-0.391,0.436-0.586,1.249-0.586,2.439v1.759h2.239c0.213,0,0.32,0.116,0.32,0.347
		c0,0.231-0.107,0.347-0.32,0.347h-2.239v12.102c0,0.231-0.116,0.347-0.347,0.347s-0.346-0.115-0.346-0.347V40.961h-2.133
		c-0.231,0-0.347-0.115-0.347-0.347c0-0.23,0.116-0.347,0.347-0.347h2.133v-1.759c0-1.333,0.262-2.293,0.786-2.879
		C-23.545,35.043-22.722,34.75-21.603,34.75z"/>
	<path opacity="0.5" fill="#5F84C3" d="M-5.262,46.398v0.107c-0.036,0.213-0.143,0.319-0.32,0.319h-11.623v0.08
		c0,1.6,0.555,2.972,1.667,4.118c1.11,1.146,2.448,1.729,4.012,1.746c0.977,0,1.879-0.24,2.706-0.72
		c0.826-0.479,1.488-1.128,1.986-1.946c0.124-0.177,0.28-0.203,0.466-0.079s0.217,0.275,0.093,0.453
		c-0.569,0.889-1.319,1.604-2.252,2.146s-1.933,0.812-2.999,0.812c-1.742-0.017-3.226-0.661-4.452-1.932
		c-1.227-1.271-1.857-2.804-1.893-4.599c0.035-1.812,0.666-3.354,1.893-4.625c1.226-1.271,2.688-1.906,4.385-1.906
		c1.697,0,3.146,0.578,4.345,1.733C-6.049,43.263-5.387,44.692-5.262,46.398z M-7.795,42.533c-1.066-0.977-2.314-1.466-3.745-1.466
		s-2.684,0.489-3.758,1.466c-1.076,0.978-1.702,2.195-1.879,3.652h11.249C-6.107,44.729-6.729,43.511-7.795,42.533z"/>
	<path opacity="0.5" fill="#5F84C3" d="M5.986,41.067c-2.63,0-4.638,1.973-6.024,5.918v6.104c0,0.23-0.107,0.346-0.32,0.346
		c-0.213,0-0.32-0.115-0.32-0.346v-6.104c-0.018-0.036-0.018-0.089,0-0.16v-6.104c0-0.089,0.031-0.168,0.094-0.24
		c0.062-0.07,0.137-0.106,0.227-0.106c0.213,0,0.32,0.116,0.32,0.347v4.425c0.249-0.586,0.524-1.102,0.826-1.546
		c1.439-2.149,3.172-3.226,5.198-3.226c0.231,0,0.347,0.116,0.347,0.347C6.333,40.952,6.217,41.067,5.986,41.067z"/>
	<path opacity="0.5" fill="#5F84C3" d="M22.673,46.398v0.107c-0.036,0.213-0.143,0.319-0.32,0.319H10.731v0.08
		c0,1.6,0.555,2.972,1.666,4.118c1.11,1.146,2.448,1.729,4.012,1.746c0.977,0,1.879-0.24,2.706-0.72s1.488-1.128,1.986-1.946
		c0.124-0.177,0.28-0.203,0.467-0.079c0.187,0.124,0.217,0.275,0.093,0.453c-0.569,0.889-1.32,1.604-2.252,2.146
		c-0.933,0.542-1.933,0.812-2.999,0.812c-1.742-0.017-3.226-0.661-4.452-1.932S10.1,48.7,10.065,46.905
		c0.035-1.812,0.667-3.354,1.893-4.625s2.688-1.906,4.385-1.906c1.697,0,3.146,0.578,4.345,1.733S22.549,44.692,22.673,46.398z
		 M20.141,42.533c-1.066-0.977-2.315-1.466-3.745-1.466c-1.431,0-2.684,0.489-3.759,1.466c-1.075,0.978-1.702,2.195-1.879,3.652
		h11.249C21.829,44.729,21.207,43.511,20.141,42.533z"/>
	<path opacity="0.5" fill="#5F84C3" d="M27.471,53.436c-0.036-0.035-0.076-0.053-0.12-0.053c-0.045,0-0.067-0.035-0.067-0.106
		c-0.036-0.036-0.053-0.08-0.053-0.134V40.694c0-0.214,0.111-0.32,0.333-0.32s0.333,0.106,0.333,0.32v2.399
		c0.462-0.817,1.102-1.476,1.919-1.973c0.817-0.498,1.714-0.747,2.692-0.747c1.439,0,2.675,0.516,3.706,1.546
		c1.03,1.031,1.546,2.275,1.546,3.732v7.438c0,0.23-0.111,0.346-0.333,0.346c-0.223,0-0.333-0.115-0.333-0.346v-7.438
		c0-1.279-0.449-2.368-1.346-3.266c-0.897-0.896-1.977-1.346-3.239-1.346s-2.346,0.449-3.252,1.346
		c-0.906,0.897-1.359,1.986-1.359,3.266v7.438c0,0.23-0.107,0.346-0.32,0.346H27.471z"/>
	<path opacity="0.5" fill="#5F84C3" d="M47.596,40.374c0.231,0,0.347,0.111,0.347,0.333c0,0.223-0.116,0.334-0.347,0.334h-2.132
		v10.396c0,0.373,0.133,0.693,0.4,0.96s0.551,0.399,0.853,0.399c0.302,0,0.453,0.111,0.453,0.334c0,0.222-0.116,0.333-0.347,0.333
		c-0.551,0-1.026-0.2-1.426-0.6c-0.399-0.4-0.6-0.875-0.6-1.427V41.041h-2.239c-0.231,0-0.346-0.111-0.346-0.334
		c0-0.222,0.115-0.333,0.346-0.333h2.239v-5.225c0-0.23,0.111-0.347,0.333-0.347s0.333,0.116,0.333,0.347v5.225H47.596z"/>
	<path opacity="0.5" fill="#5F84C3" d="M54.26,37.148v-0.64c0-0.23,0.111-0.347,0.333-0.347s0.333,0.116,0.333,0.347v0.64
		c0,0.09-0.031,0.165-0.093,0.227c-0.062,0.062-0.138,0.094-0.227,0.094C54.376,37.469,54.26,37.362,54.26,37.148z M54.26,53.09
		V40.694c0-0.214,0.111-0.32,0.333-0.32s0.333,0.106,0.333,0.32V53.09c0,0.089-0.031,0.169-0.093,0.239
		c-0.062,0.071-0.138,0.106-0.227,0.106C54.376,53.436,54.26,53.32,54.26,53.09z"/>
	<path opacity="0.5" fill="#5F84C3" d="M71.96,40.721c0-0.23,0.111-0.347,0.333-0.347s0.333,0.116,0.333,0.347V53.09
		c0,0.23-0.111,0.346-0.333,0.346S71.96,53.32,71.96,53.09v-3.252c-0.516,1.084-1.266,1.955-2.252,2.611
		c-0.986,0.658-2.066,0.986-3.239,0.986c-1.706,0-3.159-0.64-4.358-1.919s-1.799-2.816-1.799-4.611s0.6-3.332,1.799-4.611
		c1.2-1.28,2.652-1.92,4.358-1.92c1.173,0,2.252,0.329,3.239,0.986c0.986,0.658,1.737,1.529,2.252,2.612V40.721z M62.591,51.051
		c1.075,1.146,2.368,1.719,3.878,1.719c1.51,0,2.803-0.573,3.878-1.719c1.075-1.146,1.613-2.528,1.613-4.146
		s-0.538-2.994-1.613-4.132c-1.075-1.137-2.368-1.706-3.878-1.706c-1.511,0-2.804,0.569-3.878,1.706
		c-1.076,1.138-1.613,2.515-1.613,4.132S61.515,49.904,62.591,51.051z"/>
	<path opacity="0.5" fill="#5F84C3" d="M82.249,40.374c0.231,0,0.347,0.111,0.347,0.333c0,0.223-0.115,0.334-0.347,0.334h-2.132
		v10.396c0,0.373,0.133,0.693,0.399,0.96s0.551,0.399,0.854,0.399c0.302,0,0.453,0.111,0.453,0.334c0,0.222-0.116,0.333-0.347,0.333
		c-0.551,0-1.026-0.2-1.426-0.6c-0.4-0.4-0.601-0.875-0.601-1.427V41.041h-2.239c-0.231,0-0.347-0.111-0.347-0.334
		c0-0.222,0.116-0.333,0.347-0.333h2.239v-5.225c0-0.23,0.111-0.347,0.334-0.347c0.222,0,0.333,0.116,0.333,0.347v5.225H82.249z"/>
	<path opacity="0.5" fill="#5F84C3" d="M88.913,37.148v-0.64c0-0.23,0.111-0.347,0.334-0.347c0.222,0,0.333,0.116,0.333,0.347v0.64
		c0,0.09-0.031,0.165-0.094,0.227c-0.062,0.062-0.138,0.094-0.227,0.094C89.029,37.469,88.913,37.362,88.913,37.148z M88.913,53.09
		V40.694c0-0.214,0.111-0.32,0.334-0.32c0.222,0,0.333,0.106,0.333,0.32V53.09c0,0.089-0.031,0.169-0.094,0.239
		c-0.062,0.071-0.138,0.106-0.227,0.106C89.029,53.436,88.913,53.32,88.913,53.09z"/>
	<path opacity="0.5" fill="#5F84C3" d="M97.563,42.294c1.199-1.28,2.652-1.92,4.358-1.92s3.163,0.64,4.371,1.92
		c1.209,1.279,1.812,2.816,1.812,4.611s-0.604,3.332-1.812,4.611c-1.208,1.279-2.665,1.919-4.371,1.919s-3.159-0.64-4.358-1.919
		c-1.2-1.279-1.8-2.816-1.8-4.611S96.363,43.573,97.563,42.294z M98.043,51.051c1.075,1.146,2.368,1.719,3.879,1.719
		c1.51,0,2.808-0.573,3.892-1.719c1.084-1.146,1.626-2.528,1.626-4.146s-0.542-2.999-1.626-4.146
		c-1.084-1.146-2.382-1.719-3.892-1.719c-1.511,0-2.804,0.573-3.879,1.719c-1.075,1.146-1.612,2.528-1.612,4.146
		S96.968,49.904,98.043,51.051z"/>
	<path opacity="0.5" fill="#5F84C3" d="M113.277,53.436c-0.036-0.035-0.076-0.053-0.12-0.053c-0.045,0-0.066-0.035-0.066-0.106
		c-0.036-0.036-0.054-0.08-0.054-0.134V40.694c0-0.214,0.111-0.32,0.333-0.32c0.223,0,0.334,0.106,0.334,0.32v2.399
		c0.462-0.817,1.102-1.476,1.919-1.973c0.817-0.498,1.715-0.747,2.692-0.747c1.439,0,2.674,0.516,3.705,1.546
		c1.03,1.031,1.546,2.275,1.546,3.732v7.438c0,0.23-0.111,0.346-0.333,0.346c-0.223,0-0.333-0.115-0.333-0.346v-7.438
		c0-1.279-0.449-2.368-1.347-3.266c-0.897-0.896-1.977-1.346-3.238-1.346s-2.346,0.449-3.252,1.346
		c-0.906,0.897-1.359,1.986-1.359,3.266v7.438c0,0.23-0.107,0.346-0.32,0.346H113.277z"/>
</g>
<path fill="#5F84C3" d="M-50.831,17.803c2.703,0,4.893-2.189,4.893-4.891c0-2.703-2.189-4.892-4.893-4.892
	c-2.701,0-4.891,2.19-4.891,4.892S-53.532,17.803-50.831,17.803"/>
<path fill="#5F84C3" d="M-50.831,28.76c2.703,0,4.893-2.189,4.893-4.891c0-2.702-2.189-4.892-4.893-4.892
	c-2.701,0-4.891,2.19-4.891,4.892C-55.722,26.57-53.532,28.76-50.831,28.76"/>
<path fill="#5F84C3" d="M-39.875,17.803c2.702,0,4.891-2.189,4.891-4.891c0-2.703-2.189-4.891-4.891-4.891
	c-2.701,0-4.891,2.189-4.891,4.891S-42.575,17.803-39.875,17.803"/>
<path fill="#5F84C3" d="M-39.875,28.76c2.702,0,4.891-2.189,4.891-4.891c0-2.702-2.189-4.892-4.891-4.892
	c-2.701,0-4.891,2.19-4.891,4.892C-44.765,26.57-42.575,28.76-39.875,28.76"/>
<path fill="#5F84C3" d="M-34.396-4.109c2.702,0,4.891-2.189,4.891-4.891s-2.189-4.891-4.891-4.891c-2.701,0-4.891,2.189-4.891,4.891
	S-37.097-4.109-34.396-4.109"/>
<path fill="#5F84C3" d="M-28.918,17.803c2.703,0,4.891-2.189,4.891-4.891c0-2.703-2.188-4.892-4.891-4.892
	c-2.701,0-4.893,2.188-4.893,4.892C-33.811,15.614-31.619,17.803-28.918,17.803"/>
<path fill="#5F84C3" d="M-28.918,28.76c2.703,0,4.891-2.189,4.891-4.891c0-2.702-2.188-4.892-4.891-4.892
	c-2.701,0-4.893,2.19-4.893,4.892C-33.811,26.57-31.619,28.76-28.918,28.76"/>
<path fill="#5F84C3" d="M-17.962,17.803c2.701,0,4.89-2.189,4.89-4.891c0-2.703-2.189-4.892-4.89-4.892
	c-2.701,0-4.893,2.188-4.893,4.892C-22.854,15.614-20.663,17.803-17.962,17.803"/>
<path fill="#5F84C3" d="M-17.962,28.76c2.701,0,4.89-2.189,4.89-4.891c0-2.702-2.189-4.892-4.89-4.892
	c-2.701,0-4.893,2.19-4.893,4.892C-22.854,26.57-20.663,28.76-17.962,28.76"/>
</svg>
