<?xml version="1.0" encoding="utf-8"?>
<!-- Generator: Adobe Illustrator 15.0.0, SVG Export Plug-In . SVG Version: 6.00 Build 0)  -->
<!DOCTYPE svg PUBLIC "-//W3C//DTD SVG 1.1//EN" "http://www.w3.org/Graphics/SVG/1.1/DTD/svg11.dtd">
<svg version="1.1"
	 id="svg7226" xmlns:dc="http://purl.org/dc/elements/1.1/" xmlns:svg="http://www.w3.org/2000/svg" xmlns:cc="http://creativecommons.org/ns#" xmlns:rdf="http://www.w3.org/1999/02/22-rdf-syntax-ns#"
	 xmlns="http://www.w3.org/2000/svg" xmlns:xlink="http://www.w3.org/1999/xlink" x="0px" y="0px" width="100px" height="100px"
	 viewBox="0 0 100 100" enable-background="new 0 0 100 100" xml:space="preserve">
<g transform="translate(0,-952.36216)">
	<path fill="#FFFFFF" d="M66.828,1036.077c6.303,1.057,12.613-1.896,15.85-7.417c3.236-5.521,2.734-12.479-1.262-17.477
		c-3.994-4.999-10.662-7.012-16.748-5.059c-6.088,1.954-10.348,7.474-10.697,13.866l2.08,0.115
		c0.305-5.537,3.98-10.304,9.252-11.996c5.271-1.691,11.029,0.046,14.488,4.375s3.895,10.337,1.092,15.119
		c-2.803,4.781-8.252,7.332-13.711,6.416L66.828,1036.077L66.828,1036.077z"/>
	<path fill="#FFFFFF" d="M69.393,1029.28l-5.207,6.383l6.373,5.219l1.318-1.615l-4.762-3.896l3.893-4.774L69.393,1029.28
		L69.393,1029.28z"/>
	<path fill="#FFFFFF" d="M68.951,990.264c-17.135,0-31.049,13.914-31.049,31.05c0,17.135,13.915,31.049,31.049,31.049
		S100,1038.448,100,1021.313C100,1004.178,86.086,990.264,68.951,990.264z M68.951,992.347c16.01,0,28.965,12.957,28.965,28.967
		s-12.955,28.965-28.965,28.965s-28.966-12.955-28.966-28.965S52.941,992.347,68.951,992.347z"/>
	<path fill="#FFFFFF" d="M32.5,952.395c-8.512-0.395-17.067,2.714-23.412,9.062c-10.152,10.157-12.014,25.97-4.495,38.205
		c7.519,12.236,22.465,17.722,36.113,13.255c0.548-0.177,0.849-0.764,0.673-1.312c-0.177-0.548-0.764-0.849-1.312-0.672
		c-0.003,0.001-0.007,0.002-0.009,0.003c-12.744,4.171-26.672-0.94-33.691-12.364c-7.02-11.425-5.285-26.158,4.193-35.642
		c9.479-9.484,24.211-11.225,35.639-4.211c11.427,7.015,16.544,20.938,12.38,33.684c-0.18,0.547,0.117,1.136,0.664,1.315
		s1.135-0.118,1.316-0.664c0-0.001,0-0.002,0-0.003c4.461-13.651-1.031-28.594-13.27-36.105
		C42.701,954.13,37.608,952.632,32.5,952.395z"/>
	<path fill="#FFFFFF" d="M26.452,969.867l-8.943,8.943v18.14h1.041h17.098l8.944-8.943v-18.14H26.452z M27.315,971.951h15.193
		v15.193l-7.724,7.723H19.591v-15.193L27.315,971.951z"/>
	<path fill="#FFFFFF" d="M42.812,970.174l-8.027,8.026H18.549v2.084h17.098l8.638-8.638L42.812,970.174z"/>
	<path fill="#FFFFFF" d="M34.174,979.242v16.667h2.084v-16.667H34.174z"/>
</g>
</svg>
