<?xml version="1.0" encoding="utf-8"?>
<!-- Generator: Adobe Illustrator 15.0.0, SVG Export Plug-In . SVG Version: 6.00 Build 0)  -->
<!DOCTYPE svg PUBLIC "-//W3C//DTD SVG 1.1//EN" "http://www.w3.org/Graphics/SVG/1.1/DTD/svg11.dtd">
<svg version="1.1" id="Layer_1" xmlns="http://www.w3.org/2000/svg" xmlns:xlink="http://www.w3.org/1999/xlink" x="0px" y="0px"
	 width="267.092px" height="75.722px" viewBox="-55.723 -13.89 267.092 75.722"
	 enable-background="new -55.723 -13.89 267.092 75.722" xml:space="preserve">
<g>
	<rect x="-40.739" y="13.326" fill="#5F84C3" width="0.554" height="0.554"/>
	<path fill="#5F84C3" d="M-40.184,2.814v1.037h-0.554V2.814H-40.184z M-40.184,4.923V5.96h-0.554V4.923H-40.184z M-40.184,7.033
		V8.07h-0.554V7.033H-40.184z M-40.184,9.107v1.037h-0.554V9.107H-40.184z M-40.184,11.217v1.037h-0.554v-1.037H-40.184z"/>
	<rect x="-40.739" y="1.224" fill="#5F84C3" width="0.554" height="0.553"/>
	<rect x="-42.017" y="14.398" fill="#5F84C3" width="2.939" height="0.553"/>
	<rect x="-42.017" y="0.221" fill="#5F84C3" width="2.939" height="0.554"/>
	<path fill="#5F84C3" d="M-48.216,2.248c0.721,1.824,0.413,2.986,1.705,2.047c1.214-0.885,0.037-5.312-0.729-6.584l0.03-0.607
		c0,0,0.883-0.885,2.838-0.769c1.955,0.116,10.722-0.3,10.722-0.3c0.698-0.014,1.254-0.542,1.245-1.181
		c-0.011-0.64-0.586-1.147-1.285-1.136l-9.737,0.172l-0.008-0.463l11.253,0.027c0.697-0.011,1.255-0.539,1.243-1.18
		c-0.011-0.639-0.588-1.146-1.286-1.136l-11.252,0.2l-0.009-0.236l9.736-0.174c0.697-0.01,1.256-0.538,1.244-1.18
		c-0.009-0.639-0.586-1.146-1.285-1.135L-44.285-11.2l-0.01-0.463l5.943-0.105c0.699-0.013,1.255-0.232,1.243-0.871
		c-0.011-0.639-0.585-1.147-1.662-1.128l-10.494-0.123c-3.292,0.06-6.521,2.896-6.457,6.604c0.067,3.709,0.829,4.45,3.827,5.834
		l2.47,1.771L-48.216,2.248z"/>
	<path fill="#5F84C3" d="M-32.198,13.304c-0.72-1.824-0.34-2.728-1.704-2.387c-1.681,0.42-0.323,5.19,0,6.479
		c0,0-0.004,0.229-0.682,0.682c-0.679,0.452-2.137,0.458-2.137,0.458l-10.723,0.3c-0.699,0.013-1.255,0.54-1.244,1.18
		c0.011,0.64,0.586,1.147,1.284,1.136l9.736-0.173l0.009,0.236l-11.253,0.198c-0.699,0.014-1.257,0.543-1.245,1.18
		c0.012,0.641,0.588,1.149,1.286,1.137l11.253-0.199l0.008,0.236l-9.736,0.172c-0.698,0.012-1.255,0.541-1.243,1.18
		c0.011,0.639,0.585,1.148,1.284,1.135l10.495-0.186l0.009,0.465l-5.944-0.123c-0.699,0.012-1.255,0.541-1.243,1.18
		c0.012,0.641,0.834,0.92,1.912,0.902l10.247,0.27c3.293-0.061,6.521-2.67,6.456-6.379c-0.232-2.828-0.57-3.17-3.642-5.215
		c0,0-1.477-1.135-2.158-1.816C-31.857,14.669-32.198,13.304-32.198,13.304z"/>
</g>
<g>
	<path fill="#5F84C3" d="M-44.9,46.693h-0.053c-0.516,0-0.924-0.204-1.226-0.613l-3.812-5.331v11.223c0,0.409-0.146,0.756-0.44,1.04
		c-0.293,0.284-0.645,0.426-1.053,0.426c-0.409,0-0.756-0.142-1.04-0.426c-0.285-0.284-0.427-0.631-0.427-1.04V36.244
		c0-0.408,0.142-0.755,0.427-1.039c0.284-0.284,0.63-0.427,1.04-0.427h0.08c0.515,0,0.906,0.204,1.173,0.613l5.305,7.356
		l5.304-7.356c0.302-0.409,0.702-0.613,1.2-0.613h0.027c0.408,0.018,0.759,0.169,1.053,0.453s0.44,0.622,0.44,1.013v15.728
		c0,0.392-0.146,0.733-0.44,1.026s-0.645,0.439-1.053,0.439c-0.409,0-0.756-0.142-1.04-0.426c-0.285-0.284-0.427-0.631-0.427-1.04
		V40.749L-43.7,46.08C-44.003,46.489-44.403,46.693-44.9,46.693z"/>
	<path opacity="0.5" fill="#5F84C3" d="M-19.07,46.4v0.106c-0.036,0.214-0.143,0.32-0.32,0.32h-11.623v0.08
		c0,1.599,0.556,2.972,1.666,4.118c1.111,1.146,2.448,1.729,4.012,1.746c0.977,0,1.879-0.24,2.706-0.72
		c0.826-0.479,1.488-1.128,1.986-1.946c0.124-0.178,0.28-0.204,0.466-0.08c0.187,0.125,0.218,0.276,0.093,0.453
		c-0.569,0.889-1.319,1.604-2.252,2.146c-0.933,0.542-1.933,0.812-2.999,0.812c-1.742-0.018-3.226-0.662-4.452-1.933
		c-1.227-1.271-1.857-2.803-1.893-4.598c0.035-1.813,0.666-3.354,1.893-4.625c1.226-1.271,2.688-1.906,4.385-1.906
		c1.697,0,3.146,0.578,4.345,1.732C-19.856,43.264-19.194,44.694-19.07,46.4z M-21.602,42.535c-1.066-0.977-2.315-1.466-3.746-1.466
		c-1.431,0-2.684,0.489-3.758,1.466c-1.076,0.978-1.702,2.195-1.879,3.652h11.249C-19.914,44.73-20.536,43.513-21.602,42.535z"/>
	<path opacity="0.5" fill="#5F84C3" d="M-9.42,40.376c0.231,0,0.347,0.111,0.347,0.333c0,0.223-0.116,0.334-0.347,0.334h-2.132
		v10.396c0,0.373,0.133,0.693,0.4,0.96s0.55,0.399,0.853,0.399s0.454,0.111,0.454,0.333c0,0.223-0.116,0.334-0.347,0.334
		c-0.551,0-1.026-0.2-1.426-0.601c-0.4-0.399-0.6-0.875-0.6-1.426V41.043h-2.239c-0.231,0-0.347-0.111-0.347-0.334
		c0-0.222,0.116-0.333,0.347-0.333h2.239v-5.225c0-0.23,0.111-0.347,0.333-0.347s0.333,0.116,0.333,0.347v5.225H-9.42z"/>
	<path opacity="0.5" fill="#5F84C3" d="M3.908,41.069c-2.63,0-4.638,1.973-6.024,5.917v6.104c0,0.231-0.106,0.347-0.32,0.347
		s-0.32-0.115-0.32-0.347v-6.104c-0.018-0.035-0.018-0.088,0-0.159v-6.104c0-0.089,0.031-0.169,0.093-0.24
		c0.062-0.07,0.137-0.106,0.227-0.106c0.213,0,0.32,0.116,0.32,0.347v4.425c0.249-0.586,0.524-1.102,0.826-1.546
		c1.439-2.15,3.172-3.226,5.198-3.226c0.23,0,0.347,0.116,0.347,0.347C4.255,40.954,4.138,41.069,3.908,41.069z"/>
	<path opacity="0.5" fill="#5F84C3" d="M8.946,37.15v-0.64c0-0.23,0.111-0.347,0.333-0.347s0.333,0.116,0.333,0.347v0.64
		c0,0.09-0.031,0.165-0.093,0.227c-0.062,0.062-0.138,0.094-0.227,0.094C9.061,37.471,8.946,37.364,8.946,37.15z M8.946,53.091
		V40.696c0-0.214,0.111-0.32,0.333-0.32s0.333,0.106,0.333,0.32v12.395c0,0.09-0.031,0.169-0.093,0.24s-0.138,0.106-0.227,0.106
		C9.061,53.438,8.946,53.322,8.946,53.091z"/>
	<path opacity="0.5" fill="#5F84C3" d="M17.449,51.505c-1.315-1.271-1.973-2.803-1.973-4.598s0.657-3.332,1.973-4.612
		c1.315-1.279,2.83-1.919,4.545-1.919s3.167,0.472,4.358,1.413c0.142,0.143,0.155,0.298,0.04,0.467
		c-0.116,0.169-0.271,0.19-0.466,0.066c-1.102-0.854-2.422-1.279-3.958-1.279c-1.538,0-2.893,0.572-4.065,1.719
		s-1.759,2.528-1.759,4.146s0.586,2.999,1.759,4.145c1.173,1.146,2.604,1.72,4.292,1.72c1.35,0,2.594-0.436,3.732-1.307
		c0.16-0.106,0.306-0.075,0.439,0.094s0.129,0.324-0.013,0.467c-1.226,0.941-2.612,1.412-4.158,1.412
		C20.345,53.42,18.764,52.775,17.449,51.505z"/>
	<path opacity="0.5" fill="#5F84C3" d="M35.842,53.438c-0.818,0-1.644-0.16-2.479-0.479c-1.12-0.444-1.929-0.915-2.426-1.413
		c-0.106-0.106-0.138-0.222-0.093-0.347c0.044-0.124,0.12-0.204,0.227-0.239c0.106-0.035,0.213-0.005,0.32,0.093
		c0.106,0.099,0.307,0.253,0.6,0.467c0.293,0.213,0.822,0.476,1.586,0.786c0.764,0.312,1.519,0.467,2.266,0.467
		c1.19,0,2.208-0.302,3.052-0.906c0.844-0.604,1.266-1.333,1.266-2.186c0-0.676-0.205-1.191-0.613-1.547
		c-0.444-0.391-0.897-0.666-1.359-0.826c-0.622-0.195-1.262-0.368-1.919-0.52c-0.657-0.15-1.124-0.262-1.399-0.333
		s-0.658-0.209-1.146-0.413c-0.489-0.205-0.849-0.414-1.08-0.627c-0.622-0.568-0.933-1.283-0.933-2.146s0.404-1.604,1.213-2.226
		c0.809-0.622,1.693-0.934,2.652-0.934s1.777,0.143,2.453,0.427c0.959,0.391,1.572,0.782,1.839,1.173
		c0.089,0.089,0.107,0.195,0.054,0.32c-0.054,0.124-0.138,0.199-0.253,0.227c-0.116,0.026-0.218-0.005-0.307-0.094
		c-0.906-0.906-2.079-1.359-3.519-1.359c-0.942,0-1.75,0.24-2.426,0.72s-1.013,1.066-1.013,1.759c0,0.906,0.409,1.556,1.227,1.946
		c0.64,0.32,1.39,0.578,2.252,0.773c0.862,0.195,1.448,0.337,1.759,0.426c0.311,0.09,0.702,0.227,1.173,0.413
		c0.471,0.188,0.831,0.396,1.08,0.627c0.64,0.586,0.959,1.364,0.959,2.332c0,0.969-0.484,1.817-1.453,2.546
		C38.432,53.074,37.246,53.438,35.842,53.438z"/>
</g>
</svg>
