<?xml version="1.0" encoding="utf-8"?>
<!-- Generator: Adobe Illustrator 15.0.0, SVG Export Plug-In . SVG Version: 6.00 Build 0)  -->
<!DOCTYPE svg PUBLIC "-//W3C//DTD SVG 1.1//EN" "http://www.w3.org/Graphics/SVG/1.1/DTD/svg11.dtd">
<svg version="1.1" id="Layer_1" xmlns="http://www.w3.org/2000/svg" xmlns:xlink="http://www.w3.org/1999/xlink" x="0px" y="0px"
	 width="267.092px" height="75.722px" viewBox="-55.723 -13.89 267.092 75.722"
	 enable-background="new -55.723 -13.89 267.092 75.722" xml:space="preserve">
<g>
	<path fill="#5F84C3" d="M-40.501,35.217c0.284,0.284,0.426,0.631,0.426,1.039c0,0.409-0.146,0.76-0.44,1.053
		c-0.293,0.293-0.636,0.44-1.026,0.44h-4.238v14.234c0,0.409-0.143,0.755-0.426,1.039c-0.285,0.285-0.631,0.427-1.04,0.427
		c-0.409,0-0.756-0.142-1.04-0.427c-0.284-0.284-0.426-0.63-0.426-1.039V37.749h-4.211c-0.409,0-0.756-0.147-1.04-0.44
		s-0.426-0.644-0.426-1.053c0-0.408,0.142-0.755,0.426-1.039s0.631-0.427,1.04-0.427h11.382
		C-41.133,34.79-40.786,34.933-40.501,35.217z"/>
	<path opacity="0.5" fill="#5F84C3" d="M-25.734,40.734c0-0.23,0.11-0.347,0.333-0.347c0.222,0,0.333,0.116,0.333,0.347v12.368
		c0,0.231-0.111,0.347-0.333,0.347c-0.223,0-0.333-0.115-0.333-0.347v-3.252c-0.516,1.084-1.267,1.955-2.253,2.612
		c-0.986,0.658-2.065,0.986-3.239,0.986c-1.706,0-3.159-0.64-4.358-1.919c-1.2-1.279-1.799-2.816-1.799-4.612
		c0-1.794,0.6-3.332,1.799-4.611c1.199-1.279,2.652-1.919,4.358-1.919c1.173,0,2.252,0.329,3.239,0.986s1.737,1.528,2.253,2.612
		V40.734z M-35.104,51.063c1.075,1.146,2.368,1.72,3.878,1.72s2.803-0.573,3.879-1.72c1.075-1.146,1.613-2.527,1.613-4.146
		c0-1.616-0.538-2.994-1.613-4.131c-1.076-1.138-2.369-1.706-3.879-1.706s-2.803,0.568-3.878,1.706
		c-1.075,1.137-1.613,2.515-1.613,4.131C-36.717,48.536-36.179,49.917-35.104,51.063z"/>
	<path opacity="0.5" fill="#5F84C3" d="M-12.779,41.081c-2.63,0-4.638,1.973-6.024,5.917v6.104c0,0.231-0.107,0.347-0.32,0.347
		c-0.213,0-0.32-0.115-0.32-0.347v-6.104c-0.018-0.035-0.018-0.088,0-0.159v-6.104c0-0.089,0.031-0.169,0.093-0.24
		c0.062-0.07,0.137-0.106,0.227-0.106c0.213,0,0.32,0.116,0.32,0.347v4.425c0.249-0.587,0.524-1.102,0.826-1.546
		c1.439-2.15,3.172-3.226,5.198-3.226c0.23,0,0.346,0.116,0.346,0.347S-12.549,41.081-12.779,41.081z"/>
	<path opacity="0.5" fill="#5F84C3" d="M3.321,40.388c0.231,0,0.347,0.116,0.347,0.347v11.969c0,1.706-0.6,3.163-1.799,4.371
		c-1.2,1.209-2.652,1.812-4.358,1.812c-0.906,0-1.812-0.213-2.719-0.639c-0.178-0.125-0.223-0.271-0.133-0.44
		c0.089-0.169,0.24-0.227,0.453-0.173c0.782,0.391,1.582,0.586,2.399,0.586c1.528-0.035,2.826-0.586,3.892-1.652
		c1.066-1.066,1.599-2.355,1.599-3.865v-2.853c-0.498,1.066-1.244,1.933-2.239,2.599c-0.995,0.667-2.079,1-3.252,1
		c-1.706,0-3.159-0.64-4.358-1.919c-1.199-1.279-1.799-2.816-1.799-4.612c0-1.794,0.6-3.332,1.799-4.611
		c1.2-1.279,2.652-1.919,4.358-1.919c1.173,0,2.257,0.329,3.252,0.986s1.742,1.52,2.239,2.586v-3.226
		c0-0.089,0.031-0.169,0.093-0.24C3.156,40.424,3.232,40.388,3.321,40.388z M1.388,51.051c1.075-1.138,1.613-2.515,1.613-4.133
		c0-1.616-0.538-2.998-1.613-4.145s-2.368-1.72-3.878-1.72c-1.511,0-2.803,0.573-3.878,1.72s-1.613,2.528-1.613,4.145
		c0,1.618,0.538,2.995,1.613,4.133c1.075,1.137,2.368,1.705,3.878,1.705C-0.98,52.756,0.313,52.188,1.388,51.051z"/>
	<path opacity="0.5" fill="#5F84C3" d="M21.501,46.412v0.106c-0.036,0.214-0.143,0.32-0.32,0.32H9.558v0.079
		c0,1.6,0.555,2.973,1.666,4.119c1.11,1.146,2.448,1.729,4.012,1.746c0.978,0,1.879-0.24,2.706-0.72
		c0.826-0.48,1.488-1.129,1.986-1.946c0.124-0.178,0.28-0.204,0.466-0.08c0.187,0.125,0.217,0.275,0.093,0.453
		c-0.569,0.889-1.319,1.604-2.252,2.146s-1.933,0.812-2.999,0.812c-1.742-0.018-3.225-0.662-4.451-1.933
		c-1.227-1.271-1.857-2.803-1.893-4.599c0.035-1.812,0.666-3.354,1.893-4.624c1.226-1.271,2.688-1.906,4.385-1.906
		c1.697,0,3.146,0.577,4.345,1.732C20.714,43.275,21.376,44.706,21.501,46.412z M18.968,42.547
		c-1.066-0.978-2.315-1.466-3.745-1.466c-1.431,0-2.684,0.488-3.758,1.466c-1.076,0.978-1.702,2.195-1.879,3.652h11.249
		C20.656,44.742,20.034,43.524,18.968,42.547z"/>
	<path opacity="0.5" fill="#5F84C3" d="M30.084,40.388c0.231,0,0.347,0.111,0.347,0.333c0,0.223-0.116,0.333-0.347,0.333h-2.132
		V51.45c0,0.373,0.133,0.693,0.4,0.96c0.267,0.266,0.55,0.399,0.853,0.399s0.454,0.111,0.454,0.333c0,0.223-0.116,0.333-0.347,0.333
		c-0.551,0-1.026-0.199-1.426-0.6c-0.4-0.399-0.6-0.875-0.6-1.426V41.054h-2.239c-0.231,0-0.347-0.11-0.347-0.333
		c0-0.222,0.116-0.333,0.347-0.333h2.239v-5.225c0-0.23,0.111-0.347,0.333-0.347s0.333,0.116,0.333,0.347v5.225H30.084z"/>
	<path opacity="0.5" fill="#5F84C3" d="M59.939,53.103V36.149l-6.797,9.463c-0.089,0.089-0.187,0.134-0.293,0.134h-0.053
		c-0.143,0-0.24-0.045-0.293-0.134l-6.824-9.489v16.979c0,0.231-0.111,0.347-0.333,0.347s-0.333-0.115-0.333-0.347V35.163
		c0-0.089,0.035-0.169,0.106-0.24c0.071-0.07,0.142-0.106,0.213-0.106c0.106,0,0.222,0.045,0.347,0.133l7.144,9.917l7.144-9.917
		c0.089-0.088,0.187-0.133,0.293-0.133c0.23,0,0.347,0.116,0.347,0.347v17.939c0,0.231-0.116,0.347-0.347,0.347
		c-0.089,0-0.165-0.035-0.227-0.106C59.969,53.271,59.939,53.191,59.939,53.103z"/>
	<path opacity="0.5" fill="#5F84C3" d="M77.452,40.734c0-0.23,0.11-0.347,0.333-0.347c0.222,0,0.333,0.116,0.333,0.347v12.368
		c0,0.231-0.111,0.347-0.333,0.347c-0.223,0-0.333-0.115-0.333-0.347v-3.252c-0.516,1.084-1.267,1.955-2.253,2.612
		c-0.986,0.658-2.065,0.986-3.238,0.986c-1.706,0-3.159-0.64-4.358-1.919c-1.2-1.279-1.799-2.816-1.799-4.612
		c0-1.794,0.6-3.332,1.799-4.611c1.199-1.279,2.652-1.919,4.358-1.919c1.173,0,2.252,0.329,3.238,0.986
		c0.986,0.657,1.737,1.528,2.253,2.612V40.734z M68.082,51.063c1.075,1.146,2.368,1.72,3.879,1.72c1.51,0,2.803-0.573,3.878-1.72
		c1.075-1.146,1.613-2.527,1.613-4.146c0-1.616-0.538-2.994-1.613-4.131c-1.076-1.138-2.369-1.706-3.878-1.706
		c-1.511,0-2.804,0.568-3.879,1.706c-1.075,1.137-1.612,2.515-1.612,4.131C66.469,48.536,67.007,49.917,68.082,51.063z"/>
	<path opacity="0.5" fill="#5F84C3" d="M90.406,41.081c-2.63,0-4.638,1.973-6.024,5.917v6.104c0,0.231-0.106,0.347-0.319,0.347
		c-0.214,0-0.32-0.115-0.32-0.347v-6.104c-0.018-0.035-0.018-0.088,0-0.159v-6.104c0-0.089,0.031-0.169,0.094-0.24
		c0.062-0.07,0.138-0.106,0.227-0.106c0.213,0,0.319,0.116,0.319,0.347v4.425c0.249-0.587,0.524-1.102,0.827-1.546
		c1.439-2.15,3.172-3.226,5.197-3.226c0.231,0,0.347,0.116,0.347,0.347S90.637,41.081,90.406,41.081z"/>
	<path opacity="0.5" fill="#5F84C3" d="M95.418,53.103V35.137c0-0.231,0.115-0.347,0.347-0.347c0.089,0,0.164,0.036,0.227,0.106
		c0.062,0.071,0.093,0.151,0.093,0.24v13.834l8.584-8.583c0.142-0.142,0.297-0.138,0.466,0.014s0.174,0.306,0.014,0.466
		l-5.411,5.412l5.411,6.584c0.089,0.106,0.103,0.23,0.04,0.373s-0.155,0.213-0.28,0.213c-0.124,0-0.213-0.044-0.267-0.133
		l-5.411-6.531l-3.065,3.065c-0.035,0.036-0.062,0.054-0.08,0.054v3.198c0,0.089-0.031,0.169-0.093,0.24
		c-0.062,0.071-0.138,0.106-0.227,0.106C95.533,53.449,95.418,53.334,95.418,53.103z"/>
	<path opacity="0.5" fill="#5F84C3" d="M122.02,46.412v0.106c-0.035,0.214-0.142,0.32-0.319,0.32h-11.622v0.079
		c0,1.6,0.555,2.973,1.666,4.119c1.11,1.146,2.447,1.729,4.012,1.746c0.977,0,1.879-0.24,2.705-0.72
		c0.827-0.48,1.488-1.129,1.986-1.946c0.124-0.178,0.28-0.204,0.467-0.08c0.187,0.125,0.217,0.275,0.093,0.453
		c-0.568,0.889-1.319,1.604-2.252,2.146c-0.934,0.542-1.933,0.812-2.999,0.812c-1.742-0.018-3.226-0.662-4.452-1.933
		c-1.226-1.271-1.856-2.803-1.893-4.599c0.036-1.812,0.667-3.354,1.893-4.624c1.227-1.271,2.688-1.906,4.386-1.906
		c1.696,0,3.146,0.577,4.345,1.732S121.896,44.706,122.02,46.412z M119.488,42.547c-1.065-0.978-2.314-1.466-3.745-1.466
		s-2.684,0.488-3.759,1.466s-1.701,2.195-1.879,3.652h11.249C121.177,44.742,120.554,43.524,119.488,42.547z"/>
	<path opacity="0.5" fill="#5F84C3" d="M130.604,40.388c0.23,0,0.346,0.111,0.346,0.333c0,0.223-0.115,0.333-0.346,0.333h-2.133
		V51.45c0,0.373,0.133,0.693,0.399,0.96c0.267,0.266,0.551,0.399,0.854,0.399c0.302,0,0.453,0.111,0.453,0.333
		c0,0.223-0.116,0.333-0.347,0.333c-0.551,0-1.026-0.199-1.426-0.6c-0.4-0.399-0.6-0.875-0.6-1.426V41.054h-2.239
		c-0.231,0-0.347-0.11-0.347-0.333c0-0.222,0.115-0.333,0.347-0.333h2.239v-5.225c0-0.23,0.11-0.347,0.333-0.347
		c0.222,0,0.333,0.116,0.333,0.347v5.225H130.604z"/>
</g>
<g>
	<polygon fill="#5F84C3" points="-43.774,-13.89 -55.723,-13.89 -55.723,-1.941 -51.029,-1.941 -51.029,-9.195 -43.774,-9.195 	"/>
	<polygon fill="#5F84C3" points="-43.774,28.785 -55.723,28.785 -55.723,16.835 -51.029,16.835 -51.029,24.09 -43.774,24.09 	"/>
	<polygon fill="#5F84C3" points="-24.998,-13.89 -13.05,-13.89 -13.05,-1.941 -17.743,-1.941 -17.743,-9.195 -24.998,-9.195 	"/>
	<polygon fill="#5F84C3" points="-24.998,28.785 -13.05,28.785 -13.05,16.835 -17.743,16.835 -17.743,24.09 -24.998,24.09 	"/>
</g>
</svg>
