<?xml version="1.0" encoding="utf-8"?>
<!-- Generator: Adobe Illustrator 15.0.0, SVG Export Plug-In . SVG Version: 6.00 Build 0)  -->
<!DOCTYPE svg PUBLIC "-//W3C//DTD SVG 1.1//EN" "http://www.w3.org/Graphics/SVG/1.1/DTD/svg11.dtd">
<svg version="1.1"
	 id="svg7226" inkscape:version="0.48.3.1 r9886" xmlns:svg="http://www.w3.org/2000/svg" xmlns:rdf="http://www.w3.org/1999/02/22-rdf-syntax-ns#" xmlns:cc="http://creativecommons.org/ns#" xmlns:dc="http://purl.org/dc/elements/1.1/" xmlns:inkscape="http://www.inkscape.org/namespaces/inkscape" sodipodi:docname="Create a project&apos;s logo.svg" xmlns:sodipodi="http://sodipodi.sourceforge.net/DTD/sodipodi-0.dtd"
	 xmlns="http://www.w3.org/2000/svg" xmlns:xlink="http://www.w3.org/1999/xlink" x="0px" y="0px" width="100px" height="100px"
	 viewBox="-40 -36.665 100 100" enable-background="new -40 -36.665 100 100" xml:space="preserve">
<sodipodi:namedview  showgrid="false" inkscape:current-layer="svg7226" bordercolor="#666666" id="namedview9" inkscape:window-maximized="1" inkscape:pageshadow="2" borderopacity="1" inkscape:window-width="1440" inkscape:window-y="27" inkscape:cy="-4.5902967" inkscape:pageopacity="0" inkscape:cx="54.97322" inkscape:window-height="841" objecttolerance="10" inkscape:zoom="4.4244469" inkscape:window-x="0" gridtolerance="10" guidetolerance="10" pagecolor="#ffffff">
	</sodipodi:namedview>
<path id="path3062" inkscape:connector-curvature="0" fill="#FFFFFF" d="M59.976,3.095c-0.005-0.093-0.029-0.181-0.059-0.266
	c-0.024-0.059-0.044-0.115-0.073-0.168c-0.044-0.083-0.107-0.156-0.171-0.225c-0.029-0.032-0.044-0.073-0.078-0.103
	c-0.015-0.01-0.034-0.012-0.044-0.022c-0.078-0.059-0.176-0.098-0.269-0.134c-0.054-0.022-0.098-0.054-0.151-0.066
	c-0.01-0.002-0.02-0.01-0.029-0.012L10.217-7.676c-0.144-0.029-0.295-0.029-0.439,0l-48.882,9.778
	c-0.01,0.002-0.017,0.01-0.029,0.012c-0.051,0.012-0.098,0.044-0.149,0.063c-0.098,0.039-0.19,0.076-0.269,0.137
	c-0.015,0.01-0.029,0.01-0.044,0.022c-0.034,0.027-0.049,0.071-0.078,0.1c-0.068,0.071-0.127,0.142-0.173,0.225
	c-0.032,0.056-0.051,0.11-0.071,0.171c-0.029,0.085-0.051,0.171-0.059,0.266C-39.98,3.132-40,3.161-40,3.198v16.231
	c0,0.498,0.332,0.938,0.813,1.074L9.697,34.325C9.797,34.351,9.9,34.37,10,34.37s0.205-0.016,0.303-0.045l48.887-13.822
	C59.668,20.366,60,19.927,60,19.429V3.195C60,3.161,59.98,3.132,59.976,3.095z M8.882,31.772l-46.65-13.189V4.55l46.65,9.028V31.772
	z M10,11.518l-43.098-8.34L9.998-5.442l43.098,8.621L10,11.518z M57.764,18.583L11.115,31.772V13.579L57.764,4.55V18.583z"/>
</svg>
