<?xml version="1.0" encoding="utf-8"?>
<!-- Generator: Adobe Illustrator 15.0.0, SVG Export Plug-In . SVG Version: 6.00 Build 0)  -->
<!DOCTYPE svg PUBLIC "-//W3C//DTD SVG 1.1//EN" "http://www.w3.org/Graphics/SVG/1.1/DTD/svg11.dtd">
<svg version="1.1"
	 id="svg7226" xmlns:rdf="http://www.w3.org/1999/02/22-rdf-syntax-ns#" xmlns:svg="http://www.w3.org/2000/svg" xmlns:cc="http://creativecommons.org/ns#" xmlns:dc="http://purl.org/dc/elements/1.1/"
	 xmlns="http://www.w3.org/2000/svg" xmlns:xlink="http://www.w3.org/1999/xlink" x="0px" y="0px" width="100px" height="100px"
	 viewBox="-40 -36.665 100 100" enable-background="new -40 -36.665 100 100" xml:space="preserve">
<g id="g3049" transform="matrix(0.09559336,0,0,0.09559336,128.59748,-13.762703)">
</g>
<g id="g3048" transform="matrix(0.54137679,0,0,0.54137679,-54.563513,3.1897493)">
	<path id="path2998" fill="#FFFFFF" d="M102.342,61.273c-0.063,0.054-0.108,0.126-0.171,0.198L80.598,82.673
		c-3.527,3.472-8.199,5.348-13.141,5.312c-4.947-0.045-9.578-2.02-13.046-5.538c-7.152-7.288-7.049-19.029,0.234-26.19
		l21.579-21.204c0.063-0.063,0.14-0.099,0.207-0.171l25.65-25.204c-3.987-1.339-8.189-2.115-12.527-2.156
		c-10.882-0.095-21.146,4.054-28.902,11.675L39.07,40.402c-16.023,15.739-16.253,41.586-0.505,57.613
		c7.62,7.766,17.826,12.104,28.703,12.194c10.877,0.09,21.15-4.059,28.91-11.68l21.574-21.204
		c7.766-7.628,12.095-17.829,12.185-28.697c0.036-4.347-0.667-8.55-1.93-12.573L102.342,61.273L102.342,61.273z"/>
	<path id="path3000" fill="#FFFFFF" d="M199.933-60.545c-7.639-7.76-17.831-12.089-28.706-12.184
		c-10.877-0.095-21.141,4.054-28.916,11.684L120.743-39.85c-11.275,11.076-14.689,27.134-10.265,41.276l25.637-25.19
		c0.081-0.077,0.117-0.167,0.198-0.234l21.583-21.2c3.527-3.468,8.189-5.353,13.141-5.308c4.941,0.041,9.568,2.011,13.04,5.538
		s5.348,8.189,5.312,13.141c-0.054,4.943-2.02,9.578-5.538,13.046L162.28,2.413c-0.063,0.059-0.126,0.095-0.189,0.153
		l-25.669,25.227c3.987,1.335,8.18,2.111,12.519,2.147c10.886,0.09,21.15-4.05,28.907-11.675l21.581-21.2
		c7.757-7.625,12.086-17.821,12.185-28.698C211.703-42.52,207.555-52.788,199.933-60.545L199.933-60.545z"/>
	<path id="path3002" fill="#FFFFFF" d="M158.42-19.764c4.383,4.456,3.716,12.217-1.497,17.33l-59.5,58.458
		c-5.199,5.123-12.978,5.664-17.361,1.209l0,0c-4.37-4.456-3.693-12.212,1.511-17.335l59.495-58.462
		C146.28-23.679,154.045-24.22,158.42-19.764L158.42-19.764z"/>
</g>
</svg>
