<?xml version="1.0" encoding="UTF-8" standalone="no"?>
<!-- Created with Inkscape (http://www.inkscape.org/) -->

<svg
   xmlns:dc="http://purl.org/dc/elements/1.1/"
   xmlns:cc="http://creativecommons.org/ns#"
   xmlns:rdf="http://www.w3.org/1999/02/22-rdf-syntax-ns#"
   xmlns:svg="http://www.w3.org/2000/svg"
   xmlns="http://www.w3.org/2000/svg"
   version="1.1"
   width="150"
   height="197.60001"
   id="svg7156">
  <defs
     id="defs7158" />
  <metadata
     id="metadata7161">
    <rdf:RDF>
      <cc:Work
         rdf:about="">
        <dc:format>image/svg+xml</dc:format>
        <dc:type
           rdf:resource="http://purl.org/dc/dcmitype/StillImage" />
        <dc:title></dc:title>
      </cc:Work>
    </rdf:RDF>
  </metadata>
  <g
     transform="translate(0,-1907.1244)"
     id="layer1">
    <g
       transform="matrix(1.0078545,0,0,-1.0078545,120.8095,46.009566)"
       id="g56-9-5"
       style="fill:#e4736e;fill-opacity:1;display:inline;filter:url(#filter3974-9)">
      <path
         d="m 0,0 -47.774,-10.181 c -0.117,0.14 -0.233,0.278 -0.357,0.415 -2.906,3.22 -7.204,4.438 -11.158,3.564 l -33.049,36.66 c -12.859,14.266 -27.53,15.193 -27.53,15.193 l 19.894,-22.079 32.653,-36.219 c -1.908,-4.102 -1.311,-9.123 1.911,-12.696 0.069,-0.077 0.139,-0.153 0.211,-0.226 l -0.085,0.028 -15.269,-47.066 c -5.928,-18.272 -0.892,-30.954 -0.892,-30.954 l 8.986,28.273 7.855,24.775 0,-99.914 13.853,0 0,124.144 c 0,0.028 0.898,0.055 0.932,0.083 2.286,2.064 3.981,4.831 4.22,7.677 L 1.603,-8.511 c 18.783,4.007 27.36,14.702 27.36,14.702 L 0,0 z"
         id="path58-2-09"
         style="fill:#e4736e;fill-opacity:1;fill-rule:nonzero;stroke:none" />
    </g>
    <g
       transform="matrix(1.0078545,0,0,-1.0078545,120.8095,1953.134)"
       id="g56-9-5-9"
       style="fill:#e4736e;fill-opacity:1;display:inline;filter:url(#filter3974-9)">
      <path
         d="m 0,0 -47.774,-10.181 c -0.117,0.14 -0.233,0.278 -0.357,0.415 -2.906,3.22 -7.204,4.438 -11.158,3.564 l -33.049,36.66 c -12.859,14.266 -27.53,15.193 -27.53,15.193 l 19.894,-22.079 32.653,-36.219 c -1.908,-4.102 -1.311,-9.123 1.911,-12.696 0.069,-0.077 0.139,-0.153 0.211,-0.226 l -0.085,0.028 -15.269,-47.066 c -5.928,-18.272 -0.892,-30.954 -0.892,-30.954 l 8.986,28.273 7.855,24.775 0,-99.914 13.853,0 0,124.144 c 0,0.028 0.898,0.055 0.932,0.083 2.286,2.064 3.981,4.831 4.22,7.677 L 1.603,-8.511 c 18.783,4.007 27.36,14.702 27.36,14.702 L 0,0 z"
         id="path58-2-09-8"
         style="fill:#e4736e;fill-opacity:1;fill-rule:nonzero;stroke:none" />
    </g>
  </g>
</svg>
